<svg width="40" height="40" viewBox="0 0 40 40" fill="none" xmlns="http://www.w3.org/2000/svg">
<g clip-path="url(#clip0_3_279)">
<path d="M11.6667 40C13.5076 40 15 38.5076 15 36.6667C15 34.8257 13.5076 33.3333 11.6667 33.3333C9.82573 33.3333 8.33334 34.8257 8.33334 36.6667C8.33334 38.5076 9.82573 40 11.6667 40Z" fill="#D8CFCF"/>
<path d="M28.3333 40C30.1743 40 31.6666 38.5076 31.6666 36.6667C31.6666 34.8257 30.1743 33.3333 28.3333 33.3333C26.4924 33.3333 25 34.8257 25 36.6667C25 38.5076 26.4924 40 28.3333 40Z" fill="#D8CFCF"/>
<path d="M37.855 6.79503C37.3862 6.23243 36.7993 5.77995 36.1359 5.46973C35.4725 5.1595 34.749 4.99914 34.0167 5.00003H7.07L7 4.41503C6.85675 3.19906 6.27231 2.07792 5.35748 1.26416C4.44266 0.450401 3.26105 0.000598266 2.03667 2.86102e-05H1.66666C1.22464 2.86102e-05 0.800712 0.175623 0.488152 0.488184C0.175591 0.800745 0 1.22467 0 1.66669C0 2.10872 0.175591 2.53265 0.488152 2.84521C0.800712 3.15777 1.22464 3.33336 1.66666 3.33336H2.03667C2.44489 3.33342 2.83889 3.48329 3.14395 3.75456C3.44901 4.02582 3.6439 4.39961 3.69167 4.80503L5.985 24.305C6.22309 26.333 7.19746 28.203 8.72318 29.56C10.2489 30.9171 12.2198 31.6667 14.2617 31.6667H31.6666C32.1087 31.6667 32.5326 31.4911 32.8452 31.1785C33.1577 30.866 33.3333 30.442 33.3333 30C33.3333 29.558 33.1577 29.1341 32.8452 28.8215C32.5326 28.5089 32.1087 28.3334 31.6666 28.3334H14.2617C13.2301 28.3305 12.2247 28.0086 11.3832 27.4118C10.5418 26.815 9.90552 25.9726 9.56166 25H29.4283C31.3821 25.0001 33.2739 24.3137 34.773 23.0607C36.2722 21.8078 37.2834 20.0679 37.63 18.145L38.9383 10.8884C39.0689 10.1684 39.0396 9.42847 38.8523 8.72108C38.6651 8.0137 38.3246 7.35616 37.855 6.79503ZM35.6666 10.2967L34.3567 17.5534C34.1485 18.7084 33.5408 19.7533 32.6398 20.5054C31.7388 21.2574 30.6019 21.6685 29.4283 21.6667H9.03167L7.46333 8.33336H34.0167C34.2615 8.3319 34.5036 8.38439 34.7259 8.48711C34.9481 8.58984 35.145 8.74027 35.3025 8.9277C35.46 9.11514 35.5743 9.33498 35.6373 9.57159C35.7002 9.8082 35.7102 10.0558 35.6666 10.2967Z" fill="#D8CFCF"/>
<path d="M29.4283 15C29.4283 19.1421 26.0705 22.5 21.9283 22.5C17.7862 22.5 14.4283 19.1421 14.4283 15C14.4283 10.8579 17.7862 7.5 21.9283 7.5C26.0705 7.5 29.4283 10.8579 29.4283 15Z" fill="#1E1E1E"/>
<path d="M-36.99 -17.52C-37.5833 -17.52 -38.1033 -17.68 -38.55 -18C-38.9967 -18.32 -39.3467 -18.77 -39.6 -19.35C-39.8467 -19.93 -39.97 -20.6033 -39.97 -21.37C-39.97 -22.1433 -39.8467 -22.8167 -39.6 -23.39C-39.3533 -23.9633 -39.0067 -24.41 -38.56 -24.73C-38.1133 -25.05 -37.5933 -25.21 -37 -25.21C-36.3933 -25.21 -35.87 -25.05 -35.43 -24.73C-34.9833 -24.41 -34.6333 -23.96 -34.38 -23.38C-34.1267 -22.8067 -34 -22.1367 -34 -21.37C-34 -20.6033 -34.1267 -19.93 -34.38 -19.35C-34.6267 -18.7767 -34.9733 -18.3267 -35.42 -18C-35.8667 -17.68 -36.39 -17.52 -36.99 -17.52ZM-36.98 -18.76C-36.64 -18.76 -36.35 -18.8633 -36.11 -19.07C-35.87 -19.2833 -35.6867 -19.5833 -35.56 -19.97C-35.4267 -20.3633 -35.36 -20.83 -35.36 -21.37C-35.36 -21.91 -35.4267 -22.3733 -35.56 -22.76C-35.6867 -23.1533 -35.8733 -23.4533 -36.12 -23.66C-36.36 -23.8667 -36.6533 -23.97 -37 -23.97C-37.3333 -23.97 -37.62 -23.8667 -37.86 -23.66C-38.1 -23.4533 -38.2867 -23.1533 -38.42 -22.76C-38.5467 -22.3733 -38.61 -21.91 -38.61 -21.37C-38.61 -20.8367 -38.5467 -20.3733 -38.42 -19.98C-38.2867 -19.5933 -38.1 -19.2933 -37.86 -19.08C-37.6133 -18.8667 -37.32 -18.76 -36.98 -18.76Z" fill="#FFF4F4"/>
</g>
<defs>
<clipPath id="clip0_3_279">
<rect width="40" height="40" fill="white"/>
</clipPath>
</defs>
</svg>
