<svg width="50" height="51" viewBox="0 0 50 51" fill="none" xmlns="http://www.w3.org/2000/svg">
<path d="M50 50.1087H25.0128C20.1309 50.1064 15.3562 48.6838 11.277 46.016C7.19774 43.3482 3.99204 39.5519 2.05474 35.0945C0.117443 30.6371 -0.466839 25.7135 0.37386 20.9299C1.21456 16.1464 3.44352 11.7119 6.78621 8.17273C10.1289 4.63352 14.4393 2.14415 19.1865 1.01124C23.9337 -0.121676 28.9104 0.151349 33.5036 1.79668C38.0968 3.44202 42.1058 6.3878 45.0369 10.2712C47.9681 14.1546 49.6932 18.806 50 23.6525V50.1087ZM25.0128 4.47304C19.482 4.47304 14.1777 6.65851 10.2669 10.5487C6.35599 14.4388 4.15889 19.715 4.15889 25.2165C4.15889 30.718 6.35599 35.9942 10.2669 39.8844C14.1777 43.7746 19.482 45.96 25.0128 45.96H45.8292V23.8495C45.4716 18.5979 43.1239 13.677 39.2601 10.0805C35.3963 6.48398 30.3045 4.47992 25.0128 4.47304Z" fill="white"/>
<path d="M27.0607 14.8449H14.5483V18.9936H27.0607V14.8449Z" fill="white"/>
<path d="M35.4023 23.1423H14.5483V27.291H35.4023V23.1423Z" fill="white"/>
<path d="M35.4023 31.4396H14.5483V35.5883H35.4023V31.4396Z" fill="white"/>
</svg>
