<svg width="14" height="14" viewBox="0 0 14 14" fill="none" xmlns="http://www.w3.org/2000/svg">
<g clip-path="url(#clip0_5_132)">
<path d="M11.0833 1.91665H9.85833C9.72294 1.2583 9.36473 0.666765 8.84406 0.241732C8.3234 -0.183301 7.67212 -0.415839 7 -0.416687H2.91667C2.1434 -0.415761 1.40208 -0.108173 0.855295 0.438608C0.308514 0.985389 0.00092625 1.72672 0 2.49998L0 7.74998C0.00146639 8.27243 0.17823 8.77927 0.501979 9.18933C0.825728 9.59938 1.27773 9.88892 1.78558 10.0116C1.73061 10.3035 1.74001 10.6039 1.81311 10.8918C1.88622 11.1797 2.02127 11.4482 2.20885 11.6786C2.39643 11.9089 2.63201 12.0956 2.89916 12.2255C3.16631 12.3554 3.45859 12.4254 3.7556 12.4307C4.05261 12.436 4.3472 12.3764 4.61881 12.2561C4.89042 12.1358 5.1325 11.9577 5.32817 11.7342C5.52384 11.5107 5.66838 11.2472 5.7517 10.962C5.83502 10.6769 5.85511 10.377 5.81058 10.0833H8.19175C8.17674 10.1798 8.16875 10.2773 8.16783 10.375C8.16783 10.9165 8.38294 11.4358 8.76582 11.8187C9.14871 12.2015 9.66802 12.4166 10.2095 12.4166C10.751 12.4166 11.2703 12.2015 11.6532 11.8187C12.0361 11.4358 12.2512 10.9165 12.2512 10.375C12.2505 10.253 12.2386 10.1314 12.2156 10.0116C12.7232 9.8887 13.175 9.59906 13.4985 9.18903C13.822 8.779 13.9986 8.27227 14 7.74998V4.83331C13.9991 4.06005 13.6915 3.31872 13.1447 2.77194C12.5979 2.22516 11.8566 1.91757 11.0833 1.91665ZM12.8333 4.83331V5.41665H9.91667V3.08331H11.0833C11.5475 3.08331 11.9926 3.26769 12.3208 3.59588C12.649 3.92407 12.8333 4.36918 12.8333 4.83331ZM1.16667 7.74998V2.49998C1.16667 2.03585 1.35104 1.59073 1.67923 1.26254C2.00742 0.934354 2.45254 0.74998 2.91667 0.74998H7C7.46413 0.74998 7.90925 0.934354 8.23744 1.26254C8.56563 1.59073 8.75 2.03585 8.75 2.49998V8.91665H2.33333C2.02391 8.91665 1.72717 8.79373 1.50838 8.57494C1.28958 8.35615 1.16667 8.0594 1.16667 7.74998ZM4.66667 10.375C4.66667 10.607 4.57448 10.8296 4.41039 10.9937C4.24629 11.1578 4.02373 11.25 3.79167 11.25C3.5596 11.25 3.33704 11.1578 3.17295 10.9937C3.00885 10.8296 2.91667 10.607 2.91667 10.375C2.91702 10.2753 2.9354 10.1765 2.97092 10.0833H4.61242C4.64793 10.1765 4.66631 10.2753 4.66667 10.375ZM10.2083 11.25C9.97627 11.25 9.75371 11.1578 9.58961 10.9937C9.42552 10.8296 9.33333 10.607 9.33333 10.375C9.33359 10.2753 9.35197 10.1764 9.38758 10.0833H11.0291C11.0647 10.1764 11.0831 10.2753 11.0833 10.375C11.0833 10.607 10.9911 10.8296 10.8271 10.9937C10.663 11.1578 10.4404 11.25 10.2083 11.25ZM11.6667 8.91665H9.91667V6.58331H12.8333V7.74998C12.8333 8.0594 12.7104 8.35615 12.4916 8.57494C12.2728 8.79373 11.9761 8.91665 11.6667 8.91665Z" fill="#0C0C0C"/>
</g>
<defs>
<clipPath id="clip0_5_132">
<rect width="14" height="14" fill="white"/>
</clipPath>
</defs>
</svg>
