<svg width="12" height="12" viewBox="0 0 12 12" fill="none" xmlns="http://www.w3.org/2000/svg">
<path d="M9.67571 0.0347853C9.54446 0.0746288 9.36633 0.226973 9.29602 0.358223C9.25149 0.442598 9.24446 0.491817 9.24211 0.749629V1.0426L9.13196 1.24182C9.07102 1.34963 8.89758 1.65432 8.74524 1.91916L8.46633 2.39963L8.36321 2.41369C8.30696 2.42072 8.22727 2.44416 8.18508 2.46525C8.14289 2.48635 7.96477 2.6715 7.78899 2.87541C7.44211 3.27385 7.32493 3.46838 7.29914 3.68869C7.28274 3.81291 7.27571 3.81994 7.00618 4.08479C6.70618 4.3801 6.40618 4.59104 6.12024 4.71057C6.02414 4.75041 5.46399 4.94963 4.87571 5.15354C3.68977 5.56369 3.48821 5.64104 3.16243 5.81447C2.52024 6.15432 2.10071 6.49416 1.48899 7.16916C1.19368 7.49729 1.13743 7.5465 0.926488 7.67307C0.429613 7.97307 0.141332 8.36916 0.0335192 8.89885C-0.020387 9.16135 -0.00632453 10.2254 0.054613 10.4293C0.263207 11.1559 0.928832 11.6973 1.8968 11.9317C2.07961 11.9762 2.18508 11.9809 3.17414 11.9903C4.84758 12.0067 5.6843 11.9504 6.9593 11.7348C7.32493 11.6715 7.45383 11.6598 7.77961 11.6598C8.22258 11.6598 8.35149 11.6809 9.01711 11.8567C9.25852 11.9223 9.48821 11.9738 9.52805 11.9738C9.64758 11.9738 9.79758 11.8801 9.86086 11.7606C9.92883 11.634 9.92414 11.4559 9.8468 11.3481C9.7929 11.2731 9.16477 10.8559 8.79914 10.6567C8.54133 10.5137 8.16633 10.3567 8.08664 10.3567C8.01633 10.3567 7.90383 10.4176 7.87336 10.4715C7.83586 10.5442 7.84524 10.6731 7.89446 10.734C7.91789 10.7645 7.99524 10.8113 8.06321 10.8348C8.29524 10.9168 8.9468 11.266 9.05461 11.3645C9.06399 11.3762 8.95618 11.3528 8.81086 11.3153C8.18508 11.1535 7.6343 11.1395 6.87961 11.2684C5.77805 11.4582 5.1593 11.5051 3.66164 11.5215C2.12649 11.5379 1.95305 11.5192 1.43977 11.2731C0.90305 11.0176 0.593675 10.6754 0.499925 10.2418C0.469457 10.0965 0.45305 9.67697 0.478832 9.67697C0.485863 9.67697 0.535082 9.71213 0.591332 9.75432C0.7343 9.86447 1.00149 9.97932 1.19836 10.0168C1.29211 10.0356 2.10305 10.1035 2.99836 10.1692C3.91243 10.2348 4.92961 10.3238 5.31399 10.3684C5.69133 10.4129 6.01477 10.4504 6.03118 10.4504C6.09446 10.4504 6.20696 10.3332 6.22336 10.2535C6.23977 10.1645 6.18821 10.0449 6.12024 10.0074C6.0968 9.99572 5.79914 9.95119 5.45696 9.91135C5.11711 9.87151 4.81946 9.83166 4.79836 9.82229C4.76321 9.80822 4.78664 9.76838 4.93664 9.57151C5.03274 9.4426 5.12883 9.30432 5.14758 9.26682C5.17336 9.21526 5.24836 9.15901 5.43118 9.05588C5.76399 8.86838 6.11555 8.63166 6.54211 8.30354C6.73664 8.15588 6.90305 8.03869 6.91243 8.04104C6.9218 8.04572 7.12571 8.31057 7.36946 8.63401C7.61086 8.9551 7.85696 9.27151 7.91789 9.33244C8.0468 9.46838 8.25539 9.57619 8.44758 9.60666C8.68196 9.64416 9.60071 9.63713 9.74133 9.59494C10.0156 9.51291 10.1515 9.18479 10.0202 8.92932C9.94993 8.79572 9.85383 8.73713 9.51633 8.61994C9.33586 8.55901 9.15539 8.49104 9.11789 8.47229C9.05696 8.43947 8.71008 7.99651 8.54836 7.74338C8.46633 7.61682 8.31164 7.17619 8.31164 7.0801C8.31399 6.98166 8.3468 6.94651 8.63508 6.72619C8.90227 6.52463 9.01711 6.41447 9.15539 6.23166C9.27493 6.07463 9.42727 5.77463 9.47883 5.5965C9.51399 5.47229 9.52102 5.46291 9.60305 5.44885C9.74368 5.42541 9.92649 5.32932 10.0554 5.20744C10.1398 5.12775 10.4351 4.70354 11.0562 3.77072C11.539 3.04182 11.9491 2.41369 11.9656 2.3715C12.1202 2.00588 11.6843 1.6051 11.3304 1.78557C11.3046 1.79963 11.0093 2.00588 10.6741 2.24494C10.339 2.48635 10.0296 2.70666 9.98743 2.73713L9.91243 2.78869L9.97102 2.62932C10.0015 2.5426 10.1656 2.09494 10.3343 1.63791C10.5031 1.18088 10.646 0.761348 10.6554 0.707441C10.6741 0.564473 10.6249 0.412129 10.5148 0.28791C10.2968 0.0394726 9.97336 -0.0589647 9.67571 0.0347853ZM10.0413 0.510567C10.2288 0.594942 10.2546 0.482442 9.69211 2.01291C9.41321 2.77229 9.18586 3.41916 9.18586 3.45197C9.18586 3.48479 9.21633 3.54572 9.25383 3.58791C9.30774 3.64885 9.34055 3.66525 9.41555 3.66525C9.49758 3.66525 9.59836 3.59963 10.496 2.95744C11.0374 2.56838 11.4827 2.25432 11.4827 2.26135C11.4827 2.26604 11.0984 2.84963 10.6296 3.55744C9.95696 4.57229 9.75774 4.85822 9.68743 4.9051C9.58899 4.96838 9.4343 5.01057 9.30071 5.01291C9.19289 5.01291 9.09914 5.10197 9.08039 5.2215C9.05461 5.38557 8.94914 5.67854 8.86711 5.81213C8.74289 6.01838 8.60227 6.16135 8.29289 6.39807C7.97883 6.63479 7.89211 6.74494 7.84993 6.95119C7.81711 7.10822 7.83118 7.20666 7.94836 7.54416C8.06086 7.87229 8.09836 7.93791 8.40305 8.35276C8.75696 8.83557 8.80852 8.87775 9.2468 9.0301L9.54914 9.13557H9.00305C8.50383 9.13791 8.44993 9.13322 8.36555 9.09104C8.29524 9.05588 8.17336 8.91057 7.81711 8.44182C7.56399 8.109 7.33196 7.78322 7.29914 7.7176C7.22883 7.57932 7.21946 7.44104 7.24993 7.08244L7.26868 6.84338L7.19836 6.77072C7.09993 6.67463 6.96164 6.67229 6.86789 6.76604C6.79524 6.83635 6.77649 6.94416 6.75774 7.34494L6.75071 7.55588L6.33352 7.8676C5.93274 8.16994 5.40071 8.54026 5.33743 8.56369C5.31399 8.57307 5.29758 8.53557 5.27883 8.42776C5.20383 7.98244 4.84524 7.59338 4.39289 7.45979C4.09055 7.37072 3.6218 7.42932 3.50227 7.57229C3.35227 7.75041 3.51633 7.99416 3.74602 7.94026C3.98508 7.88166 4.05539 7.87463 4.18664 7.89807C4.46321 7.94963 4.68586 8.13244 4.78196 8.38557C4.8218 8.49104 4.82883 8.55197 4.8218 8.70432C4.80774 8.94104 4.77727 9.00432 4.45618 9.4215C4.17258 9.79182 4.21946 9.76838 3.84914 9.71682L3.65696 9.68869L3.76243 9.55041C3.8468 9.43557 3.86555 9.39338 3.86555 9.31135C3.86555 9.22932 3.85383 9.20119 3.79289 9.15197C3.71086 9.08166 3.59836 9.07229 3.51868 9.12619C3.49055 9.14729 3.39914 9.25276 3.31243 9.36057C3.22805 9.47072 3.15305 9.55979 3.14602 9.55979C3.11555 9.55979 2.88586 9.40744 2.81555 9.34182C2.72883 9.25744 2.6843 9.12151 2.70539 8.99963C2.71243 8.95275 2.7593 8.859 2.80618 8.78869C2.91633 8.62463 2.92102 8.52619 2.81555 8.43244C2.65618 8.28947 2.46164 8.38557 2.31633 8.68322C2.18274 8.95041 2.20383 9.2926 2.36555 9.53635C2.40305 9.5926 2.43118 9.64182 2.42883 9.64651C2.41477 9.65822 1.41164 9.58088 1.29211 9.55744C1.22414 9.54338 1.09758 9.49651 1.00852 9.45197C0.724926 9.31135 0.553832 9.09338 0.551488 8.87775C0.551488 8.6176 0.832738 8.27307 1.24289 8.03166C1.44211 7.91213 1.49836 7.86291 1.76789 7.56291C2.29993 6.96994 2.6843 6.63947 3.19055 6.33947C3.54914 6.12619 3.84914 6.00666 5.06086 5.58947C6.26555 5.17463 6.54914 5.0551 6.86086 4.8301C7.08352 4.67072 7.46321 4.32619 7.62961 4.13166C7.73274 4.01213 7.74446 3.98635 7.75852 3.84104C7.76789 3.75197 7.79602 3.64416 7.81946 3.59963C7.89446 3.45432 8.39602 2.88244 8.43586 2.8965C8.59055 2.9551 8.70539 2.9176 8.78977 2.77932C8.93274 2.55197 9.59602 1.38479 9.65227 1.26525C9.70618 1.14807 9.71321 1.10588 9.71321 0.864473C9.71321 0.587911 9.72493 0.541036 9.80696 0.494161C9.87258 0.45666 9.93352 0.461348 10.0413 0.510567Z" fill="black"/>
<path d="M6.94758 10.1246C6.80227 10.209 6.77415 10.3848 6.88665 10.4996C7.00149 10.6145 7.17962 10.5887 7.25462 10.4457C7.32962 10.3028 7.23821 10.1317 7.07415 10.1082C7.02962 10.1035 6.97337 10.1106 6.94758 10.1246Z" fill="black"/>
</svg>
