<svg width="12" height="12" viewBox="0 0 12 12" fill="none" xmlns="http://www.w3.org/2000/svg">
<path d="M11.1864 0.0312834C11.3833 0.0805016 11.531 0.164877 11.6786 0.314877C12.0864 0.720345 12.0981 1.34144 11.7091 1.768C11.6481 1.83597 11.5333 1.92269 11.4513 1.96722C11.3692 2.00941 11.2966 2.05394 11.2896 2.068C11.2802 2.07972 11.2685 2.16878 11.2591 2.26956C11.1935 3.07581 10.8396 3.9641 10.3052 4.66722C9.58565 5.61644 8.44893 6.30316 7.2958 6.49066C7.2044 6.50472 7.10596 6.52113 7.07315 6.5305C7.04034 6.53753 6.44034 6.54925 5.73721 6.55863C4.49268 6.57269 4.45752 6.57503 4.33096 6.6266C4.0708 6.72972 3.84346 6.95941 3.74034 7.21722C3.66768 7.40003 3.66768 7.76097 3.74034 7.94378C3.84346 8.2016 4.0708 8.43128 4.33096 8.53441C4.44815 8.58128 4.50909 8.58831 5.01065 8.59535L5.56143 8.60238L5.81924 8.46175C5.95987 8.38206 6.19893 8.26722 6.34893 8.20394C7.43643 7.74222 8.21455 7.73753 8.68799 8.18988C9.1333 8.6141 9.18018 9.32191 8.79815 9.82113L8.7208 9.92425L8.79815 10.0274C8.97862 10.2594 9.0794 10.5875 9.05596 10.8618C9.01143 11.4289 8.64112 11.8461 8.07862 11.9657C7.54659 12.0805 6.63252 11.8414 5.7794 11.368L5.56612 11.2485H5.12784C4.16221 11.2485 3.52705 11.1125 2.77237 10.7446C2.20752 10.4703 1.81143 10.1821 1.37784 9.73441C-0.454977 7.83831 -0.459664 4.83128 1.36612 2.9305C1.79502 2.48285 2.2333 2.16644 2.79112 1.89691C3.33018 1.63675 3.85752 1.4891 4.4458 1.42816C4.60049 1.4141 5.82393 1.40472 7.85127 1.40472H11.0153L11.1091 1.35316C11.2146 1.29456 11.2919 1.16566 11.2919 1.05316C11.2919 0.940658 11.2146 0.811751 11.1091 0.753159L11.0153 0.701595H9.18487C7.39424 0.701595 7.34971 0.701595 7.26065 0.65472C7.15518 0.600815 7.07315 0.46722 7.07315 0.350033C7.07315 0.232845 7.15518 0.0992517 7.26065 0.0453453C7.34971 -0.00152969 7.3919 -0.00152969 9.21065 0.000814438C10.6146 0.000814438 11.0974 0.0101891 11.1864 0.0312834ZM4.47627 2.13363C3.97237 2.18753 3.54346 2.31175 3.07705 2.5391C2.48409 2.82738 1.97784 3.23753 1.57471 3.7555L1.48565 3.868L2.61768 5.00003L3.74971 6.13206L3.92315 6.04535C4.12002 5.94456 4.34268 5.88363 4.57002 5.86488L4.72705 5.85081L4.60752 5.71956C4.24424 5.32347 4.00752 4.81956 3.93487 4.3016C3.89971 4.05785 3.90205 3.90316 3.9419 3.81175C4.04034 3.57972 4.32862 3.5305 4.50909 3.71097C4.58877 3.79066 4.59112 3.80238 4.63096 4.16331C4.71768 4.95316 5.26846 5.58128 6.06534 5.8016C6.25049 5.85316 6.79424 5.86019 7.08487 5.81331C8.5544 5.58128 9.76143 4.62035 10.3052 3.2516C10.4294 2.93519 10.5653 2.37738 10.5653 2.17113V2.10785H7.63565C5.71612 2.10785 4.62627 2.11722 4.47627 2.13363ZM1.0169 4.72113C0.672367 5.54378 0.606742 6.54222 0.841117 7.40941L0.864554 7.49847H1.91455H2.96455L2.99268 7.32738C3.02549 7.12581 3.10987 6.87972 3.1919 6.74144L3.25049 6.643L2.19112 5.58128C1.60752 5.00003 1.12471 4.52191 1.11768 4.52191C1.1083 4.52191 1.06377 4.61097 1.0169 4.72113ZM1.20205 8.31878C1.44815 8.8016 1.92159 9.35003 2.40674 9.71097L2.65049 9.89144L3.1333 9.41097L3.61377 8.9305L3.47315 8.78285C3.31143 8.6141 3.19893 8.45706 3.1333 8.30706L3.08643 8.2016H2.11377H1.14346L1.20205 8.31878ZM7.4458 8.58831C7.12002 8.64456 6.60205 8.83675 6.19893 9.05238L6.01846 9.14847V9.36878V9.5891L6.98409 9.57972C8.05518 9.57035 8.05518 9.57035 8.2169 9.41331C8.31065 9.32191 8.37393 9.12738 8.35284 8.99378C8.2919 8.62113 8.00127 8.48988 7.4458 8.58831ZM3.80596 9.74613L3.31846 10.2336L3.48955 10.2946C3.9419 10.4563 4.31455 10.5219 4.87471 10.5383L5.31534 10.5524V9.92659V9.30316L4.92159 9.30081C4.70596 9.30081 4.48799 9.29144 4.43643 9.28206C4.38487 9.27034 4.33096 9.26097 4.31924 9.25863C4.30518 9.25863 4.07549 9.4766 3.80596 9.74613ZM6.01846 10.4961V10.7047L6.35127 10.8688C7.22315 11.2977 7.92159 11.4078 8.20752 11.1571C8.39502 10.993 8.39971 10.611 8.2169 10.4352C8.06455 10.2875 8.07393 10.2899 6.9958 10.2875H6.01846V10.4961Z" fill="black"/>
<path d="M8.06221 2.97744C8.16299 3.029 8.24503 3.16729 8.24503 3.27979C8.24503 3.39697 8.16299 3.53057 8.05753 3.58447C8.00831 3.61025 7.93331 3.63135 7.89346 3.63135C7.71534 3.63135 7.5419 3.45791 7.5419 3.27979C7.5419 3.1626 7.62393 3.029 7.7294 2.9751C7.84424 2.9165 7.94971 2.9165 8.06221 2.97744Z" fill="black"/>
</svg>
