<svg width="30" height="43" viewBox="0 0 30 43" fill="none" xmlns="http://www.w3.org/2000/svg">
<path d="M0 0H30V43L15.5 32L0 43V0Z" fill="url(#paint0_linear_128_24)"/>
<path d="M22 17C22 20.866 18.866 24 15 24C11.134 24 8 20.866 8 17C8 13.134 11.134 10 15 10C18.866 10 22 13.134 22 17Z" fill="white"/>
<path d="M12.468 21C12.468 20.584 12.52 20.212 12.624 19.884C12.736 19.556 12.88 19.26 13.056 18.996C13.24 18.732 13.44 18.488 13.656 18.264C13.88 18.04 14.108 17.82 14.34 17.604C14.924 17.06 15.336 16.568 15.576 16.128C15.824 15.688 15.948 15.252 15.948 14.82C15.948 14.564 15.916 14.316 15.852 14.076C15.788 13.836 15.672 13.64 15.504 13.488C15.336 13.328 15.1 13.252 14.796 13.26C14.58 13.26 14.384 13.312 14.208 13.416C14.04 13.512 13.912 13.628 13.824 13.764C13.912 13.852 13.972 13.956 14.004 14.076C14.044 14.196 14.064 14.3 14.064 14.388C14.064 14.476 14.036 14.584 13.98 14.712C13.924 14.832 13.836 14.936 13.716 15.024C13.604 15.112 13.448 15.156 13.248 15.156C13 15.14 12.808 15.048 12.672 14.88C12.544 14.712 12.48 14.512 12.48 14.28C12.48 14.096 12.536 13.9 12.648 13.692C12.76 13.476 12.928 13.272 13.152 13.08C13.376 12.88 13.648 12.72 13.968 12.6C14.296 12.472 14.672 12.408 15.096 12.408C15.416 12.408 15.732 12.448 16.044 12.528C16.364 12.608 16.656 12.736 16.92 12.912C17.184 13.088 17.392 13.32 17.544 13.608C17.704 13.896 17.784 14.252 17.784 14.676C17.784 14.876 17.748 15.088 17.676 15.312C17.604 15.528 17.472 15.768 17.28 16.032C17.088 16.288 16.82 16.584 16.476 16.92C16.132 17.256 15.688 17.648 15.144 18.096C14.704 18.456 14.38 18.784 14.172 19.08C13.964 19.376 13.84 19.604 13.8 19.764L16.152 19.824C16.336 19.832 16.492 19.82 16.62 19.788C16.756 19.748 16.86 19.672 16.932 19.56C17.012 19.44 17.052 19.268 17.052 19.044H17.82L17.724 21H12.468Z" fill="black"/>
<defs>
<linearGradient id="paint0_linear_128_24" x1="15" y1="0" x2="15" y2="43" gradientUnits="userSpaceOnUse">
<stop stop-color="#A6A4A4"/>
<stop offset="1" stop-color="#848282"/>
</linearGradient>
</defs>
</svg>
