<svg width="30" height="43" viewBox="0 0 30 43" fill="none" xmlns="http://www.w3.org/2000/svg">
<path d="M0 0H30V43L15.5 32L0 43V0Z" fill="url(#paint0_linear_128_23)"/>
<path d="M22 17C22 20.866 18.866 24 15 24C11.134 24 8 20.866 8 17C8 13.134 11.134 10 15 10C18.866 10 22 13.134 22 17Z" fill="white"/>
<path d="M15.024 21.192C14.424 21.192 13.932 21.104 13.548 20.928C13.164 20.744 12.88 20.516 12.696 20.244C12.512 19.972 12.42 19.7 12.42 19.428C12.42 19.188 12.492 18.98 12.636 18.804C12.788 18.62 12.988 18.524 13.236 18.516C13.436 18.508 13.592 18.548 13.704 18.636C13.816 18.724 13.896 18.828 13.944 18.948C13.992 19.068 14.016 19.18 14.016 19.284C14.016 19.364 14 19.456 13.968 19.56C13.936 19.656 13.888 19.748 13.824 19.836C13.912 19.988 14.056 20.108 14.256 20.196C14.464 20.276 14.68 20.316 14.904 20.316C15.408 20.316 15.788 20.164 16.044 19.86C16.3 19.556 16.428 19.18 16.428 18.732C16.428 18.46 16.376 18.188 16.272 17.916C16.168 17.644 15.988 17.42 15.732 17.244C15.476 17.06 15.116 16.972 14.652 16.98C14.596 16.98 14.496 16.984 14.352 16.992C14.208 17 14.1 17.008 14.028 17.016V16.152C14.092 16.16 14.152 16.164 14.208 16.164C14.264 16.164 14.32 16.164 14.376 16.164C14.728 16.164 15.028 16.1 15.276 15.972C15.524 15.844 15.712 15.668 15.84 15.444C15.976 15.22 16.048 14.96 16.056 14.664C16.064 14.384 16.028 14.14 15.948 13.932C15.876 13.716 15.756 13.548 15.588 13.428C15.428 13.308 15.212 13.248 14.94 13.248C14.724 13.248 14.528 13.3 14.352 13.404C14.176 13.508 14.056 13.624 13.992 13.752C14.064 13.84 14.112 13.944 14.136 14.064C14.168 14.176 14.184 14.268 14.184 14.34C14.184 14.436 14.156 14.548 14.1 14.676C14.052 14.796 13.968 14.9 13.848 14.988C13.728 15.076 13.568 15.116 13.368 15.108C13.12 15.1 12.932 15.012 12.804 14.844C12.676 14.676 12.612 14.476 12.612 14.244C12.612 14.004 12.704 13.74 12.888 13.452C13.072 13.164 13.352 12.92 13.728 12.72C14.104 12.512 14.572 12.408 15.132 12.408C15.628 12.408 16.076 12.476 16.476 12.612C16.884 12.748 17.204 12.972 17.436 13.284C17.676 13.596 17.796 14.012 17.796 14.532C17.796 14.74 17.736 14.976 17.616 15.24C17.504 15.496 17.316 15.732 17.052 15.948C16.788 16.164 16.436 16.324 15.996 16.428C16.764 16.564 17.328 16.84 17.688 17.256C18.056 17.672 18.24 18.136 18.24 18.648C18.24 19.192 18.1 19.656 17.82 20.04C17.548 20.416 17.168 20.704 16.68 20.904C16.2 21.096 15.648 21.192 15.024 21.192Z" fill="black"/>
<defs>
<linearGradient id="paint0_linear_128_23" x1="15" y1="0" x2="15" y2="43" gradientUnits="userSpaceOnUse">
<stop stop-color="#635741"/>
<stop offset="1" stop-color="#756952"/>
</linearGradient>
</defs>
</svg>
