<svg width="30" height="43" viewBox="0 0 30 43" fill="none" xmlns="http://www.w3.org/2000/svg">
<path d="M0 0H30V43L15.5 32L0 43V0Z" fill="url(#paint0_linear_89_9)"/>
<path d="M22 17C22 20.866 18.866 24 15 24C11.134 24 8 20.866 8 17C8 13.134 11.134 10 15 10C18.866 10 22 13.134 22 17Z" fill="white"/>
<path d="M13.96 21V20.208C14.144 20.2 14.296 20.176 14.416 20.136C14.544 20.096 14.64 20.004 14.704 19.86C14.776 19.716 14.812 19.484 14.812 19.164V14.352L13.504 15.132L13.072 14.412L15.82 12.408H16.54V19.032C16.54 19.248 16.536 19.456 16.528 19.656C16.528 19.856 16.52 20.008 16.504 20.112C16.632 20.096 16.792 20.088 16.984 20.088C17.184 20.08 17.324 20.076 17.404 20.076V21H13.96Z" fill="black"/>
<defs>
<linearGradient id="paint0_linear_89_9" x1="15" y1="0" x2="15" y2="43" gradientUnits="userSpaceOnUse">
<stop stop-color="#D28B00"/>
<stop offset="1" stop-color="#9E6800"/>
</linearGradient>
</defs>
</svg>
