<svg width="30" height="43" viewBox="0 0 30 43" fill="none" xmlns="http://www.w3.org/2000/svg">
<path d="M0 0H30V43L15.5 32L0 43V0Z" fill="url(#paint0_linear_128_25)"/>
<path d="M22 17C22 20.866 18.866 24 15 24C11.134 24 8 20.866 8 17C8 13.134 11.134 10 15 10C18.866 10 22 13.134 22 17Z" fill="white"/>
<path d="M15 21.192C14.48 21.192 14.036 21.108 13.668 20.94C13.3 20.772 13.016 20.564 12.816 20.316C12.624 20.06 12.528 19.804 12.528 19.548C12.528 19.316 12.6 19.108 12.744 18.924C12.888 18.74 13.084 18.644 13.332 18.636C13.532 18.628 13.688 18.668 13.8 18.756C13.912 18.836 13.992 18.936 14.04 19.056C14.088 19.176 14.112 19.292 14.112 19.404C14.112 19.468 14.1 19.548 14.076 19.644C14.06 19.732 14.028 19.816 13.98 19.896C14.02 19.984 14.092 20.064 14.196 20.136C14.3 20.2 14.416 20.252 14.544 20.292C14.68 20.324 14.804 20.34 14.916 20.34C15.236 20.34 15.492 20.256 15.684 20.088C15.884 19.92 16.028 19.704 16.116 19.44C16.204 19.176 16.248 18.908 16.248 18.636C16.248 18.452 16.236 18.244 16.212 18.012C16.188 17.78 16.128 17.552 16.032 17.328C15.944 17.104 15.8 16.92 15.6 16.776C15.408 16.632 15.144 16.56 14.808 16.56C14.696 16.56 14.564 16.576 14.412 16.608C14.26 16.632 14.092 16.676 13.908 16.74C13.732 16.804 13.552 16.892 13.368 17.004L12.852 16.608L12.804 12.6H15.912C16.192 12.6 16.412 12.556 16.572 12.468C16.74 12.372 16.824 12.156 16.824 11.82H17.58L17.496 13.764L13.728 13.836V15.972C13.912 15.892 14.14 15.824 14.412 15.768C14.684 15.712 14.94 15.684 15.18 15.684C15.676 15.684 16.108 15.756 16.476 15.9C16.844 16.044 17.148 16.244 17.388 16.5C17.628 16.748 17.804 17.036 17.916 17.364C18.036 17.684 18.096 18.024 18.096 18.384C18.096 19 17.944 19.52 17.64 19.944C17.344 20.36 16.96 20.672 16.488 20.88C16.016 21.088 15.52 21.192 15 21.192Z" fill="black"/>
<defs>
<linearGradient id="paint0_linear_128_25" x1="15" y1="0" x2="15" y2="43" gradientUnits="userSpaceOnUse">
<stop stop-color="#FF0000"/>
<stop offset="1" stop-color="#9B1313"/>
</linearGradient>
</defs>
</svg>
