<svg width="30" height="43" viewBox="0 0 30 43" fill="none" xmlns="http://www.w3.org/2000/svg">
<path d="M0 0H30V43L15.5 32L0 43V0Z" fill="url(#paint0_linear_128_22)"/>
<path d="M22 17C22 20.866 18.866 24 15 24C11.134 24 8 20.866 8 17C8 13.134 11.134 10 15 10C18.866 10 22 13.134 22 17Z" fill="white"/>
<path d="M16.992 19.032C16.992 19.248 16.988 19.456 16.98 19.656C16.972 19.856 16.96 20.008 16.944 20.112C17.08 20.096 17.244 20.088 17.436 20.088C17.628 20.08 17.764 20.076 17.844 20.076V21H14.424V20.208H14.496C14.68 20.208 14.836 20.188 14.964 20.148C15.1 20.108 15.204 20.016 15.276 19.872C15.356 19.72 15.396 19.484 15.396 19.164V18.828H12.144V17.7L16.26 12.408H16.992V17.748H18.168V18.828H16.992V19.032ZM15.384 14.928L13.26 17.712L15.396 17.724L15.408 14.928H15.384Z" fill="black"/>
<defs>
<linearGradient id="paint0_linear_128_22" x1="15" y1="0" x2="15" y2="43" gradientUnits="userSpaceOnUse">
<stop stop-color="#FF0101"/>
<stop offset="0.9999" stop-color="#912323"/>
<stop offset="1" stop-color="#848282"/>
</linearGradient>
</defs>
</svg>
