<svg width="309" height="535" viewBox="0 0 309 535" fill="none" xmlns="http://www.w3.org/2000/svg">
<mask id="path-1-outside-1_64_3" maskUnits="userSpaceOnUse" x="0" y="0" width="309" height="535" fill="black">
<rect fill="white" width="309" height="535"/>
<path d="M1 1H308V532.099L157.17 391.823L1 532.099V1Z"/>
<path d="M254.997 218.236C255.413 273.463 210.98 318.575 155.753 318.997C100.526 319.419 55.4187 274.991 55.0029 219.764C54.5871 164.537 99.0202 119.425 154.247 119.003C209.474 118.581 254.581 163.009 254.997 218.236Z"/>
<path d="M172.567 186.058C173.412 191.258 173.074 191.908 167.502 194.345C162.267 196.783 158.214 197.108 138.796 195.97L117.302 194.882C116.66 194.849 116.016 194.865 115.377 194.929L114.164 195.051C110.476 195.42 107.24 197.685 105.61 201.038C104.891 202.515 104.518 204.138 104.518 205.784V230.422C104.518 260.485 105.024 262.11 111.947 261.46C115.662 261.135 117.013 260.322 116.506 258.535C114.649 252.522 114.48 244.397 116.169 240.497C117.857 236.272 118.026 236.109 134.743 236.272H151.798V244.884C151.798 257.56 153.993 261.785 160.41 261.785C164.462 261.785 165.475 261.298 164.631 259.185C160.072 247.647 161.592 241.634 169.528 239.034C175.776 237.084 182.192 230.584 182.192 226.196C182.192 224.409 180.841 225.059 178.14 228.471C175.944 231.072 173.749 233.022 173.412 232.534C170.034 228.634 165.475 218.884 166.32 217.584C168.008 214.984 178.14 211.408 183.881 211.408H189.115L185.569 214.984C183.712 216.934 182.192 219.046 182.192 219.859C182.192 222.296 185.232 221.159 187.596 217.746C189.284 215.146 192.324 214.008 199.922 213.196C209.547 212.221 209.885 212.058 211.405 206.533C212.418 202.633 212.249 200.683 210.898 200.358C209.885 200.033 208.365 198.896 207.521 197.758C197.389 185.408 195.194 183.783 189.791 183.783C186.583 183.783 183.543 182.97 183.036 182.157C182.53 181.182 179.659 180.532 176.789 180.532C171.892 180.532 171.723 180.695 172.567 186.058ZM184.894 187.845C187.765 192.07 191.142 191.908 189.453 187.683C188.609 185.733 189.284 185.57 192.999 187.195C195.363 188.333 197.389 189.633 197.389 190.283C197.389 190.77 200.091 194.02 203.299 197.595C207.352 201.821 209.041 204.746 208.196 206.858C207.352 209.621 205.832 209.783 191.817 209.133L176.282 208.321L173.918 202.471C171.892 197.27 171.892 196.295 173.918 195.158C175.1 194.345 178.14 194.183 180.504 194.67L184.725 195.645L180.166 191.42C177.464 189.145 175.438 186.383 175.438 185.408C175.438 182.157 182.192 183.783 184.894 187.845ZM129.171 201.008C128.664 202.471 128.158 204.096 128.158 204.746C128.158 205.558 126.3 207.996 123.767 210.596C119.377 215.146 119.377 218.234 123.767 214.821C129.677 210.108 138.289 218.721 138.289 229.446V234.484L128.664 233.347C123.43 232.697 116.675 231.072 113.467 229.609C106.713 226.521 106.037 221.646 112.116 220.184C114.48 219.696 116.338 218.559 116.338 217.746C116.338 216.934 114.48 216.609 112.116 217.259C108.232 218.234 107.895 217.746 107.895 212.546C107.895 204.583 114.649 198.408 123.43 198.408C129.002 198.408 130.015 198.896 129.171 201.008ZM143.524 200.033C145.888 200.033 145.719 201.333 141.835 207.996L137.445 216.121L133.73 212.708C130.859 210.108 130.184 208.158 131.028 205.071C132.548 198.733 133.223 198.083 137.276 199.058C139.133 199.546 142.004 200.033 143.524 200.033ZM170.372 202.633C172.905 208.971 172.398 210.433 166.657 213.521C161.592 216.284 161.254 216.284 157.877 213.358C155.85 211.571 152.642 209.296 150.447 208.158C146.732 206.371 146.563 206.046 149.265 203.283C150.953 201.496 155.006 199.871 158.383 199.546C161.76 199.221 165.475 198.896 166.657 198.733C167.839 198.57 169.528 200.358 170.372 202.633ZM155.006 214.984C163.111 220.671 162.774 221.321 148.927 223.434C141.835 224.409 141.666 224.409 141.666 219.696C141.666 213.521 143.186 209.783 145.719 209.783C146.901 209.783 151.122 212.058 155.006 214.984ZM168.008 229.446C170.203 233.672 170.372 234.809 168.346 235.947C165.475 237.734 163.618 237.734 163.618 235.784C163.618 232.534 157.201 230.909 149.434 232.372C142.511 233.672 141.666 233.347 141.666 230.747C141.666 228.959 143.186 227.334 145.55 227.009C147.576 226.521 150.785 225.871 152.642 225.546C162.098 223.596 165.138 224.409 168.008 229.446ZM112.623 233.022C113.974 234.647 113.974 236.922 112.792 241.472C111.778 244.884 111.272 250.247 111.778 253.335C112.454 257.072 112.116 258.535 110.765 258.047C109.414 257.722 108.57 252.685 108.232 244.234C107.726 231.234 108.908 228.634 112.623 233.022ZM160.072 236.272C161.423 237.897 161.254 239.847 159.903 243.584C158.383 247.485 158.214 249.922 159.734 253.66C161.254 257.56 161.254 258.535 159.396 258.535C156.188 258.535 155.175 254.797 155.175 243.747C155.175 234.159 156.526 232.209 160.072 236.272Z"/>
<path d="M159.7 145.628L153.693 145.054L155.35 125.428L161.623 126.027C163.511 126.207 165.094 126.754 166.371 127.669C167.649 128.576 168.583 129.796 169.176 131.327C169.769 132.853 169.98 134.631 169.808 136.663C169.636 138.707 169.126 140.433 168.279 141.84C167.432 143.24 166.285 144.27 164.837 144.931C163.389 145.584 161.677 145.817 159.7 145.628ZM156.228 143.171L159.726 143.505C161.335 143.659 162.696 143.473 163.807 142.948C164.918 142.423 165.782 141.607 166.399 140.501C167.016 139.394 167.392 138.042 167.527 136.445C167.661 134.86 167.519 133.472 167.103 132.279C166.687 131.08 165.994 130.125 165.026 129.414C164.058 128.697 162.814 128.266 161.293 128.121L157.529 127.761L156.228 143.171Z"/>
<path d="M176.619 149.476C175.273 149.045 174.2 148.371 173.402 147.456C172.612 146.537 172.115 145.449 171.91 144.193C171.712 142.932 171.829 141.576 172.259 140.127C172.689 138.677 173.328 137.482 174.178 136.544C175.035 135.601 176.026 134.97 177.15 134.651C178.282 134.327 179.479 134.368 180.741 134.772C181.468 135.005 182.151 135.358 182.787 135.831C183.424 136.305 183.952 136.911 184.37 137.651C184.79 138.384 185.039 139.258 185.117 140.271C185.195 141.285 185.038 142.453 184.646 143.774L184.373 144.695L173.601 141.243L174.159 139.363L182.747 142.116C182.984 141.317 183.037 140.554 182.908 139.826C182.784 139.1 182.488 138.464 182.02 137.917C181.557 137.371 180.938 136.974 180.161 136.726C179.306 136.451 178.502 136.429 177.75 136.659C177.006 136.885 176.366 137.285 175.83 137.86C175.294 138.435 174.91 139.113 174.679 139.893L174.307 141.146C173.99 142.215 173.903 143.18 174.047 144.04C174.198 144.896 174.544 145.622 175.084 146.219C175.626 146.81 176.331 147.244 177.198 147.522C177.763 147.703 178.296 147.787 178.798 147.773C179.308 147.754 179.778 147.636 180.208 147.417C180.64 147.192 181.02 146.863 181.348 146.43L183.247 147.685C182.818 148.327 182.265 148.837 181.589 149.212C180.915 149.581 180.154 149.795 179.307 149.853C178.461 149.905 177.565 149.779 176.619 149.476Z"/>
<path d="M201.025 138.861L191.699 156.173L189.743 155.046L199.07 137.733L201.025 138.861Z"/>
<path d="M202.682 162.04L212.198 150.799L213.877 152.313L204.361 163.553L202.682 162.04ZM213.571 149.354L218.182 147.523L220.146 149.293L215.051 150.688L213.571 149.354Z"/>
<path d="M216.055 176.059C215.241 174.942 214.798 173.782 214.726 172.578C214.654 171.374 214.912 170.206 215.5 169.073C216.088 167.941 216.963 166.926 218.125 166.03C219.307 165.117 220.513 164.534 221.741 164.281C222.978 164.028 224.143 164.106 225.237 164.513C226.34 164.922 227.283 165.664 228.067 166.739C228.677 167.576 229.075 168.448 229.261 169.354C229.448 170.26 229.424 171.138 229.191 171.988C228.958 172.838 228.516 173.596 227.863 174.261L226.53 172.431C226.959 171.882 227.203 171.209 227.262 170.413C227.33 169.617 227.07 168.816 226.483 168.01C225.963 167.297 225.325 166.812 224.57 166.555C223.823 166.299 223.012 166.275 222.137 166.482C221.271 166.691 220.398 167.134 219.519 167.813C218.62 168.507 217.942 169.256 217.486 170.06C217.034 170.87 216.817 171.683 216.836 172.5C216.859 173.322 217.134 174.095 217.661 174.819C218.008 175.294 218.403 175.664 218.847 175.926C219.291 176.189 219.763 176.338 220.262 176.373C220.761 176.408 221.264 176.318 221.771 176.104L223.104 177.934C222.342 178.361 221.536 178.583 220.688 178.6C219.849 178.618 219.025 178.418 218.215 178.001C217.415 177.585 216.695 176.938 216.055 176.059Z"/>
<path d="M222.659 188.354L235.92 182.048L236.853 184.114L223.592 190.42L222.659 188.354ZM238.605 182.047C238.423 181.645 238.401 181.233 238.54 180.813C238.681 180.398 238.942 180.1 239.322 179.92C239.702 179.739 240.092 179.727 240.491 179.885C240.894 180.048 241.186 180.331 241.368 180.733C241.549 181.136 241.57 181.545 241.428 181.959C241.29 182.38 241.03 182.68 240.65 182.861C240.271 183.042 239.88 183.05 239.477 182.887C239.078 182.73 238.787 182.45 238.605 182.047Z"/>
<path d="M231.115 204.646C230.911 203.733 230.895 202.865 231.07 202.041C231.25 201.216 231.617 200.509 232.17 199.92C232.729 199.329 233.474 198.925 234.404 198.709C235.223 198.518 235.923 198.526 236.504 198.733C237.092 198.939 237.592 199.28 238.006 199.756C238.419 200.232 238.771 200.782 239.06 201.406C239.358 202.034 239.625 202.673 239.862 203.322C240.17 204.171 240.413 204.862 240.59 205.393C240.776 205.929 240.968 206.305 241.166 206.522C241.367 206.746 241.643 206.816 241.997 206.734L242.071 206.717C242.989 206.503 243.645 206.084 244.04 205.459C244.437 204.84 244.521 204.021 244.292 203.001C244.055 201.944 243.64 201.169 243.047 200.675C242.453 200.182 241.869 199.874 241.293 199.751L241.566 197.476C242.519 197.649 243.307 197.993 243.93 198.505C244.562 199.023 245.057 199.632 245.416 200.331C245.783 201.036 246.048 201.751 246.21 202.476C246.314 202.939 246.377 203.484 246.4 204.11C246.431 204.741 246.342 205.377 246.133 206.018C245.926 206.665 245.526 207.255 244.934 207.788C244.342 208.32 243.479 208.718 242.344 208.983L232.931 211.173L232.434 208.959L234.369 208.509L234.344 208.396C234 208.318 233.612 208.145 233.18 207.877C232.748 207.609 232.343 207.213 231.965 206.69C231.586 206.166 231.303 205.485 231.115 204.646ZM233.163 204.525C233.359 205.401 233.695 206.099 234.171 206.62C234.648 207.148 235.191 207.502 235.799 207.683C236.408 207.87 237.011 207.894 237.606 207.756L239.615 207.288C239.483 207.22 239.334 207.038 239.17 206.74C239.013 206.448 238.854 206.103 238.693 205.706C238.54 205.314 238.395 204.93 238.259 204.554C238.13 204.182 238.023 203.881 237.939 203.651C237.736 203.093 237.494 202.583 237.215 202.122C236.943 201.665 236.608 201.322 236.21 201.092C235.821 200.866 235.347 200.819 234.789 200.949C234.026 201.126 233.513 201.545 233.25 202.205C232.994 202.87 232.965 203.643 233.163 204.525Z"/>
<path d="M244.991 227.105L244.383 225.074C244.718 224.941 245.042 224.748 245.356 224.494C245.676 224.246 245.938 223.909 246.14 223.484C246.343 223.058 246.439 222.515 246.427 221.855C246.411 220.951 246.191 220.2 245.767 219.603C245.349 219.011 244.825 218.72 244.195 218.728C243.635 218.735 243.197 218.946 242.879 219.36C242.562 219.774 242.302 220.419 242.101 221.293L241.605 223.493C241.31 224.817 240.84 225.808 240.196 226.463C239.558 227.119 238.727 227.453 237.702 227.466C236.862 227.477 236.107 227.243 235.437 226.764C234.766 226.291 234.233 225.625 233.836 224.764C233.439 223.903 233.23 222.899 233.21 221.752C233.184 220.245 233.487 218.994 234.119 217.999C234.751 217.003 235.688 216.366 236.931 216.088L237.503 218.235C236.717 218.45 236.132 218.845 235.748 219.421C235.363 220.003 235.179 220.759 235.195 221.688C235.214 222.746 235.451 223.583 235.907 224.199C236.37 224.822 236.917 225.129 237.547 225.121C238.056 225.115 238.479 224.93 238.817 224.567C239.16 224.203 239.412 223.649 239.57 222.903L240.1 220.434C240.395 219.077 240.871 218.077 241.528 217.434C242.192 216.797 243.029 216.472 244.041 216.46C244.869 216.449 245.605 216.674 246.249 217.134C246.894 217.6 247.405 218.238 247.782 219.048C248.159 219.864 248.356 220.791 248.374 221.83C248.4 223.292 248.102 224.443 247.48 225.285C246.858 226.133 246.029 226.739 244.991 227.105Z"/>
<path d="M224.255 251.087C224.724 249.95 225.42 249.071 226.344 248.451C227.274 247.834 228.359 247.509 229.599 247.476C230.844 247.447 232.178 247.747 233.599 248.376C235.009 249.001 236.132 249.789 236.966 250.739C237.801 251.69 238.32 252.729 238.524 253.856C238.728 254.982 238.593 256.12 238.12 257.269C237.754 258.157 237.319 258.794 236.815 259.181C236.315 259.575 235.825 259.828 235.346 259.937C234.87 260.056 234.483 260.14 234.187 260.191L234.114 260.369L240.721 263.295L239.857 265.391L221.958 257.464L222.792 255.439L224.855 256.352L224.958 256.104C224.776 255.841 224.558 255.486 224.302 255.036C224.052 254.589 223.89 254.038 223.816 253.382C223.748 252.728 223.894 251.963 224.255 251.087ZM225.991 252.192C225.645 253.033 225.567 253.839 225.759 254.61C225.957 255.384 226.378 256.092 227.023 256.735C227.673 257.38 228.505 257.927 229.519 258.376C230.521 258.82 231.459 259.06 232.333 259.097C233.213 259.136 233.982 258.959 234.64 258.564C235.305 258.172 235.813 257.55 236.164 256.697C236.53 255.809 236.611 254.969 236.407 254.178C236.206 253.396 235.784 252.688 235.143 252.054C234.505 251.428 233.714 250.906 232.77 250.488C231.815 250.065 230.886 249.829 229.983 249.779C229.083 249.738 228.283 249.908 227.581 250.291C226.882 250.682 226.352 251.315 225.991 252.192Z"/>
<path d="M217.378 265.101C217.903 264.329 218.522 263.732 219.235 263.309C219.952 262.89 220.708 262.693 221.502 262.717C222.301 262.744 223.088 263.039 223.862 263.602C224.544 264.098 225.002 264.636 225.238 265.219C225.479 265.805 225.564 266.417 225.494 267.053C225.423 267.689 225.258 268.328 224.998 268.97C224.741 269.62 224.455 270.254 224.142 270.873C223.731 271.68 223.392 272.331 223.125 272.825C222.86 273.328 222.714 273.728 222.689 274.026C222.66 274.329 222.793 274.587 223.087 274.801L223.149 274.846C223.913 275.401 224.652 275.619 225.367 275.498C226.078 275.383 226.727 274.894 227.314 274.033C227.923 273.139 228.209 272.3 228.173 271.515C228.137 270.729 227.972 270.076 227.679 269.555L229.508 268.229C230.015 269.071 230.289 269.903 230.332 270.724C230.376 271.555 230.264 272.343 229.995 273.088C229.728 273.843 229.386 274.526 228.968 275.14C228.701 275.531 228.349 275.947 227.91 276.387C227.473 276.836 226.953 277.197 226.35 277.47C225.744 277.748 225.051 277.842 224.273 277.75C223.494 277.658 222.633 277.269 221.688 276.582L213.853 270.887L215.128 269.015L216.738 270.186L216.803 270.091C216.632 269.776 216.5 269.364 216.407 268.854C216.314 268.344 216.332 267.768 216.461 267.127C216.589 266.485 216.895 265.81 217.378 265.101ZM218.824 266.58C218.32 267.32 218.037 268.047 217.975 268.761C217.91 269.48 218.013 270.133 218.286 270.718C218.555 271.309 218.937 271.784 219.433 272.145L221.105 273.36C221.066 273.213 221.1 272.977 221.206 272.651C221.314 272.334 221.458 271.981 221.639 271.59C221.821 271.209 222.004 270.84 222.186 270.482C222.369 270.133 222.516 269.849 222.628 269.629C222.897 269.098 223.106 268.57 223.255 268.046C223.405 267.531 223.432 267.044 223.335 266.586C223.239 266.137 222.959 265.744 222.495 265.406C221.86 264.945 221.216 264.836 220.563 265.081C219.912 265.335 219.332 265.834 218.824 266.58Z"/>
<path d="M210.363 290.657L211.446 288.825C211.765 288.989 212.121 289.103 212.515 289.168C212.909 289.243 213.328 289.212 213.774 289.078C214.22 288.943 214.68 288.648 215.156 288.194C215.807 287.571 216.21 286.898 216.366 286.174C216.521 285.46 216.388 284.868 215.964 284.398C215.588 283.98 215.143 283.791 214.629 283.831C214.116 283.872 213.472 284.111 212.699 284.55L210.761 285.661C209.597 286.333 208.561 286.648 207.654 286.604C206.752 286.566 205.957 286.165 205.268 285.4C204.703 284.773 204.374 284.045 204.28 283.216C204.182 282.391 204.315 281.538 204.682 280.657C205.049 279.776 205.645 278.94 206.471 278.15C207.556 277.113 208.672 276.496 209.819 276.3C210.966 276.105 212.053 276.382 213.081 277.132L211.889 279.014C211.211 278.567 210.534 278.392 209.858 278.49C209.177 278.593 208.502 278.965 207.833 279.605C207.072 280.334 206.617 281.078 206.468 281.839C206.32 282.609 206.457 283.229 206.88 283.699C207.222 284.079 207.638 284.273 208.128 284.282C208.621 284.296 209.194 284.111 209.845 283.727L212.002 282.459C213.19 281.765 214.237 281.449 215.143 281.511C216.048 281.581 216.841 281.994 217.521 282.749C218.077 283.367 218.4 284.074 218.491 284.871C218.577 285.672 218.449 286.489 218.107 287.32C217.76 288.156 217.212 288.932 216.465 289.647C215.412 290.653 214.372 291.206 213.344 291.305C212.312 291.409 211.318 291.193 210.363 290.657Z"/>
<path d="M177.324 306.256L179.561 305.474C179.91 306.078 180.332 306.568 180.827 306.945C181.316 307.324 181.851 307.598 182.432 307.769C183.008 307.947 183.608 308.022 184.23 307.995C184.852 307.967 185.469 307.846 186.083 307.632C187.201 307.241 188.119 306.601 188.836 305.712C189.547 304.825 189.985 303.732 190.149 302.433C190.306 301.136 190.115 299.679 189.576 298.062C189.036 296.446 188.316 295.174 187.415 294.247C186.509 293.322 185.51 292.731 184.417 292.475C183.318 292.222 182.21 292.29 181.091 292.681C180.478 292.896 179.917 293.187 179.409 293.555C178.9 293.923 178.471 294.355 178.119 294.851C177.764 295.355 177.506 295.91 177.346 296.516C177.181 297.13 177.141 297.782 177.223 298.473L174.987 299.255C174.836 298.242 174.858 297.281 175.051 296.372C175.245 295.463 175.584 294.628 176.069 293.868C176.556 293.114 177.165 292.456 177.898 291.895C178.624 291.335 179.453 290.892 180.385 290.566C181.961 290.016 183.491 289.915 184.978 290.264C186.464 290.612 187.798 291.381 188.981 292.569C190.163 293.758 191.083 295.336 191.74 297.305C192.398 299.274 192.614 301.099 192.389 302.779C192.165 304.46 191.569 305.903 190.602 307.11C189.635 308.317 188.364 309.196 186.789 309.747C185.857 310.073 184.936 310.242 184.027 310.255C183.112 310.269 182.236 310.128 181.398 309.83C180.562 309.539 179.796 309.094 179.099 308.496C178.405 307.904 177.813 307.158 177.324 306.256Z"/>
<path d="M164.917 297.887C165.84 297.775 166.698 297.848 167.492 298.107C168.286 298.373 168.945 298.813 169.467 299.428C169.99 300.049 170.308 300.837 170.422 301.792C170.523 302.632 170.44 303.333 170.174 303.895C169.908 304.463 169.518 304.93 169.004 305.296C168.49 305.662 167.91 305.958 167.264 306.185C166.613 306.419 165.954 306.622 165.289 306.793C164.418 307.015 163.711 307.188 163.168 307.312C162.619 307.443 162.228 307.597 161.992 307.774C161.751 307.952 161.652 308.222 161.695 308.585L161.704 308.661C161.817 309.604 162.16 310.305 162.734 310.765C163.302 311.225 164.101 311.393 165.131 311.268C166.199 311.139 167.008 310.802 167.559 310.257C168.109 309.712 168.475 309.158 168.658 308.593L170.872 309.1C170.6 310.037 170.177 310.792 169.605 311.365C169.026 311.945 168.373 312.38 167.645 312.668C166.911 312.964 166.177 313.156 165.444 313.245C164.977 313.302 164.433 313.31 163.812 313.269C163.186 313.235 162.569 313.081 161.959 312.806C161.343 312.532 160.804 312.071 160.342 311.423C159.88 310.775 159.579 309.868 159.44 308.703L158.285 299.04L160.522 298.769L160.759 300.755L160.873 300.741C160.987 300.404 161.199 300.033 161.509 299.627C161.82 299.221 162.254 298.856 162.811 298.53C163.368 298.204 164.07 297.99 164.917 297.887ZM164.818 299.953C163.933 300.06 163.208 300.325 162.643 300.749C162.072 301.174 161.665 301.681 161.422 302.273C161.172 302.865 161.083 303.467 161.156 304.078L161.403 306.14C161.484 306.014 161.68 305.884 161.991 305.749C162.296 305.622 162.653 305.498 163.062 305.377C163.465 305.264 163.859 305.158 164.245 305.06C164.625 304.968 164.933 304.892 165.17 304.831C165.742 304.684 166.271 304.494 166.756 304.261C167.235 304.035 167.609 303.734 167.879 303.359C168.142 302.992 168.24 302.521 168.172 301.948C168.078 301.165 167.72 300.608 167.097 300.277C166.468 299.953 165.709 299.845 164.818 299.953Z"/>
<path d="M151.728 298.506L150.485 313.226L148.318 313.019L148.506 310.796L148.354 310.781C148.026 311.484 147.495 312.029 146.76 312.416C146.024 312.803 145.219 312.955 144.345 312.872C144.18 312.856 143.975 312.833 143.728 312.803C143.481 312.773 143.295 312.746 143.17 312.721L143.364 310.421C143.438 310.447 143.61 310.493 143.879 310.557C144.142 310.627 144.422 310.676 144.72 310.705C145.429 310.773 146.076 310.683 146.658 310.436C147.235 310.195 147.706 309.828 148.074 309.335C148.434 308.847 148.642 308.272 148.699 307.607L149.485 298.292L151.728 298.506Z"/>
<path d="M134.793 304.677L137.318 296.162L139.465 296.85L135.267 311.005L133.193 310.34L133.849 308.128L133.667 308.07C133.126 308.684 132.458 309.102 131.661 309.324C130.863 309.553 129.936 309.498 128.88 309.16C127.934 308.856 127.165 308.395 126.572 307.774C125.977 307.159 125.6 306.393 125.441 305.474C125.28 304.561 125.378 303.503 125.735 302.299L128.402 293.304L130.549 293.992L127.925 302.839C127.596 303.951 127.624 304.909 128.01 305.712C128.394 306.521 129.084 307.085 130.079 307.404C130.764 307.624 131.421 307.67 132.05 307.542C132.673 307.412 133.225 307.107 133.706 306.629C134.186 306.151 134.549 305.5 134.793 304.677Z"/>
<path d="M118.845 287.901C120.071 288.608 120.98 289.495 121.572 290.56C122.155 291.627 122.418 292.798 122.362 294.073C122.296 295.35 121.905 296.653 121.189 297.983C120.472 299.313 119.603 300.349 118.582 301.089C117.552 301.832 116.455 302.241 115.292 302.317C114.121 302.394 112.961 302.102 111.812 301.44C111.149 301.057 110.555 300.567 110.03 299.969C109.505 299.371 109.114 298.665 108.857 297.853C108.597 297.045 108.533 296.136 108.664 295.126C108.796 294.117 109.188 293.006 109.841 291.794L110.296 290.949L120.106 296.606L119.177 298.33L111.356 293.82C110.961 294.553 110.752 295.289 110.73 296.03C110.702 296.767 110.861 297.453 111.207 298.088C111.547 298.72 112.07 299.24 112.777 299.648C113.556 300.097 114.336 300.288 115.118 300.222C115.891 300.158 116.598 299.901 117.238 299.45C117.879 299 118.392 298.417 118.778 297.701L119.397 296.551C119.926 295.571 120.208 294.644 120.244 293.771C120.271 292.901 120.082 292.116 119.677 291.417C119.268 290.723 118.669 290.149 117.879 289.693C117.366 289.397 116.862 289.203 116.369 289.11C115.867 289.02 115.384 289.037 114.919 289.161C114.451 289.29 114.013 289.532 113.605 289.887L112.007 288.257C112.558 287.718 113.202 287.336 113.939 287.111C114.672 286.891 115.459 286.842 116.298 286.964C117.134 287.092 117.983 287.404 118.845 287.901Z"/>
<path d="M94.8518 283.964L96.732 284.884C96.608 285.229 96.5352 285.606 96.5137 286.017C96.4834 286.428 96.5566 286.855 96.7334 287.298C96.9102 287.741 97.2429 288.183 97.7315 288.623C98.4004 289.226 99.092 289.57 99.8063 289.655C100.512 289.74 101.069 289.541 101.478 289.058C101.841 288.629 101.977 288.153 101.884 287.63C101.791 287.108 101.492 286.473 100.987 285.726L99.7115 283.854C98.9408 282.729 98.5286 281.7 98.4749 280.766C98.417 279.836 98.7205 278.979 99.3854 278.193C99.9306 277.549 100.598 277.136 101.388 276.954C102.174 276.767 103.01 276.816 103.898 277.1C104.787 277.384 105.655 277.909 106.505 278.674C107.619 279.679 108.331 280.759 108.641 281.915C108.95 283.071 108.797 284.215 108.182 285.347L106.241 284.32C106.602 283.578 106.699 282.866 106.533 282.183C106.362 281.496 105.932 280.842 105.244 280.222C104.462 279.517 103.696 279.128 102.946 279.055C102.188 278.982 101.605 279.187 101.196 279.67C100.866 280.061 100.722 280.507 100.764 281.01C100.803 281.518 101.042 282.085 101.48 282.713L102.93 284.794C103.725 285.94 104.14 286.98 104.176 287.916C104.203 288.852 103.888 289.708 103.232 290.484C102.695 291.118 102.047 291.523 101.287 291.699C100.523 291.87 99.7222 291.824 98.8844 291.559C98.0418 291.29 97.2362 290.809 96.4677 290.116C95.3861 289.142 94.7435 288.132 94.5398 287.089C94.3314 286.041 94.4354 284.999 94.8518 283.964Z"/>
<path d="M86.3902 253.69C86.9754 254.986 87.1982 256.237 87.0585 257.445C86.9105 258.65 86.4417 259.748 85.6523 260.741C84.8545 261.73 83.7764 262.547 82.418 263.193C81.0597 263.839 79.7491 264.158 78.4864 264.148C77.2153 264.136 76.0848 263.816 75.0948 263.188C74.0965 262.556 73.3232 261.634 72.7749 260.42C72.4586 259.719 72.2613 258.973 72.1831 258.181C72.105 257.388 72.1983 256.589 72.4633 255.782C72.7225 254.978 73.2 254.209 73.8958 253.474C74.5917 252.739 75.5583 252.077 76.7958 251.489L77.6592 251.078L82.3408 261.443L80.5796 262.281L76.8469 254.017C76.0987 254.373 75.4995 254.842 75.0495 255.425C74.5969 256.001 74.326 256.648 74.2368 257.364C74.145 258.074 74.2678 258.802 74.6052 259.549C74.9769 260.372 75.5 260.988 76.1744 261.398C76.8404 261.804 77.5654 262.016 78.3492 262.033C79.1331 262.051 79.8905 261.885 80.6215 261.538L81.7957 260.979C82.7972 260.503 83.5671 259.924 84.1054 259.243C84.6352 258.559 84.9391 257.815 85.0171 257.012C85.0892 256.212 84.9368 255.395 84.5599 254.56C84.3147 254.018 84.0185 253.563 83.6711 253.196C83.3154 252.827 82.9125 252.554 82.4624 252.378C82.0066 252.205 81.509 252.14 80.9694 252.184L80.6204 249.925C81.383 249.818 82.1296 249.892 82.8601 250.147C83.585 250.405 84.2531 250.832 84.8647 251.427C85.4705 252.025 85.979 252.78 86.3902 253.69Z"/>
<path d="M67.387 243.836L72.455 239.024L65.8394 236.931L65.2675 234.379L73.4545 237.37L79.5555 231.054L80.1275 233.606L75.3572 238.349L81.6751 240.511L82.2471 243.063L74.0769 240.147L67.959 246.388L67.387 243.836Z"/>
<path d="M81.3053 222.124C81.3284 223.457 81.0338 224.631 80.4212 225.646C79.8086 226.654 78.9407 227.447 77.8177 228.026C76.6946 228.598 75.3757 228.893 73.861 228.913C72.3336 228.932 70.9954 228.67 69.8465 228.127C68.6975 227.577 67.7993 226.806 67.1518 225.814C66.5043 224.815 66.1689 223.649 66.1457 222.316C66.1225 220.982 66.4172 219.812 67.0299 218.803C67.6424 217.789 68.5134 216.996 69.6429 216.423C70.7723 215.845 72.1007 215.546 73.6281 215.526C75.1428 215.507 76.4715 215.773 77.6141 216.322C78.7567 216.866 79.6517 217.637 80.2993 218.635C80.9467 219.627 81.2821 220.79 81.3053 222.124ZM79.2814 222.149C79.2638 221.136 78.9916 220.306 78.4647 219.659C77.9378 219.011 77.2516 218.536 76.4061 218.233C75.5605 217.929 74.6477 217.784 73.6676 217.796C72.6875 217.808 71.777 217.977 70.936 218.302C70.095 218.627 69.4193 219.119 68.9088 219.78C68.3983 220.44 68.1519 221.277 68.1695 222.29C68.1871 223.303 68.4625 224.133 68.9958 224.781C69.529 225.428 70.2216 225.903 71.0735 226.207C71.9254 226.51 72.8414 226.656 73.8215 226.643C74.8016 226.631 75.709 226.462 76.5436 226.137C77.3782 225.813 78.0475 225.32 78.5517 224.659C79.0558 223.999 79.2991 223.162 79.2814 222.149ZM64.369 223.377L59.8987 221.087L59.8525 218.433L64.3342 221.377L64.369 223.377Z"/>
<path d="M68.7327 199.032L70.6035 199.417L69.1874 206.938L67.3166 206.554L68.7327 199.032ZM64.287 203.653L64.7069 201.423L78.4012 204.24C79.0248 204.368 79.5097 204.373 79.8559 204.255C80.1971 204.129 80.4479 203.932 80.6085 203.664C80.764 203.388 80.8726 203.086 80.9343 202.759C80.9805 202.513 81.006 202.309 81.0107 202.146C81.0092 201.982 81.008 201.851 81.0071 201.753L83.0755 201.707C83.1032 201.87 83.1196 202.093 83.1247 202.375C83.1361 202.659 83.1026 203.009 83.0243 203.424C82.9057 204.054 82.6554 204.644 82.2734 205.194C81.8926 205.737 81.3904 206.151 80.7669 206.435C80.1446 206.712 79.4157 206.765 78.58 206.593L64.287 203.653Z"/>
<path d="M86.6469 191.164L73.2224 185.219L74.0865 183.123L87.5109 189.068L86.6469 191.164ZM71.4244 183.162C71.256 183.571 70.9738 183.862 70.5779 184.037C70.1845 184.206 69.7955 184.205 69.4109 184.035C69.0264 183.865 68.7569 183.574 68.6027 183.163C68.4509 182.745 68.4592 182.332 68.6276 181.924C68.796 181.515 69.0769 181.226 69.4704 181.057C69.8663 180.882 70.2565 180.88 70.641 181.051C71.0256 181.221 71.2938 181.515 71.4456 181.932C71.5998 182.344 71.5928 182.754 71.4244 183.162Z"/>
<path d="M95.2611 175.814C94.4832 176.956 93.5502 177.748 92.4619 178.19C91.3737 178.632 90.2164 178.739 88.99 178.512C87.7636 178.284 86.5569 177.739 85.3698 176.876C84.1621 175.998 83.2512 174.996 82.637 173.87C82.0213 172.734 81.7319 171.567 81.7688 170.369C81.8042 169.162 82.1964 168.008 82.9454 166.908C83.5288 166.052 84.2095 165.393 84.9873 164.93C85.7652 164.468 86.5822 164.22 87.4385 164.187C88.2949 164.153 89.1306 164.354 89.9459 164.788L88.671 166.66C88.0319 166.409 87.3358 166.377 86.5828 166.565C85.8283 166.743 85.1701 167.245 84.6083 168.07C84.1113 168.799 83.8614 169.574 83.8585 170.394C83.854 171.205 84.0828 172.008 84.5449 172.802C85.0054 173.588 85.6847 174.307 86.5828 174.96C87.5015 175.627 88.4023 176.061 89.2852 176.26C90.1718 176.454 90.9889 176.416 91.7366 176.145C92.4879 175.869 93.1157 175.361 93.6198 174.621C93.9512 174.135 94.1693 173.633 94.2742 173.116C94.3791 172.6 94.3704 172.092 94.248 171.592C94.1256 171.091 93.8872 170.626 93.5329 170.194L94.8078 168.323C95.4377 168.939 95.8917 169.66 96.1697 170.487C96.4462 171.304 96.5174 172.174 96.3831 173.096C96.2473 174.009 95.8733 174.915 95.2611 175.814Z"/>
<path d="M105.814 162.502C105.14 163.147 104.411 163.601 103.626 163.865C102.838 164.125 102.057 164.16 101.285 163.97C100.509 163.776 99.7997 163.323 99.1581 162.61C98.5936 161.983 98.256 161.36 98.1453 160.742C98.0304 160.118 98.0731 159.502 98.2737 158.895C98.4743 158.288 98.7677 157.698 99.154 157.125C99.5406 156.543 99.9509 155.983 100.385 155.444C100.954 154.74 101.42 154.175 101.783 153.748C102.147 153.312 102.372 152.951 102.458 152.665C102.549 152.375 102.472 152.095 102.228 151.824L102.177 151.767C101.544 151.064 100.865 150.697 100.141 150.665C99.4209 150.629 98.6848 150.971 97.9324 151.69C97.1524 152.436 96.699 153.197 96.5724 153.972C96.4458 154.748 96.4721 155.421 96.6513 155.992L94.5872 156.905C94.2654 155.976 94.1685 155.105 94.2965 154.293C94.4248 153.472 94.6973 152.725 95.114 152.052C95.531 151.371 96.0072 150.774 96.5427 150.262C96.8842 149.935 97.315 149.602 97.8351 149.264C98.3556 148.917 98.939 148.672 99.5853 148.531C100.236 148.386 100.933 148.44 101.676 148.693C102.42 148.945 103.182 149.506 103.965 150.375L110.457 157.584L108.823 159.146L107.489 157.665L107.406 157.744C107.509 158.088 107.553 158.518 107.538 159.036C107.524 159.554 107.387 160.113 107.129 160.714C106.871 161.314 106.433 161.911 105.814 162.502ZM104.703 160.754C105.349 160.136 105.777 159.484 105.984 158.799C106.197 158.11 106.23 157.45 106.084 156.821C105.943 156.187 105.667 155.642 105.256 155.186L103.871 153.647C103.879 153.799 103.797 154.023 103.626 154.32C103.455 154.607 103.24 154.922 102.983 155.266C102.726 155.6 102.471 155.923 102.219 156.235C101.967 156.538 101.765 156.785 101.611 156.976C101.237 157.439 100.924 157.912 100.67 158.393C100.416 158.865 100.29 159.335 100.29 159.803C100.291 160.262 100.484 160.705 100.869 161.133C101.395 161.717 102.003 161.958 102.692 161.855C103.382 161.743 104.052 161.376 104.703 160.754Z"/>
<path d="M121.215 141.521L119.446 142.685C119.229 142.397 118.958 142.137 118.631 141.905C118.308 141.664 117.917 141.506 117.457 141.429C116.997 141.353 116.454 141.414 115.828 141.612C114.972 141.883 114.317 142.308 113.863 142.889C113.414 143.461 113.278 144.052 113.456 144.66C113.614 145.202 113.934 145.568 114.414 145.758C114.895 145.949 115.578 146.019 116.465 145.966L118.693 145.826C120.034 145.738 121.104 145.914 121.902 146.353C122.699 146.786 123.242 147.498 123.532 148.488C123.769 149.3 123.751 150.099 123.477 150.885C123.208 151.668 122.718 152.374 122.006 153.003C121.295 153.631 120.395 154.117 119.308 154.461C117.881 154.912 116.608 154.972 115.49 154.641C114.371 154.309 113.511 153.58 112.909 152.453L114.799 151.291C115.216 151.993 115.751 152.448 116.403 152.659C117.061 152.867 117.83 152.832 118.71 152.554C119.712 152.237 120.445 151.77 120.908 151.153C121.375 150.528 121.52 149.911 121.342 149.302C121.198 148.81 120.907 148.452 120.47 148.227C120.031 147.997 119.435 147.91 118.682 147.966L116.189 148.15C114.817 148.248 113.737 148.069 112.947 147.614C112.161 147.15 111.625 146.429 111.339 145.451C111.105 144.652 111.12 143.874 111.383 143.119C111.653 142.362 112.122 141.686 112.79 141.091C113.465 140.495 114.294 140.041 115.278 139.73C116.662 139.292 117.839 139.256 118.809 139.621C119.784 139.984 120.586 140.618 121.215 141.521Z"/>
<path d="M156.25 156.5H153.75C117.161 156.5 87.5 186.161 87.5 222.75C87.5 259.339 117.161 289 153.75 289H156.25C192.839 289 222.5 259.339 222.5 222.75C222.5 186.161 192.839 156.5 156.25 156.5Z"/>
</mask>
<path d="M1 1H308V532.099L157.17 391.823L1 532.099V1Z" fill="black" fill-opacity="0.62"/>
<path d="M254.997 218.236C255.413 273.463 210.98 318.575 155.753 318.997C100.526 319.419 55.4187 274.991 55.0029 219.764C54.5871 164.537 99.0202 119.425 154.247 119.003C209.474 118.581 254.581 163.009 254.997 218.236Z" fill="#0A0909"/>
<path d="M172.567 186.058C173.412 191.258 173.074 191.908 167.502 194.345C162.267 196.783 158.214 197.108 138.796 195.97L117.302 194.882C116.66 194.849 116.016 194.865 115.377 194.929L114.164 195.051C110.476 195.42 107.24 197.685 105.61 201.038C104.891 202.515 104.518 204.138 104.518 205.784V230.422C104.518 260.485 105.024 262.11 111.947 261.46C115.662 261.135 117.013 260.322 116.506 258.535C114.649 252.522 114.48 244.397 116.169 240.497C117.857 236.272 118.026 236.109 134.743 236.272H151.798V244.884C151.798 257.56 153.993 261.785 160.41 261.785C164.462 261.785 165.475 261.298 164.631 259.185C160.072 247.647 161.592 241.634 169.528 239.034C175.776 237.084 182.192 230.584 182.192 226.196C182.192 224.409 180.841 225.059 178.14 228.471C175.944 231.072 173.749 233.022 173.412 232.534C170.034 228.634 165.475 218.884 166.32 217.584C168.008 214.984 178.14 211.408 183.881 211.408H189.115L185.569 214.984C183.712 216.934 182.192 219.046 182.192 219.859C182.192 222.296 185.232 221.159 187.596 217.746C189.284 215.146 192.324 214.008 199.922 213.196C209.547 212.221 209.885 212.058 211.405 206.533C212.418 202.633 212.249 200.683 210.898 200.358C209.885 200.033 208.365 198.896 207.521 197.758C197.389 185.408 195.194 183.783 189.791 183.783C186.583 183.783 183.543 182.97 183.036 182.157C182.53 181.182 179.659 180.532 176.789 180.532C171.892 180.532 171.723 180.695 172.567 186.058ZM184.894 187.845C187.765 192.07 191.142 191.908 189.453 187.683C188.609 185.733 189.284 185.57 192.999 187.195C195.363 188.333 197.389 189.633 197.389 190.283C197.389 190.77 200.091 194.02 203.299 197.595C207.352 201.821 209.041 204.746 208.196 206.858C207.352 209.621 205.832 209.783 191.817 209.133L176.282 208.321L173.918 202.471C171.892 197.27 171.892 196.295 173.918 195.158C175.1 194.345 178.14 194.183 180.504 194.67L184.725 195.645L180.166 191.42C177.464 189.145 175.438 186.383 175.438 185.408C175.438 182.157 182.192 183.783 184.894 187.845ZM129.171 201.008C128.664 202.471 128.158 204.096 128.158 204.746C128.158 205.558 126.3 207.996 123.767 210.596C119.377 215.146 119.377 218.234 123.767 214.821C129.677 210.108 138.289 218.721 138.289 229.446V234.484L128.664 233.347C123.43 232.697 116.675 231.072 113.467 229.609C106.713 226.521 106.037 221.646 112.116 220.184C114.48 219.696 116.338 218.559 116.338 217.746C116.338 216.934 114.48 216.609 112.116 217.259C108.232 218.234 107.895 217.746 107.895 212.546C107.895 204.583 114.649 198.408 123.43 198.408C129.002 198.408 130.015 198.896 129.171 201.008ZM143.524 200.033C145.888 200.033 145.719 201.333 141.835 207.996L137.445 216.121L133.73 212.708C130.859 210.108 130.184 208.158 131.028 205.071C132.548 198.733 133.223 198.083 137.276 199.058C139.133 199.546 142.004 200.033 143.524 200.033ZM170.372 202.633C172.905 208.971 172.398 210.433 166.657 213.521C161.592 216.284 161.254 216.284 157.877 213.358C155.85 211.571 152.642 209.296 150.447 208.158C146.732 206.371 146.563 206.046 149.265 203.283C150.953 201.496 155.006 199.871 158.383 199.546C161.76 199.221 165.475 198.896 166.657 198.733C167.839 198.57 169.528 200.358 170.372 202.633ZM155.006 214.984C163.111 220.671 162.774 221.321 148.927 223.434C141.835 224.409 141.666 224.409 141.666 219.696C141.666 213.521 143.186 209.783 145.719 209.783C146.901 209.783 151.122 212.058 155.006 214.984ZM168.008 229.446C170.203 233.672 170.372 234.809 168.346 235.947C165.475 237.734 163.618 237.734 163.618 235.784C163.618 232.534 157.201 230.909 149.434 232.372C142.511 233.672 141.666 233.347 141.666 230.747C141.666 228.959 143.186 227.334 145.55 227.009C147.576 226.521 150.785 225.871 152.642 225.546C162.098 223.596 165.138 224.409 168.008 229.446ZM112.623 233.022C113.974 234.647 113.974 236.922 112.792 241.472C111.778 244.884 111.272 250.247 111.778 253.335C112.454 257.072 112.116 258.535 110.765 258.047C109.414 257.722 108.57 252.685 108.232 244.234C107.726 231.234 108.908 228.634 112.623 233.022ZM160.072 236.272C161.423 237.897 161.254 239.847 159.903 243.584C158.383 247.485 158.214 249.922 159.734 253.66C161.254 257.56 161.254 258.535 159.396 258.535C156.188 258.535 155.175 254.797 155.175 243.747C155.175 234.159 156.526 232.209 160.072 236.272Z" fill="white"/>
<path d="M159.7 145.628L153.693 145.054L155.35 125.428L161.623 126.027C163.511 126.207 165.094 126.754 166.371 127.669C167.649 128.576 168.583 129.796 169.176 131.327C169.769 132.853 169.98 134.631 169.808 136.663C169.636 138.707 169.126 140.433 168.279 141.84C167.432 143.24 166.285 144.27 164.837 144.931C163.389 145.584 161.677 145.817 159.7 145.628ZM156.228 143.171L159.726 143.505C161.335 143.659 162.696 143.473 163.807 142.948C164.918 142.423 165.782 141.607 166.399 140.501C167.016 139.394 167.392 138.042 167.527 136.445C167.661 134.86 167.519 133.472 167.103 132.279C166.687 131.08 165.994 130.125 165.026 129.414C164.058 128.697 162.814 128.266 161.293 128.121L157.529 127.761L156.228 143.171Z" fill="#FFF4F4"/>
<path d="M176.619 149.476C175.273 149.045 174.2 148.371 173.402 147.456C172.612 146.537 172.115 145.449 171.91 144.193C171.712 142.932 171.829 141.576 172.259 140.127C172.689 138.677 173.328 137.482 174.178 136.544C175.035 135.601 176.026 134.97 177.15 134.651C178.282 134.327 179.479 134.368 180.741 134.772C181.468 135.005 182.151 135.358 182.787 135.831C183.424 136.305 183.952 136.911 184.37 137.651C184.79 138.384 185.039 139.258 185.117 140.271C185.195 141.285 185.038 142.453 184.646 143.774L184.373 144.695L173.601 141.243L174.159 139.363L182.747 142.116C182.984 141.317 183.037 140.554 182.908 139.826C182.784 139.1 182.488 138.464 182.02 137.917C181.557 137.371 180.938 136.974 180.161 136.726C179.306 136.451 178.502 136.429 177.75 136.659C177.006 136.885 176.366 137.285 175.83 137.86C175.294 138.435 174.91 139.113 174.679 139.893L174.307 141.146C173.99 142.215 173.903 143.18 174.047 144.04C174.198 144.896 174.544 145.622 175.084 146.219C175.626 146.81 176.331 147.244 177.198 147.522C177.763 147.703 178.296 147.787 178.798 147.773C179.308 147.754 179.778 147.636 180.208 147.417C180.64 147.192 181.02 146.863 181.348 146.43L183.247 147.685C182.818 148.327 182.265 148.837 181.589 149.212C180.915 149.581 180.154 149.795 179.307 149.853C178.461 149.905 177.565 149.779 176.619 149.476Z" fill="#FFF4F4"/>
<path d="M201.025 138.861L191.699 156.173L189.743 155.046L199.07 137.733L201.025 138.861Z" fill="#FFF4F4"/>
<path d="M202.682 162.04L212.198 150.799L213.877 152.313L204.361 163.553L202.682 162.04ZM213.571 149.354L218.182 147.523L220.146 149.293L215.051 150.688L213.571 149.354Z" fill="#FFF4F4"/>
<path d="M216.055 176.059C215.241 174.942 214.798 173.782 214.726 172.578C214.654 171.374 214.912 170.206 215.5 169.073C216.088 167.941 216.963 166.926 218.125 166.03C219.307 165.117 220.513 164.534 221.741 164.281C222.978 164.028 224.143 164.106 225.237 164.513C226.34 164.922 227.283 165.664 228.067 166.739C228.677 167.576 229.075 168.448 229.261 169.354C229.448 170.26 229.424 171.138 229.191 171.988C228.958 172.838 228.516 173.596 227.863 174.261L226.53 172.431C226.959 171.882 227.203 171.209 227.262 170.413C227.33 169.617 227.07 168.816 226.483 168.01C225.963 167.297 225.325 166.812 224.57 166.555C223.823 166.299 223.012 166.275 222.137 166.482C221.271 166.691 220.398 167.134 219.519 167.813C218.62 168.507 217.942 169.256 217.486 170.06C217.034 170.87 216.817 171.683 216.836 172.5C216.859 173.322 217.134 174.095 217.661 174.819C218.008 175.294 218.403 175.664 218.847 175.926C219.291 176.189 219.763 176.338 220.262 176.373C220.761 176.408 221.264 176.318 221.771 176.104L223.104 177.934C222.342 178.361 221.536 178.583 220.688 178.6C219.849 178.618 219.025 178.418 218.215 178.001C217.415 177.585 216.695 176.938 216.055 176.059Z" fill="#FFF4F4"/>
<path d="M222.659 188.354L235.92 182.048L236.853 184.114L223.592 190.42L222.659 188.354ZM238.605 182.047C238.423 181.645 238.401 181.233 238.54 180.813C238.681 180.398 238.942 180.1 239.322 179.92C239.702 179.739 240.092 179.727 240.491 179.885C240.894 180.048 241.186 180.331 241.368 180.733C241.549 181.136 241.57 181.545 241.428 181.959C241.29 182.38 241.03 182.68 240.65 182.861C240.271 183.042 239.88 183.05 239.477 182.887C239.078 182.73 238.787 182.45 238.605 182.047Z" fill="#FFF4F4"/>
<path d="M231.115 204.646C230.911 203.733 230.895 202.865 231.07 202.041C231.25 201.216 231.617 200.509 232.17 199.92C232.729 199.329 233.474 198.925 234.404 198.709C235.223 198.518 235.923 198.526 236.504 198.733C237.092 198.939 237.592 199.28 238.006 199.756C238.419 200.232 238.771 200.782 239.06 201.406C239.358 202.034 239.625 202.673 239.862 203.322C240.17 204.171 240.413 204.862 240.59 205.393C240.776 205.929 240.968 206.305 241.166 206.522C241.367 206.746 241.643 206.816 241.997 206.734L242.071 206.717C242.989 206.503 243.645 206.084 244.04 205.459C244.437 204.84 244.521 204.021 244.292 203.001C244.055 201.944 243.64 201.169 243.047 200.675C242.453 200.182 241.869 199.874 241.293 199.751L241.566 197.476C242.519 197.649 243.307 197.993 243.93 198.505C244.562 199.023 245.057 199.632 245.416 200.331C245.783 201.036 246.048 201.751 246.21 202.476C246.314 202.939 246.377 203.484 246.4 204.11C246.431 204.741 246.342 205.377 246.133 206.018C245.926 206.665 245.526 207.255 244.934 207.788C244.342 208.32 243.479 208.718 242.344 208.983L232.931 211.173L232.434 208.959L234.369 208.509L234.344 208.396C234 208.318 233.612 208.145 233.18 207.877C232.748 207.609 232.343 207.213 231.965 206.69C231.586 206.166 231.303 205.485 231.115 204.646ZM233.163 204.525C233.359 205.401 233.695 206.099 234.171 206.62C234.648 207.148 235.191 207.502 235.799 207.683C236.408 207.87 237.011 207.894 237.606 207.756L239.615 207.288C239.483 207.22 239.334 207.038 239.17 206.74C239.013 206.448 238.854 206.103 238.693 205.706C238.54 205.314 238.395 204.93 238.259 204.554C238.13 204.182 238.023 203.881 237.939 203.651C237.736 203.093 237.494 202.583 237.215 202.122C236.943 201.665 236.608 201.322 236.21 201.092C235.821 200.866 235.347 200.819 234.789 200.949C234.026 201.126 233.513 201.545 233.25 202.205C232.994 202.87 232.965 203.643 233.163 204.525Z" fill="#FFF4F4"/>
<path d="M244.991 227.105L244.383 225.074C244.718 224.941 245.042 224.748 245.356 224.494C245.676 224.246 245.938 223.909 246.14 223.484C246.343 223.058 246.439 222.515 246.427 221.855C246.411 220.951 246.191 220.2 245.767 219.603C245.349 219.011 244.825 218.72 244.195 218.728C243.635 218.735 243.197 218.946 242.879 219.36C242.562 219.774 242.302 220.419 242.101 221.293L241.605 223.493C241.31 224.817 240.84 225.808 240.196 226.463C239.558 227.119 238.727 227.453 237.702 227.466C236.862 227.477 236.107 227.243 235.437 226.764C234.766 226.291 234.233 225.625 233.836 224.764C233.439 223.903 233.23 222.899 233.21 221.752C233.184 220.245 233.487 218.994 234.119 217.999C234.751 217.003 235.688 216.366 236.931 216.088L237.503 218.235C236.717 218.45 236.132 218.845 235.748 219.421C235.363 220.003 235.179 220.759 235.195 221.688C235.214 222.746 235.451 223.583 235.907 224.199C236.37 224.822 236.917 225.129 237.547 225.121C238.056 225.115 238.479 224.93 238.817 224.567C239.16 224.203 239.412 223.649 239.57 222.903L240.1 220.434C240.395 219.077 240.871 218.077 241.528 217.434C242.192 216.797 243.029 216.472 244.041 216.46C244.869 216.449 245.605 216.674 246.249 217.134C246.894 217.6 247.405 218.238 247.782 219.048C248.159 219.864 248.356 220.791 248.374 221.83C248.4 223.292 248.102 224.443 247.48 225.285C246.858 226.133 246.029 226.739 244.991 227.105Z" fill="#FFF4F4"/>
<path d="M224.255 251.087C224.724 249.95 225.42 249.071 226.344 248.451C227.274 247.834 228.359 247.509 229.599 247.476C230.844 247.447 232.178 247.747 233.599 248.376C235.009 249.001 236.132 249.789 236.966 250.739C237.801 251.69 238.32 252.729 238.524 253.856C238.728 254.982 238.593 256.12 238.12 257.269C237.754 258.157 237.319 258.794 236.815 259.181C236.315 259.575 235.825 259.828 235.346 259.937C234.87 260.056 234.483 260.14 234.187 260.191L234.114 260.369L240.721 263.295L239.857 265.391L221.958 257.464L222.792 255.439L224.855 256.352L224.958 256.104C224.776 255.841 224.558 255.486 224.302 255.036C224.052 254.589 223.89 254.038 223.816 253.382C223.748 252.728 223.894 251.963 224.255 251.087ZM225.991 252.192C225.645 253.033 225.567 253.839 225.759 254.61C225.957 255.384 226.378 256.092 227.023 256.735C227.673 257.38 228.505 257.927 229.519 258.376C230.521 258.82 231.459 259.06 232.333 259.097C233.213 259.136 233.982 258.959 234.64 258.564C235.305 258.172 235.813 257.55 236.164 256.697C236.53 255.809 236.611 254.969 236.407 254.178C236.206 253.396 235.784 252.688 235.143 252.054C234.505 251.428 233.714 250.906 232.77 250.488C231.815 250.065 230.886 249.829 229.983 249.779C229.083 249.738 228.283 249.908 227.581 250.291C226.882 250.682 226.352 251.315 225.991 252.192Z" fill="#FFF4F4"/>
<path d="M217.378 265.101C217.903 264.329 218.522 263.732 219.235 263.309C219.952 262.89 220.708 262.693 221.502 262.717C222.301 262.744 223.088 263.039 223.862 263.602C224.544 264.098 225.002 264.636 225.238 265.219C225.479 265.805 225.564 266.417 225.494 267.053C225.423 267.689 225.258 268.328 224.998 268.97C224.741 269.62 224.455 270.254 224.142 270.873C223.731 271.68 223.392 272.331 223.125 272.825C222.86 273.328 222.714 273.728 222.689 274.026C222.66 274.329 222.793 274.587 223.087 274.801L223.149 274.846C223.913 275.401 224.652 275.619 225.367 275.498C226.078 275.383 226.727 274.894 227.314 274.033C227.923 273.139 228.209 272.3 228.173 271.515C228.137 270.729 227.972 270.076 227.679 269.555L229.508 268.229C230.015 269.071 230.289 269.903 230.332 270.724C230.376 271.555 230.264 272.343 229.995 273.088C229.728 273.843 229.386 274.526 228.968 275.14C228.701 275.531 228.349 275.947 227.91 276.387C227.473 276.836 226.953 277.197 226.35 277.47C225.744 277.748 225.051 277.842 224.273 277.75C223.494 277.658 222.633 277.269 221.688 276.582L213.853 270.887L215.128 269.015L216.738 270.186L216.803 270.091C216.632 269.776 216.5 269.364 216.407 268.854C216.314 268.344 216.332 267.768 216.461 267.127C216.589 266.485 216.895 265.81 217.378 265.101ZM218.824 266.58C218.32 267.32 218.037 268.047 217.975 268.761C217.91 269.48 218.013 270.133 218.286 270.718C218.555 271.309 218.937 271.784 219.433 272.145L221.105 273.36C221.066 273.213 221.1 272.977 221.206 272.651C221.314 272.334 221.458 271.981 221.639 271.59C221.821 271.209 222.004 270.84 222.186 270.482C222.369 270.133 222.516 269.849 222.628 269.629C222.897 269.098 223.106 268.57 223.255 268.046C223.405 267.531 223.432 267.044 223.335 266.586C223.239 266.137 222.959 265.744 222.495 265.406C221.86 264.945 221.216 264.836 220.563 265.081C219.912 265.335 219.332 265.834 218.824 266.58Z" fill="#FFF4F4"/>
<path d="M210.363 290.657L211.446 288.825C211.765 288.989 212.121 289.103 212.515 289.168C212.909 289.243 213.328 289.212 213.774 289.078C214.22 288.943 214.68 288.648 215.156 288.194C215.807 287.571 216.21 286.898 216.366 286.174C216.521 285.46 216.388 284.868 215.964 284.398C215.588 283.98 215.143 283.791 214.629 283.831C214.116 283.872 213.472 284.111 212.699 284.55L210.761 285.661C209.597 286.333 208.561 286.648 207.654 286.604C206.752 286.566 205.957 286.165 205.268 285.4C204.703 284.773 204.374 284.045 204.28 283.216C204.182 282.391 204.315 281.538 204.682 280.657C205.049 279.776 205.645 278.94 206.471 278.15C207.556 277.113 208.672 276.496 209.819 276.3C210.966 276.105 212.053 276.382 213.081 277.132L211.889 279.014C211.211 278.567 210.534 278.392 209.858 278.49C209.177 278.593 208.502 278.965 207.833 279.605C207.072 280.334 206.617 281.078 206.468 281.839C206.32 282.609 206.457 283.229 206.88 283.699C207.222 284.079 207.638 284.273 208.128 284.282C208.621 284.296 209.194 284.111 209.845 283.727L212.002 282.459C213.19 281.765 214.237 281.449 215.143 281.511C216.048 281.581 216.841 281.994 217.521 282.749C218.077 283.367 218.4 284.074 218.491 284.871C218.577 285.672 218.449 286.489 218.107 287.32C217.76 288.156 217.212 288.932 216.465 289.647C215.412 290.653 214.372 291.206 213.344 291.305C212.312 291.409 211.318 291.193 210.363 290.657Z" fill="#FFF4F4"/>
<path d="M177.324 306.256L179.561 305.474C179.91 306.078 180.332 306.568 180.827 306.945C181.316 307.324 181.851 307.598 182.432 307.769C183.008 307.947 183.608 308.022 184.23 307.995C184.852 307.967 185.469 307.846 186.083 307.632C187.201 307.241 188.119 306.601 188.836 305.712C189.547 304.825 189.985 303.732 190.149 302.433C190.306 301.136 190.115 299.679 189.576 298.062C189.036 296.446 188.316 295.174 187.415 294.247C186.509 293.322 185.51 292.731 184.417 292.475C183.318 292.222 182.21 292.29 181.091 292.681C180.478 292.896 179.917 293.187 179.409 293.555C178.9 293.923 178.471 294.355 178.119 294.851C177.764 295.355 177.506 295.91 177.346 296.516C177.181 297.13 177.141 297.782 177.223 298.473L174.987 299.255C174.836 298.242 174.858 297.281 175.051 296.372C175.245 295.463 175.584 294.628 176.069 293.868C176.556 293.114 177.165 292.456 177.898 291.895C178.624 291.335 179.453 290.892 180.385 290.566C181.961 290.016 183.491 289.915 184.978 290.264C186.464 290.612 187.798 291.381 188.981 292.569C190.163 293.758 191.083 295.336 191.74 297.305C192.398 299.274 192.614 301.099 192.389 302.779C192.165 304.46 191.569 305.903 190.602 307.11C189.635 308.317 188.364 309.196 186.789 309.747C185.857 310.073 184.936 310.242 184.027 310.255C183.112 310.269 182.236 310.128 181.398 309.83C180.562 309.539 179.796 309.094 179.099 308.496C178.405 307.904 177.813 307.158 177.324 306.256Z" fill="#FFF4F4"/>
<path d="M164.917 297.887C165.84 297.775 166.698 297.848 167.492 298.107C168.286 298.373 168.945 298.813 169.467 299.428C169.99 300.049 170.308 300.837 170.422 301.792C170.523 302.632 170.44 303.333 170.174 303.895C169.908 304.463 169.518 304.93 169.004 305.296C168.49 305.662 167.91 305.958 167.264 306.185C166.613 306.419 165.954 306.622 165.289 306.793C164.418 307.015 163.711 307.188 163.168 307.312C162.619 307.443 162.228 307.597 161.992 307.774C161.751 307.952 161.652 308.222 161.695 308.585L161.704 308.661C161.817 309.604 162.16 310.305 162.734 310.765C163.302 311.225 164.101 311.393 165.131 311.268C166.199 311.139 167.008 310.802 167.559 310.257C168.109 309.712 168.475 309.158 168.658 308.593L170.872 309.1C170.6 310.037 170.177 310.792 169.605 311.365C169.026 311.945 168.373 312.38 167.645 312.668C166.911 312.964 166.177 313.156 165.444 313.245C164.977 313.302 164.433 313.31 163.812 313.269C163.186 313.235 162.569 313.081 161.959 312.806C161.343 312.532 160.804 312.071 160.342 311.423C159.88 310.775 159.579 309.868 159.44 308.703L158.285 299.04L160.522 298.769L160.759 300.755L160.873 300.741C160.987 300.404 161.199 300.033 161.509 299.627C161.82 299.221 162.254 298.856 162.811 298.53C163.368 298.204 164.07 297.99 164.917 297.887ZM164.818 299.953C163.933 300.06 163.208 300.325 162.643 300.749C162.072 301.174 161.665 301.681 161.422 302.273C161.172 302.865 161.083 303.467 161.156 304.078L161.403 306.14C161.484 306.014 161.68 305.884 161.991 305.749C162.296 305.622 162.653 305.498 163.062 305.377C163.465 305.264 163.859 305.158 164.245 305.06C164.625 304.968 164.933 304.892 165.17 304.831C165.742 304.684 166.271 304.494 166.756 304.261C167.235 304.035 167.609 303.734 167.879 303.359C168.142 302.992 168.24 302.521 168.172 301.948C168.078 301.165 167.72 300.608 167.097 300.277C166.468 299.953 165.709 299.845 164.818 299.953Z" fill="#FFF4F4"/>
<path d="M151.728 298.506L150.485 313.226L148.318 313.019L148.506 310.796L148.354 310.781C148.026 311.484 147.495 312.029 146.76 312.416C146.024 312.803 145.219 312.955 144.345 312.872C144.18 312.856 143.975 312.833 143.728 312.803C143.481 312.773 143.295 312.746 143.17 312.721L143.364 310.421C143.438 310.447 143.61 310.493 143.879 310.557C144.142 310.627 144.422 310.676 144.72 310.705C145.429 310.773 146.076 310.683 146.658 310.436C147.235 310.195 147.706 309.828 148.074 309.335C148.434 308.847 148.642 308.272 148.699 307.607L149.485 298.292L151.728 298.506Z" fill="#FFF4F4"/>
<path d="M134.793 304.677L137.318 296.162L139.465 296.85L135.267 311.005L133.193 310.34L133.849 308.128L133.667 308.07C133.126 308.684 132.458 309.102 131.661 309.324C130.863 309.553 129.936 309.498 128.88 309.16C127.934 308.856 127.165 308.395 126.572 307.774C125.977 307.159 125.6 306.393 125.441 305.474C125.28 304.561 125.378 303.503 125.735 302.299L128.402 293.304L130.549 293.992L127.925 302.839C127.596 303.951 127.624 304.909 128.01 305.712C128.394 306.521 129.084 307.085 130.079 307.404C130.764 307.624 131.421 307.67 132.05 307.542C132.673 307.412 133.225 307.107 133.706 306.629C134.186 306.151 134.549 305.5 134.793 304.677Z" fill="#FFF4F4"/>
<path d="M118.845 287.901C120.071 288.608 120.98 289.495 121.572 290.56C122.155 291.627 122.418 292.798 122.362 294.073C122.296 295.35 121.905 296.653 121.189 297.983C120.472 299.313 119.603 300.349 118.582 301.089C117.552 301.832 116.455 302.241 115.292 302.317C114.121 302.394 112.961 302.102 111.812 301.44C111.149 301.057 110.555 300.567 110.03 299.969C109.505 299.371 109.114 298.665 108.857 297.853C108.597 297.045 108.533 296.136 108.664 295.126C108.796 294.117 109.188 293.006 109.841 291.794L110.296 290.949L120.106 296.606L119.177 298.33L111.356 293.82C110.961 294.553 110.752 295.289 110.73 296.03C110.702 296.767 110.861 297.453 111.207 298.088C111.547 298.72 112.07 299.24 112.777 299.648C113.556 300.097 114.336 300.288 115.118 300.222C115.891 300.158 116.598 299.901 117.238 299.45C117.879 299 118.392 298.417 118.778 297.701L119.397 296.551C119.926 295.571 120.208 294.644 120.244 293.771C120.271 292.901 120.082 292.116 119.677 291.417C119.268 290.723 118.669 290.149 117.879 289.693C117.366 289.397 116.862 289.203 116.369 289.11C115.867 289.02 115.384 289.037 114.919 289.161C114.451 289.29 114.013 289.532 113.605 289.887L112.007 288.257C112.558 287.718 113.202 287.336 113.939 287.111C114.672 286.891 115.459 286.842 116.298 286.964C117.134 287.092 117.983 287.404 118.845 287.901Z" fill="#FFF4F4"/>
<path d="M94.8518 283.964L96.732 284.884C96.608 285.229 96.5352 285.606 96.5137 286.017C96.4834 286.428 96.5566 286.855 96.7334 287.298C96.9102 287.741 97.2429 288.183 97.7315 288.623C98.4004 289.226 99.092 289.57 99.8063 289.655C100.512 289.74 101.069 289.541 101.478 289.058C101.841 288.629 101.977 288.153 101.884 287.63C101.791 287.108 101.492 286.473 100.987 285.726L99.7115 283.854C98.9408 282.729 98.5286 281.7 98.4749 280.766C98.417 279.836 98.7205 278.979 99.3854 278.193C99.9306 277.549 100.598 277.136 101.388 276.954C102.174 276.767 103.01 276.816 103.898 277.1C104.787 277.384 105.655 277.909 106.505 278.674C107.619 279.679 108.331 280.759 108.641 281.915C108.95 283.071 108.797 284.215 108.182 285.347L106.241 284.32C106.602 283.578 106.699 282.866 106.533 282.183C106.362 281.496 105.932 280.842 105.244 280.222C104.462 279.517 103.696 279.128 102.946 279.055C102.188 278.982 101.605 279.187 101.196 279.67C100.866 280.061 100.722 280.507 100.764 281.01C100.803 281.518 101.042 282.085 101.48 282.713L102.93 284.794C103.725 285.94 104.14 286.98 104.176 287.916C104.203 288.852 103.888 289.708 103.232 290.484C102.695 291.118 102.047 291.523 101.287 291.699C100.523 291.87 99.7222 291.824 98.8844 291.559C98.0418 291.29 97.2362 290.809 96.4677 290.116C95.3861 289.142 94.7435 288.132 94.5398 287.089C94.3314 286.041 94.4354 284.999 94.8518 283.964Z" fill="#FFF4F4"/>
<path d="M86.3902 253.69C86.9754 254.986 87.1982 256.237 87.0585 257.445C86.9105 258.65 86.4417 259.748 85.6523 260.741C84.8545 261.73 83.7764 262.547 82.418 263.193C81.0597 263.839 79.7491 264.158 78.4864 264.148C77.2153 264.136 76.0848 263.816 75.0948 263.188C74.0965 262.556 73.3232 261.634 72.7749 260.42C72.4586 259.719 72.2613 258.973 72.1831 258.181C72.105 257.388 72.1983 256.589 72.4633 255.782C72.7225 254.978 73.2 254.209 73.8958 253.474C74.5917 252.739 75.5583 252.077 76.7958 251.489L77.6592 251.078L82.3408 261.443L80.5796 262.281L76.8469 254.017C76.0987 254.373 75.4995 254.842 75.0495 255.425C74.5969 256.001 74.326 256.648 74.2368 257.364C74.145 258.074 74.2678 258.802 74.6052 259.549C74.9769 260.372 75.5 260.988 76.1744 261.398C76.8404 261.804 77.5654 262.016 78.3492 262.033C79.1331 262.051 79.8905 261.885 80.6215 261.538L81.7957 260.979C82.7972 260.503 83.5671 259.924 84.1054 259.243C84.6352 258.559 84.9391 257.815 85.0171 257.012C85.0892 256.212 84.9368 255.395 84.5599 254.56C84.3147 254.018 84.0185 253.563 83.6711 253.196C83.3154 252.827 82.9125 252.554 82.4624 252.378C82.0066 252.205 81.509 252.14 80.9694 252.184L80.6204 249.925C81.383 249.818 82.1296 249.892 82.8601 250.147C83.585 250.405 84.2531 250.832 84.8647 251.427C85.4705 252.025 85.979 252.78 86.3902 253.69Z" fill="#FFF4F4"/>
<path d="M67.387 243.836L72.455 239.024L65.8394 236.931L65.2675 234.379L73.4545 237.37L79.5555 231.054L80.1275 233.606L75.3572 238.349L81.6751 240.511L82.2471 243.063L74.0769 240.147L67.959 246.388L67.387 243.836Z" fill="#FFF4F4"/>
<path d="M81.3053 222.124C81.3284 223.457 81.0338 224.631 80.4212 225.646C79.8086 226.654 78.9407 227.447 77.8177 228.026C76.6946 228.598 75.3757 228.893 73.861 228.913C72.3336 228.932 70.9954 228.67 69.8465 228.127C68.6975 227.577 67.7993 226.806 67.1518 225.814C66.5043 224.815 66.1689 223.649 66.1457 222.316C66.1225 220.982 66.4172 219.812 67.0299 218.803C67.6424 217.789 68.5134 216.996 69.6429 216.423C70.7723 215.845 72.1007 215.546 73.6281 215.526C75.1428 215.507 76.4715 215.773 77.6141 216.322C78.7567 216.866 79.6517 217.637 80.2993 218.635C80.9467 219.627 81.2821 220.79 81.3053 222.124ZM79.2814 222.149C79.2638 221.136 78.9916 220.306 78.4647 219.659C77.9378 219.011 77.2516 218.536 76.4061 218.233C75.5605 217.929 74.6477 217.784 73.6676 217.796C72.6875 217.808 71.777 217.977 70.936 218.302C70.095 218.627 69.4193 219.119 68.9088 219.78C68.3983 220.44 68.1519 221.277 68.1695 222.29C68.1871 223.303 68.4625 224.133 68.9958 224.781C69.529 225.428 70.2216 225.903 71.0735 226.207C71.9254 226.51 72.8414 226.656 73.8215 226.643C74.8016 226.631 75.709 226.462 76.5436 226.137C77.3782 225.813 78.0475 225.32 78.5517 224.659C79.0558 223.999 79.2991 223.162 79.2814 222.149ZM64.369 223.377L59.8987 221.087L59.8525 218.433L64.3342 221.377L64.369 223.377Z" fill="#FFF4F4"/>
<path d="M68.7327 199.032L70.6035 199.417L69.1874 206.938L67.3166 206.554L68.7327 199.032ZM64.287 203.653L64.7069 201.423L78.4012 204.24C79.0248 204.368 79.5097 204.373 79.8559 204.255C80.1971 204.129 80.4479 203.932 80.6085 203.664C80.764 203.388 80.8726 203.086 80.9343 202.759C80.9805 202.513 81.006 202.309 81.0107 202.146C81.0092 201.982 81.008 201.851 81.0071 201.753L83.0755 201.707C83.1032 201.87 83.1196 202.093 83.1247 202.375C83.1361 202.659 83.1026 203.009 83.0243 203.424C82.9057 204.054 82.6554 204.644 82.2734 205.194C81.8926 205.737 81.3904 206.151 80.7669 206.435C80.1446 206.712 79.4157 206.765 78.58 206.593L64.287 203.653Z" fill="#FFF4F4"/>
<path d="M86.6469 191.164L73.2224 185.219L74.0865 183.123L87.5109 189.068L86.6469 191.164ZM71.4244 183.162C71.256 183.571 70.9738 183.862 70.5779 184.037C70.1845 184.206 69.7955 184.205 69.4109 184.035C69.0264 183.865 68.7569 183.574 68.6027 183.163C68.4509 182.745 68.4592 182.332 68.6276 181.924C68.796 181.515 69.0769 181.226 69.4704 181.057C69.8663 180.882 70.2565 180.88 70.641 181.051C71.0256 181.221 71.2938 181.515 71.4456 181.932C71.5998 182.344 71.5928 182.754 71.4244 183.162Z" fill="#FFF4F4"/>
<path d="M95.2611 175.814C94.4832 176.956 93.5502 177.748 92.4619 178.19C91.3737 178.632 90.2164 178.739 88.99 178.512C87.7636 178.284 86.5569 177.739 85.3698 176.876C84.1621 175.998 83.2512 174.996 82.637 173.87C82.0213 172.734 81.7319 171.567 81.7688 170.369C81.8042 169.162 82.1964 168.008 82.9454 166.908C83.5288 166.052 84.2095 165.393 84.9873 164.93C85.7652 164.468 86.5822 164.22 87.4385 164.187C88.2949 164.153 89.1306 164.354 89.9459 164.788L88.671 166.66C88.0319 166.409 87.3358 166.377 86.5828 166.565C85.8283 166.743 85.1701 167.245 84.6083 168.07C84.1113 168.799 83.8614 169.574 83.8585 170.394C83.854 171.205 84.0828 172.008 84.5449 172.802C85.0054 173.588 85.6847 174.307 86.5828 174.96C87.5015 175.627 88.4023 176.061 89.2852 176.26C90.1718 176.454 90.9889 176.416 91.7366 176.145C92.4879 175.869 93.1157 175.361 93.6198 174.621C93.9512 174.135 94.1693 173.633 94.2742 173.116C94.3791 172.6 94.3704 172.092 94.248 171.592C94.1256 171.091 93.8872 170.626 93.5329 170.194L94.8078 168.323C95.4377 168.939 95.8917 169.66 96.1697 170.487C96.4462 171.304 96.5174 172.174 96.3831 173.096C96.2473 174.009 95.8733 174.915 95.2611 175.814Z" fill="#FFF4F4"/>
<path d="M105.814 162.502C105.14 163.147 104.411 163.601 103.626 163.865C102.838 164.125 102.057 164.16 101.285 163.97C100.509 163.776 99.7997 163.323 99.1581 162.61C98.5936 161.983 98.256 161.36 98.1453 160.742C98.0304 160.118 98.0731 159.502 98.2737 158.895C98.4743 158.288 98.7677 157.698 99.154 157.125C99.5406 156.543 99.9509 155.983 100.385 155.444C100.954 154.74 101.42 154.175 101.783 153.748C102.147 153.312 102.372 152.951 102.458 152.665C102.549 152.375 102.472 152.095 102.228 151.824L102.177 151.767C101.544 151.064 100.865 150.697 100.141 150.665C99.4209 150.629 98.6848 150.971 97.9324 151.69C97.1524 152.436 96.699 153.197 96.5724 153.972C96.4458 154.748 96.4721 155.421 96.6513 155.992L94.5872 156.905C94.2654 155.976 94.1685 155.105 94.2965 154.293C94.4248 153.472 94.6973 152.725 95.114 152.052C95.531 151.371 96.0072 150.774 96.5427 150.262C96.8842 149.935 97.315 149.602 97.8351 149.264C98.3556 148.917 98.939 148.672 99.5853 148.531C100.236 148.386 100.933 148.44 101.676 148.693C102.42 148.945 103.182 149.506 103.965 150.375L110.457 157.584L108.823 159.146L107.489 157.665L107.406 157.744C107.509 158.088 107.553 158.518 107.538 159.036C107.524 159.554 107.387 160.113 107.129 160.714C106.871 161.314 106.433 161.911 105.814 162.502ZM104.703 160.754C105.349 160.136 105.777 159.484 105.984 158.799C106.197 158.11 106.23 157.45 106.084 156.821C105.943 156.187 105.667 155.642 105.256 155.186L103.871 153.647C103.879 153.799 103.797 154.023 103.626 154.32C103.455 154.607 103.24 154.922 102.983 155.266C102.726 155.6 102.471 155.923 102.219 156.235C101.967 156.538 101.765 156.785 101.611 156.976C101.237 157.439 100.924 157.912 100.67 158.393C100.416 158.865 100.29 159.335 100.29 159.803C100.291 160.262 100.484 160.705 100.869 161.133C101.395 161.717 102.003 161.958 102.692 161.855C103.382 161.743 104.052 161.376 104.703 160.754Z" fill="#FFF4F4"/>
<path d="M121.215 141.521L119.446 142.685C119.229 142.397 118.958 142.137 118.631 141.905C118.308 141.664 117.917 141.506 117.457 141.429C116.997 141.353 116.454 141.414 115.828 141.612C114.972 141.883 114.317 142.308 113.863 142.889C113.414 143.461 113.278 144.052 113.456 144.66C113.614 145.202 113.934 145.568 114.414 145.758C114.895 145.949 115.578 146.019 116.465 145.966L118.693 145.826C120.034 145.738 121.104 145.914 121.902 146.353C122.699 146.786 123.242 147.498 123.532 148.488C123.769 149.3 123.751 150.099 123.477 150.885C123.208 151.668 122.718 152.374 122.006 153.003C121.295 153.631 120.395 154.117 119.308 154.461C117.881 154.912 116.608 154.972 115.49 154.641C114.371 154.309 113.511 153.58 112.909 152.453L114.799 151.291C115.216 151.993 115.751 152.448 116.403 152.659C117.061 152.867 117.83 152.832 118.71 152.554C119.712 152.237 120.445 151.77 120.908 151.153C121.375 150.528 121.52 149.911 121.342 149.302C121.198 148.81 120.907 148.452 120.47 148.227C120.031 147.997 119.435 147.91 118.682 147.966L116.189 148.15C114.817 148.248 113.737 148.069 112.947 147.614C112.161 147.15 111.625 146.429 111.339 145.451C111.105 144.652 111.12 143.874 111.383 143.119C111.653 142.362 112.122 141.686 112.79 141.091C113.465 140.495 114.294 140.041 115.278 139.73C116.662 139.292 117.839 139.256 118.809 139.621C119.784 139.984 120.586 140.618 121.215 141.521Z" fill="#FFF4F4"/>
<path d="M1 1H308V532.099L157.17 391.823L1 532.099V1Z" stroke="white" stroke-width="2" mask="url(#path-1-outside-1_64_3)"/>
<path d="M254.997 218.236C255.413 273.463 210.98 318.575 155.753 318.997C100.526 319.419 55.4187 274.991 55.0029 219.764C54.5871 164.537 99.0202 119.425 154.247 119.003C209.474 118.581 254.581 163.009 254.997 218.236Z" stroke="white" stroke-width="2" mask="url(#path-1-outside-1_64_3)"/>
<path d="M172.567 186.058C173.412 191.258 173.074 191.908 167.502 194.345C162.267 196.783 158.214 197.108 138.796 195.97L117.302 194.882C116.66 194.849 116.016 194.865 115.377 194.929L114.164 195.051C110.476 195.42 107.24 197.685 105.61 201.038C104.891 202.515 104.518 204.138 104.518 205.784V230.422C104.518 260.485 105.024 262.11 111.947 261.46C115.662 261.135 117.013 260.322 116.506 258.535C114.649 252.522 114.48 244.397 116.169 240.497C117.857 236.272 118.026 236.109 134.743 236.272H151.798V244.884C151.798 257.56 153.993 261.785 160.41 261.785C164.462 261.785 165.475 261.298 164.631 259.185C160.072 247.647 161.592 241.634 169.528 239.034C175.776 237.084 182.192 230.584 182.192 226.196C182.192 224.409 180.841 225.059 178.14 228.471C175.944 231.072 173.749 233.022 173.412 232.534C170.034 228.634 165.475 218.884 166.32 217.584C168.008 214.984 178.14 211.408 183.881 211.408H189.115L185.569 214.984C183.712 216.934 182.192 219.046 182.192 219.859C182.192 222.296 185.232 221.159 187.596 217.746C189.284 215.146 192.324 214.008 199.922 213.196C209.547 212.221 209.885 212.058 211.405 206.533C212.418 202.633 212.249 200.683 210.898 200.358C209.885 200.033 208.365 198.896 207.521 197.758C197.389 185.408 195.194 183.783 189.791 183.783C186.583 183.783 183.543 182.97 183.036 182.157C182.53 181.182 179.659 180.532 176.789 180.532C171.892 180.532 171.723 180.695 172.567 186.058ZM184.894 187.845C187.765 192.07 191.142 191.908 189.453 187.683C188.609 185.733 189.284 185.57 192.999 187.195C195.363 188.333 197.389 189.633 197.389 190.283C197.389 190.77 200.091 194.02 203.299 197.595C207.352 201.821 209.041 204.746 208.196 206.858C207.352 209.621 205.832 209.783 191.817 209.133L176.282 208.321L173.918 202.471C171.892 197.27 171.892 196.295 173.918 195.158C175.1 194.345 178.14 194.183 180.504 194.67L184.725 195.645L180.166 191.42C177.464 189.145 175.438 186.383 175.438 185.408C175.438 182.157 182.192 183.783 184.894 187.845ZM129.171 201.008C128.664 202.471 128.158 204.096 128.158 204.746C128.158 205.558 126.3 207.996 123.767 210.596C119.377 215.146 119.377 218.234 123.767 214.821C129.677 210.108 138.289 218.721 138.289 229.446V234.484L128.664 233.347C123.43 232.697 116.675 231.072 113.467 229.609C106.713 226.521 106.037 221.646 112.116 220.184C114.48 219.696 116.338 218.559 116.338 217.746C116.338 216.934 114.48 216.609 112.116 217.259C108.232 218.234 107.895 217.746 107.895 212.546C107.895 204.583 114.649 198.408 123.43 198.408C129.002 198.408 130.015 198.896 129.171 201.008ZM143.524 200.033C145.888 200.033 145.719 201.333 141.835 207.996L137.445 216.121L133.73 212.708C130.859 210.108 130.184 208.158 131.028 205.071C132.548 198.733 133.223 198.083 137.276 199.058C139.133 199.546 142.004 200.033 143.524 200.033ZM170.372 202.633C172.905 208.971 172.398 210.433 166.657 213.521C161.592 216.284 161.254 216.284 157.877 213.358C155.85 211.571 152.642 209.296 150.447 208.158C146.732 206.371 146.563 206.046 149.265 203.283C150.953 201.496 155.006 199.871 158.383 199.546C161.76 199.221 165.475 198.896 166.657 198.733C167.839 198.57 169.528 200.358 170.372 202.633ZM155.006 214.984C163.111 220.671 162.774 221.321 148.927 223.434C141.835 224.409 141.666 224.409 141.666 219.696C141.666 213.521 143.186 209.783 145.719 209.783C146.901 209.783 151.122 212.058 155.006 214.984ZM168.008 229.446C170.203 233.672 170.372 234.809 168.346 235.947C165.475 237.734 163.618 237.734 163.618 235.784C163.618 232.534 157.201 230.909 149.434 232.372C142.511 233.672 141.666 233.347 141.666 230.747C141.666 228.959 143.186 227.334 145.55 227.009C147.576 226.521 150.785 225.871 152.642 225.546C162.098 223.596 165.138 224.409 168.008 229.446ZM112.623 233.022C113.974 234.647 113.974 236.922 112.792 241.472C111.778 244.884 111.272 250.247 111.778 253.335C112.454 257.072 112.116 258.535 110.765 258.047C109.414 257.722 108.57 252.685 108.232 244.234C107.726 231.234 108.908 228.634 112.623 233.022ZM160.072 236.272C161.423 237.897 161.254 239.847 159.903 243.584C158.383 247.485 158.214 249.922 159.734 253.66C161.254 257.56 161.254 258.535 159.396 258.535C156.188 258.535 155.175 254.797 155.175 243.747C155.175 234.159 156.526 232.209 160.072 236.272Z" stroke="white" stroke-width="2" mask="url(#path-1-outside-1_64_3)"/>
<path d="M159.7 145.628L153.693 145.054L155.35 125.428L161.623 126.027C163.511 126.207 165.094 126.754 166.371 127.669C167.649 128.576 168.583 129.796 169.176 131.327C169.769 132.853 169.98 134.631 169.808 136.663C169.636 138.707 169.126 140.433 168.279 141.84C167.432 143.24 166.285 144.27 164.837 144.931C163.389 145.584 161.677 145.817 159.7 145.628ZM156.228 143.171L159.726 143.505C161.335 143.659 162.696 143.473 163.807 142.948C164.918 142.423 165.782 141.607 166.399 140.501C167.016 139.394 167.392 138.042 167.527 136.445C167.661 134.86 167.519 133.472 167.103 132.279C166.687 131.08 165.994 130.125 165.026 129.414C164.058 128.697 162.814 128.266 161.293 128.121L157.529 127.761L156.228 143.171Z" stroke="white" stroke-width="2" mask="url(#path-1-outside-1_64_3)"/>
<path d="M176.619 149.476C175.273 149.045 174.2 148.371 173.402 147.456C172.612 146.537 172.115 145.449 171.91 144.193C171.712 142.932 171.829 141.576 172.259 140.127C172.689 138.677 173.328 137.482 174.178 136.544C175.035 135.601 176.026 134.97 177.15 134.651C178.282 134.327 179.479 134.368 180.741 134.772C181.468 135.005 182.151 135.358 182.787 135.831C183.424 136.305 183.952 136.911 184.37 137.651C184.79 138.384 185.039 139.258 185.117 140.271C185.195 141.285 185.038 142.453 184.646 143.774L184.373 144.695L173.601 141.243L174.159 139.363L182.747 142.116C182.984 141.317 183.037 140.554 182.908 139.826C182.784 139.1 182.488 138.464 182.02 137.917C181.557 137.371 180.938 136.974 180.161 136.726C179.306 136.451 178.502 136.429 177.75 136.659C177.006 136.885 176.366 137.285 175.83 137.86C175.294 138.435 174.91 139.113 174.679 139.893L174.307 141.146C173.99 142.215 173.903 143.18 174.047 144.04C174.198 144.896 174.544 145.622 175.084 146.219C175.626 146.81 176.331 147.244 177.198 147.522C177.763 147.703 178.296 147.787 178.798 147.773C179.308 147.754 179.778 147.636 180.208 147.417C180.64 147.192 181.02 146.863 181.348 146.43L183.247 147.685C182.818 148.327 182.265 148.837 181.589 149.212C180.915 149.581 180.154 149.795 179.307 149.853C178.461 149.905 177.565 149.779 176.619 149.476Z" stroke="white" stroke-width="2" mask="url(#path-1-outside-1_64_3)"/>
<path d="M201.025 138.861L191.699 156.173L189.743 155.046L199.07 137.733L201.025 138.861Z" stroke="white" stroke-width="2" mask="url(#path-1-outside-1_64_3)"/>
<path d="M202.682 162.04L212.198 150.799L213.877 152.313L204.361 163.553L202.682 162.04ZM213.571 149.354L218.182 147.523L220.146 149.293L215.051 150.688L213.571 149.354Z" stroke="white" stroke-width="2" mask="url(#path-1-outside-1_64_3)"/>
<path d="M216.055 176.059C215.241 174.942 214.798 173.782 214.726 172.578C214.654 171.374 214.912 170.206 215.5 169.073C216.088 167.941 216.963 166.926 218.125 166.03C219.307 165.117 220.513 164.534 221.741 164.281C222.978 164.028 224.143 164.106 225.237 164.513C226.34 164.922 227.283 165.664 228.067 166.739C228.677 167.576 229.075 168.448 229.261 169.354C229.448 170.26 229.424 171.138 229.191 171.988C228.958 172.838 228.516 173.596 227.863 174.261L226.53 172.431C226.959 171.882 227.203 171.209 227.262 170.413C227.33 169.617 227.07 168.816 226.483 168.01C225.963 167.297 225.325 166.812 224.57 166.555C223.823 166.299 223.012 166.275 222.137 166.482C221.271 166.691 220.398 167.134 219.519 167.813C218.62 168.507 217.942 169.256 217.486 170.06C217.034 170.87 216.817 171.683 216.836 172.5C216.859 173.322 217.134 174.095 217.661 174.819C218.008 175.294 218.403 175.664 218.847 175.926C219.291 176.189 219.763 176.338 220.262 176.373C220.761 176.408 221.264 176.318 221.771 176.104L223.104 177.934C222.342 178.361 221.536 178.583 220.688 178.6C219.849 178.618 219.025 178.418 218.215 178.001C217.415 177.585 216.695 176.938 216.055 176.059Z" stroke="white" stroke-width="2" mask="url(#path-1-outside-1_64_3)"/>
<path d="M222.659 188.354L235.92 182.048L236.853 184.114L223.592 190.42L222.659 188.354ZM238.605 182.047C238.423 181.645 238.401 181.233 238.54 180.813C238.681 180.398 238.942 180.1 239.322 179.92C239.702 179.739 240.092 179.727 240.491 179.885C240.894 180.048 241.186 180.331 241.368 180.733C241.549 181.136 241.57 181.545 241.428 181.959C241.29 182.38 241.03 182.68 240.65 182.861C240.271 183.042 239.88 183.05 239.477 182.887C239.078 182.73 238.787 182.45 238.605 182.047Z" stroke="white" stroke-width="2" mask="url(#path-1-outside-1_64_3)"/>
<path d="M231.115 204.646C230.911 203.733 230.895 202.865 231.07 202.041C231.25 201.216 231.617 200.509 232.17 199.92C232.729 199.329 233.474 198.925 234.404 198.709C235.223 198.518 235.923 198.526 236.504 198.733C237.092 198.939 237.592 199.28 238.006 199.756C238.419 200.232 238.771 200.782 239.06 201.406C239.358 202.034 239.625 202.673 239.862 203.322C240.17 204.171 240.413 204.862 240.59 205.393C240.776 205.929 240.968 206.305 241.166 206.522C241.367 206.746 241.643 206.816 241.997 206.734L242.071 206.717C242.989 206.503 243.645 206.084 244.04 205.459C244.437 204.84 244.521 204.021 244.292 203.001C244.055 201.944 243.64 201.169 243.047 200.675C242.453 200.182 241.869 199.874 241.293 199.751L241.566 197.476C242.519 197.649 243.307 197.993 243.93 198.505C244.562 199.023 245.057 199.632 245.416 200.331C245.783 201.036 246.048 201.751 246.21 202.476C246.314 202.939 246.377 203.484 246.4 204.11C246.431 204.741 246.342 205.377 246.133 206.018C245.926 206.665 245.526 207.255 244.934 207.788C244.342 208.32 243.479 208.718 242.344 208.983L232.931 211.173L232.434 208.959L234.369 208.509L234.344 208.396C234 208.318 233.612 208.145 233.18 207.877C232.748 207.609 232.343 207.213 231.965 206.69C231.586 206.166 231.303 205.485 231.115 204.646ZM233.163 204.525C233.359 205.401 233.695 206.099 234.171 206.62C234.648 207.148 235.191 207.502 235.799 207.683C236.408 207.87 237.011 207.894 237.606 207.756L239.615 207.288C239.483 207.22 239.334 207.038 239.17 206.74C239.013 206.448 238.854 206.103 238.693 205.706C238.54 205.314 238.395 204.93 238.259 204.554C238.13 204.182 238.023 203.881 237.939 203.651C237.736 203.093 237.494 202.583 237.215 202.122C236.943 201.665 236.608 201.322 236.21 201.092C235.821 200.866 235.347 200.819 234.789 200.949C234.026 201.126 233.513 201.545 233.25 202.205C232.994 202.87 232.965 203.643 233.163 204.525Z" stroke="white" stroke-width="2" mask="url(#path-1-outside-1_64_3)"/>
<path d="M244.991 227.105L244.383 225.074C244.718 224.941 245.042 224.748 245.356 224.494C245.676 224.246 245.938 223.909 246.14 223.484C246.343 223.058 246.439 222.515 246.427 221.855C246.411 220.951 246.191 220.2 245.767 219.603C245.349 219.011 244.825 218.72 244.195 218.728C243.635 218.735 243.197 218.946 242.879 219.36C242.562 219.774 242.302 220.419 242.101 221.293L241.605 223.493C241.31 224.817 240.84 225.808 240.196 226.463C239.558 227.119 238.727 227.453 237.702 227.466C236.862 227.477 236.107 227.243 235.437 226.764C234.766 226.291 234.233 225.625 233.836 224.764C233.439 223.903 233.23 222.899 233.21 221.752C233.184 220.245 233.487 218.994 234.119 217.999C234.751 217.003 235.688 216.366 236.931 216.088L237.503 218.235C236.717 218.45 236.132 218.845 235.748 219.421C235.363 220.003 235.179 220.759 235.195 221.688C235.214 222.746 235.451 223.583 235.907 224.199C236.37 224.822 236.917 225.129 237.547 225.121C238.056 225.115 238.479 224.93 238.817 224.567C239.16 224.203 239.412 223.649 239.57 222.903L240.1 220.434C240.395 219.077 240.871 218.077 241.528 217.434C242.192 216.797 243.029 216.472 244.041 216.46C244.869 216.449 245.605 216.674 246.249 217.134C246.894 217.6 247.405 218.238 247.782 219.048C248.159 219.864 248.356 220.791 248.374 221.83C248.4 223.292 248.102 224.443 247.48 225.285C246.858 226.133 246.029 226.739 244.991 227.105Z" stroke="white" stroke-width="2" mask="url(#path-1-outside-1_64_3)"/>
<path d="M224.255 251.087C224.724 249.95 225.42 249.071 226.344 248.451C227.274 247.834 228.359 247.509 229.599 247.476C230.844 247.447 232.178 247.747 233.599 248.376C235.009 249.001 236.132 249.789 236.966 250.739C237.801 251.69 238.32 252.729 238.524 253.856C238.728 254.982 238.593 256.12 238.12 257.269C237.754 258.157 237.319 258.794 236.815 259.181C236.315 259.575 235.825 259.828 235.346 259.937C234.87 260.056 234.483 260.14 234.187 260.191L234.114 260.369L240.721 263.295L239.857 265.391L221.958 257.464L222.792 255.439L224.855 256.352L224.958 256.104C224.776 255.841 224.558 255.486 224.302 255.036C224.052 254.589 223.89 254.038 223.816 253.382C223.748 252.728 223.894 251.963 224.255 251.087ZM225.991 252.192C225.645 253.033 225.567 253.839 225.759 254.61C225.957 255.384 226.378 256.092 227.023 256.735C227.673 257.38 228.505 257.927 229.519 258.376C230.521 258.82 231.459 259.06 232.333 259.097C233.213 259.136 233.982 258.959 234.64 258.564C235.305 258.172 235.813 257.55 236.164 256.697C236.53 255.809 236.611 254.969 236.407 254.178C236.206 253.396 235.784 252.688 235.143 252.054C234.505 251.428 233.714 250.906 232.77 250.488C231.815 250.065 230.886 249.829 229.983 249.779C229.083 249.738 228.283 249.908 227.581 250.291C226.882 250.682 226.352 251.315 225.991 252.192Z" stroke="white" stroke-width="2" mask="url(#path-1-outside-1_64_3)"/>
<path d="M217.378 265.101C217.903 264.329 218.522 263.732 219.235 263.309C219.952 262.89 220.708 262.693 221.502 262.717C222.301 262.744 223.088 263.039 223.862 263.602C224.544 264.098 225.002 264.636 225.238 265.219C225.479 265.805 225.564 266.417 225.494 267.053C225.423 267.689 225.258 268.328 224.998 268.97C224.741 269.62 224.455 270.254 224.142 270.873C223.731 271.68 223.392 272.331 223.125 272.825C222.86 273.328 222.714 273.728 222.689 274.026C222.66 274.329 222.793 274.587 223.087 274.801L223.149 274.846C223.913 275.401 224.652 275.619 225.367 275.498C226.078 275.383 226.727 274.894 227.314 274.033C227.923 273.139 228.209 272.3 228.173 271.515C228.137 270.729 227.972 270.076 227.679 269.555L229.508 268.229C230.015 269.071 230.289 269.903 230.332 270.724C230.376 271.555 230.264 272.343 229.995 273.088C229.728 273.843 229.386 274.526 228.968 275.14C228.701 275.531 228.349 275.947 227.91 276.387C227.473 276.836 226.953 277.197 226.35 277.47C225.744 277.748 225.051 277.842 224.273 277.75C223.494 277.658 222.633 277.269 221.688 276.582L213.853 270.887L215.128 269.015L216.738 270.186L216.803 270.091C216.632 269.776 216.5 269.364 216.407 268.854C216.314 268.344 216.332 267.768 216.461 267.127C216.589 266.485 216.895 265.81 217.378 265.101ZM218.824 266.58C218.32 267.32 218.037 268.047 217.975 268.761C217.91 269.48 218.013 270.133 218.286 270.718C218.555 271.309 218.937 271.784 219.433 272.145L221.105 273.36C221.066 273.213 221.1 272.977 221.206 272.651C221.314 272.334 221.458 271.981 221.639 271.59C221.821 271.209 222.004 270.84 222.186 270.482C222.369 270.133 222.516 269.849 222.628 269.629C222.897 269.098 223.106 268.57 223.255 268.046C223.405 267.531 223.432 267.044 223.335 266.586C223.239 266.137 222.959 265.744 222.495 265.406C221.86 264.945 221.216 264.836 220.563 265.081C219.912 265.335 219.332 265.834 218.824 266.58Z" stroke="white" stroke-width="2" mask="url(#path-1-outside-1_64_3)"/>
<path d="M210.363 290.657L211.446 288.825C211.765 288.989 212.121 289.103 212.515 289.168C212.909 289.243 213.328 289.212 213.774 289.078C214.22 288.943 214.68 288.648 215.156 288.194C215.807 287.571 216.21 286.898 216.366 286.174C216.521 285.46 216.388 284.868 215.964 284.398C215.588 283.98 215.143 283.791 214.629 283.831C214.116 283.872 213.472 284.111 212.699 284.55L210.761 285.661C209.597 286.333 208.561 286.648 207.654 286.604C206.752 286.566 205.957 286.165 205.268 285.4C204.703 284.773 204.374 284.045 204.28 283.216C204.182 282.391 204.315 281.538 204.682 280.657C205.049 279.776 205.645 278.94 206.471 278.15C207.556 277.113 208.672 276.496 209.819 276.3C210.966 276.105 212.053 276.382 213.081 277.132L211.889 279.014C211.211 278.567 210.534 278.392 209.858 278.49C209.177 278.593 208.502 278.965 207.833 279.605C207.072 280.334 206.617 281.078 206.468 281.839C206.32 282.609 206.457 283.229 206.88 283.699C207.222 284.079 207.638 284.273 208.128 284.282C208.621 284.296 209.194 284.111 209.845 283.727L212.002 282.459C213.19 281.765 214.237 281.449 215.143 281.511C216.048 281.581 216.841 281.994 217.521 282.749C218.077 283.367 218.4 284.074 218.491 284.871C218.577 285.672 218.449 286.489 218.107 287.32C217.76 288.156 217.212 288.932 216.465 289.647C215.412 290.653 214.372 291.206 213.344 291.305C212.312 291.409 211.318 291.193 210.363 290.657Z" stroke="white" stroke-width="2" mask="url(#path-1-outside-1_64_3)"/>
<path d="M177.324 306.256L179.561 305.474C179.91 306.078 180.332 306.568 180.827 306.945C181.316 307.324 181.851 307.598 182.432 307.769C183.008 307.947 183.608 308.022 184.23 307.995C184.852 307.967 185.469 307.846 186.083 307.632C187.201 307.241 188.119 306.601 188.836 305.712C189.547 304.825 189.985 303.732 190.149 302.433C190.306 301.136 190.115 299.679 189.576 298.062C189.036 296.446 188.316 295.174 187.415 294.247C186.509 293.322 185.51 292.731 184.417 292.475C183.318 292.222 182.21 292.29 181.091 292.681C180.478 292.896 179.917 293.187 179.409 293.555C178.9 293.923 178.471 294.355 178.119 294.851C177.764 295.355 177.506 295.91 177.346 296.516C177.181 297.13 177.141 297.782 177.223 298.473L174.987 299.255C174.836 298.242 174.858 297.281 175.051 296.372C175.245 295.463 175.584 294.628 176.069 293.868C176.556 293.114 177.165 292.456 177.898 291.895C178.624 291.335 179.453 290.892 180.385 290.566C181.961 290.016 183.491 289.915 184.978 290.264C186.464 290.612 187.798 291.381 188.981 292.569C190.163 293.758 191.083 295.336 191.74 297.305C192.398 299.274 192.614 301.099 192.389 302.779C192.165 304.46 191.569 305.903 190.602 307.11C189.635 308.317 188.364 309.196 186.789 309.747C185.857 310.073 184.936 310.242 184.027 310.255C183.112 310.269 182.236 310.128 181.398 309.83C180.562 309.539 179.796 309.094 179.099 308.496C178.405 307.904 177.813 307.158 177.324 306.256Z" stroke="white" stroke-width="2" mask="url(#path-1-outside-1_64_3)"/>
<path d="M164.917 297.887C165.84 297.775 166.698 297.848 167.492 298.107C168.286 298.373 168.945 298.813 169.467 299.428C169.99 300.049 170.308 300.837 170.422 301.792C170.523 302.632 170.44 303.333 170.174 303.895C169.908 304.463 169.518 304.93 169.004 305.296C168.49 305.662 167.91 305.958 167.264 306.185C166.613 306.419 165.954 306.622 165.289 306.793C164.418 307.015 163.711 307.188 163.168 307.312C162.619 307.443 162.228 307.597 161.992 307.774C161.751 307.952 161.652 308.222 161.695 308.585L161.704 308.661C161.817 309.604 162.16 310.305 162.734 310.765C163.302 311.225 164.101 311.393 165.131 311.268C166.199 311.139 167.008 310.802 167.559 310.257C168.109 309.712 168.475 309.158 168.658 308.593L170.872 309.1C170.6 310.037 170.177 310.792 169.605 311.365C169.026 311.945 168.373 312.38 167.645 312.668C166.911 312.964 166.177 313.156 165.444 313.245C164.977 313.302 164.433 313.31 163.812 313.269C163.186 313.235 162.569 313.081 161.959 312.806C161.343 312.532 160.804 312.071 160.342 311.423C159.88 310.775 159.579 309.868 159.44 308.703L158.285 299.04L160.522 298.769L160.759 300.755L160.873 300.741C160.987 300.404 161.199 300.033 161.509 299.627C161.82 299.221 162.254 298.856 162.811 298.53C163.368 298.204 164.07 297.99 164.917 297.887ZM164.818 299.953C163.933 300.06 163.208 300.325 162.643 300.749C162.072 301.174 161.665 301.681 161.422 302.273C161.172 302.865 161.083 303.467 161.156 304.078L161.403 306.14C161.484 306.014 161.68 305.884 161.991 305.749C162.296 305.622 162.653 305.498 163.062 305.377C163.465 305.264 163.859 305.158 164.245 305.06C164.625 304.968 164.933 304.892 165.17 304.831C165.742 304.684 166.271 304.494 166.756 304.261C167.235 304.035 167.609 303.734 167.879 303.359C168.142 302.992 168.24 302.521 168.172 301.948C168.078 301.165 167.72 300.608 167.097 300.277C166.468 299.953 165.709 299.845 164.818 299.953Z" stroke="white" stroke-width="2" mask="url(#path-1-outside-1_64_3)"/>
<path d="M151.728 298.506L150.485 313.226L148.318 313.019L148.506 310.796L148.354 310.781C148.026 311.484 147.495 312.029 146.76 312.416C146.024 312.803 145.219 312.955 144.345 312.872C144.18 312.856 143.975 312.833 143.728 312.803C143.481 312.773 143.295 312.746 143.17 312.721L143.364 310.421C143.438 310.447 143.61 310.493 143.879 310.557C144.142 310.627 144.422 310.676 144.72 310.705C145.429 310.773 146.076 310.683 146.658 310.436C147.235 310.195 147.706 309.828 148.074 309.335C148.434 308.847 148.642 308.272 148.699 307.607L149.485 298.292L151.728 298.506Z" stroke="white" stroke-width="2" mask="url(#path-1-outside-1_64_3)"/>
<path d="M134.793 304.677L137.318 296.162L139.465 296.85L135.267 311.005L133.193 310.34L133.849 308.128L133.667 308.07C133.126 308.684 132.458 309.102 131.661 309.324C130.863 309.553 129.936 309.498 128.88 309.16C127.934 308.856 127.165 308.395 126.572 307.774C125.977 307.159 125.6 306.393 125.441 305.474C125.28 304.561 125.378 303.503 125.735 302.299L128.402 293.304L130.549 293.992L127.925 302.839C127.596 303.951 127.624 304.909 128.01 305.712C128.394 306.521 129.084 307.085 130.079 307.404C130.764 307.624 131.421 307.67 132.05 307.542C132.673 307.412 133.225 307.107 133.706 306.629C134.186 306.151 134.549 305.5 134.793 304.677Z" stroke="white" stroke-width="2" mask="url(#path-1-outside-1_64_3)"/>
<path d="M118.845 287.901C120.071 288.608 120.98 289.495 121.572 290.56C122.155 291.627 122.418 292.798 122.362 294.073C122.296 295.35 121.905 296.653 121.189 297.983C120.472 299.313 119.603 300.349 118.582 301.089C117.552 301.832 116.455 302.241 115.292 302.317C114.121 302.394 112.961 302.102 111.812 301.44C111.149 301.057 110.555 300.567 110.03 299.969C109.505 299.371 109.114 298.665 108.857 297.853C108.597 297.045 108.533 296.136 108.664 295.126C108.796 294.117 109.188 293.006 109.841 291.794L110.296 290.949L120.106 296.606L119.177 298.33L111.356 293.82C110.961 294.553 110.752 295.289 110.73 296.03C110.702 296.767 110.861 297.453 111.207 298.088C111.547 298.72 112.07 299.24 112.777 299.648C113.556 300.097 114.336 300.288 115.118 300.222C115.891 300.158 116.598 299.901 117.238 299.45C117.879 299 118.392 298.417 118.778 297.701L119.397 296.551C119.926 295.571 120.208 294.644 120.244 293.771C120.271 292.901 120.082 292.116 119.677 291.417C119.268 290.723 118.669 290.149 117.879 289.693C117.366 289.397 116.862 289.203 116.369 289.11C115.867 289.02 115.384 289.037 114.919 289.161C114.451 289.29 114.013 289.532 113.605 289.887L112.007 288.257C112.558 287.718 113.202 287.336 113.939 287.111C114.672 286.891 115.459 286.842 116.298 286.964C117.134 287.092 117.983 287.404 118.845 287.901Z" stroke="white" stroke-width="2" mask="url(#path-1-outside-1_64_3)"/>
<path d="M94.8518 283.964L96.732 284.884C96.608 285.229 96.5352 285.606 96.5137 286.017C96.4834 286.428 96.5566 286.855 96.7334 287.298C96.9102 287.741 97.2429 288.183 97.7315 288.623C98.4004 289.226 99.092 289.57 99.8063 289.655C100.512 289.74 101.069 289.541 101.478 289.058C101.841 288.629 101.977 288.153 101.884 287.63C101.791 287.108 101.492 286.473 100.987 285.726L99.7115 283.854C98.9408 282.729 98.5286 281.7 98.4749 280.766C98.417 279.836 98.7205 278.979 99.3854 278.193C99.9306 277.549 100.598 277.136 101.388 276.954C102.174 276.767 103.01 276.816 103.898 277.1C104.787 277.384 105.655 277.909 106.505 278.674C107.619 279.679 108.331 280.759 108.641 281.915C108.95 283.071 108.797 284.215 108.182 285.347L106.241 284.32C106.602 283.578 106.699 282.866 106.533 282.183C106.362 281.496 105.932 280.842 105.244 280.222C104.462 279.517 103.696 279.128 102.946 279.055C102.188 278.982 101.605 279.187 101.196 279.67C100.866 280.061 100.722 280.507 100.764 281.01C100.803 281.518 101.042 282.085 101.48 282.713L102.93 284.794C103.725 285.94 104.14 286.98 104.176 287.916C104.203 288.852 103.888 289.708 103.232 290.484C102.695 291.118 102.047 291.523 101.287 291.699C100.523 291.87 99.7222 291.824 98.8844 291.559C98.0418 291.29 97.2362 290.809 96.4677 290.116C95.3861 289.142 94.7435 288.132 94.5398 287.089C94.3314 286.041 94.4354 284.999 94.8518 283.964Z" stroke="white" stroke-width="2" mask="url(#path-1-outside-1_64_3)"/>
<path d="M86.3902 253.69C86.9754 254.986 87.1982 256.237 87.0585 257.445C86.9105 258.65 86.4417 259.748 85.6523 260.741C84.8545 261.73 83.7764 262.547 82.418 263.193C81.0597 263.839 79.7491 264.158 78.4864 264.148C77.2153 264.136 76.0848 263.816 75.0948 263.188C74.0965 262.556 73.3232 261.634 72.7749 260.42C72.4586 259.719 72.2613 258.973 72.1831 258.181C72.105 257.388 72.1983 256.589 72.4633 255.782C72.7225 254.978 73.2 254.209 73.8958 253.474C74.5917 252.739 75.5583 252.077 76.7958 251.489L77.6592 251.078L82.3408 261.443L80.5796 262.281L76.8469 254.017C76.0987 254.373 75.4995 254.842 75.0495 255.425C74.5969 256.001 74.326 256.648 74.2368 257.364C74.145 258.074 74.2678 258.802 74.6052 259.549C74.9769 260.372 75.5 260.988 76.1744 261.398C76.8404 261.804 77.5654 262.016 78.3492 262.033C79.1331 262.051 79.8905 261.885 80.6215 261.538L81.7957 260.979C82.7972 260.503 83.5671 259.924 84.1054 259.243C84.6352 258.559 84.9391 257.815 85.0171 257.012C85.0892 256.212 84.9368 255.395 84.5599 254.56C84.3147 254.018 84.0185 253.563 83.6711 253.196C83.3154 252.827 82.9125 252.554 82.4624 252.378C82.0066 252.205 81.509 252.14 80.9694 252.184L80.6204 249.925C81.383 249.818 82.1296 249.892 82.8601 250.147C83.585 250.405 84.2531 250.832 84.8647 251.427C85.4705 252.025 85.979 252.78 86.3902 253.69Z" stroke="white" stroke-width="2" mask="url(#path-1-outside-1_64_3)"/>
<path d="M67.387 243.836L72.455 239.024L65.8394 236.931L65.2675 234.379L73.4545 237.37L79.5555 231.054L80.1275 233.606L75.3572 238.349L81.6751 240.511L82.2471 243.063L74.0769 240.147L67.959 246.388L67.387 243.836Z" stroke="white" stroke-width="2" mask="url(#path-1-outside-1_64_3)"/>
<path d="M81.3053 222.124C81.3284 223.457 81.0338 224.631 80.4212 225.646C79.8086 226.654 78.9407 227.447 77.8177 228.026C76.6946 228.598 75.3757 228.893 73.861 228.913C72.3336 228.932 70.9954 228.67 69.8465 228.127C68.6975 227.577 67.7993 226.806 67.1518 225.814C66.5043 224.815 66.1689 223.649 66.1457 222.316C66.1225 220.982 66.4172 219.812 67.0299 218.803C67.6424 217.789 68.5134 216.996 69.6429 216.423C70.7723 215.845 72.1007 215.546 73.6281 215.526C75.1428 215.507 76.4715 215.773 77.6141 216.322C78.7567 216.866 79.6517 217.637 80.2993 218.635C80.9467 219.627 81.2821 220.79 81.3053 222.124ZM79.2814 222.149C79.2638 221.136 78.9916 220.306 78.4647 219.659C77.9378 219.011 77.2516 218.536 76.4061 218.233C75.5605 217.929 74.6477 217.784 73.6676 217.796C72.6875 217.808 71.777 217.977 70.936 218.302C70.095 218.627 69.4193 219.119 68.9088 219.78C68.3983 220.44 68.1519 221.277 68.1695 222.29C68.1871 223.303 68.4625 224.133 68.9958 224.781C69.529 225.428 70.2216 225.903 71.0735 226.207C71.9254 226.51 72.8414 226.656 73.8215 226.643C74.8016 226.631 75.709 226.462 76.5436 226.137C77.3782 225.813 78.0475 225.32 78.5517 224.659C79.0558 223.999 79.2991 223.162 79.2814 222.149ZM64.369 223.377L59.8987 221.087L59.8525 218.433L64.3342 221.377L64.369 223.377Z" stroke="white" stroke-width="2" mask="url(#path-1-outside-1_64_3)"/>
<path d="M68.7327 199.032L70.6035 199.417L69.1874 206.938L67.3166 206.554L68.7327 199.032ZM64.287 203.653L64.7069 201.423L78.4012 204.24C79.0248 204.368 79.5097 204.373 79.8559 204.255C80.1971 204.129 80.4479 203.932 80.6085 203.664C80.764 203.388 80.8726 203.086 80.9343 202.759C80.9805 202.513 81.006 202.309 81.0107 202.146C81.0092 201.982 81.008 201.851 81.0071 201.753L83.0755 201.707C83.1032 201.87 83.1196 202.093 83.1247 202.375C83.1361 202.659 83.1026 203.009 83.0243 203.424C82.9057 204.054 82.6554 204.644 82.2734 205.194C81.8926 205.737 81.3904 206.151 80.7669 206.435C80.1446 206.712 79.4157 206.765 78.58 206.593L64.287 203.653Z" stroke="white" stroke-width="2" mask="url(#path-1-outside-1_64_3)"/>
<path d="M86.6469 191.164L73.2224 185.219L74.0865 183.123L87.5109 189.068L86.6469 191.164ZM71.4244 183.162C71.256 183.571 70.9738 183.862 70.5779 184.037C70.1845 184.206 69.7955 184.205 69.4109 184.035C69.0264 183.865 68.7569 183.574 68.6027 183.163C68.4509 182.745 68.4592 182.332 68.6276 181.924C68.796 181.515 69.0769 181.226 69.4704 181.057C69.8663 180.882 70.2565 180.88 70.641 181.051C71.0256 181.221 71.2938 181.515 71.4456 181.932C71.5998 182.344 71.5928 182.754 71.4244 183.162Z" stroke="white" stroke-width="2" mask="url(#path-1-outside-1_64_3)"/>
<path d="M95.2611 175.814C94.4832 176.956 93.5502 177.748 92.4619 178.19C91.3737 178.632 90.2164 178.739 88.99 178.512C87.7636 178.284 86.5569 177.739 85.3698 176.876C84.1621 175.998 83.2512 174.996 82.637 173.87C82.0213 172.734 81.7319 171.567 81.7688 170.369C81.8042 169.162 82.1964 168.008 82.9454 166.908C83.5288 166.052 84.2095 165.393 84.9873 164.93C85.7652 164.468 86.5822 164.22 87.4385 164.187C88.2949 164.153 89.1306 164.354 89.9459 164.788L88.671 166.66C88.0319 166.409 87.3358 166.377 86.5828 166.565C85.8283 166.743 85.1701 167.245 84.6083 168.07C84.1113 168.799 83.8614 169.574 83.8585 170.394C83.854 171.205 84.0828 172.008 84.5449 172.802C85.0054 173.588 85.6847 174.307 86.5828 174.96C87.5015 175.627 88.4023 176.061 89.2852 176.26C90.1718 176.454 90.9889 176.416 91.7366 176.145C92.4879 175.869 93.1157 175.361 93.6198 174.621C93.9512 174.135 94.1693 173.633 94.2742 173.116C94.3791 172.6 94.3704 172.092 94.248 171.592C94.1256 171.091 93.8872 170.626 93.5329 170.194L94.8078 168.323C95.4377 168.939 95.8917 169.66 96.1697 170.487C96.4462 171.304 96.5174 172.174 96.3831 173.096C96.2473 174.009 95.8733 174.915 95.2611 175.814Z" stroke="white" stroke-width="2" mask="url(#path-1-outside-1_64_3)"/>
<path d="M105.814 162.502C105.14 163.147 104.411 163.601 103.626 163.865C102.838 164.125 102.057 164.16 101.285 163.97C100.509 163.776 99.7997 163.323 99.1581 162.61C98.5936 161.983 98.256 161.36 98.1453 160.742C98.0304 160.118 98.0731 159.502 98.2737 158.895C98.4743 158.288 98.7677 157.698 99.154 157.125C99.5406 156.543 99.9509 155.983 100.385 155.444C100.954 154.74 101.42 154.175 101.783 153.748C102.147 153.312 102.372 152.951 102.458 152.665C102.549 152.375 102.472 152.095 102.228 151.824L102.177 151.767C101.544 151.064 100.865 150.697 100.141 150.665C99.4209 150.629 98.6848 150.971 97.9324 151.69C97.1524 152.436 96.699 153.197 96.5724 153.972C96.4458 154.748 96.4721 155.421 96.6513 155.992L94.5872 156.905C94.2654 155.976 94.1685 155.105 94.2965 154.293C94.4248 153.472 94.6973 152.725 95.114 152.052C95.531 151.371 96.0072 150.774 96.5427 150.262C96.8842 149.935 97.315 149.602 97.8351 149.264C98.3556 148.917 98.939 148.672 99.5853 148.531C100.236 148.386 100.933 148.44 101.676 148.693C102.42 148.945 103.182 149.506 103.965 150.375L110.457 157.584L108.823 159.146L107.489 157.665L107.406 157.744C107.509 158.088 107.553 158.518 107.538 159.036C107.524 159.554 107.387 160.113 107.129 160.714C106.871 161.314 106.433 161.911 105.814 162.502ZM104.703 160.754C105.349 160.136 105.777 159.484 105.984 158.799C106.197 158.11 106.23 157.45 106.084 156.821C105.943 156.187 105.667 155.642 105.256 155.186L103.871 153.647C103.879 153.799 103.797 154.023 103.626 154.32C103.455 154.607 103.24 154.922 102.983 155.266C102.726 155.6 102.471 155.923 102.219 156.235C101.967 156.538 101.765 156.785 101.611 156.976C101.237 157.439 100.924 157.912 100.67 158.393C100.416 158.865 100.29 159.335 100.29 159.803C100.291 160.262 100.484 160.705 100.869 161.133C101.395 161.717 102.003 161.958 102.692 161.855C103.382 161.743 104.052 161.376 104.703 160.754Z" stroke="white" stroke-width="2" mask="url(#path-1-outside-1_64_3)"/>
<path d="M121.215 141.521L119.446 142.685C119.229 142.397 118.958 142.137 118.631 141.905C118.308 141.664 117.917 141.506 117.457 141.429C116.997 141.353 116.454 141.414 115.828 141.612C114.972 141.883 114.317 142.308 113.863 142.889C113.414 143.461 113.278 144.052 113.456 144.66C113.614 145.202 113.934 145.568 114.414 145.758C114.895 145.949 115.578 146.019 116.465 145.966L118.693 145.826C120.034 145.738 121.104 145.914 121.902 146.353C122.699 146.786 123.242 147.498 123.532 148.488C123.769 149.3 123.751 150.099 123.477 150.885C123.208 151.668 122.718 152.374 122.006 153.003C121.295 153.631 120.395 154.117 119.308 154.461C117.881 154.912 116.608 154.972 115.49 154.641C114.371 154.309 113.511 153.58 112.909 152.453L114.799 151.291C115.216 151.993 115.751 152.448 116.403 152.659C117.061 152.867 117.83 152.832 118.71 152.554C119.712 152.237 120.445 151.77 120.908 151.153C121.375 150.528 121.52 149.911 121.342 149.302C121.198 148.81 120.907 148.452 120.47 148.227C120.031 147.997 119.435 147.91 118.682 147.966L116.189 148.15C114.817 148.248 113.737 148.069 112.947 147.614C112.161 147.15 111.625 146.429 111.339 145.451C111.105 144.652 111.12 143.874 111.383 143.119C111.653 142.362 112.122 141.686 112.79 141.091C113.465 140.495 114.294 140.041 115.278 139.73C116.662 139.292 117.839 139.256 118.809 139.621C119.784 139.984 120.586 140.618 121.215 141.521Z" stroke="white" stroke-width="2" mask="url(#path-1-outside-1_64_3)"/>
<path d="M156.25 156.5H153.75C117.161 156.5 87.5 186.161 87.5 222.75C87.5 259.339 117.161 289 153.75 289H156.25C192.839 289 222.5 259.339 222.5 222.75C222.5 186.161 192.839 156.5 156.25 156.5Z" stroke="white" stroke-width="2" mask="url(#path-1-outside-1_64_3)"/>
</svg>
