<svg width="27" height="15" viewBox="0 0 27 15" fill="none" xmlns="http://www.w3.org/2000/svg">
<path d="M26.9806 2.29166C26.9761 2.8062 26.5217 3.21814 25.9633 3.21392L11.8369 3.10724C11.2786 3.10302 10.8316 2.68427 10.8362 2.16974C10.8408 1.65521 11.2952 1.24326 11.8535 1.24748L25.9799 1.35416C26.5382 1.35838 26.9852 1.77713 26.9806 2.29166ZM15.1177 12.4314L11.7543 12.406C11.1959 12.4018 10.7415 12.8138 10.737 13.3283C10.7324 13.8428 11.1794 14.2616 11.7377 14.2658L15.1011 14.2912C15.6595 14.2954 16.1139 13.8835 16.1184 13.3689C16.123 12.8544 15.676 12.4357 15.1177 12.4314ZM20.5488 6.8928L11.8039 6.82676C11.2455 6.82254 10.7911 7.23448 10.7866 7.74902C10.782 8.26355 11.229 8.6823 11.7873 8.68652L20.5322 8.75256C21.0906 8.75678 21.545 8.34483 21.5495 7.8303C21.5541 7.31577 21.1071 6.89702 20.5488 6.8928Z" fill="#8A8787"/>
<path d="M3.66656 0.545559L1.03627 2.94473C0.973214 3.00236 0.923169 3.07093 0.889016 3.14647C0.854864 3.22202 0.83728 3.30305 0.83728 3.38489C0.83728 3.46673 0.854864 3.54776 0.889016 3.6233C0.923169 3.69885 0.973214 3.76741 1.03627 3.82505C1.16231 3.94051 1.33281 4.00532 1.51053 4.00532C1.68825 4.00532 1.85874 3.94051 1.98478 3.82505L4.39981 1.61806L4.39981 14.2586C4.39981 14.4231 4.47068 14.5808 4.59684 14.697C4.723 14.8133 4.8941 14.8786 5.07252 14.8786C5.25093 14.8786 5.42204 14.8133 5.54819 14.697C5.67435 14.5808 5.74522 14.4231 5.74522 14.2586V1.58086L8.1737 3.82505C8.23624 3.88315 8.31064 3.92927 8.39262 3.96075C8.47459 3.99222 8.56252 4.00842 8.65133 4.00842C8.74013 4.00842 8.82806 3.99222 8.91003 3.96075C8.99201 3.92927 9.06641 3.88315 9.12895 3.82505C9.192 3.76741 9.24205 3.69885 9.2762 3.6233C9.31035 3.54776 9.32793 3.46673 9.32793 3.38489C9.32793 3.30305 9.31035 3.22202 9.2762 3.14647C9.24205 3.07093 9.192 3.00236 9.12895 2.94473L6.51884 0.545559C6.14044 0.197275 5.6275 0.00164795 5.0927 0.00164795C4.55789 0.00164794 4.04496 0.197275 3.66656 0.545559Z" fill="#8A8787"/>
</svg>
