<svg width="20" height="20" viewBox="0 0 20 20" fill="none" xmlns="http://www.w3.org/2000/svg">
<g clip-path="url(#clip0_5_107)">
<path d="M14.1667 9.61002e-06C14.2763 -0.000625547 14.385 0.0203953 14.4866 0.0618668C14.5881 0.103336 14.6805 0.164442 14.7583 0.241676C14.8364 0.319145 14.8984 0.411312 14.9407 0.512861C14.983 0.61441 15.0048 0.723333 15.0048 0.833342C15.0048 0.943352 14.983 1.05227 14.9407 1.15382C14.8984 1.25537 14.8364 1.34754 14.7583 1.42501L7.94999 8.23334C7.48182 8.70209 7.21886 9.33751 7.21886 10C7.21886 10.6625 7.48182 11.2979 7.94999 11.7667L14.7583 18.575C14.9152 18.7319 15.0034 18.9448 15.0034 19.1667C15.0034 19.3886 14.9152 19.6014 14.7583 19.7583C14.6014 19.9153 14.3886 20.0034 14.1667 20.0034C13.9447 20.0034 13.7319 19.9153 13.575 19.7583L6.76666 12.95C6.37863 12.563 6.07077 12.1032 5.86072 11.597C5.65066 11.0907 5.54254 10.5481 5.54254 10C5.54254 9.45195 5.65066 8.90927 5.86072 8.40306C6.07077 7.89685 6.37863 7.43706 6.76666 7.05001L13.575 0.241676C13.6529 0.164442 13.7452 0.103336 13.8467 0.0618669C13.9483 0.0203954 14.057 -0.000625527 14.1667 9.61002e-06Z" fill="white"/>
</g>
<defs>
<clipPath id="clip0_5_107">
<rect width="20" height="20" fill="white" transform="translate(20 20) rotate(180)"/>
</clipPath>
</defs>
</svg>
