<svg width="90" height="90" viewBox="0 0 90 90" fill="none" xmlns="http://www.w3.org/2000/svg">
<g filter="url(#filter0_d_19_135)">
<mask id="path-1-outside-1_19_135" maskUnits="userSpaceOnUse" x="4" y="0" width="82" height="82" fill="black">
<rect fill="white" x="4" width="82" height="82"/>
<path d="M84.9988 40.6943C85.1652 62.7851 67.3919 80.83 45.3012 80.9988C23.2104 81.1676 5.16749 63.3964 5.00116 41.3057C4.83483 19.2149 22.6081 1.17 44.6988 1.00119C66.7896 0.832383 84.8325 18.6036 84.9988 40.6943Z"/>
<path d="M52.0269 27.823C52.3646 29.9031 52.2295 30.1631 50.0006 31.1381C47.9068 32.1132 46.2857 32.2432 38.5183 31.7882L29.9206 31.3527C29.6639 31.3397 29.4066 31.346 29.1508 31.3717L28.6655 31.4203C27.1904 31.5682 25.8961 32.4741 25.2439 33.8151C24.9564 34.406 24.807 35.0554 24.807 35.7134V45.5686C24.807 57.594 25.0096 58.244 27.7789 57.984C29.2649 57.854 29.8052 57.529 29.6026 56.814C28.8596 54.4089 28.792 51.1588 29.4675 49.5987C30.1429 47.9087 30.2105 47.8437 36.8972 47.9087H43.7191V51.3538C43.7191 56.424 44.5972 58.114 47.1638 58.114C48.7848 58.114 49.1901 57.919 48.8524 57.074C47.0287 52.4588 47.6366 50.0537 50.8111 49.0137C53.3102 48.2337 55.8769 45.6336 55.8769 43.8786C55.8769 43.1635 55.3365 43.4235 54.2558 44.7886C53.3778 45.8286 52.4997 46.6086 52.3646 46.4136C51.0138 44.8536 49.1901 40.9535 49.5278 40.4334C50.2033 39.3934 54.2558 37.9634 56.5523 37.9634H58.6462L57.2277 39.3934C56.4848 40.1734 55.8769 41.0185 55.8769 41.3435C55.8769 42.3185 57.0927 41.8635 58.0383 40.4984C58.7137 39.4584 59.9295 39.0034 62.9689 38.6784C66.8189 38.2884 66.954 38.2234 67.5619 36.0133C67.9671 34.4532 67.8996 33.6732 67.3592 33.5432C66.954 33.4132 66.3461 32.9582 66.0084 32.5032C61.9558 27.563 61.0777 26.913 58.9163 26.913C57.633 26.913 56.4172 26.588 56.2146 26.263C56.012 25.873 54.8637 25.613 53.7155 25.613C51.7567 25.613 51.6892 25.678 52.0269 27.823ZM56.9576 28.5381C58.1058 30.2281 59.4567 30.1631 58.7812 28.4731C58.4435 27.693 58.7137 27.628 60.1996 28.2781C61.1453 28.7331 61.9558 29.2531 61.9558 29.5131C61.9558 29.7081 63.0365 31.0081 64.3198 32.4382C65.9408 34.1282 66.6163 35.2983 66.2785 36.1433C65.9408 37.2483 65.3329 37.3133 59.7268 37.0533L53.5129 36.7283L52.5673 34.3882C51.7567 32.3082 51.7567 31.9182 52.5673 31.4632C53.0401 31.1381 54.2558 31.0731 55.2015 31.2681L56.89 31.6582L55.0664 29.9681C53.9857 29.0581 53.1752 27.953 53.1752 27.563C53.1752 26.263 55.8769 26.913 56.9576 28.5381ZM34.6683 33.8032C34.4657 34.3882 34.2631 35.0383 34.2631 35.2983C34.2631 35.6233 33.5201 36.5983 32.5069 37.6384C30.7508 39.4584 30.7508 40.6935 32.5069 39.3284C34.8709 37.4433 38.3156 40.8885 38.3156 45.1786V47.1937L34.4657 46.7386C32.3718 46.4786 29.6701 45.8286 28.3868 45.2436C25.6851 44.0086 25.4149 42.0585 27.8464 41.4735C28.792 41.2785 29.535 40.8235 29.535 40.4984C29.535 40.1734 28.792 40.0434 27.8464 40.3034C26.2929 40.6934 26.1579 40.4984 26.1579 38.4184C26.1579 35.2333 28.8596 32.7632 32.3718 32.7632C34.6008 32.7632 35.006 32.9582 34.6683 33.8032ZM40.4095 33.4132C41.3551 33.4132 41.2875 33.9332 39.7341 36.5983L37.9779 39.8484L36.492 38.4834C35.3437 37.4433 35.0736 36.6633 35.4113 35.4283C36.0192 32.8932 36.2893 32.6332 37.9104 33.0232C38.6534 33.2182 39.8016 33.4132 40.4095 33.4132ZM51.1489 34.4533C52.162 36.9883 51.9594 37.5734 49.6629 38.8084C47.6366 39.9134 47.5015 39.9134 46.1507 38.7434C45.3401 38.0284 44.0568 37.1183 43.1788 36.6633C41.6928 35.9483 41.6253 35.8183 42.706 34.7133C43.3814 33.9982 45.0024 33.3482 46.3533 33.2182C47.7042 33.0882 49.1901 32.9582 49.6629 32.8932C50.1357 32.8282 50.8111 33.5432 51.1489 34.4533ZM45.0024 39.3934C48.2445 41.6685 48.1094 41.9285 42.5709 42.7735C39.7341 43.1635 39.6665 43.1635 39.6665 41.2785C39.6665 38.8084 40.2744 37.3133 41.2875 37.3133C41.7603 37.3133 43.4489 38.2234 45.0024 39.3934ZM50.2033 45.1786C51.0813 46.8686 51.1489 47.3237 50.3383 47.7787C49.1901 48.4937 48.4471 48.4937 48.4471 47.7137C48.4471 46.4136 45.8805 45.7636 42.7735 46.3486C40.0042 46.8686 39.6665 46.7386 39.6665 45.6986C39.6665 44.9836 40.2744 44.3336 41.22 44.2036C42.0305 44.0086 43.3138 43.7485 44.0568 43.6185C47.8392 42.8385 49.055 43.1635 50.2033 45.1786ZM28.0491 46.6086C28.5894 47.2587 28.5894 48.1687 28.1166 49.9887C27.7114 51.3538 27.5087 53.4989 27.7114 54.7339C27.9815 56.2289 27.8464 56.814 27.3061 56.619C26.7658 56.489 26.428 54.4739 26.293 51.0938C26.0903 45.8936 26.5631 44.8536 28.0491 46.6086ZM47.0287 47.9087C47.5691 48.5587 47.5015 49.3387 46.9612 50.8338C46.3533 52.3938 46.2857 53.3689 46.8936 54.8639C47.5015 56.424 47.5015 56.814 46.7585 56.814C45.4752 56.814 45.07 55.3189 45.07 50.8988C45.07 47.0637 45.6103 46.2836 47.0287 47.9087Z"/>
<path d="M46.88 11.6513L44.4773 11.4218L45.1401 3.57107L47.6493 3.81075C48.4046 3.8829 49.0376 4.1018 49.5484 4.46746C50.0594 4.83056 50.4334 5.31841 50.6704 5.93099C50.9076 6.54101 50.9919 7.25236 50.9233 8.06503C50.8542 8.88281 50.6503 9.57307 50.3115 10.1358C49.973 10.696 49.514 11.1081 48.9348 11.3722C48.3557 11.6338 47.6708 11.7268 46.88 11.6513ZM45.4913 10.6685L46.8904 10.8021C47.5341 10.8636 48.0782 10.7894 48.5226 10.5793C48.9671 10.3693 49.3127 10.043 49.5596 9.60027C49.8065 9.15756 49.9569 8.61677 50.0108 7.97787C50.0643 7.34409 50.0078 6.78868 49.8411 6.31162C49.6746 5.83201 49.3977 5.45005 49.0104 5.16573C48.6233 4.87887 48.1256 4.70638 47.5173 4.64828L46.0118 4.50447L45.4913 10.6685Z"/>
<path d="M53.6476 13.1904C53.1091 13.0178 52.6802 12.7485 52.361 12.3825C52.045 12.0148 51.8459 11.5796 51.7638 11.077C51.6849 10.5727 51.7314 10.0306 51.9034 9.45063C52.0754 8.87067 52.3313 8.39295 52.6711 8.01747C53.0141 7.64032 53.4104 7.38789 53.8601 7.2602C54.3129 7.13083 54.7916 7.14701 55.2962 7.30873C55.5873 7.40203 55.8603 7.54332 56.115 7.73258C56.3697 7.92185 56.5807 8.16439 56.748 8.46021C56.916 8.75356 57.0156 9.10302 57.0468 9.50859C57.078 9.91416 57.0152 10.3811 56.8585 10.9095L56.7492 11.2781L52.4405 9.89723L52.6635 9.14524L56.0988 10.2462C56.1935 9.92673 56.215 9.62145 56.1632 9.33036C56.1138 9.04004 55.9953 8.78546 55.8078 8.5666C55.6228 8.34853 55.375 8.18973 55.0645 8.09021C54.7224 7.98058 54.4009 7.97173 54.1 8.06367C53.8022 8.15393 53.5462 8.31407 53.3319 8.54408C53.1176 8.7741 52.9641 9.04516 52.8716 9.35725L52.7229 9.85858C52.5961 10.2862 52.5614 10.672 52.6188 11.016C52.6793 11.3583 52.8176 11.6489 53.0337 11.8877C53.2506 12.124 53.5325 12.2978 53.8794 12.4089C54.105 12.4812 54.3183 12.5146 54.5192 12.509C54.7232 12.5018 54.9113 12.4544 55.0834 12.3669C55.2561 12.277 55.4081 12.1454 55.5392 11.9721L56.2989 12.4739C56.1271 12.731 55.9059 12.9346 55.6356 13.0848C55.366 13.2325 55.0617 13.318 54.7227 13.3412C54.3845 13.362 54.0261 13.3117 53.6476 13.1904Z"/>
<path d="M63.4101 8.94441L59.6794 15.8693L58.8973 15.4182L62.6279 8.49337L63.4101 8.94441Z"/>
<path d="M64.0728 18.216L67.879 13.7197L68.5507 14.325L64.7445 18.8213L64.0728 18.216ZM68.4286 13.1416L70.2728 12.4092L71.0584 13.1171L69.0206 13.6751L68.4286 13.1416Z"/>
<path d="M69.4218 23.8235C69.0964 23.3769 68.9193 22.9128 68.8905 22.4311C68.8616 21.9495 68.9648 21.4822 69.2 21.0293C69.4352 20.5764 69.7852 20.1706 70.25 19.8118C70.7229 19.4468 71.205 19.2136 71.6963 19.1122C72.1911 19.0113 72.6574 19.0424 73.095 19.2053C73.5361 19.3688 73.9133 19.6655 74.2266 20.0956C74.4707 20.4305 74.63 20.7792 74.7046 21.1416C74.7791 21.504 74.7698 21.8552 74.6766 22.1953C74.5833 22.5354 74.4063 22.8384 74.1454 23.1044L73.6121 22.3724C73.7837 22.1528 73.8812 21.8837 73.9048 21.565C73.932 21.2469 73.828 20.9266 73.593 20.604C73.3851 20.3187 73.1301 20.1247 72.8279 20.0219C72.5293 19.9197 72.2049 19.91 71.8549 19.9929C71.5083 20.0763 71.1592 20.2536 70.8075 20.5251C70.4478 20.8027 70.1767 21.1024 69.9943 21.4241C69.8134 21.7478 69.7268 22.0731 69.7344 22.4C69.7436 22.7289 69.8536 23.038 70.0645 23.3275C70.2031 23.5177 70.3612 23.6654 70.5388 23.7706C70.7165 23.8757 70.9051 23.9353 71.1047 23.9492C71.3043 23.9631 71.5055 23.9273 71.7084 23.8418L72.2417 24.5737C71.9367 24.7445 71.6146 24.8333 71.2753 24.8399C70.9395 24.8471 70.6098 24.7673 70.2861 24.6004C69.966 24.434 69.6779 24.175 69.4218 23.8235Z"/>
<path d="M72.0636 28.7415L77.368 26.2191L77.7413 27.0455L72.4368 29.5679L72.0636 28.7415ZM78.4419 26.2189C78.3692 26.0578 78.3605 25.8932 78.416 25.725C78.4726 25.5592 78.5768 25.4401 78.7288 25.3679C78.8807 25.2956 79.0366 25.2909 79.1965 25.3539C79.3574 25.4191 79.4743 25.5323 79.547 25.6934C79.6198 25.8545 79.6279 26.0179 79.5714 26.1838C79.5159 26.352 79.4121 26.4722 79.2602 26.5444C79.1082 26.6167 78.9518 26.6202 78.7909 26.5549C78.631 26.492 78.5147 26.38 78.4419 26.2189Z"/>
<path d="M75.4461 35.2586C75.3642 34.8933 75.3582 34.546 75.4279 34.2165C75.5001 33.8865 75.6468 33.6036 75.868 33.3678C76.0916 33.1315 76.3895 32.9701 76.7616 32.8835C77.0891 32.8073 77.3691 32.8105 77.6016 32.8933C77.8367 32.9755 78.0369 33.1118 78.2022 33.3024C78.3676 33.4929 78.5083 33.7129 78.6242 33.9623C78.7432 34.2136 78.85 34.4691 78.9447 34.7287C79.0679 35.0686 79.165 35.3447 79.2361 35.5572C79.3103 35.7716 79.3871 35.9221 79.4666 36.0089C79.5466 36.0982 79.6573 36.1264 79.7987 36.0935L79.8285 36.0866C80.1956 36.0012 80.4582 35.8335 80.6162 35.5835C80.7747 35.336 80.8083 35.0084 80.7169 34.6006C80.6221 34.1778 80.456 33.8676 80.2187 33.6702C79.9813 33.4727 79.7475 33.3495 79.5172 33.3004L79.6265 32.3905C80.0074 32.4598 80.3226 32.597 80.5722 32.8022C80.8248 33.0092 81.0229 33.2527 81.1665 33.5325C81.3132 33.8143 81.4191 34.1002 81.4841 34.3904C81.5256 34.5756 81.5509 34.7934 81.5601 35.044C81.5723 35.2965 81.5367 35.5509 81.4532 35.8072C81.3703 36.0661 81.2105 36.302 80.9737 36.515C80.737 36.7281 80.3916 36.8874 79.9377 36.993L76.1722 37.8693L75.9737 36.9837L76.7476 36.8036L76.7375 36.7585C76.6001 36.7274 76.4449 36.6582 76.2721 36.551C76.0993 36.4438 75.9372 36.2854 75.7859 36.0758C75.6345 35.8662 75.5212 35.5938 75.4461 35.2586ZM76.2652 35.2101C76.3437 35.5604 76.4781 35.8397 76.6684 36.0481C76.8592 36.2591 77.0762 36.4007 77.3195 36.4731C77.5634 36.5479 77.8044 36.5577 78.0425 36.5022L78.8462 36.3152C78.7931 36.2881 78.7337 36.215 78.6679 36.0961C78.6051 35.9791 78.5416 35.8412 78.4773 35.6824C78.4161 35.5256 78.3581 35.3719 78.3035 35.2214C78.2519 35.0729 78.2093 34.9525 78.1756 34.8603C78.0942 34.6371 77.9976 34.4332 77.8858 34.2486C77.777 34.066 77.6431 33.9287 77.4842 33.8367C77.3283 33.7466 77.1387 33.7275 76.9155 33.7795C76.6104 33.8505 76.4052 34.018 76.2999 34.282C76.1977 34.548 76.1862 34.8574 76.2652 35.2101Z"/>
<path d="M80.9964 44.2421L80.753 43.4295C80.8871 43.3765 81.0168 43.2992 81.1424 43.1976C81.2705 43.0985 81.3751 42.9638 81.4562 42.7935C81.5372 42.6232 81.5754 42.406 81.5708 42.1418C81.5645 41.7802 81.4765 41.48 81.3068 41.241C81.1397 41.0046 80.9302 40.8879 80.6782 40.8911C80.4541 40.8939 80.2786 40.9782 80.1517 41.144C80.0247 41.3097 79.921 41.5675 79.8405 41.9174L79.642 42.7971C79.5239 43.327 79.3361 43.7231 79.0784 43.9854C78.8232 44.2476 78.4908 44.3814 78.0809 44.3865C77.7449 44.3908 77.4428 44.2971 77.1746 44.1055C76.9065 43.9165 76.6931 43.6499 76.5343 43.3056C76.3755 42.9614 76.2921 42.5597 76.2841 42.1007C76.2736 41.4981 76.3947 40.9977 76.6474 40.5995C76.9002 40.2013 77.2751 39.9465 77.7723 39.8351L78.0012 40.694C77.6869 40.78 77.4529 40.9382 77.299 41.1684C77.1452 41.4012 77.0716 41.7035 77.0781 42.0753C77.0854 42.4984 77.1804 42.8333 77.363 43.0798C77.5481 43.3288 77.7667 43.4517 78.0187 43.4485C78.2223 43.446 78.3916 43.372 78.5266 43.2267C78.6641 43.0813 78.7646 42.8595 78.8282 42.5611L79.0401 41.5735C79.1579 41.0308 79.3483 40.6308 79.6112 40.3736C79.8766 40.1189 80.2117 39.989 80.6165 39.9839C80.9474 39.9797 81.2418 40.0696 81.4997 40.2536C81.7575 40.4402 81.9619 40.6954 82.1127 41.0192C82.2635 41.3456 82.3425 41.7166 82.3498 42.132C82.36 42.7167 82.2407 43.1773 81.992 43.5139C81.7433 43.853 81.4114 44.0958 80.9964 44.2421Z"/>
<path d="M72.7022 53.8348C72.8896 53.38 73.1681 53.0286 73.5377 52.7805C73.9096 52.5334 74.3435 52.4035 74.8394 52.3906C75.3376 52.3787 75.8711 52.4987 76.4398 52.7506C77.0038 53.0004 77.4527 53.3154 77.7865 53.6957C78.1204 54.0761 78.328 54.4916 78.4096 54.9423C78.4912 55.3929 78.4373 55.8481 78.2479 56.3076C78.1015 56.6629 77.9275 56.9178 77.726 57.0723C77.5259 57.2301 77.33 57.331 77.1382 57.375C76.9479 57.4223 76.7934 57.4561 76.6748 57.4764L76.6455 57.5475L79.2884 58.7179L78.9428 59.5565L71.7831 56.3857L72.117 55.5756L72.942 55.941L72.983 55.8415C72.9105 55.7366 72.8231 55.5942 72.7208 55.4145C72.6208 55.2357 72.556 55.0152 72.5264 54.7528C72.4991 54.4914 72.5577 54.1854 72.7022 53.8348ZM73.3965 54.2767C73.2578 54.6131 73.2269 54.9355 73.3037 55.244C73.3828 55.5536 73.5513 55.8369 73.8092 56.0939C74.0693 56.352 74.4022 56.5708 74.8077 56.7504C75.2086 56.928 75.5838 57.0241 75.9332 57.0388C76.285 57.0545 76.5927 56.9835 76.8561 56.8257C77.122 56.6689 77.3252 56.4199 77.4658 56.0789C77.6122 55.7235 77.6445 55.3877 77.5627 55.0714C77.4822 54.7584 77.3137 54.4751 77.0572 54.2215C76.8021 53.9712 76.4857 53.7625 76.1081 53.5953C75.7259 53.426 75.3543 53.3315 74.9931 53.3116C74.6334 53.2951 74.3131 53.3634 74.0323 53.5163C73.7529 53.6727 73.5409 53.9262 73.3965 54.2767Z"/>
<path d="M69.951 59.4405C70.1613 59.1317 70.409 58.8928 70.6939 58.7237C70.981 58.5561 71.2833 58.4771 71.6009 58.4866C71.9206 58.4977 72.2352 58.6158 72.5449 58.8409C72.8174 59.039 73.0009 59.2546 73.0952 59.4876C73.1917 59.7222 73.2258 59.9667 73.1975 60.2212C73.1692 60.4757 73.1031 60.7313 72.9994 60.9878C72.8962 61.248 72.782 61.5018 72.6568 61.749C72.4923 62.0721 72.3567 62.3324 72.2499 62.5299C72.1438 62.731 72.0857 62.8911 72.0755 63.0102C72.064 63.1315 72.117 63.2348 72.2347 63.3204L72.2595 63.3384C72.565 63.5605 72.8608 63.6475 73.1467 63.5992C73.4313 63.5531 73.6909 63.3577 73.9257 63.013C74.1692 62.6556 74.2837 62.3199 74.2692 62.0058C74.2547 61.6917 74.1888 61.4304 74.0716 61.2219L74.8034 60.6914C75.006 61.0284 75.1157 61.3612 75.1327 61.6897C75.1503 62.0219 75.1054 62.3371 74.998 62.6352C74.8912 62.937 74.7542 63.2106 74.5871 63.4559C74.4805 63.6124 74.3395 63.7786 74.1641 63.9546C73.9893 64.1343 73.7813 64.2787 73.5401 64.388C73.2976 64.4994 73.0206 64.5367 72.7091 64.5C72.3976 64.4633 72.053 64.3076 71.6752 64.033L68.5413 61.7547L69.0512 61.0061L69.6954 61.4744L69.7213 61.4363C69.6526 61.3105 69.5998 61.1456 69.5628 60.9416C69.5258 60.7377 69.533 60.5073 69.5844 60.2506C69.6358 59.9939 69.758 59.7239 69.951 59.4405ZM70.5297 60.032C70.3281 60.328 70.2148 60.6188 70.1901 60.9044C70.1639 61.1921 70.2053 61.453 70.3144 61.6872C70.422 61.9235 70.5748 62.1137 70.773 62.2578L71.4419 62.7441C71.4264 62.6853 71.4398 62.5908 71.4823 62.4604C71.5255 62.3337 71.5832 62.1922 71.6556 62.0362C71.7286 61.8837 71.8015 61.7359 71.8743 61.5928C71.9477 61.4533 72.0066 61.3396 72.051 61.2517C72.1588 61.0392 72.2424 60.828 72.3019 60.6183C72.362 60.4122 72.3727 60.2176 72.3338 60.0344C72.2956 59.8549 72.1836 59.6976 71.9978 59.5625C71.7439 59.3779 71.4863 59.3345 71.2252 59.4324C70.9646 59.5339 70.7328 59.7338 70.5297 60.032Z"/>
<path d="M67.1452 69.6626L67.5784 68.9301C67.706 68.9955 67.8485 69.0412 68.0061 69.0673C68.1635 69.097 68.3313 69.085 68.5096 69.0311C68.6879 68.9772 68.8722 68.8594 69.0623 68.6775C69.3227 68.4285 69.484 68.1592 69.5464 67.8698C69.6086 67.584 69.555 67.3471 69.3856 67.159C69.2351 66.9919 69.0571 66.9163 68.8517 66.9325C68.6463 66.9486 68.389 67.0445 68.0797 67.2201L67.3046 67.6645C66.8387 67.9333 66.4244 68.0591 66.0618 68.0418C65.7008 68.0264 65.3826 67.8658 65.1072 67.56C64.8814 67.3093 64.7497 67.018 64.7121 66.6863C64.6726 66.3563 64.7262 66.0151 64.8728 65.6627C65.0194 65.3103 65.258 64.9761 65.5884 64.66C66.0223 64.245 66.4687 63.9984 66.9275 63.9202C67.3863 63.842 67.8212 63.9528 68.2322 64.2527L67.7556 65.0056C67.4843 64.8266 67.2136 64.7568 66.9432 64.7962C66.6709 64.8374 66.401 64.986 66.1333 65.242C65.8286 65.5334 65.6466 65.8312 65.5873 66.1355C65.5278 66.4434 65.5828 66.6914 65.7521 66.8795C65.889 67.0314 66.0553 67.1092 66.2511 67.1129C66.4486 67.1185 66.6775 67.0445 66.9378 66.8909L67.8008 66.3838C68.2759 66.1061 68.6946 65.9796 69.057 66.0042C69.4193 66.0325 69.7364 66.1976 70.0084 66.4997C70.2308 66.7466 70.3602 67.0295 70.3965 67.3484C70.4309 67.669 70.3797 67.9956 70.2427 68.3281C70.1039 68.6624 69.8849 68.9726 69.5858 69.2587C69.1649 69.6614 68.7489 69.8825 68.3378 69.9221C67.9248 69.9635 67.5273 69.877 67.1452 69.6626Z"/>
<path d="M53.9296 75.9025L54.8243 75.5897C54.964 75.8313 55.1329 76.0274 55.3309 76.178C55.5266 76.3295 55.7405 76.4393 55.9727 76.5074C56.2034 76.5788 56.4431 76.609 56.6919 76.598C56.9407 76.587 57.1877 76.5386 57.4331 76.4528C57.8804 76.2963 58.2475 76.0404 58.5344 75.6848C58.8189 75.3302 58.9939 74.893 59.0594 74.3732C59.1225 73.8543 59.0462 73.2716 58.8303 72.6249C58.6144 71.9783 58.3264 71.4695 57.9662 71.0987C57.6036 70.7287 57.2038 70.4925 56.7667 70.3902C56.3273 70.2887 55.8839 70.3161 55.4365 70.4726C55.1912 70.5584 54.9669 70.6748 54.7635 70.822C54.5602 70.9691 54.3882 71.1419 54.2477 71.3404C54.1055 71.5421 54.0024 71.7642 53.9382 72.0065C53.8725 72.2521 53.8562 72.513 53.8893 72.7892L52.9946 73.1021C52.9345 72.6968 52.9432 72.3124 53.0205 71.9487C53.0979 71.585 53.2335 71.2512 53.4274 70.9472C53.6222 70.6456 53.8661 70.3825 54.1591 70.1578C54.4496 69.9341 54.7813 69.757 55.1541 69.6266C55.7842 69.4062 56.3966 69.3658 56.9911 69.5054C57.5856 69.645 58.1193 69.9524 58.5923 70.4277C59.0652 70.903 59.4331 71.5345 59.6961 72.3221C59.9591 73.1098 60.0456 73.8397 59.9558 74.5118C59.8659 75.1839 59.6276 75.7613 59.2408 76.2441C58.8541 76.7268 58.3456 77.0784 57.7155 77.2988C57.3427 77.4291 56.9745 77.4968 56.6109 77.5018C56.2449 77.5077 55.8943 77.4511 55.5591 77.3321C55.2248 77.2156 54.9183 77.0377 54.6396 76.7985C54.3618 76.5617 54.1252 76.2631 53.9296 75.9025Z"/>
<path d="M48.9668 72.5547C49.3358 72.51 49.6791 72.5394 49.9966 72.643C50.3144 72.7491 50.5778 72.9251 50.7867 73.171C50.9959 73.4195 51.1233 73.7347 51.1689 74.1167C51.2091 74.4528 51.1759 74.7332 51.0694 74.958C50.9633 75.1853 50.8074 75.3721 50.6018 75.5184C50.3962 75.6648 50.1641 75.7833 49.9057 75.8741C49.6451 75.9677 49.3817 76.0487 49.1155 76.1172C48.7671 76.2059 48.4843 76.2751 48.2672 76.3247C48.0478 76.3771 47.891 76.4387 47.7969 76.5096C47.7003 76.5807 47.6606 76.6888 47.678 76.834L47.6816 76.8645C47.7267 77.2414 47.864 77.5218 48.0937 77.7058C48.3209 77.8901 48.6405 77.9573 49.0525 77.9073C49.4796 77.8555 49.8033 77.7206 50.0234 77.5028C50.2436 77.2849 50.3901 77.0631 50.4632 76.8372L51.349 77.0398C51.2399 77.4147 51.0709 77.7168 50.8418 77.946C50.6106 78.1782 50.3493 78.3519 50.0579 78.4674C49.7643 78.5856 49.4709 78.6625 49.1777 78.6981C48.9907 78.7208 48.7731 78.7239 48.525 78.7075C48.2746 78.6939 48.0275 78.6322 47.7835 78.5223C47.5371 78.4127 47.3215 78.2283 47.1366 77.9691C46.9518 77.7099 46.8316 77.3474 46.7759 76.8814L46.314 73.0159L47.2088 72.9074L47.3037 73.7019L47.3492 73.6964C47.3947 73.5617 47.4795 73.4132 47.6037 73.2509C47.7279 73.0886 47.9015 72.9423 48.1244 72.8119C48.3473 72.6815 48.6281 72.5958 48.9668 72.5547ZM48.927 73.381C48.5732 73.424 48.2833 73.5302 48.0574 73.6996C47.8289 73.8694 47.666 74.0726 47.5686 74.3091C47.4687 74.546 47.4333 74.7867 47.4626 75.0311L47.5611 75.8562C47.5936 75.8057 47.672 75.7536 47.7963 75.6998C47.9184 75.6488 48.0612 75.5992 48.2247 75.5509C48.386 75.5056 48.5437 75.4632 48.698 75.4238C48.8501 75.3873 48.9734 75.3568 49.0679 75.3324C49.2968 75.2737 49.5082 75.1977 49.7022 75.1044C49.894 75.014 50.0438 74.8938 50.1515 74.7438C50.257 74.5967 50.296 74.4085 50.2687 74.1793C50.2312 73.8661 50.0879 73.6433 49.8388 73.5107C49.5873 73.3811 49.2834 73.3378 48.927 73.381Z"/>
<path d="M43.6912 72.8025L43.1941 78.6905L42.3273 78.6077L42.4024 77.7184L42.3416 77.7126C42.2105 77.9937 41.9979 78.2117 41.7038 78.3665C41.4097 78.5214 41.0878 78.5821 40.738 78.5487C40.6721 78.5424 40.5898 78.5332 40.4912 78.5212C40.3926 78.5092 40.3181 78.4982 40.2679 78.4883L40.3455 77.5683C40.3753 77.5789 40.444 77.597 40.5517 77.6228C40.6567 77.6508 40.7687 77.6705 40.8878 77.6819C41.1717 77.709 41.4302 77.6732 41.6634 77.5744C41.8938 77.4779 42.0825 77.331 42.2295 77.1338C42.3737 76.9389 42.457 76.7086 42.4794 76.4428L42.794 72.7168L43.6912 72.8025Z"/>
<path d="M36.9171 75.2707L37.9271 71.8646L38.786 72.1399L37.1069 77.8019L36.2772 77.536L36.5395 76.6513L36.4667 76.6279C36.2505 76.8735 35.983 77.0407 35.6644 77.1297C35.3451 77.2211 34.9743 77.1992 34.5522 77.0639C34.1737 76.9426 33.8659 76.7578 33.6287 76.5096C33.3907 76.2638 33.2399 75.9571 33.1762 75.5895C33.1118 75.2244 33.151 74.8011 33.2939 74.3194L34.3608 70.7217L35.2196 70.9969L34.1702 74.5357C34.0383 74.9805 34.0496 75.3635 34.204 75.6848C34.3577 76.0085 34.6335 76.2342 35.0314 76.3617C35.3055 76.4496 35.5684 76.4679 35.8201 76.4167C36.0693 76.3647 36.29 76.243 36.4822 76.0517C36.6745 75.8603 36.8194 75.6 36.9171 75.2707Z"/>
<path d="M30.5379 68.5605C31.0284 68.8433 31.392 69.1978 31.6288 69.6238C31.8621 70.0509 31.9673 70.5193 31.9446 71.0291C31.9185 71.54 31.7621 72.0614 31.4755 72.5934C31.1889 73.1254 30.8413 73.5394 30.4327 73.8356C30.0206 74.1328 29.5821 74.2964 29.1169 74.3266C28.6484 74.3578 28.1843 74.2409 27.7247 73.9758C27.4596 73.823 27.222 73.6269 27.0121 73.3876C26.8022 73.1484 26.6458 72.8662 26.543 72.541C26.4389 72.2181 26.4132 71.8546 26.4658 71.4506C26.5184 71.0466 26.6752 70.6023 26.9363 70.1176L27.1185 69.7795L31.0426 72.0424L30.671 72.7321L27.5423 70.928C27.3844 71.221 27.301 71.5156 27.292 71.8118C27.2808 72.1067 27.3444 72.3812 27.4826 72.6352C27.6187 72.888 27.8281 73.0959 28.1109 73.259C28.4225 73.4387 28.7345 73.5152 29.0471 73.4887C29.3563 73.4631 29.639 73.3602 29.8953 73.1801C30.1517 72.9999 30.3569 72.7667 30.5112 72.4804L30.7589 72.0206C30.9702 71.6284 31.0831 71.2576 31.0974 70.9084C31.1084 70.5602 31.0328 70.2463 30.8707 69.9667C30.7073 69.6893 30.4677 69.4595 30.1517 69.2773C29.9462 69.1588 29.7449 69.0811 29.5476 69.0442C29.3469 69.0082 29.1535 69.0149 28.9677 69.0643C28.7806 69.116 28.6053 69.2128 28.4419 69.3549L27.8028 68.7028C28.0232 68.4872 28.2807 68.3343 28.5754 68.2443C28.8689 68.1564 29.1835 68.1369 29.5192 68.1858C29.8536 68.2368 30.1932 68.3617 30.5379 68.5605Z"/>
<path d="M20.9407 66.9856L21.6928 67.3538C21.6432 67.4914 21.6141 67.6423 21.6055 67.8066C21.5933 67.9711 21.6226 68.142 21.6933 68.3193C21.7641 68.4965 21.8972 68.6732 22.0926 68.8493C22.3601 69.0904 22.6368 69.2279 22.9225 69.2618C23.2047 69.296 23.4276 69.2164 23.5911 69.0232C23.7365 68.8515 23.7906 68.6611 23.7534 68.4522C23.7162 68.2432 23.5967 67.9893 23.3948 67.6904L22.8846 66.9416C22.5763 66.4918 22.4114 66.08 22.3899 65.7063C22.3668 65.3346 22.4882 64.9916 22.7542 64.6774C22.9722 64.4198 23.2393 64.2545 23.5553 64.1815C23.8694 64.1068 24.2041 64.1263 24.5594 64.24C24.9147 64.3538 25.2621 64.5637 25.6018 64.8698C26.0477 65.2716 26.3325 65.7038 26.4562 66.1661C26.58 66.6285 26.5188 67.086 26.2728 67.5386L25.4965 67.128C25.6406 66.8313 25.6795 66.5464 25.613 66.2732C25.5447 65.9983 25.3729 65.7369 25.0978 65.4889C24.7847 65.2068 24.4783 65.0511 24.1786 65.0218C23.8753 64.9928 23.642 65.0749 23.4784 65.2681C23.3462 65.4242 23.2887 65.6029 23.3057 65.804C23.3211 66.0071 23.4166 66.2342 23.5921 66.4852L24.1721 67.3175C24.4899 67.7758 24.6559 68.1921 24.6703 68.5663C24.6812 68.9408 24.5553 69.2831 24.2926 69.5934C24.0778 69.8471 23.8186 70.0091 23.5149 70.0795C23.2093 70.1481 22.8889 70.1294 22.5537 70.0235C22.2167 69.9158 21.8945 69.7235 21.5871 69.4465C21.1545 69.0566 20.8974 68.653 20.8159 68.2355C20.7325 67.8164 20.7741 67.3997 20.9407 66.9856Z"/>
<path d="M17.5561 54.876C17.7902 55.3943 17.8793 55.895 17.8234 56.3781C17.7642 56.86 17.5767 57.2994 17.2609 57.6963C16.9418 58.0919 16.5106 58.4189 15.9672 58.6773C15.4239 58.9357 14.8997 59.063 14.3946 59.0593C13.8861 59.0544 13.4339 58.9263 13.0379 58.675C12.6386 58.4225 12.3293 58.0535 12.11 57.5679C11.9834 57.2878 11.9045 56.9892 11.8733 56.6723C11.842 56.3554 11.8793 56.0356 11.9853 55.7129C12.089 55.3914 12.28 55.0836 12.5583 54.7896C12.8367 54.4956 13.2233 54.2309 13.7183 53.9955L14.0637 53.8313L15.9363 57.9773L15.2318 58.3124L13.7388 55.0067C13.4395 55.1491 13.1998 55.3368 13.0198 55.5698C12.8388 55.8006 12.7304 56.0591 12.6947 56.3455C12.658 56.6295 12.7071 56.9209 12.8421 57.2197C12.9908 57.5489 13.2 57.7954 13.4698 57.9592C13.7362 58.1218 14.0261 58.2065 14.3397 58.2134C14.6532 58.2202 14.9562 58.1542 15.2486 58.0151L15.7183 57.7918C16.1189 57.6013 16.4268 57.3698 16.6421 57.0972C16.8541 56.8234 16.9757 56.526 17.0068 56.2049C17.0357 55.8849 16.9747 55.558 16.8239 55.2242C16.7259 55.0071 16.6074 54.8252 16.4684 54.6786C16.3261 54.5307 16.165 54.4216 15.985 54.3512C15.8027 54.2819 15.6036 54.2561 15.3878 54.2736L15.2482 53.3701C15.5532 53.3272 15.8518 53.3568 16.1441 53.4588C16.434 53.562 16.7013 53.7327 16.9459 53.9709C17.1882 54.2101 17.3916 54.5118 17.5561 54.876Z"/>
<path d="M9.95482 50.9344L11.982 49.0096L9.33577 48.1724L9.10699 47.1516L12.3818 48.3479L14.8222 45.8216L15.051 46.8423L13.1429 48.7394L15.67 49.6043L15.8988 50.6251L12.6308 49.4588L10.1836 51.9551L9.95482 50.9344Z"/>
<path d="M15.5221 42.2495C15.5314 42.7829 15.4135 43.2525 15.1685 43.6583C14.9234 44.0615 14.5763 44.3789 14.1271 44.6103C13.6778 44.8391 13.1503 44.9574 12.5444 44.965C11.9334 44.9728 11.3982 44.868 10.9386 44.6507C10.479 44.4308 10.1197 44.1224 9.86073 43.7255C9.6017 43.3261 9.46755 42.8597 9.45827 42.3263C9.44899 41.7929 9.56688 41.3246 9.81195 40.9214C10.057 40.5156 10.4054 40.1982 10.8572 39.9693C11.3089 39.7379 11.8403 39.6183 12.4512 39.6106C13.0571 39.6029 13.5886 39.709 14.0456 39.929C14.5027 40.1463 14.8607 40.4547 15.1197 40.8541C15.3787 41.251 15.5128 41.7161 15.5221 42.2495ZM14.7126 42.2598C14.7055 41.8546 14.5966 41.5225 14.3859 41.2636C14.1751 41.0046 13.9006 40.8144 13.5624 40.693C13.2242 40.5716 12.8591 40.5134 12.467 40.5184C12.075 40.5233 11.7108 40.5908 11.3744 40.7207C11.038 40.8507 10.7677 41.0478 10.5635 41.312C10.3593 41.5762 10.2607 41.9109 10.2678 42.3161C10.2748 42.7212 10.385 43.0533 10.5983 43.3122C10.8116 43.5711 11.0886 43.7613 11.4294 43.8826C11.7702 44.004 12.1366 44.0622 12.5286 44.0572C12.9206 44.0523 13.2836 43.9848 13.6174 43.8549C13.9513 43.725 14.219 43.528 14.4207 43.2638C14.6223 42.9996 14.7196 42.6649 14.7126 42.2598ZM8.74761 42.7508L6.95948 41.8347L6.94101 40.7731L8.73369 41.9507L8.74761 42.7508Z"/>
<path d="M10.4931 33.0127L11.2414 33.1666L10.675 36.1754L9.92663 36.0214L10.4931 33.0127ZM8.71481 34.8613L8.88274 33.9692L14.3605 35.0961C14.6099 35.1474 14.8039 35.1493 14.9424 35.1019C15.0788 35.0514 15.1792 34.9726 15.2434 34.8654C15.3056 34.7552 15.349 34.6346 15.3737 34.5035C15.3922 34.4053 15.4024 34.3236 15.4043 34.2586C15.4037 34.193 15.4032 34.1405 15.4028 34.1012L16.2302 34.0829C16.2413 34.148 16.2478 34.2371 16.2499 34.35C16.2544 34.4635 16.241 34.6034 16.2097 34.7697C16.1623 35.0217 16.0622 35.2576 15.9094 35.4775C15.757 35.6948 15.5562 35.8603 15.3068 35.9739C15.0579 36.0849 14.7663 36.1061 14.432 36.0373L8.71481 34.8613Z"/>
<path d="M17.6588 29.8656L12.289 27.4876L12.6346 26.649L18.0044 29.0271L17.6588 29.8656ZM11.5697 26.6649C11.5024 26.8283 11.3895 26.945 11.2312 27.0149C11.0738 27.0825 10.9182 27.0822 10.7644 27.0141C10.6105 26.9459 10.5028 26.8296 10.4411 26.665C10.3804 26.4981 10.3837 26.3329 10.451 26.1694C10.5184 26.006 10.6308 25.8905 10.7881 25.8229C10.9465 25.753 11.1026 25.7521 11.2564 25.8202C11.4102 25.8883 11.5175 26.0059 11.5782 26.1728C11.6399 26.3374 11.6371 26.5014 11.5697 26.6649Z"/>
<path d="M21.1044 23.7256C20.7933 24.1824 20.4201 24.4992 19.9848 24.676C19.5495 24.8528 19.0866 24.8957 18.596 24.8047C18.1055 24.7137 17.6228 24.4956 17.1479 24.1504C16.6648 23.7992 16.3005 23.3984 16.0548 22.9479C15.8085 22.4937 15.6928 22.027 15.7075 21.5476C15.7217 21.0646 15.8786 20.6032 16.1782 20.1633C16.4115 19.8207 16.6838 19.557 16.9949 19.3721C17.3061 19.1873 17.6329 19.0881 17.9754 19.0747C18.3179 19.0613 18.6523 19.1414 18.9784 19.3153L18.4684 20.0639C18.2127 19.9634 17.9343 19.9507 17.6331 20.0258C17.3313 20.0973 17.068 20.298 16.8433 20.6279C16.6445 20.9197 16.5446 21.2296 16.5434 21.5576C16.5416 21.882 16.6331 22.2031 16.818 22.5209C17.0022 22.835 17.2739 23.1227 17.6331 23.3838C18.0006 23.6509 18.3609 23.8244 18.7141 23.9041C19.0687 23.9816 19.3956 23.9663 19.6946 23.858C19.9952 23.7476 20.2463 23.5444 20.4479 23.2484C20.5805 23.0538 20.6677 22.8532 20.7097 22.6466C20.7517 22.4399 20.7482 22.2366 20.6992 22.0366C20.6502 21.8366 20.5549 21.6503 20.4132 21.4777L20.9231 20.7291C21.1751 20.9755 21.3567 21.264 21.4679 21.5947C21.5785 21.9217 21.607 22.2696 21.5533 22.6385C21.4989 23.0037 21.3493 23.3661 21.1044 23.7256Z"/>
<path d="M25.3256 18.4009C25.0561 18.6587 24.7644 18.8404 24.4506 18.9461C24.1351 19.0499 23.8229 19.0639 23.514 18.988C23.2035 18.9103 22.9199 18.729 22.6633 18.4441C22.4374 18.1933 22.3024 17.9442 22.2581 17.6966C22.2121 17.4471 22.2293 17.2009 22.3095 16.958C22.3897 16.7151 22.5071 16.4791 22.6616 16.25C22.8162 16.0172 22.9804 15.793 23.154 15.5775C23.3816 15.296 23.5681 15.07 23.7133 14.8992C23.8587 14.7248 23.9486 14.5805 23.9831 14.4661C24.0195 14.35 23.9889 14.2379 23.8914 14.1296L23.8709 14.1068C23.6177 13.8257 23.3462 13.6788 23.0563 13.6661C22.7684 13.6516 22.4739 13.7883 22.173 14.0761C21.8609 14.3746 21.6796 14.6788 21.629 14.9889C21.5783 15.299 21.5888 15.5683 21.6605 15.7967L20.8349 16.1621C20.7062 15.7902 20.6674 15.4419 20.7186 15.1172C20.7699 14.7887 20.8789 14.49 21.0456 14.221C21.2124 13.9483 21.4029 13.7095 21.6171 13.5047C21.7537 13.374 21.926 13.241 22.1341 13.1056C22.3422 12.9666 22.5756 12.8689 22.8341 12.8126C23.0945 12.7544 23.3733 12.7759 23.6706 12.877C23.9678 12.9781 24.273 13.2024 24.586 13.55L27.1829 16.4334L26.5293 17.0586L25.9956 16.4659L25.9623 16.4977C26.0036 16.6351 26.0212 16.8074 26.0154 17.0145C26.0095 17.2217 25.9549 17.4454 25.8516 17.6856C25.7484 17.9258 25.573 18.1642 25.3256 18.4009ZM24.8813 17.7015C25.1398 17.4542 25.3106 17.1936 25.3938 16.9196C25.4788 16.6438 25.4921 16.3801 25.4337 16.1283C25.3772 15.8747 25.2668 15.6568 25.1026 15.4744L24.5483 14.859C24.5514 14.9197 24.5187 15.0093 24.4502 15.1278C24.3818 15.2427 24.2961 15.3689 24.1931 15.5064C24.0902 15.6401 23.9884 15.7694 23.8876 15.8941C23.7869 16.0151 23.7058 16.1139 23.6442 16.1905C23.4949 16.3758 23.3695 16.5647 23.2679 16.7572C23.1666 16.9461 23.116 17.1342 23.1162 17.3214C23.1165 17.5049 23.1937 17.6822 23.3476 17.8531C23.558 18.0868 23.8011 18.1831 24.0769 18.142C24.3529 18.0973 24.621 17.9505 24.8813 17.7015Z"/>
<path d="M31.4861 10.0083L30.7785 10.474C30.6918 10.359 30.583 10.2549 30.4523 10.1619C30.3233 10.0656 30.1668 10.0023 29.9827 9.97178C29.7987 9.9413 29.5816 9.96563 29.3314 10.0448C28.9889 10.1531 28.7269 10.3233 28.5453 10.5555C28.3655 10.7844 28.3112 11.0206 28.3824 11.2642C28.4458 11.4807 28.5735 11.6271 28.7656 11.7034C28.9578 11.7797 29.2313 11.8074 29.5861 11.7866L30.4772 11.7304C31.0136 11.6952 31.4415 11.7654 31.7609 11.9412C32.0797 12.1146 32.2969 12.3993 32.4128 12.7954C32.5078 13.1201 32.5004 13.4396 32.3906 13.7539C32.2833 14.0674 32.0873 14.3498 31.8025 14.6011C31.5178 14.8525 31.1581 15.0469 30.7233 15.1844C30.1525 15.365 29.6433 15.389 29.1959 15.2563C28.7484 15.1237 28.4044 14.8321 28.1637 14.3814L28.9194 13.9166C29.0864 14.197 29.3002 14.3793 29.561 14.4635C29.8243 14.5469 30.132 14.5329 30.4842 14.4215C30.885 14.2947 31.178 14.1079 31.3632 13.8612C31.5501 13.6112 31.608 13.3644 31.5368 13.1209C31.4792 12.9241 31.363 12.7807 31.1881 12.6909C31.0125 12.5986 30.7741 12.5638 30.4729 12.5865L29.4754 12.6602C28.9269 12.6993 28.4947 12.6277 28.1786 12.4455C27.8643 12.26 27.6499 11.9716 27.5355 11.5805C27.442 11.2606 27.4479 10.9497 27.5532 10.6476C27.661 10.3447 27.8486 10.0743 28.1161 9.83653C28.386 9.59795 28.7177 9.41642 29.1112 9.29195C29.665 9.11677 30.1357 9.10224 30.5235 9.24838C30.9136 9.39375 31.2345 9.64704 31.4861 10.0083Z"/>
</mask>
<path d="M84.9988 40.6943C85.1652 62.7851 67.3919 80.83 45.3012 80.9988C23.2104 81.1676 5.16749 63.3964 5.00116 41.3057C4.83483 19.2149 22.6081 1.17 44.6988 1.00119C66.7896 0.832383 84.8325 18.6036 84.9988 40.6943Z" fill="white"/>
<path d="M52.0269 27.823C52.3646 29.9031 52.2295 30.1631 50.0006 31.1381C47.9068 32.1132 46.2857 32.2432 38.5183 31.7882L29.9206 31.3527C29.6639 31.3397 29.4066 31.346 29.1508 31.3717L28.6655 31.4203C27.1904 31.5682 25.8961 32.4741 25.2439 33.8151C24.9564 34.406 24.807 35.0554 24.807 35.7134V45.5686C24.807 57.594 25.0096 58.244 27.7789 57.984C29.2649 57.854 29.8052 57.529 29.6026 56.814C28.8596 54.4089 28.792 51.1588 29.4675 49.5987C30.1429 47.9087 30.2105 47.8437 36.8972 47.9087H43.7191V51.3538C43.7191 56.424 44.5972 58.114 47.1638 58.114C48.7848 58.114 49.1901 57.919 48.8524 57.074C47.0287 52.4588 47.6366 50.0537 50.8111 49.0137C53.3102 48.2337 55.8769 45.6336 55.8769 43.8786C55.8769 43.1635 55.3365 43.4235 54.2558 44.7886C53.3778 45.8286 52.4997 46.6086 52.3646 46.4136C51.0138 44.8536 49.1901 40.9535 49.5278 40.4334C50.2033 39.3934 54.2558 37.9634 56.5523 37.9634H58.6462L57.2277 39.3934C56.4848 40.1734 55.8769 41.0185 55.8769 41.3435C55.8769 42.3185 57.0927 41.8635 58.0383 40.4984C58.7137 39.4584 59.9295 39.0034 62.9689 38.6784C66.8189 38.2884 66.954 38.2234 67.5619 36.0133C67.9671 34.4532 67.8996 33.6732 67.3592 33.5432C66.954 33.4132 66.3461 32.9582 66.0084 32.5032C61.9558 27.563 61.0777 26.913 58.9163 26.913C57.633 26.913 56.4172 26.588 56.2146 26.263C56.012 25.873 54.8637 25.613 53.7155 25.613C51.7567 25.613 51.6892 25.678 52.0269 27.823ZM56.9576 28.5381C58.1058 30.2281 59.4567 30.1631 58.7812 28.4731C58.4435 27.693 58.7137 27.628 60.1996 28.2781C61.1453 28.7331 61.9558 29.2531 61.9558 29.5131C61.9558 29.7081 63.0365 31.0081 64.3198 32.4382C65.9408 34.1282 66.6163 35.2983 66.2785 36.1433C65.9408 37.2483 65.3329 37.3133 59.7268 37.0533L53.5129 36.7283L52.5673 34.3882C51.7567 32.3082 51.7567 31.9182 52.5673 31.4632C53.0401 31.1381 54.2558 31.0731 55.2015 31.2681L56.89 31.6582L55.0664 29.9681C53.9857 29.0581 53.1752 27.953 53.1752 27.563C53.1752 26.263 55.8769 26.913 56.9576 28.5381ZM34.6683 33.8032C34.4657 34.3882 34.2631 35.0383 34.2631 35.2983C34.2631 35.6233 33.5201 36.5983 32.5069 37.6384C30.7508 39.4584 30.7508 40.6935 32.5069 39.3284C34.8709 37.4433 38.3156 40.8885 38.3156 45.1786V47.1937L34.4657 46.7386C32.3718 46.4786 29.6701 45.8286 28.3868 45.2436C25.6851 44.0086 25.4149 42.0585 27.8464 41.4735C28.792 41.2785 29.535 40.8235 29.535 40.4984C29.535 40.1734 28.792 40.0434 27.8464 40.3034C26.2929 40.6934 26.1579 40.4984 26.1579 38.4184C26.1579 35.2333 28.8596 32.7632 32.3718 32.7632C34.6008 32.7632 35.006 32.9582 34.6683 33.8032ZM40.4095 33.4132C41.3551 33.4132 41.2875 33.9332 39.7341 36.5983L37.9779 39.8484L36.492 38.4834C35.3437 37.4433 35.0736 36.6633 35.4113 35.4283C36.0192 32.8932 36.2893 32.6332 37.9104 33.0232C38.6534 33.2182 39.8016 33.4132 40.4095 33.4132ZM51.1489 34.4533C52.162 36.9883 51.9594 37.5734 49.6629 38.8084C47.6366 39.9134 47.5015 39.9134 46.1507 38.7434C45.3401 38.0284 44.0568 37.1183 43.1788 36.6633C41.6928 35.9483 41.6253 35.8183 42.706 34.7133C43.3814 33.9982 45.0024 33.3482 46.3533 33.2182C47.7042 33.0882 49.1901 32.9582 49.6629 32.8932C50.1357 32.8282 50.8111 33.5432 51.1489 34.4533ZM45.0024 39.3934C48.2445 41.6685 48.1094 41.9285 42.5709 42.7735C39.7341 43.1635 39.6665 43.1635 39.6665 41.2785C39.6665 38.8084 40.2744 37.3133 41.2875 37.3133C41.7603 37.3133 43.4489 38.2234 45.0024 39.3934ZM50.2033 45.1786C51.0813 46.8686 51.1489 47.3237 50.3383 47.7787C49.1901 48.4937 48.4471 48.4937 48.4471 47.7137C48.4471 46.4136 45.8805 45.7636 42.7735 46.3486C40.0042 46.8686 39.6665 46.7386 39.6665 45.6986C39.6665 44.9836 40.2744 44.3336 41.22 44.2036C42.0305 44.0086 43.3138 43.7485 44.0568 43.6185C47.8392 42.8385 49.055 43.1635 50.2033 45.1786ZM28.0491 46.6086C28.5894 47.2587 28.5894 48.1687 28.1166 49.9887C27.7114 51.3538 27.5087 53.4989 27.7114 54.7339C27.9815 56.2289 27.8464 56.814 27.3061 56.619C26.7658 56.489 26.428 54.4739 26.293 51.0938C26.0903 45.8936 26.5631 44.8536 28.0491 46.6086ZM47.0287 47.9087C47.5691 48.5587 47.5015 49.3387 46.9612 50.8338C46.3533 52.3938 46.2857 53.3689 46.8936 54.8639C47.5015 56.424 47.5015 56.814 46.7585 56.814C45.4752 56.814 45.07 55.3189 45.07 50.8988C45.07 47.0637 45.6103 46.2836 47.0287 47.9087Z" fill="black"/>
<path d="M46.88 11.6513L44.4773 11.4218L45.1401 3.57107L47.6493 3.81075C48.4046 3.8829 49.0376 4.1018 49.5484 4.46746C50.0594 4.83056 50.4334 5.31841 50.6704 5.93099C50.9076 6.54101 50.9919 7.25236 50.9233 8.06503C50.8542 8.88281 50.6503 9.57307 50.3115 10.1358C49.973 10.696 49.514 11.1081 48.9348 11.3722C48.3557 11.6338 47.6708 11.7268 46.88 11.6513ZM45.4913 10.6685L46.8904 10.8021C47.5341 10.8636 48.0782 10.7894 48.5226 10.5793C48.9671 10.3693 49.3127 10.043 49.5596 9.60027C49.8065 9.15756 49.9569 8.61677 50.0108 7.97787C50.0643 7.34409 50.0078 6.78868 49.8411 6.31162C49.6746 5.83201 49.3977 5.45005 49.0104 5.16573C48.6233 4.87887 48.1256 4.70638 47.5173 4.64828L46.0118 4.50447L45.4913 10.6685Z" fill="black"/>
<path d="M53.6476 13.1904C53.1091 13.0178 52.6802 12.7485 52.361 12.3825C52.045 12.0148 51.8459 11.5796 51.7638 11.077C51.6849 10.5727 51.7314 10.0306 51.9034 9.45063C52.0754 8.87067 52.3313 8.39295 52.6711 8.01747C53.0141 7.64032 53.4104 7.38789 53.8601 7.2602C54.3129 7.13083 54.7916 7.14701 55.2962 7.30873C55.5873 7.40203 55.8603 7.54332 56.115 7.73258C56.3697 7.92185 56.5807 8.16439 56.748 8.46021C56.916 8.75356 57.0156 9.10302 57.0468 9.50859C57.078 9.91416 57.0152 10.3811 56.8585 10.9095L56.7492 11.2781L52.4405 9.89723L52.6635 9.14524L56.0988 10.2462C56.1935 9.92673 56.215 9.62145 56.1632 9.33036C56.1138 9.04004 55.9953 8.78546 55.8078 8.5666C55.6228 8.34853 55.375 8.18973 55.0645 8.09021C54.7224 7.98058 54.4009 7.97173 54.1 8.06367C53.8022 8.15393 53.5462 8.31407 53.3319 8.54408C53.1176 8.7741 52.9641 9.04516 52.8716 9.35725L52.7229 9.85858C52.5961 10.2862 52.5614 10.672 52.6188 11.016C52.6793 11.3583 52.8176 11.6489 53.0337 11.8877C53.2506 12.124 53.5325 12.2978 53.8794 12.4089C54.105 12.4812 54.3183 12.5146 54.5192 12.509C54.7232 12.5018 54.9113 12.4544 55.0834 12.3669C55.2561 12.277 55.4081 12.1454 55.5392 11.9721L56.2989 12.4739C56.1271 12.731 55.9059 12.9346 55.6356 13.0848C55.366 13.2325 55.0617 13.318 54.7227 13.3412C54.3845 13.362 54.0261 13.3117 53.6476 13.1904Z" fill="black"/>
<path d="M63.4101 8.94441L59.6794 15.8693L58.8973 15.4182L62.6279 8.49337L63.4101 8.94441Z" fill="black"/>
<path d="M64.0728 18.216L67.879 13.7197L68.5507 14.325L64.7445 18.8213L64.0728 18.216ZM68.4286 13.1416L70.2728 12.4092L71.0584 13.1171L69.0206 13.6751L68.4286 13.1416Z" fill="black"/>
<path d="M69.4218 23.8235C69.0964 23.3769 68.9193 22.9128 68.8905 22.4311C68.8616 21.9495 68.9648 21.4822 69.2 21.0293C69.4352 20.5764 69.7852 20.1706 70.25 19.8118C70.7229 19.4468 71.205 19.2136 71.6963 19.1122C72.1911 19.0113 72.6574 19.0424 73.095 19.2053C73.5361 19.3688 73.9133 19.6655 74.2266 20.0956C74.4707 20.4305 74.63 20.7792 74.7046 21.1416C74.7791 21.504 74.7698 21.8552 74.6766 22.1953C74.5833 22.5354 74.4063 22.8384 74.1454 23.1044L73.6121 22.3724C73.7837 22.1528 73.8812 21.8837 73.9048 21.565C73.932 21.2469 73.828 20.9266 73.593 20.604C73.3851 20.3187 73.1301 20.1247 72.8279 20.0219C72.5293 19.9197 72.2049 19.91 71.8549 19.9929C71.5083 20.0763 71.1592 20.2536 70.8075 20.5251C70.4478 20.8027 70.1767 21.1024 69.9943 21.4241C69.8134 21.7478 69.7268 22.0731 69.7344 22.4C69.7436 22.7289 69.8536 23.038 70.0645 23.3275C70.2031 23.5177 70.3612 23.6654 70.5388 23.7706C70.7165 23.8757 70.9051 23.9353 71.1047 23.9492C71.3043 23.9631 71.5055 23.9273 71.7084 23.8418L72.2417 24.5737C71.9367 24.7445 71.6146 24.8333 71.2753 24.8399C70.9395 24.8471 70.6098 24.7673 70.2861 24.6004C69.966 24.434 69.6779 24.175 69.4218 23.8235Z" fill="black"/>
<path d="M72.0636 28.7415L77.368 26.2191L77.7413 27.0455L72.4368 29.5679L72.0636 28.7415ZM78.4419 26.2189C78.3692 26.0578 78.3605 25.8932 78.416 25.725C78.4726 25.5592 78.5768 25.4401 78.7288 25.3679C78.8807 25.2956 79.0366 25.2909 79.1965 25.3539C79.3574 25.4191 79.4743 25.5323 79.547 25.6934C79.6198 25.8545 79.6279 26.0179 79.5714 26.1838C79.5159 26.352 79.4121 26.4722 79.2602 26.5444C79.1082 26.6167 78.9518 26.6202 78.7909 26.5549C78.631 26.492 78.5147 26.38 78.4419 26.2189Z" fill="black"/>
<path d="M75.4461 35.2586C75.3642 34.8933 75.3582 34.546 75.4279 34.2165C75.5001 33.8865 75.6468 33.6036 75.868 33.3678C76.0916 33.1315 76.3895 32.9701 76.7616 32.8835C77.0891 32.8073 77.3691 32.8105 77.6016 32.8933C77.8367 32.9755 78.0369 33.1118 78.2022 33.3024C78.3676 33.4929 78.5083 33.7129 78.6242 33.9623C78.7432 34.2136 78.85 34.4691 78.9447 34.7287C79.0679 35.0686 79.165 35.3447 79.2361 35.5572C79.3103 35.7716 79.3871 35.9221 79.4666 36.0089C79.5466 36.0982 79.6573 36.1264 79.7987 36.0935L79.8285 36.0866C80.1956 36.0012 80.4582 35.8335 80.6162 35.5835C80.7747 35.336 80.8083 35.0084 80.7169 34.6006C80.6221 34.1778 80.456 33.8676 80.2187 33.6702C79.9813 33.4727 79.7475 33.3495 79.5172 33.3004L79.6265 32.3905C80.0074 32.4598 80.3226 32.597 80.5722 32.8022C80.8248 33.0092 81.0229 33.2527 81.1665 33.5325C81.3132 33.8143 81.4191 34.1002 81.4841 34.3904C81.5256 34.5756 81.5509 34.7934 81.5601 35.044C81.5723 35.2965 81.5367 35.5509 81.4532 35.8072C81.3703 36.0661 81.2105 36.302 80.9737 36.515C80.737 36.7281 80.3916 36.8874 79.9377 36.993L76.1722 37.8693L75.9737 36.9837L76.7476 36.8036L76.7375 36.7585C76.6001 36.7274 76.4449 36.6582 76.2721 36.551C76.0993 36.4438 75.9372 36.2854 75.7859 36.0758C75.6345 35.8662 75.5212 35.5938 75.4461 35.2586ZM76.2652 35.2101C76.3437 35.5604 76.4781 35.8397 76.6684 36.0481C76.8592 36.2591 77.0762 36.4007 77.3195 36.4731C77.5634 36.5479 77.8044 36.5577 78.0425 36.5022L78.8462 36.3152C78.7931 36.2881 78.7337 36.215 78.6679 36.0961C78.6051 35.9791 78.5416 35.8412 78.4773 35.6824C78.4161 35.5256 78.3581 35.3719 78.3035 35.2214C78.2519 35.0729 78.2093 34.9525 78.1756 34.8603C78.0942 34.6371 77.9976 34.4332 77.8858 34.2486C77.777 34.066 77.6431 33.9287 77.4842 33.8367C77.3283 33.7466 77.1387 33.7275 76.9155 33.7795C76.6104 33.8505 76.4052 34.018 76.2999 34.282C76.1977 34.548 76.1862 34.8574 76.2652 35.2101Z" fill="black"/>
<path d="M80.9964 44.2421L80.753 43.4295C80.8871 43.3765 81.0168 43.2992 81.1424 43.1976C81.2705 43.0985 81.3751 42.9638 81.4562 42.7935C81.5372 42.6232 81.5754 42.406 81.5708 42.1418C81.5645 41.7802 81.4765 41.48 81.3068 41.241C81.1397 41.0046 80.9302 40.8879 80.6782 40.8911C80.4541 40.8939 80.2786 40.9782 80.1517 41.144C80.0247 41.3097 79.921 41.5675 79.8405 41.9174L79.642 42.7971C79.5239 43.327 79.3361 43.7231 79.0784 43.9854C78.8232 44.2476 78.4908 44.3814 78.0809 44.3865C77.7449 44.3908 77.4428 44.2971 77.1746 44.1055C76.9065 43.9165 76.6931 43.6499 76.5343 43.3056C76.3755 42.9614 76.2921 42.5597 76.2841 42.1007C76.2736 41.4981 76.3947 40.9977 76.6474 40.5995C76.9002 40.2013 77.2751 39.9465 77.7723 39.8351L78.0012 40.694C77.6869 40.78 77.4529 40.9382 77.299 41.1684C77.1452 41.4012 77.0716 41.7035 77.0781 42.0753C77.0854 42.4984 77.1804 42.8333 77.363 43.0798C77.5481 43.3288 77.7667 43.4517 78.0187 43.4485C78.2223 43.446 78.3916 43.372 78.5266 43.2267C78.6641 43.0813 78.7646 42.8595 78.8282 42.5611L79.0401 41.5735C79.1579 41.0308 79.3483 40.6308 79.6112 40.3736C79.8766 40.1189 80.2117 39.989 80.6165 39.9839C80.9474 39.9797 81.2418 40.0696 81.4997 40.2536C81.7575 40.4402 81.9619 40.6954 82.1127 41.0192C82.2635 41.3456 82.3425 41.7166 82.3498 42.132C82.36 42.7167 82.2407 43.1773 81.992 43.5139C81.7433 43.853 81.4114 44.0958 80.9964 44.2421Z" fill="black"/>
<path d="M72.7022 53.8348C72.8896 53.38 73.1681 53.0286 73.5377 52.7805C73.9096 52.5334 74.3435 52.4035 74.8394 52.3906C75.3376 52.3787 75.8711 52.4987 76.4398 52.7506C77.0038 53.0004 77.4527 53.3154 77.7865 53.6957C78.1204 54.0761 78.328 54.4916 78.4096 54.9423C78.4912 55.3929 78.4373 55.8481 78.2479 56.3076C78.1015 56.6629 77.9275 56.9178 77.726 57.0723C77.5259 57.2301 77.33 57.331 77.1382 57.375C76.9479 57.4223 76.7934 57.4561 76.6748 57.4764L76.6455 57.5475L79.2884 58.7179L78.9428 59.5565L71.7831 56.3857L72.117 55.5756L72.942 55.941L72.983 55.8415C72.9105 55.7366 72.8231 55.5942 72.7208 55.4145C72.6208 55.2357 72.556 55.0152 72.5264 54.7528C72.4991 54.4914 72.5577 54.1854 72.7022 53.8348ZM73.3965 54.2767C73.2578 54.6131 73.2269 54.9355 73.3037 55.244C73.3828 55.5536 73.5513 55.8369 73.8092 56.0939C74.0693 56.352 74.4022 56.5708 74.8077 56.7504C75.2086 56.928 75.5838 57.0241 75.9332 57.0388C76.285 57.0545 76.5927 56.9835 76.8561 56.8257C77.122 56.6689 77.3252 56.4199 77.4658 56.0789C77.6122 55.7235 77.6445 55.3877 77.5627 55.0714C77.4822 54.7584 77.3137 54.4751 77.0572 54.2215C76.8021 53.9712 76.4857 53.7625 76.1081 53.5953C75.7259 53.426 75.3543 53.3315 74.9931 53.3116C74.6334 53.2951 74.3131 53.3634 74.0323 53.5163C73.7529 53.6727 73.5409 53.9262 73.3965 54.2767Z" fill="black"/>
<path d="M69.951 59.4405C70.1613 59.1317 70.409 58.8928 70.6939 58.7237C70.981 58.5561 71.2833 58.4771 71.6009 58.4866C71.9206 58.4977 72.2352 58.6158 72.5449 58.8409C72.8174 59.039 73.0009 59.2546 73.0952 59.4876C73.1917 59.7222 73.2258 59.9667 73.1975 60.2212C73.1692 60.4757 73.1031 60.7313 72.9994 60.9878C72.8962 61.248 72.782 61.5018 72.6568 61.749C72.4923 62.0721 72.3567 62.3324 72.2499 62.5299C72.1438 62.731 72.0857 62.8911 72.0755 63.0102C72.064 63.1315 72.117 63.2348 72.2347 63.3204L72.2595 63.3384C72.565 63.5605 72.8608 63.6475 73.1467 63.5992C73.4313 63.5531 73.6909 63.3577 73.9257 63.013C74.1692 62.6556 74.2837 62.3199 74.2692 62.0058C74.2547 61.6917 74.1888 61.4304 74.0716 61.2219L74.8034 60.6914C75.006 61.0284 75.1157 61.3612 75.1327 61.6897C75.1503 62.0219 75.1054 62.3371 74.998 62.6352C74.8912 62.937 74.7542 63.2106 74.5871 63.4559C74.4805 63.6124 74.3395 63.7786 74.1641 63.9546C73.9893 64.1343 73.7813 64.2787 73.5401 64.388C73.2976 64.4994 73.0206 64.5367 72.7091 64.5C72.3976 64.4633 72.053 64.3076 71.6752 64.033L68.5413 61.7547L69.0512 61.0061L69.6954 61.4744L69.7213 61.4363C69.6526 61.3105 69.5998 61.1456 69.5628 60.9416C69.5258 60.7377 69.533 60.5073 69.5844 60.2506C69.6358 59.9939 69.758 59.7239 69.951 59.4405ZM70.5297 60.032C70.3281 60.328 70.2148 60.6188 70.1901 60.9044C70.1639 61.1921 70.2053 61.453 70.3144 61.6872C70.422 61.9235 70.5748 62.1137 70.773 62.2578L71.4419 62.7441C71.4264 62.6853 71.4398 62.5908 71.4823 62.4604C71.5255 62.3337 71.5832 62.1922 71.6556 62.0362C71.7286 61.8837 71.8015 61.7359 71.8743 61.5928C71.9477 61.4533 72.0066 61.3396 72.051 61.2517C72.1588 61.0392 72.2424 60.828 72.3019 60.6183C72.362 60.4122 72.3727 60.2176 72.3338 60.0344C72.2956 59.8549 72.1836 59.6976 71.9978 59.5625C71.7439 59.3779 71.4863 59.3345 71.2252 59.4324C70.9646 59.5339 70.7328 59.7338 70.5297 60.032Z" fill="black"/>
<path d="M67.1452 69.6626L67.5784 68.9301C67.706 68.9955 67.8485 69.0412 68.0061 69.0673C68.1635 69.097 68.3313 69.085 68.5096 69.0311C68.6879 68.9772 68.8722 68.8594 69.0623 68.6775C69.3227 68.4285 69.484 68.1592 69.5464 67.8698C69.6086 67.584 69.555 67.3471 69.3856 67.159C69.2351 66.9919 69.0571 66.9163 68.8517 66.9325C68.6463 66.9486 68.389 67.0445 68.0797 67.2201L67.3046 67.6645C66.8387 67.9333 66.4244 68.0591 66.0618 68.0418C65.7008 68.0264 65.3826 67.8658 65.1072 67.56C64.8814 67.3093 64.7497 67.018 64.7121 66.6863C64.6726 66.3563 64.7262 66.0151 64.8728 65.6627C65.0194 65.3103 65.258 64.9761 65.5884 64.66C66.0223 64.245 66.4687 63.9984 66.9275 63.9202C67.3863 63.842 67.8212 63.9528 68.2322 64.2527L67.7556 65.0056C67.4843 64.8266 67.2136 64.7568 66.9432 64.7962C66.6709 64.8374 66.401 64.986 66.1333 65.242C65.8286 65.5334 65.6466 65.8312 65.5873 66.1355C65.5278 66.4434 65.5828 66.6914 65.7521 66.8795C65.889 67.0314 66.0553 67.1092 66.2511 67.1129C66.4486 67.1185 66.6775 67.0445 66.9378 66.8909L67.8008 66.3838C68.2759 66.1061 68.6946 65.9796 69.057 66.0042C69.4193 66.0325 69.7364 66.1976 70.0084 66.4997C70.2308 66.7466 70.3602 67.0295 70.3965 67.3484C70.4309 67.669 70.3797 67.9956 70.2427 68.3281C70.1039 68.6624 69.8849 68.9726 69.5858 69.2587C69.1649 69.6614 68.7489 69.8825 68.3378 69.9221C67.9248 69.9635 67.5273 69.877 67.1452 69.6626Z" fill="black"/>
<path d="M53.9296 75.9025L54.8243 75.5897C54.964 75.8313 55.1329 76.0274 55.3309 76.178C55.5266 76.3295 55.7405 76.4393 55.9727 76.5074C56.2034 76.5788 56.4431 76.609 56.6919 76.598C56.9407 76.587 57.1877 76.5386 57.4331 76.4528C57.8804 76.2963 58.2475 76.0404 58.5344 75.6848C58.8189 75.3302 58.9939 74.893 59.0594 74.3732C59.1225 73.8543 59.0462 73.2716 58.8303 72.6249C58.6144 71.9783 58.3264 71.4695 57.9662 71.0987C57.6036 70.7287 57.2038 70.4925 56.7667 70.3902C56.3273 70.2887 55.8839 70.3161 55.4365 70.4726C55.1912 70.5584 54.9669 70.6748 54.7635 70.822C54.5602 70.9691 54.3882 71.1419 54.2477 71.3404C54.1055 71.5421 54.0024 71.7642 53.9382 72.0065C53.8725 72.2521 53.8562 72.513 53.8893 72.7892L52.9946 73.1021C52.9345 72.6968 52.9432 72.3124 53.0205 71.9487C53.0979 71.585 53.2335 71.2512 53.4274 70.9472C53.6222 70.6456 53.8661 70.3825 54.1591 70.1578C54.4496 69.9341 54.7813 69.757 55.1541 69.6266C55.7842 69.4062 56.3966 69.3658 56.9911 69.5054C57.5856 69.645 58.1193 69.9524 58.5923 70.4277C59.0652 70.903 59.4331 71.5345 59.6961 72.3221C59.9591 73.1098 60.0456 73.8397 59.9558 74.5118C59.8659 75.1839 59.6276 75.7613 59.2408 76.2441C58.8541 76.7268 58.3456 77.0784 57.7155 77.2988C57.3427 77.4291 56.9745 77.4968 56.6109 77.5018C56.2449 77.5077 55.8943 77.4511 55.5591 77.3321C55.2248 77.2156 54.9183 77.0377 54.6396 76.7985C54.3618 76.5617 54.1252 76.2631 53.9296 75.9025Z" fill="black"/>
<path d="M48.9668 72.5547C49.3358 72.51 49.6791 72.5394 49.9966 72.643C50.3144 72.7491 50.5778 72.9251 50.7867 73.171C50.9959 73.4195 51.1233 73.7347 51.1689 74.1167C51.2091 74.4528 51.1759 74.7332 51.0694 74.958C50.9633 75.1853 50.8074 75.3721 50.6018 75.5184C50.3962 75.6648 50.1641 75.7833 49.9057 75.8741C49.6451 75.9677 49.3817 76.0487 49.1155 76.1172C48.7671 76.2059 48.4843 76.2751 48.2672 76.3247C48.0478 76.3771 47.891 76.4387 47.7969 76.5096C47.7003 76.5807 47.6606 76.6888 47.678 76.834L47.6816 76.8645C47.7267 77.2414 47.864 77.5218 48.0937 77.7058C48.3209 77.8901 48.6405 77.9573 49.0525 77.9073C49.4796 77.8555 49.8033 77.7206 50.0234 77.5028C50.2436 77.2849 50.3901 77.0631 50.4632 76.8372L51.349 77.0398C51.2399 77.4147 51.0709 77.7168 50.8418 77.946C50.6106 78.1782 50.3493 78.3519 50.0579 78.4674C49.7643 78.5856 49.4709 78.6625 49.1777 78.6981C48.9907 78.7208 48.7731 78.7239 48.525 78.7075C48.2746 78.6939 48.0275 78.6322 47.7835 78.5223C47.5371 78.4127 47.3215 78.2283 47.1366 77.9691C46.9518 77.7099 46.8316 77.3474 46.7759 76.8814L46.314 73.0159L47.2088 72.9074L47.3037 73.7019L47.3492 73.6964C47.3947 73.5617 47.4795 73.4132 47.6037 73.2509C47.7279 73.0886 47.9015 72.9423 48.1244 72.8119C48.3473 72.6815 48.6281 72.5958 48.9668 72.5547ZM48.927 73.381C48.5732 73.424 48.2833 73.5302 48.0574 73.6996C47.8289 73.8694 47.666 74.0726 47.5686 74.3091C47.4687 74.546 47.4333 74.7867 47.4626 75.0311L47.5611 75.8562C47.5936 75.8057 47.672 75.7536 47.7963 75.6998C47.9184 75.6488 48.0612 75.5992 48.2247 75.5509C48.386 75.5056 48.5437 75.4632 48.698 75.4238C48.8501 75.3873 48.9734 75.3568 49.0679 75.3324C49.2968 75.2737 49.5082 75.1977 49.7022 75.1044C49.894 75.014 50.0438 74.8938 50.1515 74.7438C50.257 74.5967 50.296 74.4085 50.2687 74.1793C50.2312 73.8661 50.0879 73.6433 49.8388 73.5107C49.5873 73.3811 49.2834 73.3378 48.927 73.381Z" fill="black"/>
<path d="M43.6912 72.8025L43.1941 78.6905L42.3273 78.6077L42.4024 77.7184L42.3416 77.7126C42.2105 77.9937 41.9979 78.2117 41.7038 78.3665C41.4097 78.5214 41.0878 78.5821 40.738 78.5487C40.6721 78.5424 40.5898 78.5332 40.4912 78.5212C40.3926 78.5092 40.3181 78.4982 40.2679 78.4883L40.3455 77.5683C40.3753 77.5789 40.444 77.597 40.5517 77.6228C40.6567 77.6508 40.7687 77.6705 40.8878 77.6819C41.1717 77.709 41.4302 77.6732 41.6634 77.5744C41.8938 77.4779 42.0825 77.331 42.2295 77.1338C42.3737 76.9389 42.457 76.7086 42.4794 76.4428L42.794 72.7168L43.6912 72.8025Z" fill="black"/>
<path d="M36.9171 75.2707L37.9271 71.8646L38.786 72.1399L37.1069 77.8019L36.2772 77.536L36.5395 76.6513L36.4667 76.6279C36.2505 76.8735 35.983 77.0407 35.6644 77.1297C35.3451 77.2211 34.9743 77.1992 34.5522 77.0639C34.1737 76.9426 33.8659 76.7578 33.6287 76.5096C33.3907 76.2638 33.2399 75.9571 33.1762 75.5895C33.1118 75.2244 33.151 74.8011 33.2939 74.3194L34.3608 70.7217L35.2196 70.9969L34.1702 74.5357C34.0383 74.9805 34.0496 75.3635 34.204 75.6848C34.3577 76.0085 34.6335 76.2342 35.0314 76.3617C35.3055 76.4496 35.5684 76.4679 35.8201 76.4167C36.0693 76.3647 36.29 76.243 36.4822 76.0517C36.6745 75.8603 36.8194 75.6 36.9171 75.2707Z" fill="black"/>
<path d="M30.5379 68.5605C31.0284 68.8433 31.392 69.1978 31.6288 69.6238C31.8621 70.0509 31.9673 70.5193 31.9446 71.0291C31.9185 71.54 31.7621 72.0614 31.4755 72.5934C31.1889 73.1254 30.8413 73.5394 30.4327 73.8356C30.0206 74.1328 29.5821 74.2964 29.1169 74.3266C28.6484 74.3578 28.1843 74.2409 27.7247 73.9758C27.4596 73.823 27.222 73.6269 27.0121 73.3876C26.8022 73.1484 26.6458 72.8662 26.543 72.541C26.4389 72.2181 26.4132 71.8546 26.4658 71.4506C26.5184 71.0466 26.6752 70.6023 26.9363 70.1176L27.1185 69.7795L31.0426 72.0424L30.671 72.7321L27.5423 70.928C27.3844 71.221 27.301 71.5156 27.292 71.8118C27.2808 72.1067 27.3444 72.3812 27.4826 72.6352C27.6187 72.888 27.8281 73.0959 28.1109 73.259C28.4225 73.4387 28.7345 73.5152 29.0471 73.4887C29.3563 73.4631 29.639 73.3602 29.8953 73.1801C30.1517 72.9999 30.3569 72.7667 30.5112 72.4804L30.7589 72.0206C30.9702 71.6284 31.0831 71.2576 31.0974 70.9084C31.1084 70.5602 31.0328 70.2463 30.8707 69.9667C30.7073 69.6893 30.4677 69.4595 30.1517 69.2773C29.9462 69.1588 29.7449 69.0811 29.5476 69.0442C29.3469 69.0082 29.1535 69.0149 28.9677 69.0643C28.7806 69.116 28.6053 69.2128 28.4419 69.3549L27.8028 68.7028C28.0232 68.4872 28.2807 68.3343 28.5754 68.2443C28.8689 68.1564 29.1835 68.1369 29.5192 68.1858C29.8536 68.2368 30.1932 68.3617 30.5379 68.5605Z" fill="black"/>
<path d="M20.9407 66.9856L21.6928 67.3538C21.6432 67.4914 21.6141 67.6423 21.6055 67.8066C21.5933 67.9711 21.6226 68.142 21.6933 68.3193C21.7641 68.4965 21.8972 68.6732 22.0926 68.8493C22.3601 69.0904 22.6368 69.2279 22.9225 69.2618C23.2047 69.296 23.4276 69.2164 23.5911 69.0232C23.7365 68.8515 23.7906 68.6611 23.7534 68.4522C23.7162 68.2432 23.5967 67.9893 23.3948 67.6904L22.8846 66.9416C22.5763 66.4918 22.4114 66.08 22.3899 65.7063C22.3668 65.3346 22.4882 64.9916 22.7542 64.6774C22.9722 64.4198 23.2393 64.2545 23.5553 64.1815C23.8694 64.1068 24.2041 64.1263 24.5594 64.24C24.9147 64.3538 25.2621 64.5637 25.6018 64.8698C26.0477 65.2716 26.3325 65.7038 26.4562 66.1661C26.58 66.6285 26.5188 67.086 26.2728 67.5386L25.4965 67.128C25.6406 66.8313 25.6795 66.5464 25.613 66.2732C25.5447 65.9983 25.3729 65.7369 25.0978 65.4889C24.7847 65.2068 24.4783 65.0511 24.1786 65.0218C23.8753 64.9928 23.642 65.0749 23.4784 65.2681C23.3462 65.4242 23.2887 65.6029 23.3057 65.804C23.3211 66.0071 23.4166 66.2342 23.5921 66.4852L24.1721 67.3175C24.4899 67.7758 24.6559 68.1921 24.6703 68.5663C24.6812 68.9408 24.5553 69.2831 24.2926 69.5934C24.0778 69.8471 23.8186 70.0091 23.5149 70.0795C23.2093 70.1481 22.8889 70.1294 22.5537 70.0235C22.2167 69.9158 21.8945 69.7235 21.5871 69.4465C21.1545 69.0566 20.8974 68.653 20.8159 68.2355C20.7325 67.8164 20.7741 67.3997 20.9407 66.9856Z" fill="black"/>
<path d="M17.5561 54.876C17.7902 55.3943 17.8793 55.895 17.8234 56.3781C17.7642 56.86 17.5767 57.2994 17.2609 57.6963C16.9418 58.0919 16.5106 58.4189 15.9672 58.6773C15.4239 58.9357 14.8997 59.063 14.3946 59.0593C13.8861 59.0544 13.4339 58.9263 13.0379 58.675C12.6386 58.4225 12.3293 58.0535 12.11 57.5679C11.9834 57.2878 11.9045 56.9892 11.8733 56.6723C11.842 56.3554 11.8793 56.0356 11.9853 55.7129C12.089 55.3914 12.28 55.0836 12.5583 54.7896C12.8367 54.4956 13.2233 54.2309 13.7183 53.9955L14.0637 53.8313L15.9363 57.9773L15.2318 58.3124L13.7388 55.0067C13.4395 55.1491 13.1998 55.3368 13.0198 55.5698C12.8388 55.8006 12.7304 56.0591 12.6947 56.3455C12.658 56.6295 12.7071 56.9209 12.8421 57.2197C12.9908 57.5489 13.2 57.7954 13.4698 57.9592C13.7362 58.1218 14.0261 58.2065 14.3397 58.2134C14.6532 58.2202 14.9562 58.1542 15.2486 58.0151L15.7183 57.7918C16.1189 57.6013 16.4268 57.3698 16.6421 57.0972C16.8541 56.8234 16.9757 56.526 17.0068 56.2049C17.0357 55.8849 16.9747 55.558 16.8239 55.2242C16.7259 55.0071 16.6074 54.8252 16.4684 54.6786C16.3261 54.5307 16.165 54.4216 15.985 54.3512C15.8027 54.2819 15.6036 54.2561 15.3878 54.2736L15.2482 53.3701C15.5532 53.3272 15.8518 53.3568 16.1441 53.4588C16.434 53.562 16.7013 53.7327 16.9459 53.9709C17.1882 54.2101 17.3916 54.5118 17.5561 54.876Z" fill="black"/>
<path d="M9.95482 50.9344L11.982 49.0096L9.33577 48.1724L9.10699 47.1516L12.3818 48.3479L14.8222 45.8216L15.051 46.8423L13.1429 48.7394L15.67 49.6043L15.8988 50.6251L12.6308 49.4588L10.1836 51.9551L9.95482 50.9344Z" fill="black"/>
<path d="M15.5221 42.2495C15.5314 42.7829 15.4135 43.2525 15.1685 43.6583C14.9234 44.0615 14.5763 44.3789 14.1271 44.6103C13.6778 44.8391 13.1503 44.9574 12.5444 44.965C11.9334 44.9728 11.3982 44.868 10.9386 44.6507C10.479 44.4308 10.1197 44.1224 9.86073 43.7255C9.6017 43.3261 9.46755 42.8597 9.45827 42.3263C9.44899 41.7929 9.56688 41.3246 9.81195 40.9214C10.057 40.5156 10.4054 40.1982 10.8572 39.9693C11.3089 39.7379 11.8403 39.6183 12.4512 39.6106C13.0571 39.6029 13.5886 39.709 14.0456 39.929C14.5027 40.1463 14.8607 40.4547 15.1197 40.8541C15.3787 41.251 15.5128 41.7161 15.5221 42.2495ZM14.7126 42.2598C14.7055 41.8546 14.5966 41.5225 14.3859 41.2636C14.1751 41.0046 13.9006 40.8144 13.5624 40.693C13.2242 40.5716 12.8591 40.5134 12.467 40.5184C12.075 40.5233 11.7108 40.5908 11.3744 40.7207C11.038 40.8507 10.7677 41.0478 10.5635 41.312C10.3593 41.5762 10.2607 41.9109 10.2678 42.3161C10.2748 42.7212 10.385 43.0533 10.5983 43.3122C10.8116 43.5711 11.0886 43.7613 11.4294 43.8826C11.7702 44.004 12.1366 44.0622 12.5286 44.0572C12.9206 44.0523 13.2836 43.9848 13.6174 43.8549C13.9513 43.725 14.219 43.528 14.4207 43.2638C14.6223 42.9996 14.7196 42.6649 14.7126 42.2598ZM8.74761 42.7508L6.95948 41.8347L6.94101 40.7731L8.73369 41.9507L8.74761 42.7508Z" fill="black"/>
<path d="M10.4931 33.0127L11.2414 33.1666L10.675 36.1754L9.92663 36.0214L10.4931 33.0127ZM8.71481 34.8613L8.88274 33.9692L14.3605 35.0961C14.6099 35.1474 14.8039 35.1493 14.9424 35.1019C15.0788 35.0514 15.1792 34.9726 15.2434 34.8654C15.3056 34.7552 15.349 34.6346 15.3737 34.5035C15.3922 34.4053 15.4024 34.3236 15.4043 34.2586C15.4037 34.193 15.4032 34.1405 15.4028 34.1012L16.2302 34.0829C16.2413 34.148 16.2478 34.2371 16.2499 34.35C16.2544 34.4635 16.241 34.6034 16.2097 34.7697C16.1623 35.0217 16.0622 35.2576 15.9094 35.4775C15.757 35.6948 15.5562 35.8603 15.3068 35.9739C15.0579 36.0849 14.7663 36.1061 14.432 36.0373L8.71481 34.8613Z" fill="black"/>
<path d="M17.6588 29.8656L12.289 27.4876L12.6346 26.649L18.0044 29.0271L17.6588 29.8656ZM11.5697 26.6649C11.5024 26.8283 11.3895 26.945 11.2312 27.0149C11.0738 27.0825 10.9182 27.0822 10.7644 27.0141C10.6105 26.9459 10.5028 26.8296 10.4411 26.665C10.3804 26.4981 10.3837 26.3329 10.451 26.1694C10.5184 26.006 10.6308 25.8905 10.7881 25.8229C10.9465 25.753 11.1026 25.7521 11.2564 25.8202C11.4102 25.8883 11.5175 26.0059 11.5782 26.1728C11.6399 26.3374 11.6371 26.5014 11.5697 26.6649Z" fill="black"/>
<path d="M21.1044 23.7256C20.7933 24.1824 20.4201 24.4992 19.9848 24.676C19.5495 24.8528 19.0866 24.8957 18.596 24.8047C18.1055 24.7137 17.6228 24.4956 17.1479 24.1504C16.6648 23.7992 16.3005 23.3984 16.0548 22.9479C15.8085 22.4937 15.6928 22.027 15.7075 21.5476C15.7217 21.0646 15.8786 20.6032 16.1782 20.1633C16.4115 19.8207 16.6838 19.557 16.9949 19.3721C17.3061 19.1873 17.6329 19.0881 17.9754 19.0747C18.3179 19.0613 18.6523 19.1414 18.9784 19.3153L18.4684 20.0639C18.2127 19.9634 17.9343 19.9507 17.6331 20.0258C17.3313 20.0973 17.068 20.298 16.8433 20.6279C16.6445 20.9197 16.5446 21.2296 16.5434 21.5576C16.5416 21.882 16.6331 22.2031 16.818 22.5209C17.0022 22.835 17.2739 23.1227 17.6331 23.3838C18.0006 23.6509 18.3609 23.8244 18.7141 23.9041C19.0687 23.9816 19.3956 23.9663 19.6946 23.858C19.9952 23.7476 20.2463 23.5444 20.4479 23.2484C20.5805 23.0538 20.6677 22.8532 20.7097 22.6466C20.7517 22.4399 20.7482 22.2366 20.6992 22.0366C20.6502 21.8366 20.5549 21.6503 20.4132 21.4777L20.9231 20.7291C21.1751 20.9755 21.3567 21.264 21.4679 21.5947C21.5785 21.9217 21.607 22.2696 21.5533 22.6385C21.4989 23.0037 21.3493 23.3661 21.1044 23.7256Z" fill="black"/>
<path d="M25.3256 18.4009C25.0561 18.6587 24.7644 18.8404 24.4506 18.9461C24.1351 19.0499 23.8229 19.0639 23.514 18.988C23.2035 18.9103 22.9199 18.729 22.6633 18.4441C22.4374 18.1933 22.3024 17.9442 22.2581 17.6966C22.2121 17.4471 22.2293 17.2009 22.3095 16.958C22.3897 16.7151 22.5071 16.4791 22.6616 16.25C22.8162 16.0172 22.9804 15.793 23.154 15.5775C23.3816 15.296 23.5681 15.07 23.7133 14.8992C23.8587 14.7248 23.9486 14.5805 23.9831 14.4661C24.0195 14.35 23.9889 14.2379 23.8914 14.1296L23.8709 14.1068C23.6177 13.8257 23.3462 13.6788 23.0563 13.6661C22.7684 13.6516 22.4739 13.7883 22.173 14.0761C21.8609 14.3746 21.6796 14.6788 21.629 14.9889C21.5783 15.299 21.5888 15.5683 21.6605 15.7967L20.8349 16.1621C20.7062 15.7902 20.6674 15.4419 20.7186 15.1172C20.7699 14.7887 20.8789 14.49 21.0456 14.221C21.2124 13.9483 21.4029 13.7095 21.6171 13.5047C21.7537 13.374 21.926 13.241 22.1341 13.1056C22.3422 12.9666 22.5756 12.8689 22.8341 12.8126C23.0945 12.7544 23.3733 12.7759 23.6706 12.877C23.9678 12.9781 24.273 13.2024 24.586 13.55L27.1829 16.4334L26.5293 17.0586L25.9956 16.4659L25.9623 16.4977C26.0036 16.6351 26.0212 16.8074 26.0154 17.0145C26.0095 17.2217 25.9549 17.4454 25.8516 17.6856C25.7484 17.9258 25.573 18.1642 25.3256 18.4009ZM24.8813 17.7015C25.1398 17.4542 25.3106 17.1936 25.3938 16.9196C25.4788 16.6438 25.4921 16.3801 25.4337 16.1283C25.3772 15.8747 25.2668 15.6568 25.1026 15.4744L24.5483 14.859C24.5514 14.9197 24.5187 15.0093 24.4502 15.1278C24.3818 15.2427 24.2961 15.3689 24.1931 15.5064C24.0902 15.6401 23.9884 15.7694 23.8876 15.8941C23.7869 16.0151 23.7058 16.1139 23.6442 16.1905C23.4949 16.3758 23.3695 16.5647 23.2679 16.7572C23.1666 16.9461 23.116 17.1342 23.1162 17.3214C23.1165 17.5049 23.1937 17.6822 23.3476 17.8531C23.558 18.0868 23.8011 18.1831 24.0769 18.142C24.3529 18.0973 24.621 17.9505 24.8813 17.7015Z" fill="black"/>
<path d="M31.4861 10.0083L30.7785 10.474C30.6918 10.359 30.583 10.2549 30.4523 10.1619C30.3233 10.0656 30.1668 10.0023 29.9827 9.97178C29.7987 9.9413 29.5816 9.96563 29.3314 10.0448C28.9889 10.1531 28.7269 10.3233 28.5453 10.5555C28.3655 10.7844 28.3112 11.0206 28.3824 11.2642C28.4458 11.4807 28.5735 11.6271 28.7656 11.7034C28.9578 11.7797 29.2313 11.8074 29.5861 11.7866L30.4772 11.7304C31.0136 11.6952 31.4415 11.7654 31.7609 11.9412C32.0797 12.1146 32.2969 12.3993 32.4128 12.7954C32.5078 13.1201 32.5004 13.4396 32.3906 13.7539C32.2833 14.0674 32.0873 14.3498 31.8025 14.6011C31.5178 14.8525 31.1581 15.0469 30.7233 15.1844C30.1525 15.365 29.6433 15.389 29.1959 15.2563C28.7484 15.1237 28.4044 14.8321 28.1637 14.3814L28.9194 13.9166C29.0864 14.197 29.3002 14.3793 29.561 14.4635C29.8243 14.5469 30.132 14.5329 30.4842 14.4215C30.885 14.2947 31.178 14.1079 31.3632 13.8612C31.5501 13.6112 31.608 13.3644 31.5368 13.1209C31.4792 12.9241 31.363 12.7807 31.1881 12.6909C31.0125 12.5986 30.7741 12.5638 30.4729 12.5865L29.4754 12.6602C28.9269 12.6993 28.4947 12.6277 28.1786 12.4455C27.8643 12.26 27.6499 11.9716 27.5355 11.5805C27.442 11.2606 27.4479 10.9497 27.5532 10.6476C27.661 10.3447 27.8486 10.0743 28.1161 9.83653C28.386 9.59795 28.7177 9.41642 29.1112 9.29195C29.665 9.11677 30.1357 9.10224 30.5235 9.24838C30.9136 9.39375 31.2345 9.64704 31.4861 10.0083Z" fill="black"/>
<path d="M84.9988 40.6943C85.1652 62.7851 67.3919 80.83 45.3012 80.9988C23.2104 81.1676 5.16749 63.3964 5.00116 41.3057C4.83483 19.2149 22.6081 1.17 44.6988 1.00119C66.7896 0.832383 84.8325 18.6036 84.9988 40.6943Z" stroke="#363636" stroke-width="2" mask="url(#path-1-outside-1_19_135)"/>
<path d="M52.0269 27.823C52.3646 29.9031 52.2295 30.1631 50.0006 31.1381C47.9068 32.1132 46.2857 32.2432 38.5183 31.7882L29.9206 31.3527C29.6639 31.3397 29.4066 31.346 29.1508 31.3717L28.6655 31.4203C27.1904 31.5682 25.8961 32.4741 25.2439 33.8151C24.9564 34.406 24.807 35.0554 24.807 35.7134V45.5686C24.807 57.594 25.0096 58.244 27.7789 57.984C29.2649 57.854 29.8052 57.529 29.6026 56.814C28.8596 54.4089 28.792 51.1588 29.4675 49.5987C30.1429 47.9087 30.2105 47.8437 36.8972 47.9087H43.7191V51.3538C43.7191 56.424 44.5972 58.114 47.1638 58.114C48.7848 58.114 49.1901 57.919 48.8524 57.074C47.0287 52.4588 47.6366 50.0537 50.8111 49.0137C53.3102 48.2337 55.8769 45.6336 55.8769 43.8786C55.8769 43.1635 55.3365 43.4235 54.2558 44.7886C53.3778 45.8286 52.4997 46.6086 52.3646 46.4136C51.0138 44.8536 49.1901 40.9535 49.5278 40.4334C50.2033 39.3934 54.2558 37.9634 56.5523 37.9634H58.6462L57.2277 39.3934C56.4848 40.1734 55.8769 41.0185 55.8769 41.3435C55.8769 42.3185 57.0927 41.8635 58.0383 40.4984C58.7137 39.4584 59.9295 39.0034 62.9689 38.6784C66.8189 38.2884 66.954 38.2234 67.5619 36.0133C67.9671 34.4532 67.8996 33.6732 67.3592 33.5432C66.954 33.4132 66.3461 32.9582 66.0084 32.5032C61.9558 27.563 61.0777 26.913 58.9163 26.913C57.633 26.913 56.4172 26.588 56.2146 26.263C56.012 25.873 54.8637 25.613 53.7155 25.613C51.7567 25.613 51.6892 25.678 52.0269 27.823ZM56.9576 28.5381C58.1058 30.2281 59.4567 30.1631 58.7812 28.4731C58.4435 27.693 58.7137 27.628 60.1996 28.2781C61.1453 28.7331 61.9558 29.2531 61.9558 29.5131C61.9558 29.7081 63.0365 31.0081 64.3198 32.4382C65.9408 34.1282 66.6163 35.2983 66.2785 36.1433C65.9408 37.2483 65.3329 37.3133 59.7268 37.0533L53.5129 36.7283L52.5673 34.3882C51.7567 32.3082 51.7567 31.9182 52.5673 31.4632C53.0401 31.1381 54.2558 31.0731 55.2015 31.2681L56.89 31.6582L55.0664 29.9681C53.9857 29.0581 53.1752 27.953 53.1752 27.563C53.1752 26.263 55.8769 26.913 56.9576 28.5381ZM34.6683 33.8032C34.4657 34.3882 34.2631 35.0383 34.2631 35.2983C34.2631 35.6233 33.5201 36.5983 32.5069 37.6384C30.7508 39.4584 30.7508 40.6935 32.5069 39.3284C34.8709 37.4433 38.3156 40.8885 38.3156 45.1786V47.1937L34.4657 46.7386C32.3718 46.4786 29.6701 45.8286 28.3868 45.2436C25.6851 44.0086 25.4149 42.0585 27.8464 41.4735C28.792 41.2785 29.535 40.8235 29.535 40.4984C29.535 40.1734 28.792 40.0434 27.8464 40.3034C26.2929 40.6934 26.1579 40.4984 26.1579 38.4184C26.1579 35.2333 28.8596 32.7632 32.3718 32.7632C34.6008 32.7632 35.006 32.9582 34.6683 33.8032ZM40.4095 33.4132C41.3551 33.4132 41.2875 33.9332 39.7341 36.5983L37.9779 39.8484L36.492 38.4834C35.3437 37.4433 35.0736 36.6633 35.4113 35.4283C36.0192 32.8932 36.2893 32.6332 37.9104 33.0232C38.6534 33.2182 39.8016 33.4132 40.4095 33.4132ZM51.1489 34.4533C52.162 36.9883 51.9594 37.5734 49.6629 38.8084C47.6366 39.9134 47.5015 39.9134 46.1507 38.7434C45.3401 38.0284 44.0568 37.1183 43.1788 36.6633C41.6928 35.9483 41.6253 35.8183 42.706 34.7133C43.3814 33.9982 45.0024 33.3482 46.3533 33.2182C47.7042 33.0882 49.1901 32.9582 49.6629 32.8932C50.1357 32.8282 50.8111 33.5432 51.1489 34.4533ZM45.0024 39.3934C48.2445 41.6685 48.1094 41.9285 42.5709 42.7735C39.7341 43.1635 39.6665 43.1635 39.6665 41.2785C39.6665 38.8084 40.2744 37.3133 41.2875 37.3133C41.7603 37.3133 43.4489 38.2234 45.0024 39.3934ZM50.2033 45.1786C51.0813 46.8686 51.1489 47.3237 50.3383 47.7787C49.1901 48.4937 48.4471 48.4937 48.4471 47.7137C48.4471 46.4136 45.8805 45.7636 42.7735 46.3486C40.0042 46.8686 39.6665 46.7386 39.6665 45.6986C39.6665 44.9836 40.2744 44.3336 41.22 44.2036C42.0305 44.0086 43.3138 43.7485 44.0568 43.6185C47.8392 42.8385 49.055 43.1635 50.2033 45.1786ZM28.0491 46.6086C28.5894 47.2587 28.5894 48.1687 28.1166 49.9887C27.7114 51.3538 27.5087 53.4989 27.7114 54.7339C27.9815 56.2289 27.8464 56.814 27.3061 56.619C26.7658 56.489 26.428 54.4739 26.293 51.0938C26.0903 45.8936 26.5631 44.8536 28.0491 46.6086ZM47.0287 47.9087C47.5691 48.5587 47.5015 49.3387 46.9612 50.8338C46.3533 52.3938 46.2857 53.3689 46.8936 54.8639C47.5015 56.424 47.5015 56.814 46.7585 56.814C45.4752 56.814 45.07 55.3189 45.07 50.8988C45.07 47.0637 45.6103 46.2836 47.0287 47.9087Z" stroke="#363636" stroke-width="2" mask="url(#path-1-outside-1_19_135)"/>
<path d="M46.88 11.6513L44.4773 11.4218L45.1401 3.57107L47.6493 3.81075C48.4046 3.8829 49.0376 4.1018 49.5484 4.46746C50.0594 4.83056 50.4334 5.31841 50.6704 5.93099C50.9076 6.54101 50.9919 7.25236 50.9233 8.06503C50.8542 8.88281 50.6503 9.57307 50.3115 10.1358C49.973 10.696 49.514 11.1081 48.9348 11.3722C48.3557 11.6338 47.6708 11.7268 46.88 11.6513ZM45.4913 10.6685L46.8904 10.8021C47.5341 10.8636 48.0782 10.7894 48.5226 10.5793C48.9671 10.3693 49.3127 10.043 49.5596 9.60027C49.8065 9.15756 49.9569 8.61677 50.0108 7.97787C50.0643 7.34409 50.0078 6.78868 49.8411 6.31162C49.6746 5.83201 49.3977 5.45005 49.0104 5.16573C48.6233 4.87887 48.1256 4.70638 47.5173 4.64828L46.0118 4.50447L45.4913 10.6685Z" stroke="#363636" stroke-width="2" mask="url(#path-1-outside-1_19_135)"/>
<path d="M53.6476 13.1904C53.1091 13.0178 52.6802 12.7485 52.361 12.3825C52.045 12.0148 51.8459 11.5796 51.7638 11.077C51.6849 10.5727 51.7314 10.0306 51.9034 9.45063C52.0754 8.87067 52.3313 8.39295 52.6711 8.01747C53.0141 7.64032 53.4104 7.38789 53.8601 7.2602C54.3129 7.13083 54.7916 7.14701 55.2962 7.30873C55.5873 7.40203 55.8603 7.54332 56.115 7.73258C56.3697 7.92185 56.5807 8.16439 56.748 8.46021C56.916 8.75356 57.0156 9.10302 57.0468 9.50859C57.078 9.91416 57.0152 10.3811 56.8585 10.9095L56.7492 11.2781L52.4405 9.89723L52.6635 9.14524L56.0988 10.2462C56.1935 9.92673 56.215 9.62145 56.1632 9.33036C56.1138 9.04004 55.9953 8.78546 55.8078 8.5666C55.6228 8.34853 55.375 8.18973 55.0645 8.09021C54.7224 7.98058 54.4009 7.97173 54.1 8.06367C53.8022 8.15393 53.5462 8.31407 53.3319 8.54408C53.1176 8.7741 52.9641 9.04516 52.8716 9.35725L52.7229 9.85858C52.5961 10.2862 52.5614 10.672 52.6188 11.016C52.6793 11.3583 52.8176 11.6489 53.0337 11.8877C53.2506 12.124 53.5325 12.2978 53.8794 12.4089C54.105 12.4812 54.3183 12.5146 54.5192 12.509C54.7232 12.5018 54.9113 12.4544 55.0834 12.3669C55.2561 12.277 55.4081 12.1454 55.5392 11.9721L56.2989 12.4739C56.1271 12.731 55.9059 12.9346 55.6356 13.0848C55.366 13.2325 55.0617 13.318 54.7227 13.3412C54.3845 13.362 54.0261 13.3117 53.6476 13.1904Z" stroke="#363636" stroke-width="2" mask="url(#path-1-outside-1_19_135)"/>
<path d="M63.4101 8.94441L59.6794 15.8693L58.8973 15.4182L62.6279 8.49337L63.4101 8.94441Z" stroke="#363636" stroke-width="2" mask="url(#path-1-outside-1_19_135)"/>
<path d="M64.0728 18.216L67.879 13.7197L68.5507 14.325L64.7445 18.8213L64.0728 18.216ZM68.4286 13.1416L70.2728 12.4092L71.0584 13.1171L69.0206 13.6751L68.4286 13.1416Z" stroke="#363636" stroke-width="2" mask="url(#path-1-outside-1_19_135)"/>
<path d="M69.4218 23.8235C69.0964 23.3769 68.9193 22.9128 68.8905 22.4311C68.8616 21.9495 68.9648 21.4822 69.2 21.0293C69.4352 20.5764 69.7852 20.1706 70.25 19.8118C70.7229 19.4468 71.205 19.2136 71.6963 19.1122C72.1911 19.0113 72.6574 19.0424 73.095 19.2053C73.5361 19.3688 73.9133 19.6655 74.2266 20.0956C74.4707 20.4305 74.63 20.7792 74.7046 21.1416C74.7791 21.504 74.7698 21.8552 74.6766 22.1953C74.5833 22.5354 74.4063 22.8384 74.1454 23.1044L73.6121 22.3724C73.7837 22.1528 73.8812 21.8837 73.9048 21.565C73.932 21.2469 73.828 20.9266 73.593 20.604C73.3851 20.3187 73.1301 20.1247 72.8279 20.0219C72.5293 19.9197 72.2049 19.91 71.8549 19.9929C71.5083 20.0763 71.1592 20.2536 70.8075 20.5251C70.4478 20.8027 70.1767 21.1024 69.9943 21.4241C69.8134 21.7478 69.7268 22.0731 69.7344 22.4C69.7436 22.7289 69.8536 23.038 70.0645 23.3275C70.2031 23.5177 70.3612 23.6654 70.5388 23.7706C70.7165 23.8757 70.9051 23.9353 71.1047 23.9492C71.3043 23.9631 71.5055 23.9273 71.7084 23.8418L72.2417 24.5737C71.9367 24.7445 71.6146 24.8333 71.2753 24.8399C70.9395 24.8471 70.6098 24.7673 70.2861 24.6004C69.966 24.434 69.6779 24.175 69.4218 23.8235Z" stroke="#363636" stroke-width="2" mask="url(#path-1-outside-1_19_135)"/>
<path d="M72.0636 28.7415L77.368 26.2191L77.7413 27.0455L72.4368 29.5679L72.0636 28.7415ZM78.4419 26.2189C78.3692 26.0578 78.3605 25.8932 78.416 25.725C78.4726 25.5592 78.5768 25.4401 78.7288 25.3679C78.8807 25.2956 79.0366 25.2909 79.1965 25.3539C79.3574 25.4191 79.4743 25.5323 79.547 25.6934C79.6198 25.8545 79.6279 26.0179 79.5714 26.1838C79.5159 26.352 79.4121 26.4722 79.2602 26.5444C79.1082 26.6167 78.9518 26.6202 78.7909 26.5549C78.631 26.492 78.5147 26.38 78.4419 26.2189Z" stroke="#363636" stroke-width="2" mask="url(#path-1-outside-1_19_135)"/>
<path d="M75.4461 35.2586C75.3642 34.8933 75.3582 34.546 75.4279 34.2165C75.5001 33.8865 75.6468 33.6036 75.868 33.3678C76.0916 33.1315 76.3895 32.9701 76.7616 32.8835C77.0891 32.8073 77.3691 32.8105 77.6016 32.8933C77.8367 32.9755 78.0369 33.1118 78.2022 33.3024C78.3676 33.4929 78.5083 33.7129 78.6242 33.9623C78.7432 34.2136 78.85 34.4691 78.9447 34.7287C79.0679 35.0686 79.165 35.3447 79.2361 35.5572C79.3103 35.7716 79.3871 35.9221 79.4666 36.0089C79.5466 36.0982 79.6573 36.1264 79.7987 36.0935L79.8285 36.0866C80.1956 36.0012 80.4582 35.8335 80.6162 35.5835C80.7747 35.336 80.8083 35.0084 80.7169 34.6006C80.6221 34.1778 80.456 33.8676 80.2187 33.6702C79.9813 33.4727 79.7475 33.3495 79.5172 33.3004L79.6265 32.3905C80.0074 32.4598 80.3226 32.597 80.5722 32.8022C80.8248 33.0092 81.0229 33.2527 81.1665 33.5325C81.3132 33.8143 81.4191 34.1002 81.4841 34.3904C81.5256 34.5756 81.5509 34.7934 81.5601 35.044C81.5723 35.2965 81.5367 35.5509 81.4532 35.8072C81.3703 36.0661 81.2105 36.302 80.9737 36.515C80.737 36.7281 80.3916 36.8874 79.9377 36.993L76.1722 37.8693L75.9737 36.9837L76.7476 36.8036L76.7375 36.7585C76.6001 36.7274 76.4449 36.6582 76.2721 36.551C76.0993 36.4438 75.9372 36.2854 75.7859 36.0758C75.6345 35.8662 75.5212 35.5938 75.4461 35.2586ZM76.2652 35.2101C76.3437 35.5604 76.4781 35.8397 76.6684 36.0481C76.8592 36.2591 77.0762 36.4007 77.3195 36.4731C77.5634 36.5479 77.8044 36.5577 78.0425 36.5022L78.8462 36.3152C78.7931 36.2881 78.7337 36.215 78.6679 36.0961C78.6051 35.9791 78.5416 35.8412 78.4773 35.6824C78.4161 35.5256 78.3581 35.3719 78.3035 35.2214C78.2519 35.0729 78.2093 34.9525 78.1756 34.8603C78.0942 34.6371 77.9976 34.4332 77.8858 34.2486C77.777 34.066 77.6431 33.9287 77.4842 33.8367C77.3283 33.7466 77.1387 33.7275 76.9155 33.7795C76.6104 33.8505 76.4052 34.018 76.2999 34.282C76.1977 34.548 76.1862 34.8574 76.2652 35.2101Z" stroke="#363636" stroke-width="2" mask="url(#path-1-outside-1_19_135)"/>
<path d="M80.9964 44.2421L80.753 43.4295C80.8871 43.3765 81.0168 43.2992 81.1424 43.1976C81.2705 43.0985 81.3751 42.9638 81.4562 42.7935C81.5372 42.6232 81.5754 42.406 81.5708 42.1418C81.5645 41.7802 81.4765 41.48 81.3068 41.241C81.1397 41.0046 80.9302 40.8879 80.6782 40.8911C80.4541 40.8939 80.2786 40.9782 80.1517 41.144C80.0247 41.3097 79.921 41.5675 79.8405 41.9174L79.642 42.7971C79.5239 43.327 79.3361 43.7231 79.0784 43.9854C78.8232 44.2476 78.4908 44.3814 78.0809 44.3865C77.7449 44.3908 77.4428 44.2971 77.1746 44.1055C76.9065 43.9165 76.6931 43.6499 76.5343 43.3056C76.3755 42.9614 76.2921 42.5597 76.2841 42.1007C76.2736 41.4981 76.3947 40.9977 76.6474 40.5995C76.9002 40.2013 77.2751 39.9465 77.7723 39.8351L78.0012 40.694C77.6869 40.78 77.4529 40.9382 77.299 41.1684C77.1452 41.4012 77.0716 41.7035 77.0781 42.0753C77.0854 42.4984 77.1804 42.8333 77.363 43.0798C77.5481 43.3288 77.7667 43.4517 78.0187 43.4485C78.2223 43.446 78.3916 43.372 78.5266 43.2267C78.6641 43.0813 78.7646 42.8595 78.8282 42.5611L79.0401 41.5735C79.1579 41.0308 79.3483 40.6308 79.6112 40.3736C79.8766 40.1189 80.2117 39.989 80.6165 39.9839C80.9474 39.9797 81.2418 40.0696 81.4997 40.2536C81.7575 40.4402 81.9619 40.6954 82.1127 41.0192C82.2635 41.3456 82.3425 41.7166 82.3498 42.132C82.36 42.7167 82.2407 43.1773 81.992 43.5139C81.7433 43.853 81.4114 44.0958 80.9964 44.2421Z" stroke="#363636" stroke-width="2" mask="url(#path-1-outside-1_19_135)"/>
<path d="M72.7022 53.8348C72.8896 53.38 73.1681 53.0286 73.5377 52.7805C73.9096 52.5334 74.3435 52.4035 74.8394 52.3906C75.3376 52.3787 75.8711 52.4987 76.4398 52.7506C77.0038 53.0004 77.4527 53.3154 77.7865 53.6957C78.1204 54.0761 78.328 54.4916 78.4096 54.9423C78.4912 55.3929 78.4373 55.8481 78.2479 56.3076C78.1015 56.6629 77.9275 56.9178 77.726 57.0723C77.5259 57.2301 77.33 57.331 77.1382 57.375C76.9479 57.4223 76.7934 57.4561 76.6748 57.4764L76.6455 57.5475L79.2884 58.7179L78.9428 59.5565L71.7831 56.3857L72.117 55.5756L72.942 55.941L72.983 55.8415C72.9105 55.7366 72.8231 55.5942 72.7208 55.4145C72.6208 55.2357 72.556 55.0152 72.5264 54.7528C72.4991 54.4914 72.5577 54.1854 72.7022 53.8348ZM73.3965 54.2767C73.2578 54.6131 73.2269 54.9355 73.3037 55.244C73.3828 55.5536 73.5513 55.8369 73.8092 56.0939C74.0693 56.352 74.4022 56.5708 74.8077 56.7504C75.2086 56.928 75.5838 57.0241 75.9332 57.0388C76.285 57.0545 76.5927 56.9835 76.8561 56.8257C77.122 56.6689 77.3252 56.4199 77.4658 56.0789C77.6122 55.7235 77.6445 55.3877 77.5627 55.0714C77.4822 54.7584 77.3137 54.4751 77.0572 54.2215C76.8021 53.9712 76.4857 53.7625 76.1081 53.5953C75.7259 53.426 75.3543 53.3315 74.9931 53.3116C74.6334 53.2951 74.3131 53.3634 74.0323 53.5163C73.7529 53.6727 73.5409 53.9262 73.3965 54.2767Z" stroke="#363636" stroke-width="2" mask="url(#path-1-outside-1_19_135)"/>
<path d="M69.951 59.4405C70.1613 59.1317 70.409 58.8928 70.6939 58.7237C70.981 58.5561 71.2833 58.4771 71.6009 58.4866C71.9206 58.4977 72.2352 58.6158 72.5449 58.8409C72.8174 59.039 73.0009 59.2546 73.0952 59.4876C73.1917 59.7222 73.2258 59.9667 73.1975 60.2212C73.1692 60.4757 73.1031 60.7313 72.9994 60.9878C72.8962 61.248 72.782 61.5018 72.6568 61.749C72.4923 62.0721 72.3567 62.3324 72.2499 62.5299C72.1438 62.731 72.0857 62.8911 72.0755 63.0102C72.064 63.1315 72.117 63.2348 72.2347 63.3204L72.2595 63.3384C72.565 63.5605 72.8608 63.6475 73.1467 63.5992C73.4313 63.5531 73.6909 63.3577 73.9257 63.013C74.1692 62.6556 74.2837 62.3199 74.2692 62.0058C74.2547 61.6917 74.1888 61.4304 74.0716 61.2219L74.8034 60.6914C75.006 61.0284 75.1157 61.3612 75.1327 61.6897C75.1503 62.0219 75.1054 62.3371 74.998 62.6352C74.8912 62.937 74.7542 63.2106 74.5871 63.4559C74.4805 63.6124 74.3395 63.7786 74.1641 63.9546C73.9893 64.1343 73.7813 64.2787 73.5401 64.388C73.2976 64.4994 73.0206 64.5367 72.7091 64.5C72.3976 64.4633 72.053 64.3076 71.6752 64.033L68.5413 61.7547L69.0512 61.0061L69.6954 61.4744L69.7213 61.4363C69.6526 61.3105 69.5998 61.1456 69.5628 60.9416C69.5258 60.7377 69.533 60.5073 69.5844 60.2506C69.6358 59.9939 69.758 59.7239 69.951 59.4405ZM70.5297 60.032C70.3281 60.328 70.2148 60.6188 70.1901 60.9044C70.1639 61.1921 70.2053 61.453 70.3144 61.6872C70.422 61.9235 70.5748 62.1137 70.773 62.2578L71.4419 62.7441C71.4264 62.6853 71.4398 62.5908 71.4823 62.4604C71.5255 62.3337 71.5832 62.1922 71.6556 62.0362C71.7286 61.8837 71.8015 61.7359 71.8743 61.5928C71.9477 61.4533 72.0066 61.3396 72.051 61.2517C72.1588 61.0392 72.2424 60.828 72.3019 60.6183C72.362 60.4122 72.3727 60.2176 72.3338 60.0344C72.2956 59.8549 72.1836 59.6976 71.9978 59.5625C71.7439 59.3779 71.4863 59.3345 71.2252 59.4324C70.9646 59.5339 70.7328 59.7338 70.5297 60.032Z" stroke="#363636" stroke-width="2" mask="url(#path-1-outside-1_19_135)"/>
<path d="M67.1452 69.6626L67.5784 68.9301C67.706 68.9955 67.8485 69.0412 68.0061 69.0673C68.1635 69.097 68.3313 69.085 68.5096 69.0311C68.6879 68.9772 68.8722 68.8594 69.0623 68.6775C69.3227 68.4285 69.484 68.1592 69.5464 67.8698C69.6086 67.584 69.555 67.3471 69.3856 67.159C69.2351 66.9919 69.0571 66.9163 68.8517 66.9325C68.6463 66.9486 68.389 67.0445 68.0797 67.2201L67.3046 67.6645C66.8387 67.9333 66.4244 68.0591 66.0618 68.0418C65.7008 68.0264 65.3826 67.8658 65.1072 67.56C64.8814 67.3093 64.7497 67.018 64.7121 66.6863C64.6726 66.3563 64.7262 66.0151 64.8728 65.6627C65.0194 65.3103 65.258 64.9761 65.5884 64.66C66.0223 64.245 66.4687 63.9984 66.9275 63.9202C67.3863 63.842 67.8212 63.9528 68.2322 64.2527L67.7556 65.0056C67.4843 64.8266 67.2136 64.7568 66.9432 64.7962C66.6709 64.8374 66.401 64.986 66.1333 65.242C65.8286 65.5334 65.6466 65.8312 65.5873 66.1355C65.5278 66.4434 65.5828 66.6914 65.7521 66.8795C65.889 67.0314 66.0553 67.1092 66.2511 67.1129C66.4486 67.1185 66.6775 67.0445 66.9378 66.8909L67.8008 66.3838C68.2759 66.1061 68.6946 65.9796 69.057 66.0042C69.4193 66.0325 69.7364 66.1976 70.0084 66.4997C70.2308 66.7466 70.3602 67.0295 70.3965 67.3484C70.4309 67.669 70.3797 67.9956 70.2427 68.3281C70.1039 68.6624 69.8849 68.9726 69.5858 69.2587C69.1649 69.6614 68.7489 69.8825 68.3378 69.9221C67.9248 69.9635 67.5273 69.877 67.1452 69.6626Z" stroke="#363636" stroke-width="2" mask="url(#path-1-outside-1_19_135)"/>
<path d="M53.9296 75.9025L54.8243 75.5897C54.964 75.8313 55.1329 76.0274 55.3309 76.178C55.5266 76.3295 55.7405 76.4393 55.9727 76.5074C56.2034 76.5788 56.4431 76.609 56.6919 76.598C56.9407 76.587 57.1877 76.5386 57.4331 76.4528C57.8804 76.2963 58.2475 76.0404 58.5344 75.6848C58.8189 75.3302 58.9939 74.893 59.0594 74.3732C59.1225 73.8543 59.0462 73.2716 58.8303 72.6249C58.6144 71.9783 58.3264 71.4695 57.9662 71.0987C57.6036 70.7287 57.2038 70.4925 56.7667 70.3902C56.3273 70.2887 55.8839 70.3161 55.4365 70.4726C55.1912 70.5584 54.9669 70.6748 54.7635 70.822C54.5602 70.9691 54.3882 71.1419 54.2477 71.3404C54.1055 71.5421 54.0024 71.7642 53.9382 72.0065C53.8725 72.2521 53.8562 72.513 53.8893 72.7892L52.9946 73.1021C52.9345 72.6968 52.9432 72.3124 53.0205 71.9487C53.0979 71.585 53.2335 71.2512 53.4274 70.9472C53.6222 70.6456 53.8661 70.3825 54.1591 70.1578C54.4496 69.9341 54.7813 69.757 55.1541 69.6266C55.7842 69.4062 56.3966 69.3658 56.9911 69.5054C57.5856 69.645 58.1193 69.9524 58.5923 70.4277C59.0652 70.903 59.4331 71.5345 59.6961 72.3221C59.9591 73.1098 60.0456 73.8397 59.9558 74.5118C59.8659 75.1839 59.6276 75.7613 59.2408 76.2441C58.8541 76.7268 58.3456 77.0784 57.7155 77.2988C57.3427 77.4291 56.9745 77.4968 56.6109 77.5018C56.2449 77.5077 55.8943 77.4511 55.5591 77.3321C55.2248 77.2156 54.9183 77.0377 54.6396 76.7985C54.3618 76.5617 54.1252 76.2631 53.9296 75.9025Z" stroke="#363636" stroke-width="2" mask="url(#path-1-outside-1_19_135)"/>
<path d="M48.9668 72.5547C49.3358 72.51 49.6791 72.5394 49.9966 72.643C50.3144 72.7491 50.5778 72.9251 50.7867 73.171C50.9959 73.4195 51.1233 73.7347 51.1689 74.1167C51.2091 74.4528 51.1759 74.7332 51.0694 74.958C50.9633 75.1853 50.8074 75.3721 50.6018 75.5184C50.3962 75.6648 50.1641 75.7833 49.9057 75.8741C49.6451 75.9677 49.3817 76.0487 49.1155 76.1172C48.7671 76.2059 48.4843 76.2751 48.2672 76.3247C48.0478 76.3771 47.891 76.4387 47.7969 76.5096C47.7003 76.5807 47.6606 76.6888 47.678 76.834L47.6816 76.8645C47.7267 77.2414 47.864 77.5218 48.0937 77.7058C48.3209 77.8901 48.6405 77.9573 49.0525 77.9073C49.4796 77.8555 49.8033 77.7206 50.0234 77.5028C50.2436 77.2849 50.3901 77.0631 50.4632 76.8372L51.349 77.0398C51.2399 77.4147 51.0709 77.7168 50.8418 77.946C50.6106 78.1782 50.3493 78.3519 50.0579 78.4674C49.7643 78.5856 49.4709 78.6625 49.1777 78.6981C48.9907 78.7208 48.7731 78.7239 48.525 78.7075C48.2746 78.6939 48.0275 78.6322 47.7835 78.5223C47.5371 78.4127 47.3215 78.2283 47.1366 77.9691C46.9518 77.7099 46.8316 77.3474 46.7759 76.8814L46.314 73.0159L47.2088 72.9074L47.3037 73.7019L47.3492 73.6964C47.3947 73.5617 47.4795 73.4132 47.6037 73.2509C47.7279 73.0886 47.9015 72.9423 48.1244 72.8119C48.3473 72.6815 48.6281 72.5958 48.9668 72.5547ZM48.927 73.381C48.5732 73.424 48.2833 73.5302 48.0574 73.6996C47.8289 73.8694 47.666 74.0726 47.5686 74.3091C47.4687 74.546 47.4333 74.7867 47.4626 75.0311L47.5611 75.8562C47.5936 75.8057 47.672 75.7536 47.7963 75.6998C47.9184 75.6488 48.0612 75.5992 48.2247 75.5509C48.386 75.5056 48.5437 75.4632 48.698 75.4238C48.8501 75.3873 48.9734 75.3568 49.0679 75.3324C49.2968 75.2737 49.5082 75.1977 49.7022 75.1044C49.894 75.014 50.0438 74.8938 50.1515 74.7438C50.257 74.5967 50.296 74.4085 50.2687 74.1793C50.2312 73.8661 50.0879 73.6433 49.8388 73.5107C49.5873 73.3811 49.2834 73.3378 48.927 73.381Z" stroke="#363636" stroke-width="2" mask="url(#path-1-outside-1_19_135)"/>
<path d="M43.6912 72.8025L43.1941 78.6905L42.3273 78.6077L42.4024 77.7184L42.3416 77.7126C42.2105 77.9937 41.9979 78.2117 41.7038 78.3665C41.4097 78.5214 41.0878 78.5821 40.738 78.5487C40.6721 78.5424 40.5898 78.5332 40.4912 78.5212C40.3926 78.5092 40.3181 78.4982 40.2679 78.4883L40.3455 77.5683C40.3753 77.5789 40.444 77.597 40.5517 77.6228C40.6567 77.6508 40.7687 77.6705 40.8878 77.6819C41.1717 77.709 41.4302 77.6732 41.6634 77.5744C41.8938 77.4779 42.0825 77.331 42.2295 77.1338C42.3737 76.9389 42.457 76.7086 42.4794 76.4428L42.794 72.7168L43.6912 72.8025Z" stroke="#363636" stroke-width="2" mask="url(#path-1-outside-1_19_135)"/>
<path d="M36.9171 75.2707L37.9271 71.8646L38.786 72.1399L37.1069 77.8019L36.2772 77.536L36.5395 76.6513L36.4667 76.6279C36.2505 76.8735 35.983 77.0407 35.6644 77.1297C35.3451 77.2211 34.9743 77.1992 34.5522 77.0639C34.1737 76.9426 33.8659 76.7578 33.6287 76.5096C33.3907 76.2638 33.2399 75.9571 33.1762 75.5895C33.1118 75.2244 33.151 74.8011 33.2939 74.3194L34.3608 70.7217L35.2196 70.9969L34.1702 74.5357C34.0383 74.9805 34.0496 75.3635 34.204 75.6848C34.3577 76.0085 34.6335 76.2342 35.0314 76.3617C35.3055 76.4496 35.5684 76.4679 35.8201 76.4167C36.0693 76.3647 36.29 76.243 36.4822 76.0517C36.6745 75.8603 36.8194 75.6 36.9171 75.2707Z" stroke="#363636" stroke-width="2" mask="url(#path-1-outside-1_19_135)"/>
<path d="M30.5379 68.5605C31.0284 68.8433 31.392 69.1978 31.6288 69.6238C31.8621 70.0509 31.9673 70.5193 31.9446 71.0291C31.9185 71.54 31.7621 72.0614 31.4755 72.5934C31.1889 73.1254 30.8413 73.5394 30.4327 73.8356C30.0206 74.1328 29.5821 74.2964 29.1169 74.3266C28.6484 74.3578 28.1843 74.2409 27.7247 73.9758C27.4596 73.823 27.222 73.6269 27.0121 73.3876C26.8022 73.1484 26.6458 72.8662 26.543 72.541C26.4389 72.2181 26.4132 71.8546 26.4658 71.4506C26.5184 71.0466 26.6752 70.6023 26.9363 70.1176L27.1185 69.7795L31.0426 72.0424L30.671 72.7321L27.5423 70.928C27.3844 71.221 27.301 71.5156 27.292 71.8118C27.2808 72.1067 27.3444 72.3812 27.4826 72.6352C27.6187 72.888 27.8281 73.0959 28.1109 73.259C28.4225 73.4387 28.7345 73.5152 29.0471 73.4887C29.3563 73.4631 29.639 73.3602 29.8953 73.1801C30.1517 72.9999 30.3569 72.7667 30.5112 72.4804L30.7589 72.0206C30.9702 71.6284 31.0831 71.2576 31.0974 70.9084C31.1084 70.5602 31.0328 70.2463 30.8707 69.9667C30.7073 69.6893 30.4677 69.4595 30.1517 69.2773C29.9462 69.1588 29.7449 69.0811 29.5476 69.0442C29.3469 69.0082 29.1535 69.0149 28.9677 69.0643C28.7806 69.116 28.6053 69.2128 28.4419 69.3549L27.8028 68.7028C28.0232 68.4872 28.2807 68.3343 28.5754 68.2443C28.8689 68.1564 29.1835 68.1369 29.5192 68.1858C29.8536 68.2368 30.1932 68.3617 30.5379 68.5605Z" stroke="#363636" stroke-width="2" mask="url(#path-1-outside-1_19_135)"/>
<path d="M20.9407 66.9856L21.6928 67.3538C21.6432 67.4914 21.6141 67.6423 21.6055 67.8066C21.5933 67.9711 21.6226 68.142 21.6933 68.3193C21.7641 68.4965 21.8972 68.6732 22.0926 68.8493C22.3601 69.0904 22.6368 69.2279 22.9225 69.2618C23.2047 69.296 23.4276 69.2164 23.5911 69.0232C23.7365 68.8515 23.7906 68.6611 23.7534 68.4522C23.7162 68.2432 23.5967 67.9893 23.3948 67.6904L22.8846 66.9416C22.5763 66.4918 22.4114 66.08 22.3899 65.7063C22.3668 65.3346 22.4882 64.9916 22.7542 64.6774C22.9722 64.4198 23.2393 64.2545 23.5553 64.1815C23.8694 64.1068 24.2041 64.1263 24.5594 64.24C24.9147 64.3538 25.2621 64.5637 25.6018 64.8698C26.0477 65.2716 26.3325 65.7038 26.4562 66.1661C26.58 66.6285 26.5188 67.086 26.2728 67.5386L25.4965 67.128C25.6406 66.8313 25.6795 66.5464 25.613 66.2732C25.5447 65.9983 25.3729 65.7369 25.0978 65.4889C24.7847 65.2068 24.4783 65.0511 24.1786 65.0218C23.8753 64.9928 23.642 65.0749 23.4784 65.2681C23.3462 65.4242 23.2887 65.6029 23.3057 65.804C23.3211 66.0071 23.4166 66.2342 23.5921 66.4852L24.1721 67.3175C24.4899 67.7758 24.6559 68.1921 24.6703 68.5663C24.6812 68.9408 24.5553 69.2831 24.2926 69.5934C24.0778 69.8471 23.8186 70.0091 23.5149 70.0795C23.2093 70.1481 22.8889 70.1294 22.5537 70.0235C22.2167 69.9158 21.8945 69.7235 21.5871 69.4465C21.1545 69.0566 20.8974 68.653 20.8159 68.2355C20.7325 67.8164 20.7741 67.3997 20.9407 66.9856Z" stroke="#363636" stroke-width="2" mask="url(#path-1-outside-1_19_135)"/>
<path d="M17.5561 54.876C17.7902 55.3943 17.8793 55.895 17.8234 56.3781C17.7642 56.86 17.5767 57.2994 17.2609 57.6963C16.9418 58.0919 16.5106 58.4189 15.9672 58.6773C15.4239 58.9357 14.8997 59.063 14.3946 59.0593C13.8861 59.0544 13.4339 58.9263 13.0379 58.675C12.6386 58.4225 12.3293 58.0535 12.11 57.5679C11.9834 57.2878 11.9045 56.9892 11.8733 56.6723C11.842 56.3554 11.8793 56.0356 11.9853 55.7129C12.089 55.3914 12.28 55.0836 12.5583 54.7896C12.8367 54.4956 13.2233 54.2309 13.7183 53.9955L14.0637 53.8313L15.9363 57.9773L15.2318 58.3124L13.7388 55.0067C13.4395 55.1491 13.1998 55.3368 13.0198 55.5698C12.8388 55.8006 12.7304 56.0591 12.6947 56.3455C12.658 56.6295 12.7071 56.9209 12.8421 57.2197C12.9908 57.5489 13.2 57.7954 13.4698 57.9592C13.7362 58.1218 14.0261 58.2065 14.3397 58.2134C14.6532 58.2202 14.9562 58.1542 15.2486 58.0151L15.7183 57.7918C16.1189 57.6013 16.4268 57.3698 16.6421 57.0972C16.8541 56.8234 16.9757 56.526 17.0068 56.2049C17.0357 55.8849 16.9747 55.558 16.8239 55.2242C16.7259 55.0071 16.6074 54.8252 16.4684 54.6786C16.3261 54.5307 16.165 54.4216 15.985 54.3512C15.8027 54.2819 15.6036 54.2561 15.3878 54.2736L15.2482 53.3701C15.5532 53.3272 15.8518 53.3568 16.1441 53.4588C16.434 53.562 16.7013 53.7327 16.9459 53.9709C17.1882 54.2101 17.3916 54.5118 17.5561 54.876Z" stroke="#363636" stroke-width="2" mask="url(#path-1-outside-1_19_135)"/>
<path d="M9.95482 50.9344L11.982 49.0096L9.33577 48.1724L9.10699 47.1516L12.3818 48.3479L14.8222 45.8216L15.051 46.8423L13.1429 48.7394L15.67 49.6043L15.8988 50.6251L12.6308 49.4588L10.1836 51.9551L9.95482 50.9344Z" stroke="#363636" stroke-width="2" mask="url(#path-1-outside-1_19_135)"/>
<path d="M15.5221 42.2495C15.5314 42.7829 15.4135 43.2525 15.1685 43.6583C14.9234 44.0615 14.5763 44.3789 14.1271 44.6103C13.6778 44.8391 13.1503 44.9574 12.5444 44.965C11.9334 44.9728 11.3982 44.868 10.9386 44.6507C10.479 44.4308 10.1197 44.1224 9.86073 43.7255C9.6017 43.3261 9.46755 42.8597 9.45827 42.3263C9.44899 41.7929 9.56688 41.3246 9.81195 40.9214C10.057 40.5156 10.4054 40.1982 10.8572 39.9693C11.3089 39.7379 11.8403 39.6183 12.4512 39.6106C13.0571 39.6029 13.5886 39.709 14.0456 39.929C14.5027 40.1463 14.8607 40.4547 15.1197 40.8541C15.3787 41.251 15.5128 41.7161 15.5221 42.2495ZM14.7126 42.2598C14.7055 41.8546 14.5966 41.5225 14.3859 41.2636C14.1751 41.0046 13.9006 40.8144 13.5624 40.693C13.2242 40.5716 12.8591 40.5134 12.467 40.5184C12.075 40.5233 11.7108 40.5908 11.3744 40.7207C11.038 40.8507 10.7677 41.0478 10.5635 41.312C10.3593 41.5762 10.2607 41.9109 10.2678 42.3161C10.2748 42.7212 10.385 43.0533 10.5983 43.3122C10.8116 43.5711 11.0886 43.7613 11.4294 43.8826C11.7702 44.004 12.1366 44.0622 12.5286 44.0572C12.9206 44.0523 13.2836 43.9848 13.6174 43.8549C13.9513 43.725 14.219 43.528 14.4207 43.2638C14.6223 42.9996 14.7196 42.6649 14.7126 42.2598ZM8.74761 42.7508L6.95948 41.8347L6.94101 40.7731L8.73369 41.9507L8.74761 42.7508Z" stroke="#363636" stroke-width="2" mask="url(#path-1-outside-1_19_135)"/>
<path d="M10.4931 33.0127L11.2414 33.1666L10.675 36.1754L9.92663 36.0214L10.4931 33.0127ZM8.71481 34.8613L8.88274 33.9692L14.3605 35.0961C14.6099 35.1474 14.8039 35.1493 14.9424 35.1019C15.0788 35.0514 15.1792 34.9726 15.2434 34.8654C15.3056 34.7552 15.349 34.6346 15.3737 34.5035C15.3922 34.4053 15.4024 34.3236 15.4043 34.2586C15.4037 34.193 15.4032 34.1405 15.4028 34.1012L16.2302 34.0829C16.2413 34.148 16.2478 34.2371 16.2499 34.35C16.2544 34.4635 16.241 34.6034 16.2097 34.7697C16.1623 35.0217 16.0622 35.2576 15.9094 35.4775C15.757 35.6948 15.5562 35.8603 15.3068 35.9739C15.0579 36.0849 14.7663 36.1061 14.432 36.0373L8.71481 34.8613Z" stroke="#363636" stroke-width="2" mask="url(#path-1-outside-1_19_135)"/>
<path d="M17.6588 29.8656L12.289 27.4876L12.6346 26.649L18.0044 29.0271L17.6588 29.8656ZM11.5697 26.6649C11.5024 26.8283 11.3895 26.945 11.2312 27.0149C11.0738 27.0825 10.9182 27.0822 10.7644 27.0141C10.6105 26.9459 10.5028 26.8296 10.4411 26.665C10.3804 26.4981 10.3837 26.3329 10.451 26.1694C10.5184 26.006 10.6308 25.8905 10.7881 25.8229C10.9465 25.753 11.1026 25.7521 11.2564 25.8202C11.4102 25.8883 11.5175 26.0059 11.5782 26.1728C11.6399 26.3374 11.6371 26.5014 11.5697 26.6649Z" stroke="#363636" stroke-width="2" mask="url(#path-1-outside-1_19_135)"/>
<path d="M21.1044 23.7256C20.7933 24.1824 20.4201 24.4992 19.9848 24.676C19.5495 24.8528 19.0866 24.8957 18.596 24.8047C18.1055 24.7137 17.6228 24.4956 17.1479 24.1504C16.6648 23.7992 16.3005 23.3984 16.0548 22.9479C15.8085 22.4937 15.6928 22.027 15.7075 21.5476C15.7217 21.0646 15.8786 20.6032 16.1782 20.1633C16.4115 19.8207 16.6838 19.557 16.9949 19.3721C17.3061 19.1873 17.6329 19.0881 17.9754 19.0747C18.3179 19.0613 18.6523 19.1414 18.9784 19.3153L18.4684 20.0639C18.2127 19.9634 17.9343 19.9507 17.6331 20.0258C17.3313 20.0973 17.068 20.298 16.8433 20.6279C16.6445 20.9197 16.5446 21.2296 16.5434 21.5576C16.5416 21.882 16.6331 22.2031 16.818 22.5209C17.0022 22.835 17.2739 23.1227 17.6331 23.3838C18.0006 23.6509 18.3609 23.8244 18.7141 23.9041C19.0687 23.9816 19.3956 23.9663 19.6946 23.858C19.9952 23.7476 20.2463 23.5444 20.4479 23.2484C20.5805 23.0538 20.6677 22.8532 20.7097 22.6466C20.7517 22.4399 20.7482 22.2366 20.6992 22.0366C20.6502 21.8366 20.5549 21.6503 20.4132 21.4777L20.9231 20.7291C21.1751 20.9755 21.3567 21.264 21.4679 21.5947C21.5785 21.9217 21.607 22.2696 21.5533 22.6385C21.4989 23.0037 21.3493 23.3661 21.1044 23.7256Z" stroke="#363636" stroke-width="2" mask="url(#path-1-outside-1_19_135)"/>
<path d="M25.3256 18.4009C25.0561 18.6587 24.7644 18.8404 24.4506 18.9461C24.1351 19.0499 23.8229 19.0639 23.514 18.988C23.2035 18.9103 22.9199 18.729 22.6633 18.4441C22.4374 18.1933 22.3024 17.9442 22.2581 17.6966C22.2121 17.4471 22.2293 17.2009 22.3095 16.958C22.3897 16.7151 22.5071 16.4791 22.6616 16.25C22.8162 16.0172 22.9804 15.793 23.154 15.5775C23.3816 15.296 23.5681 15.07 23.7133 14.8992C23.8587 14.7248 23.9486 14.5805 23.9831 14.4661C24.0195 14.35 23.9889 14.2379 23.8914 14.1296L23.8709 14.1068C23.6177 13.8257 23.3462 13.6788 23.0563 13.6661C22.7684 13.6516 22.4739 13.7883 22.173 14.0761C21.8609 14.3746 21.6796 14.6788 21.629 14.9889C21.5783 15.299 21.5888 15.5683 21.6605 15.7967L20.8349 16.1621C20.7062 15.7902 20.6674 15.4419 20.7186 15.1172C20.7699 14.7887 20.8789 14.49 21.0456 14.221C21.2124 13.9483 21.4029 13.7095 21.6171 13.5047C21.7537 13.374 21.926 13.241 22.1341 13.1056C22.3422 12.9666 22.5756 12.8689 22.8341 12.8126C23.0945 12.7544 23.3733 12.7759 23.6706 12.877C23.9678 12.9781 24.273 13.2024 24.586 13.55L27.1829 16.4334L26.5293 17.0586L25.9956 16.4659L25.9623 16.4977C26.0036 16.6351 26.0212 16.8074 26.0154 17.0145C26.0095 17.2217 25.9549 17.4454 25.8516 17.6856C25.7484 17.9258 25.573 18.1642 25.3256 18.4009ZM24.8813 17.7015C25.1398 17.4542 25.3106 17.1936 25.3938 16.9196C25.4788 16.6438 25.4921 16.3801 25.4337 16.1283C25.3772 15.8747 25.2668 15.6568 25.1026 15.4744L24.5483 14.859C24.5514 14.9197 24.5187 15.0093 24.4502 15.1278C24.3818 15.2427 24.2961 15.3689 24.1931 15.5064C24.0902 15.6401 23.9884 15.7694 23.8876 15.8941C23.7869 16.0151 23.7058 16.1139 23.6442 16.1905C23.4949 16.3758 23.3695 16.5647 23.2679 16.7572C23.1666 16.9461 23.116 17.1342 23.1162 17.3214C23.1165 17.5049 23.1937 17.6822 23.3476 17.8531C23.558 18.0868 23.8011 18.1831 24.0769 18.142C24.3529 18.0973 24.621 17.9505 24.8813 17.7015Z" stroke="#363636" stroke-width="2" mask="url(#path-1-outside-1_19_135)"/>
<path d="M31.4861 10.0083L30.7785 10.474C30.6918 10.359 30.583 10.2549 30.4523 10.1619C30.3233 10.0656 30.1668 10.0023 29.9827 9.97178C29.7987 9.9413 29.5816 9.96563 29.3314 10.0448C28.9889 10.1531 28.7269 10.3233 28.5453 10.5555C28.3655 10.7844 28.3112 11.0206 28.3824 11.2642C28.4458 11.4807 28.5735 11.6271 28.7656 11.7034C28.9578 11.7797 29.2313 11.8074 29.5861 11.7866L30.4772 11.7304C31.0136 11.6952 31.4415 11.7654 31.7609 11.9412C32.0797 12.1146 32.2969 12.3993 32.4128 12.7954C32.5078 13.1201 32.5004 13.4396 32.3906 13.7539C32.2833 14.0674 32.0873 14.3498 31.8025 14.6011C31.5178 14.8525 31.1581 15.0469 30.7233 15.1844C30.1525 15.365 29.6433 15.389 29.1959 15.2563C28.7484 15.1237 28.4044 14.8321 28.1637 14.3814L28.9194 13.9166C29.0864 14.197 29.3002 14.3793 29.561 14.4635C29.8243 14.5469 30.132 14.5329 30.4842 14.4215C30.885 14.2947 31.178 14.1079 31.3632 13.8612C31.5501 13.6112 31.608 13.3644 31.5368 13.1209C31.4792 12.9241 31.363 12.7807 31.1881 12.6909C31.0125 12.5986 30.7741 12.5638 30.4729 12.5865L29.4754 12.6602C28.9269 12.6993 28.4947 12.6277 28.1786 12.4455C27.8643 12.26 27.6499 11.9716 27.5355 11.5805C27.442 11.2606 27.4479 10.9497 27.5532 10.6476C27.661 10.3447 27.8486 10.0743 28.1161 9.83653C28.386 9.59795 28.7177 9.41642 29.1112 9.29195C29.665 9.11677 30.1357 9.10224 30.5235 9.24838C30.9136 9.39375 31.2345 9.64704 31.4861 10.0083Z" stroke="#363636" stroke-width="2" mask="url(#path-1-outside-1_19_135)"/>
<path d="M16.5 42C16.5 57.7401 29.2599 70.5 45 70.5C60.7401 70.5 73.5 57.7401 73.5 42C73.5 26.2599 60.7401 13.5 45 13.5C29.2599 13.5 16.5 26.2599 16.5 42Z" stroke="black"/>
</g>
<defs>
<filter id="filter0_d_19_135" x="0" y="0" width="90" height="90" filterUnits="userSpaceOnUse" color-interpolation-filters="sRGB">
<feFlood flood-opacity="0" result="BackgroundImageFix"/>
<feColorMatrix in="SourceAlpha" type="matrix" values="0 0 0 0 0 0 0 0 0 0 0 0 0 0 0 0 0 0 127 0" result="hardAlpha"/>
<feOffset dy="4"/>
<feGaussianBlur stdDeviation="2"/>
<feComposite in2="hardAlpha" operator="out"/>
<feColorMatrix type="matrix" values="0 0 0 0 0 0 0 0 0 0 0 0 0 0 0 0 0 0 0.25 0"/>
<feBlend mode="normal" in2="BackgroundImageFix" result="effect1_dropShadow_19_135"/>
<feBlend mode="normal" in="SourceGraphic" in2="effect1_dropShadow_19_135" result="shape"/>
</filter>
</defs>
</svg>
