<svg width="82" height="82" viewBox="0 0 82 82" fill="none" xmlns="http://www.w3.org/2000/svg">
<mask id="path-1-outside-1_19_129" maskUnits="userSpaceOnUse" x="0" y="0" width="82" height="82" fill="black">
<rect fill="white" width="82" height="82"/>
<path d="M80.9988 40.6943C81.1652 62.7851 63.3919 80.83 41.3012 80.9988C19.2104 81.1676 1.16749 63.3964 1.00116 41.3057C0.834827 19.2149 18.6081 1.17 40.6988 1.00119C62.7896 0.832383 80.8325 18.6036 80.9988 40.6943Z"/>
<path d="M48.0269 27.823C48.3646 29.9031 48.2296 30.1631 46.0006 31.1381C43.9068 32.1132 42.2857 32.2432 34.5183 31.7882L25.9206 31.3527C25.6639 31.3397 25.4066 31.346 25.1508 31.3717L24.6655 31.4203C23.1904 31.5682 21.8961 32.4741 21.2439 33.8151C20.9564 34.406 20.807 35.0554 20.807 35.7134V45.5686C20.807 57.594 21.0096 58.244 23.7789 57.984C25.2649 57.854 25.8052 57.529 25.6026 56.814C24.8596 54.4089 24.7921 51.1588 25.4675 49.5987C26.1429 47.9087 26.2105 47.8437 32.8972 47.9087H39.7191V51.3538C39.7191 56.4239 40.5972 58.114 43.1638 58.114C44.7848 58.114 45.1901 57.919 44.8524 57.074C43.0287 52.4588 43.6366 50.0537 46.8111 49.0137C49.3102 48.2337 51.8769 45.6336 51.8769 43.8786C51.8769 43.1635 51.3365 43.4235 50.2558 44.7886C49.3778 45.8286 48.4997 46.6086 48.3646 46.4136C47.0138 44.8536 45.1901 40.9535 45.5278 40.4334C46.2033 39.3934 50.2558 37.9634 52.5523 37.9634H54.6462L53.2277 39.3934C52.4848 40.1734 51.8769 41.0185 51.8769 41.3435C51.8769 42.3185 53.0927 41.8635 54.0383 40.4984C54.7137 39.4584 55.9295 39.0034 58.9689 38.6784C62.8189 38.2884 62.954 38.2234 63.5619 36.0133C63.9671 34.4532 63.8996 33.6732 63.3592 33.5432C62.954 33.4132 62.3461 32.9582 62.0084 32.5032C57.9558 27.563 57.0777 26.913 54.9163 26.913C53.633 26.913 52.4172 26.588 52.2146 26.263C52.012 25.873 50.8637 25.613 49.7155 25.613C47.7567 25.613 47.6892 25.678 48.0269 27.823ZM52.9576 28.5381C54.1058 30.2281 55.4567 30.1631 54.7812 28.4731C54.4435 27.693 54.7137 27.628 56.1997 28.2781C57.1453 28.7331 57.9558 29.2531 57.9558 29.5131C57.9558 29.7081 59.0365 31.0081 60.3198 32.4382C61.9408 34.1282 62.6163 35.2983 62.2785 36.1433C61.9408 37.2483 61.3329 37.3133 55.7268 37.0533L49.5129 36.7283L48.5673 34.3882C47.7567 32.3082 47.7567 31.9182 48.5673 31.4632C49.0401 31.1381 50.2558 31.0731 51.2015 31.2681L52.89 31.6582L51.0664 29.9681C49.9857 29.0581 49.1752 27.953 49.1752 27.563C49.1752 26.263 51.8769 26.913 52.9576 28.5381ZM30.6683 33.8032C30.4657 34.3882 30.2631 35.0383 30.2631 35.2983C30.2631 35.6233 29.5201 36.5983 28.5069 37.6384C26.7508 39.4584 26.7508 40.6935 28.5069 39.3284C30.8709 37.4433 34.3156 40.8885 34.3156 45.1786V47.1937L30.4657 46.7386C28.3718 46.4786 25.6701 45.8286 24.3868 45.2436C21.6851 44.0086 21.4149 42.0585 23.8464 41.4735C24.792 41.2785 25.535 40.8235 25.535 40.4984C25.535 40.1734 24.792 40.0434 23.8464 40.3034C22.293 40.6934 22.1579 40.4984 22.1579 38.4184C22.1579 35.2333 24.8596 32.7632 28.3718 32.7632C30.6008 32.7632 31.006 32.9582 30.6683 33.8032ZM36.4095 33.4132C37.3551 33.4132 37.2875 33.9332 35.7341 36.5983L33.9779 39.8484L32.492 38.4834C31.3437 37.4433 31.0736 36.6633 31.4113 35.4283C32.0192 32.8932 32.2893 32.6332 33.9104 33.0232C34.6534 33.2182 35.8016 33.4132 36.4095 33.4132ZM47.1489 34.4533C48.162 36.9883 47.9594 37.5734 45.6629 38.8084C43.6366 39.9134 43.5015 39.9134 42.1507 38.7434C41.3401 38.0284 40.0568 37.1183 39.1788 36.6633C37.6928 35.9483 37.6253 35.8183 38.706 34.7133C39.3814 33.9982 41.0024 33.3482 42.3533 33.2182C43.7042 33.0882 45.1901 32.9582 45.6629 32.8932C46.1357 32.8282 46.8111 33.5432 47.1489 34.4533ZM41.0024 39.3934C44.2445 41.6685 44.1094 41.9285 38.5709 42.7735C35.7341 43.1635 35.6665 43.1635 35.6665 41.2785C35.6665 38.8084 36.2744 37.3133 37.2875 37.3133C37.7604 37.3133 39.4489 38.2234 41.0024 39.3934ZM46.2032 45.1786C47.0813 46.8686 47.1489 47.3237 46.3383 47.7787C45.1901 48.4937 44.4471 48.4937 44.4471 47.7137C44.4471 46.4136 41.8805 45.7636 38.7735 46.3486C36.0042 46.8686 35.6665 46.7386 35.6665 45.6986C35.6665 44.9836 36.2744 44.3336 37.22 44.2036C38.0305 44.0086 39.3138 43.7485 40.0568 43.6185C43.8392 42.8385 45.055 43.1635 46.2032 45.1786ZM24.0491 46.6086C24.5894 47.2587 24.5894 48.1687 24.1166 49.9887C23.7114 51.3538 23.5087 53.4989 23.7114 54.7339C23.9815 56.2289 23.8464 56.814 23.3061 56.619C22.7658 56.489 22.428 54.4739 22.293 51.0938C22.0903 45.8936 22.5631 44.8536 24.0491 46.6086ZM43.0287 47.9087C43.5691 48.5587 43.5015 49.3387 42.9612 50.8338C42.3533 52.3938 42.2857 53.3689 42.8936 54.8639C43.5015 56.424 43.5015 56.814 42.7585 56.814C41.4752 56.814 41.07 55.3189 41.07 50.8988C41.07 47.0637 41.6103 46.2836 43.0287 47.9087Z"/>
<path d="M42.88 11.6513L40.4773 11.4218L41.1401 3.57107L43.6493 3.81075C44.4046 3.8829 45.0376 4.1018 45.5484 4.46746C46.0594 4.83056 46.4334 5.31841 46.6704 5.93099C46.9076 6.54101 46.9919 7.25236 46.9233 8.06503C46.8542 8.88281 46.6503 9.57307 46.3115 10.1358C45.973 10.696 45.514 11.1081 44.9348 11.3722C44.3557 11.6338 43.6708 11.7268 42.88 11.6513ZM41.4913 10.6685L42.8904 10.8021C43.5341 10.8636 44.0782 10.7894 44.5226 10.5793C44.9671 10.3693 45.3127 10.043 45.5596 9.60027C45.8065 9.15756 45.9569 8.61677 46.0108 7.97787C46.0643 7.34409 46.0078 6.78868 45.8411 6.31162C45.6746 5.83201 45.3977 5.45005 45.0104 5.16573C44.6233 4.87887 44.1256 4.70638 43.5173 4.64828L42.0118 4.50447L41.4913 10.6685Z"/>
<path d="M49.6476 13.1904C49.109 13.0178 48.6802 12.7485 48.361 12.3825C48.045 12.0148 47.8459 11.5796 47.7638 11.077C47.6849 10.5727 47.7314 10.0306 47.9034 9.45063C48.0754 8.87067 48.3313 8.39295 48.6711 8.01747C49.0141 7.64032 49.4104 7.38789 49.8601 7.2602C50.3129 7.13083 50.7916 7.14701 51.2962 7.30873C51.5873 7.40203 51.8603 7.54332 52.115 7.73258C52.3697 7.92185 52.5807 8.16439 52.748 8.46021C52.916 8.75356 53.0156 9.10302 53.0468 9.50859C53.078 9.91416 53.0152 10.3811 52.8585 10.9095L52.7492 11.2781L48.4405 9.89723L48.6635 9.14524L52.0988 10.2462C52.1935 9.92673 52.215 9.62145 52.1632 9.33036C52.1138 9.04004 51.9953 8.78546 51.8079 8.5666C51.6228 8.34853 51.375 8.18973 51.0645 8.09021C50.7224 7.98058 50.4009 7.97173 50.1 8.06367C49.8022 8.15393 49.5462 8.31407 49.3319 8.54408C49.1176 8.7741 48.9641 9.04516 48.8716 9.35725L48.7229 9.85858C48.5961 10.2862 48.5614 10.672 48.6188 11.016C48.6793 11.3583 48.8176 11.6489 49.0337 11.8877C49.2506 12.124 49.5325 12.2978 49.8794 12.4089C50.105 12.4812 50.3183 12.5146 50.5192 12.509C50.7232 12.5018 50.9113 12.4544 51.0834 12.3669C51.2561 12.277 51.4081 12.1454 51.5392 11.9721L52.2989 12.4739C52.1271 12.731 51.9059 12.9346 51.6356 13.0848C51.366 13.2325 51.0617 13.318 50.7227 13.3412C50.3845 13.362 50.0261 13.3117 49.6476 13.1904Z"/>
<path d="M59.4101 8.94441L55.6794 15.8693L54.8973 15.4182L58.6279 8.49337L59.4101 8.94441Z"/>
<path d="M60.0728 18.216L63.879 13.7197L64.5507 14.325L60.7445 18.8213L60.0728 18.216ZM64.4286 13.1416L66.2728 12.4092L67.0584 13.1171L65.0206 13.6751L64.4286 13.1416Z"/>
<path d="M65.4218 23.8235C65.0964 23.3769 64.9193 22.9128 64.8905 22.4311C64.8616 21.9495 64.9648 21.4822 65.2 21.0293C65.4352 20.5764 65.7852 20.1706 66.25 19.8118C66.7229 19.4468 67.205 19.2136 67.6963 19.1122C68.1911 19.0113 68.6574 19.0424 69.095 19.2053C69.5361 19.3688 69.9133 19.6655 70.2266 20.0956C70.4707 20.4305 70.63 20.7792 70.7046 21.1416C70.7791 21.504 70.7698 21.8552 70.6766 22.1953C70.5833 22.5354 70.4063 22.8384 70.1454 23.1044L69.6121 22.3724C69.7837 22.1528 69.8812 21.8837 69.9048 21.565C69.932 21.2469 69.828 20.9266 69.593 20.604C69.3851 20.3187 69.1301 20.1247 68.8279 20.0219C68.5293 19.9197 68.2049 19.91 67.8549 19.9929C67.5083 20.0762 67.1592 20.2536 66.8075 20.5251C66.4478 20.8027 66.1767 21.1024 65.9943 21.4241C65.8134 21.7478 65.7268 22.0731 65.7344 22.4C65.7436 22.7289 65.8536 23.038 66.0645 23.3275C66.2031 23.5177 66.3612 23.6654 66.5388 23.7706C66.7165 23.8757 66.9051 23.9353 67.1047 23.9492C67.3043 23.9631 67.5055 23.9273 67.7084 23.8418L68.2417 24.5737C67.9367 24.7445 67.6146 24.8333 67.2753 24.8399C66.9395 24.8471 66.6098 24.7673 66.2861 24.6004C65.966 24.434 65.6779 24.175 65.4218 23.8235Z"/>
<path d="M68.0636 28.7415L73.368 26.2191L73.7413 27.0455L68.4368 29.5679L68.0636 28.7415ZM74.4419 26.2189C74.3692 26.0578 74.3605 25.8932 74.416 25.725C74.4726 25.5592 74.5768 25.4401 74.7288 25.3679C74.8807 25.2956 75.0366 25.2909 75.1965 25.3539C75.3574 25.4191 75.4743 25.5323 75.547 25.6934C75.6198 25.8545 75.6279 26.0179 75.5713 26.1838C75.5159 26.352 75.4121 26.4722 75.2602 26.5444C75.1082 26.6167 74.9518 26.6202 74.7909 26.5549C74.631 26.492 74.5147 26.38 74.4419 26.2189Z"/>
<path d="M71.4461 35.2586C71.3642 34.8933 71.3582 34.546 71.4279 34.2165C71.5001 33.8865 71.6467 33.6036 71.868 33.3678C72.0916 33.1315 72.3895 32.9701 72.7616 32.8835C73.0891 32.8073 73.3691 32.8105 73.6016 32.8933C73.8367 32.9755 74.0369 33.1118 74.2022 33.3024C74.3676 33.4929 74.5083 33.7129 74.6242 33.9623C74.7432 34.2136 74.85 34.4691 74.9447 34.7287C75.0679 35.0685 75.165 35.3447 75.2361 35.5572C75.3103 35.7716 75.3871 35.9222 75.4666 36.0089C75.5466 36.0982 75.6573 36.1264 75.7987 36.0935L75.8285 36.0866C76.1956 36.0012 76.4582 35.8335 76.6162 35.5835C76.7747 35.336 76.8083 35.0084 76.7169 34.6006C76.6221 34.1778 76.456 33.8676 76.2187 33.6702C75.9813 33.4727 75.7475 33.3495 75.5172 33.3004L75.6265 32.3905C76.0074 32.4598 76.3226 32.597 76.5722 32.8022C76.8248 33.0092 77.0229 33.2527 77.1665 33.5325C77.3132 33.8142 77.4191 34.1002 77.4841 34.3904C77.5256 34.5756 77.5509 34.7934 77.5601 35.044C77.5723 35.2965 77.5367 35.5509 77.4532 35.8072C77.3703 36.0661 77.2105 36.302 76.9737 36.515C76.737 36.7281 76.3916 36.8874 75.9377 36.993L72.1722 37.8693L71.9737 36.9837L72.7476 36.8036L72.7375 36.7585C72.6001 36.7274 72.4449 36.6582 72.2721 36.551C72.0993 36.4438 71.9372 36.2854 71.7859 36.0758C71.6345 35.8662 71.5213 35.5938 71.4461 35.2586ZM72.2652 35.2101C72.3437 35.5604 72.4781 35.8397 72.6684 36.0481C72.8592 36.2591 73.0762 36.4007 73.3195 36.4731C73.5634 36.5479 73.8044 36.5577 74.0425 36.5022L74.8462 36.3152C74.7931 36.2881 74.7337 36.215 74.6679 36.0961C74.6051 35.9791 74.5416 35.8412 74.4773 35.6824C74.4161 35.5256 74.3581 35.3719 74.3035 35.2214C74.2519 35.0729 74.2093 34.9525 74.1756 34.8603C74.0942 34.6371 73.9976 34.4332 73.8858 34.2486C73.777 34.066 73.6431 33.9287 73.4842 33.8367C73.3283 33.7466 73.1387 33.7275 72.9155 33.7795C72.6104 33.8505 72.4052 34.018 72.2999 34.282C72.1977 34.548 72.1862 34.8574 72.2652 35.2101Z"/>
<path d="M76.9964 44.2421L76.753 43.4295C76.8871 43.3765 77.0168 43.2992 77.1424 43.1976C77.2705 43.0985 77.3751 42.9638 77.4562 42.7935C77.5372 42.6232 77.5754 42.406 77.5708 42.1418C77.5645 41.7802 77.4765 41.48 77.3068 41.241C77.1397 41.0046 76.9302 40.8879 76.6782 40.8911C76.4541 40.8939 76.2786 40.9782 76.1517 41.144C76.0247 41.3097 75.921 41.5675 75.8405 41.9174L75.642 42.7971C75.5239 43.327 75.3361 43.7231 75.0784 43.9854C74.8233 44.2476 74.4907 44.3814 74.0809 44.3865C73.7449 44.3908 73.4428 44.2971 73.1746 44.1055C72.9065 43.9165 72.6931 43.6499 72.5343 43.3056C72.3755 42.9614 72.2921 42.5597 72.2841 42.1007C72.2736 41.4981 72.3947 40.9977 72.6474 40.5995C72.9002 40.2013 73.2751 39.9465 73.7723 39.8351L74.0012 40.694C73.6869 40.78 73.4529 40.9382 73.299 41.1684C73.1452 41.4012 73.0716 41.7035 73.0781 42.0753C73.0855 42.4984 73.1804 42.8333 73.363 43.0798C73.5481 43.3288 73.7667 43.4517 74.0187 43.4485C74.2223 43.446 74.3917 43.372 74.5266 43.2267C74.6641 43.0813 74.7646 42.8595 74.8282 42.5611L75.0401 41.5735C75.1579 41.0308 75.3483 40.6308 75.6112 40.3736C75.8766 40.1189 76.2117 39.989 76.6165 39.9839C76.9474 39.9797 77.2418 40.0696 77.4997 40.2536C77.7575 40.4402 77.9619 40.6954 78.1127 41.0192C78.2635 41.3457 78.3425 41.7166 78.3498 42.132C78.36 42.7167 78.2407 43.1773 77.992 43.5139C77.7433 43.853 77.4114 44.0958 76.9964 44.2421Z"/>
<path d="M68.7022 53.8348C68.8896 53.38 69.1681 53.0286 69.5377 52.7805C69.9096 52.5334 70.3435 52.4035 70.8394 52.3906C71.3376 52.3787 71.8711 52.4987 72.4398 52.7506C73.0038 53.0004 73.4527 53.3154 73.7865 53.6957C74.1204 54.0761 74.328 54.4916 74.4096 54.9423C74.4912 55.3929 74.4373 55.8481 74.2479 56.3076C74.1015 56.6629 73.9275 56.9178 73.726 57.0723C73.5259 57.2301 73.33 57.331 73.1382 57.375C72.9479 57.4223 72.7934 57.4561 72.6748 57.4764L72.6455 57.5475L75.2884 58.7179L74.9428 59.5565L67.7831 56.3857L68.117 55.5756L68.942 55.941L68.983 55.8415C68.9105 55.7366 68.8231 55.5942 68.7208 55.4145C68.6208 55.2357 68.556 55.0152 68.5264 54.7528C68.4991 54.4914 68.5577 54.1854 68.7022 53.8348ZM69.3965 54.2767C69.2578 54.6131 69.2269 54.9355 69.3037 55.244C69.3828 55.5536 69.5513 55.8369 69.8092 56.0939C70.0693 56.352 70.4022 56.5708 70.8077 56.7504C71.2086 56.928 71.5838 57.0241 71.9332 57.0388C72.285 57.0545 72.5927 56.9835 72.8561 56.8257C73.122 56.6689 73.3252 56.4199 73.4658 56.0789C73.6122 55.7235 73.6445 55.3877 73.5627 55.0714C73.4822 54.7584 73.3137 54.4751 73.0572 54.2215C72.8021 53.9712 72.4857 53.7625 72.1081 53.5953C71.7259 53.426 71.3543 53.3315 70.9931 53.3116C70.6334 53.2951 70.3131 53.3634 70.0323 53.5163C69.7529 53.6727 69.5409 53.9262 69.3965 54.2767Z"/>
<path d="M65.951 59.4405C66.1613 59.1317 66.409 58.8928 66.6939 58.7237C66.981 58.5561 67.2833 58.4771 67.6009 58.4866C67.9206 58.4977 68.2352 58.6158 68.5449 58.8409C68.8174 59.039 69.0009 59.2546 69.0952 59.4876C69.1917 59.7222 69.2258 59.9667 69.1975 60.2212C69.1692 60.4757 69.1032 60.7313 68.9994 60.9878C68.8962 61.248 68.782 61.5018 68.6568 61.749C68.4923 62.0721 68.3567 62.3324 68.2499 62.5299C68.1438 62.731 68.0857 62.8911 68.0755 63.0102C68.064 63.1315 68.117 63.2348 68.2347 63.3204L68.2595 63.3384C68.565 63.5605 68.8608 63.6475 69.1467 63.5992C69.4313 63.5531 69.6909 63.3577 69.9257 63.013C70.1692 62.6556 70.2837 62.3199 70.2692 62.0058C70.2547 61.6917 70.1888 61.4304 70.0716 61.2219L70.8034 60.6914C71.006 61.0284 71.1157 61.3612 71.1327 61.6897C71.1503 62.0219 71.1054 62.3371 70.998 62.6352C70.8912 62.937 70.7542 63.2106 70.5871 63.4559C70.4805 63.6124 70.3395 63.7786 70.1641 63.9546C69.9893 64.1343 69.7813 64.2787 69.5401 64.388C69.2976 64.4994 69.0206 64.5367 68.7091 64.5C68.3976 64.4633 68.053 64.3076 67.6752 64.033L64.5413 61.7547L65.0512 61.0061L65.6954 61.4744L65.7213 61.4363C65.6526 61.3105 65.5998 61.1456 65.5628 60.9416C65.5258 60.7377 65.533 60.5073 65.5844 60.2506C65.6358 59.9939 65.758 59.7239 65.951 59.4405ZM66.5297 60.032C66.3281 60.328 66.2148 60.6188 66.1901 60.9044C66.1639 61.1921 66.2053 61.453 66.3144 61.6872C66.422 61.9235 66.5748 62.1137 66.773 62.2578L67.4419 62.7441C67.4264 62.6853 67.4398 62.5908 67.4823 62.4604C67.5255 62.3337 67.5832 62.1922 67.6556 62.0362C67.7286 61.8837 67.8015 61.7359 67.8743 61.5928C67.9477 61.4533 68.0066 61.3396 68.051 61.2517C68.1588 61.0392 68.2424 60.828 68.3019 60.6183C68.362 60.4122 68.3726 60.2176 68.3338 60.0344C68.2956 59.8549 68.1836 59.6976 67.9978 59.5625C67.7439 59.3779 67.4863 59.3345 67.2252 59.4324C66.9646 59.5339 66.7328 59.7338 66.5297 60.032Z"/>
<path d="M63.1452 69.6626L63.5784 68.9301C63.706 68.9955 63.8485 69.0412 64.0061 69.0673C64.1635 69.097 64.3313 69.085 64.5096 69.0311C64.6879 68.9772 64.8722 68.8594 65.0623 68.6775C65.3227 68.4285 65.484 68.1592 65.5464 67.8698C65.6086 67.584 65.555 67.3471 65.3856 67.159C65.2351 66.9919 65.0571 66.9163 64.8517 66.9325C64.6463 66.9486 64.389 67.0445 64.0797 67.2201L63.3046 67.6645C62.8387 67.9333 62.4244 68.0591 62.0618 68.0418C61.7008 68.0264 61.3826 67.8658 61.1072 67.56C60.8814 67.3093 60.7497 67.018 60.7121 66.6863C60.6726 66.3563 60.7262 66.0151 60.8728 65.6627C61.0194 65.3103 61.258 64.9761 61.5884 64.66C62.0223 64.245 62.4687 63.9984 62.9275 63.9202C63.3863 63.842 63.8212 63.9528 64.2322 64.2527L63.7556 65.0056C63.4843 64.8266 63.2136 64.7568 62.9432 64.7962C62.6709 64.8374 62.401 64.986 62.1333 65.242C61.8286 65.5334 61.6466 65.8312 61.5873 66.1355C61.5278 66.4434 61.5828 66.6914 61.7521 66.8795C61.889 67.0314 62.0553 67.1092 62.2511 67.1129C62.4485 67.1185 62.6775 67.0445 62.9378 66.8909L63.8008 66.3838C64.2759 66.1061 64.6946 65.9796 65.057 66.0042C65.4193 66.0325 65.7364 66.1976 66.0084 66.4997C66.2308 66.7466 66.3602 67.0295 66.3965 67.3484C66.4309 67.669 66.3797 67.9956 66.2427 68.3281C66.1039 68.6624 65.8849 68.9726 65.5858 69.2587C65.1649 69.6614 64.7489 69.8825 64.3378 69.9221C63.9248 69.9635 63.5273 69.877 63.1452 69.6626Z"/>
<path d="M49.9296 75.9025L50.8243 75.5897C50.964 75.8313 51.1329 76.0274 51.3309 76.178C51.5265 76.3295 51.7405 76.4393 51.9727 76.5074C52.2033 76.5788 52.4431 76.609 52.6919 76.598C52.9407 76.587 53.1877 76.5386 53.4331 76.4528C53.8804 76.2963 54.2475 76.0404 54.5344 75.6848C54.8189 75.3302 54.9939 74.8929 55.0594 74.3732C55.1225 73.8543 55.0462 73.2716 54.8303 72.6249C54.6144 71.9783 54.3264 71.4695 53.9662 71.0987C53.6036 70.7287 53.2038 70.4925 52.7667 70.3902C52.3273 70.2887 51.8839 70.3161 51.4365 70.4726C51.1912 70.5584 50.9669 70.6748 50.7635 70.822C50.5602 70.9691 50.3882 71.1419 50.2477 71.3404C50.1055 71.5421 50.0024 71.7642 49.9382 72.0065C49.8725 72.2521 49.8562 72.513 49.8893 72.7892L48.9946 73.1021C48.9345 72.6968 48.9432 72.3124 49.0205 71.9487C49.0979 71.585 49.2335 71.2512 49.4275 70.9472C49.6222 70.6456 49.8661 70.3825 50.1591 70.1578C50.4496 69.9341 50.7813 69.757 51.1541 69.6266C51.7842 69.4062 52.3966 69.3658 52.9911 69.5054C53.5856 69.645 54.1193 69.9524 54.5923 70.4277C55.0652 70.903 55.4331 71.5345 55.6961 72.3221C55.9591 73.1098 56.0456 73.8396 55.9558 74.5118C55.8659 75.1839 55.6276 75.7613 55.2408 76.2441C54.8541 76.7268 54.3456 77.0784 53.7155 77.2988C53.3427 77.4291 52.9745 77.4968 52.6109 77.5018C52.2449 77.5077 51.8943 77.4511 51.5591 77.3321C51.2247 77.2156 50.9183 77.0377 50.6396 76.7985C50.3618 76.5617 50.1252 76.2631 49.9296 75.9025Z"/>
<path d="M44.9668 72.5547C45.3358 72.51 45.6791 72.5394 45.9966 72.643C46.3145 72.7491 46.5778 72.9251 46.7867 73.171C46.9959 73.4195 47.1233 73.7347 47.1689 74.1167C47.2091 74.4528 47.1759 74.7332 47.0694 74.958C46.9633 75.1853 46.8074 75.3721 46.6018 75.5184C46.3962 75.6648 46.1641 75.7833 45.9057 75.8741C45.6451 75.9677 45.3817 76.0487 45.1155 76.1172C44.7671 76.2059 44.4843 76.2751 44.2672 76.3247C44.0478 76.3771 43.891 76.4387 43.7969 76.5096C43.7003 76.5807 43.6606 76.6888 43.678 76.834L43.6816 76.8645C43.7267 77.2414 43.864 77.5218 44.0937 77.7058C44.3209 77.8901 44.6405 77.9572 45.0525 77.9073C45.4796 77.8555 45.8033 77.7207 46.0234 77.5028C46.2436 77.2849 46.3901 77.0631 46.4632 76.8372L47.349 77.0398C47.2399 77.4147 47.0709 77.7168 46.8418 77.946C46.6106 78.1782 46.3493 78.3519 46.0579 78.4674C45.7643 78.5856 45.4709 78.6625 45.1777 78.6981C44.9907 78.7208 44.7731 78.7239 44.525 78.7075C44.2746 78.6939 44.0275 78.6322 43.7835 78.5223C43.5371 78.4127 43.3215 78.2283 43.1366 77.9691C42.9518 77.7099 42.8316 77.3474 42.7759 76.8814L42.314 73.0159L43.2088 72.9074L43.3037 73.7019L43.3492 73.6964C43.3947 73.5617 43.4795 73.4132 43.6037 73.2509C43.7279 73.0886 43.9015 72.9423 44.1244 72.8119C44.3473 72.6815 44.6281 72.5958 44.9668 72.5547ZM44.927 73.381C44.5732 73.424 44.2833 73.5302 44.0574 73.6996C43.8289 73.8694 43.666 74.0726 43.5686 74.3091C43.4687 74.546 43.4333 74.7867 43.4626 75.0311L43.5611 75.8562C43.5936 75.8057 43.672 75.7536 43.7963 75.6998C43.9184 75.6488 44.0612 75.5992 44.2247 75.5509C44.386 75.5056 44.5437 75.4632 44.698 75.4238C44.8501 75.3873 44.9734 75.3568 45.0679 75.3324C45.2968 75.2737 45.5082 75.1977 45.7022 75.1044C45.894 75.014 46.0438 74.8938 46.1515 74.7438C46.257 74.5967 46.296 74.4085 46.2687 74.1793C46.2312 73.8661 46.0879 73.6433 45.8388 73.5107C45.5873 73.3811 45.2834 73.3378 44.927 73.381Z"/>
<path d="M39.6912 72.8025L39.1941 78.6905L38.3273 78.6077L38.4024 77.7184L38.3416 77.7126C38.2105 77.9937 37.9979 78.2117 37.7038 78.3665C37.4097 78.5214 37.0878 78.5821 36.738 78.5487C36.6721 78.5424 36.5898 78.5332 36.4912 78.5212C36.3926 78.5092 36.3181 78.4982 36.2679 78.4883L36.3455 77.5683C36.3753 77.5789 36.444 77.597 36.5517 77.6228C36.6567 77.6508 36.7687 77.6705 36.8878 77.6819C37.1717 77.709 37.4302 77.6732 37.6634 77.5744C37.8938 77.4779 38.0825 77.331 38.2295 77.1338C38.3737 76.9389 38.457 76.7086 38.4794 76.4428L38.794 72.7168L39.6912 72.8025Z"/>
<path d="M32.9171 75.2707L33.9271 71.8646L34.786 72.1399L33.1069 77.8019L32.2772 77.536L32.5395 76.6513L32.4667 76.6279C32.2505 76.8735 31.983 77.0407 31.6644 77.1297C31.3451 77.2211 30.9743 77.1992 30.5522 77.0639C30.1737 76.9426 29.8659 76.7578 29.6287 76.5096C29.3907 76.2638 29.2399 75.9571 29.1762 75.5895C29.1118 75.2245 29.151 74.8011 29.2939 74.3194L30.3608 70.7217L31.2196 70.9969L30.1702 74.5357C30.0383 74.9805 30.0496 75.3635 30.204 75.6848C30.3577 76.0085 30.6335 76.2342 31.0314 76.3617C31.3055 76.4496 31.5684 76.4679 31.8201 76.4167C32.0693 76.3647 32.29 76.243 32.4822 76.0516C32.6745 75.8603 32.8194 75.6 32.9171 75.2707Z"/>
<path d="M26.5379 68.5605C27.0284 68.8433 27.392 69.1978 27.6288 69.6238C27.8621 70.0509 27.9673 70.5193 27.9446 71.0291C27.9185 71.54 27.7621 72.0614 27.4755 72.5934C27.1889 73.1253 26.8413 73.5394 26.4327 73.8356C26.0206 74.1328 25.5821 74.2964 25.1169 74.3266C24.6484 74.3578 24.1843 74.2409 23.7247 73.9758C23.4596 73.8229 23.222 73.6269 23.0121 73.3876C22.8022 73.1484 22.6458 72.8662 22.543 72.541C22.4389 72.2181 22.4132 71.8546 22.4658 71.4506C22.5184 71.0466 22.6752 70.6023 22.9363 70.1176L23.1185 69.7795L27.0426 72.0423L26.671 72.7321L23.5423 70.928C23.3844 71.221 23.301 71.5156 23.292 71.8118C23.2808 72.1067 23.3444 72.3812 23.4826 72.6352C23.6187 72.888 23.8281 73.0959 24.1109 73.259C24.4225 73.4387 24.7345 73.5152 25.0471 73.4887C25.3563 73.4631 25.639 73.3602 25.8953 73.1801C26.1517 72.9999 26.3569 72.7667 26.5112 72.4804L26.7589 72.0206C26.9702 71.6284 27.0831 71.2576 27.0974 70.9084C27.1084 70.5602 27.0328 70.2463 26.8707 69.9667C26.7073 69.6893 26.4677 69.4595 26.1517 69.2773C25.9462 69.1588 25.7449 69.0811 25.5476 69.0442C25.3469 69.0082 25.1535 69.0149 24.9677 69.0643C24.7806 69.1159 24.6053 69.2128 24.4419 69.3549L23.8028 68.7028C24.0232 68.4872 24.2807 68.3343 24.5754 68.2443C24.8689 68.1564 25.1835 68.1369 25.5192 68.1858C25.8536 68.2368 26.1932 68.3617 26.5379 68.5605Z"/>
<path d="M16.9407 66.9856L17.6928 67.3538C17.6432 67.4914 17.6141 67.6424 17.6055 67.8066C17.5933 67.9711 17.6226 68.142 17.6933 68.3193C17.7641 68.4965 17.8972 68.6732 18.0926 68.8493C18.3601 69.0904 18.6368 69.2279 18.9225 69.2618C19.2047 69.296 19.4276 69.2164 19.5911 69.0232C19.7365 68.8515 19.7906 68.6611 19.7534 68.4522C19.7162 68.2432 19.5967 67.9893 19.3948 67.6904L18.8846 66.9416C18.5763 66.4918 18.4114 66.08 18.3899 65.7063C18.3668 65.3346 18.4882 64.9916 18.7542 64.6774C18.9722 64.4198 19.2393 64.2545 19.5553 64.1815C19.8694 64.1068 20.2041 64.1263 20.5594 64.24C20.9147 64.3538 21.2622 64.5637 21.6018 64.8698C22.0477 65.2716 22.3325 65.7037 22.4562 66.1661C22.58 66.6285 22.5188 67.086 22.2728 67.5386L21.4965 67.128C21.6406 66.8313 21.6795 66.5464 21.613 66.2732C21.5447 65.9983 21.3729 65.7369 21.0978 65.4889C20.7847 65.2068 20.4783 65.0511 20.1786 65.0218C19.8753 64.9928 19.642 65.0749 19.4784 65.2681C19.3462 65.4242 19.2887 65.6029 19.3057 65.804C19.3211 66.0071 19.4166 66.2342 19.5921 66.4852L20.1721 67.3175C20.4899 67.7758 20.6559 68.1921 20.6703 68.5663C20.6812 68.9408 20.5553 69.2831 20.2926 69.5934C20.0778 69.8471 19.8186 70.0091 19.5149 70.0795C19.2093 70.1481 18.8889 70.1294 18.5537 70.0235C18.2167 69.9158 17.8945 69.7235 17.5871 69.4465C17.1545 69.0566 16.8974 68.653 16.8159 68.2355C16.7325 67.8164 16.7741 67.3997 16.9407 66.9856Z"/>
<path d="M13.5561 54.876C13.7902 55.3943 13.8793 55.895 13.8234 56.3781C13.7642 56.86 13.5767 57.2994 13.2609 57.6963C12.9418 58.0919 12.5106 58.4189 11.9672 58.6773C11.4239 58.9357 10.8997 59.063 10.3946 59.0593C9.88611 59.0544 9.43391 58.9263 9.03794 58.675C8.63861 58.4225 8.32929 58.0535 8.10997 57.5679C7.98344 57.2878 7.90453 56.9892 7.87326 56.6723C7.84198 56.3554 7.87933 56.0356 7.98531 55.7129C8.08899 55.3914 8.28 55.0836 8.55833 54.7896C8.83667 54.4956 9.22333 54.2309 9.71833 53.9955L10.0637 53.8313L11.9363 57.9773L11.2318 58.3124L9.73876 55.0067C9.43947 55.1491 9.19981 55.3368 9.01981 55.5698C8.83875 55.8006 8.73039 56.0591 8.69473 56.3455C8.65801 56.6295 8.70713 56.9209 8.8421 57.2197C8.99077 57.5489 9.19999 57.7954 9.46976 57.9592C9.73617 58.1218 10.0261 58.2065 10.3397 58.2134C10.6532 58.2202 10.9562 58.1542 11.2486 58.0151L11.7183 57.7918C12.1189 57.6013 12.4268 57.3698 12.6421 57.0972C12.8541 56.8234 12.9757 56.526 13.0068 56.2049C13.0357 55.8849 12.9747 55.558 12.8239 55.2242C12.7259 55.0071 12.6074 54.8252 12.4684 54.6786C12.3261 54.5307 12.165 54.4216 11.985 54.3512C11.8027 54.2819 11.6036 54.2561 11.3878 54.2736L11.2482 53.3701C11.5532 53.3272 11.8518 53.3568 12.1441 53.4588C12.434 53.562 12.7013 53.7327 12.9459 53.9709C13.1882 54.2101 13.3916 54.5118 13.5561 54.876Z"/>
<path d="M5.95482 50.9344L7.98199 49.0096L5.33577 48.1724L5.10699 47.1516L8.38179 48.3479L10.8222 45.8216L11.051 46.8423L9.14289 48.7394L11.67 49.6043L11.8988 50.6251L8.63075 49.4588L6.1836 51.9551L5.95482 50.9344Z"/>
<path d="M11.5221 42.2495C11.5314 42.7829 11.4135 43.2525 11.1685 43.6583C10.9234 44.0615 10.5763 44.3789 10.1271 44.6103C9.67783 44.8391 9.15027 44.9574 8.54439 44.965C7.93343 44.9728 7.39816 44.868 6.9386 44.6507C6.479 44.4308 6.11971 44.1224 5.86073 43.7255C5.6017 43.3261 5.46755 42.8597 5.45827 42.3263C5.44899 41.7929 5.56688 41.3246 5.81195 40.9214C6.05696 40.5156 6.40537 40.1982 6.85717 39.9693C7.30892 39.7379 7.84028 39.6183 8.45125 39.6106C9.05712 39.6029 9.58859 39.709 10.0456 39.929C10.5027 40.1463 10.8607 40.4547 11.1197 40.8541C11.3787 41.251 11.5128 41.7161 11.5221 42.2495ZM10.7126 42.2598C10.7055 41.8546 10.5966 41.5225 10.3859 41.2636C10.1751 41.0046 9.90064 40.8144 9.56242 40.693C9.2242 40.5716 8.85908 40.5134 8.46704 40.5184C8.075 40.5233 7.71079 40.5908 7.3744 40.7207C7.03801 40.8507 6.76772 41.0478 6.56352 41.312C6.35932 41.5762 6.26075 41.9109 6.2678 42.3161C6.27484 42.7212 6.38502 43.0533 6.59831 43.3122C6.81161 43.5711 7.08864 43.7613 7.4294 43.8826C7.77016 44.004 8.13656 44.0622 8.5286 44.0572C8.92064 44.0523 9.28358 43.9848 9.61742 43.8549C9.95127 43.725 10.219 43.528 10.4207 43.2638C10.6223 42.9996 10.7196 42.6649 10.7126 42.2598ZM4.74761 42.7508L2.95948 41.8347L2.94101 40.7731L4.73369 41.9507L4.74761 42.7508Z"/>
<path d="M6.49307 33.0127L7.24139 33.1666L6.67496 36.1754L5.92663 36.0214L6.49307 33.0127ZM4.71481 34.8613L4.88274 33.9692L10.3605 35.0961C10.6099 35.1474 10.8039 35.1493 10.9424 35.1019C11.0788 35.0514 11.1792 34.9726 11.2434 34.8654C11.3056 34.7552 11.349 34.6346 11.3737 34.5035C11.3922 34.4053 11.4024 34.3236 11.4043 34.2586C11.4037 34.193 11.4032 34.1405 11.4028 34.1012L12.2302 34.0829C12.2413 34.148 12.2478 34.2371 12.2499 34.35C12.2544 34.4635 12.241 34.6034 12.2097 34.7697C12.1623 35.0217 12.0622 35.2576 11.9094 35.4775C11.757 35.6948 11.5562 35.8603 11.3068 35.9739C11.0579 36.0849 10.7663 36.1061 10.432 36.0373L4.71481 34.8613Z"/>
<path d="M13.6588 29.8656L8.28898 27.4876L8.63458 26.649L14.0044 29.0271L13.6588 29.8656ZM7.56974 26.6649C7.50238 26.8283 7.38952 26.945 7.23116 27.0149C7.07379 27.0825 6.91819 27.0822 6.76436 27.0141C6.61054 26.9459 6.50278 26.8296 6.44108 26.665C6.38035 26.4981 6.38367 26.3329 6.45104 26.1694C6.5184 26.006 6.63077 25.8905 6.78815 25.8229C6.9465 25.753 7.10259 25.7521 7.25642 25.8202C7.41024 25.8883 7.51751 26.0059 7.57824 26.1728C7.63994 26.3374 7.63711 26.5014 7.56974 26.6649Z"/>
<path d="M17.1044 23.7256C16.7933 24.1824 16.4201 24.4992 15.9848 24.676C15.5495 24.8528 15.0866 24.8957 14.596 24.8047C14.1055 24.7137 13.6228 24.4956 13.1479 24.1504C12.6648 23.7992 12.3005 23.3984 12.0548 22.9479C11.8085 22.4937 11.6928 22.027 11.7075 21.5476C11.7217 21.0646 11.8786 20.6032 12.1782 20.1633C12.4115 19.8207 12.6838 19.557 12.9949 19.3721C13.3061 19.1873 13.6329 19.0881 13.9754 19.0747C14.3179 19.0613 14.6523 19.1414 14.9784 19.3153L14.4684 20.0639C14.2127 19.9634 13.9343 19.9507 13.6331 20.0258C13.3313 20.0973 13.068 20.298 12.8433 20.6279C12.6445 20.9197 12.5446 21.2296 12.5434 21.5576C12.5416 21.882 12.6331 22.2031 12.818 22.5209C13.0022 22.835 13.2739 23.1227 13.6331 23.3838C14.0006 23.6509 14.3609 23.8244 14.7141 23.9041C15.0687 23.9816 15.3956 23.9663 15.6946 23.858C15.9952 23.7476 16.2463 23.5444 16.4479 23.2484C16.5805 23.0538 16.6677 22.8532 16.7097 22.6466C16.7517 22.4399 16.7482 22.2366 16.6992 22.0366C16.6502 21.8366 16.5549 21.6503 16.4132 21.4777L16.9231 20.7291C17.1751 20.9755 17.3567 21.264 17.4679 21.5947C17.5785 21.9217 17.607 22.2696 17.5533 22.6385C17.4989 23.0037 17.3493 23.3661 17.1044 23.7256Z"/>
<path d="M21.3256 18.4009C21.0561 18.6587 20.7644 18.8404 20.4506 18.9461C20.1351 19.0499 19.8229 19.0639 19.514 18.988C19.2035 18.9103 18.9199 18.729 18.6633 18.4441C18.4374 18.1933 18.3024 17.9442 18.2581 17.6966C18.2121 17.4471 18.2293 17.2009 18.3095 16.958C18.3897 16.7151 18.5071 16.4791 18.6616 16.25C18.8162 16.0172 18.9804 15.793 19.154 15.5775C19.3816 15.296 19.5681 15.07 19.7133 14.8992C19.8587 14.7248 19.9486 14.5805 19.9831 14.4661C20.0195 14.35 19.9889 14.2379 19.8914 14.1296L19.8709 14.1068C19.6177 13.8257 19.3462 13.6788 19.0563 13.6661C18.7684 13.6516 18.4739 13.7883 18.173 14.0761C17.8609 14.3746 17.6796 14.6788 17.629 14.9889C17.5783 15.299 17.5888 15.5683 17.6605 15.7967L16.8349 16.1621C16.7062 15.7902 16.6674 15.4419 16.7186 15.1172C16.7699 14.7887 16.8789 14.49 17.0456 14.221C17.2124 13.9483 17.4029 13.7095 17.6171 13.5047C17.7537 13.374 17.926 13.241 18.1341 13.1056C18.3422 12.9666 18.5756 12.8689 18.8341 12.8126C19.0945 12.7544 19.3733 12.7759 19.6706 12.877C19.9678 12.9781 20.273 13.2024 20.586 13.55L23.1829 16.4334L22.5293 17.0586L21.9956 16.4659L21.9623 16.4977C22.0036 16.6351 22.0212 16.8074 22.0154 17.0145C22.0095 17.2217 21.9549 17.4454 21.8516 17.6856C21.7484 17.9258 21.573 18.1642 21.3256 18.4009ZM20.8813 17.7015C21.1398 17.4542 21.3106 17.1936 21.3938 16.9196C21.4788 16.6438 21.4921 16.3801 21.4337 16.1283C21.3772 15.8747 21.2668 15.6568 21.1026 15.4744L20.5483 14.859C20.5514 14.9197 20.5187 15.0093 20.4502 15.1278C20.3818 15.2427 20.2961 15.3689 20.1931 15.5064C20.0902 15.6401 19.9884 15.7694 19.8876 15.8941C19.7869 16.0151 19.7058 16.1139 19.6442 16.1905C19.4949 16.3758 19.3695 16.5647 19.2679 16.7572C19.1666 16.9461 19.116 17.1342 19.1162 17.3214C19.1165 17.5049 19.1937 17.6822 19.3476 17.8531C19.558 18.0868 19.8011 18.1831 20.0769 18.142C20.3529 18.0973 20.621 17.9505 20.8813 17.7015Z"/>
<path d="M27.4861 10.0083L26.7785 10.474C26.6918 10.359 26.583 10.2549 26.4523 10.1619C26.3233 10.0656 26.1668 10.0023 25.9827 9.97178C25.7987 9.9413 25.5816 9.96563 25.3314 10.0448C24.9889 10.1531 24.7269 10.3233 24.5453 10.5555C24.3655 10.7844 24.3112 11.0206 24.3824 11.2642C24.4458 11.4807 24.5735 11.6271 24.7656 11.7034C24.9578 11.7797 25.2313 11.8074 25.5861 11.7866L26.4772 11.7304C27.0136 11.6952 27.4415 11.7654 27.7609 11.9412C28.0797 12.1146 28.2969 12.3993 28.4128 12.7954C28.5078 13.1201 28.5004 13.4396 28.3906 13.7539C28.2833 14.0674 28.0873 14.3498 27.8025 14.6011C27.5178 14.8525 27.1581 15.0469 26.7233 15.1844C26.1525 15.365 25.6433 15.389 25.1959 15.2563C24.7484 15.1237 24.4044 14.8321 24.1637 14.3814L24.9194 13.9166C25.0864 14.197 25.3002 14.3793 25.561 14.4635C25.8243 14.5469 26.132 14.5329 26.4842 14.4215C26.885 14.2947 27.178 14.1079 27.3632 13.8612C27.5501 13.6112 27.608 13.3644 27.5368 13.1209C27.4792 12.9241 27.363 12.7807 27.1881 12.6909C27.0125 12.5986 26.7741 12.5638 26.4729 12.5865L25.4754 12.6602C24.9269 12.6993 24.4947 12.6277 24.1786 12.4455C23.8643 12.26 23.6499 11.9716 23.5355 11.5805C23.442 11.2606 23.4479 10.9497 23.5532 10.6476C23.661 10.3447 23.8486 10.0743 24.1161 9.83653C24.386 9.59795 24.7177 9.41642 25.1112 9.29195C25.665 9.11677 26.1357 9.10224 26.5235 9.24838C26.9136 9.39375 27.2345 9.64704 27.4861 10.0083Z"/>
</mask>
<path d="M80.9988 40.6943C81.1652 62.7851 63.3919 80.83 41.3012 80.9988C19.2104 81.1676 1.16749 63.3964 1.00116 41.3057C0.834827 19.2149 18.6081 1.17 40.6988 1.00119C62.7896 0.832383 80.8325 18.6036 80.9988 40.6943Z" fill="#0A0909"/>
<path d="M48.0269 27.823C48.3646 29.9031 48.2296 30.1631 46.0006 31.1381C43.9068 32.1132 42.2857 32.2432 34.5183 31.7882L25.9206 31.3527C25.6639 31.3397 25.4066 31.346 25.1508 31.3717L24.6655 31.4203C23.1904 31.5682 21.8961 32.4741 21.2439 33.8151C20.9564 34.406 20.807 35.0554 20.807 35.7134V45.5686C20.807 57.594 21.0096 58.244 23.7789 57.984C25.2649 57.854 25.8052 57.529 25.6026 56.814C24.8596 54.4089 24.7921 51.1588 25.4675 49.5987C26.1429 47.9087 26.2105 47.8437 32.8972 47.9087H39.7191V51.3538C39.7191 56.4239 40.5972 58.114 43.1638 58.114C44.7848 58.114 45.1901 57.919 44.8524 57.074C43.0287 52.4588 43.6366 50.0537 46.8111 49.0137C49.3102 48.2337 51.8769 45.6336 51.8769 43.8786C51.8769 43.1635 51.3365 43.4235 50.2558 44.7886C49.3778 45.8286 48.4997 46.6086 48.3646 46.4136C47.0138 44.8536 45.1901 40.9535 45.5278 40.4334C46.2033 39.3934 50.2558 37.9634 52.5523 37.9634H54.6462L53.2277 39.3934C52.4848 40.1734 51.8769 41.0185 51.8769 41.3435C51.8769 42.3185 53.0927 41.8635 54.0383 40.4984C54.7137 39.4584 55.9295 39.0034 58.9689 38.6784C62.8189 38.2884 62.954 38.2234 63.5619 36.0133C63.9671 34.4532 63.8996 33.6732 63.3592 33.5432C62.954 33.4132 62.3461 32.9582 62.0084 32.5032C57.9558 27.563 57.0777 26.913 54.9163 26.913C53.633 26.913 52.4172 26.588 52.2146 26.263C52.012 25.873 50.8637 25.613 49.7155 25.613C47.7567 25.613 47.6892 25.678 48.0269 27.823ZM52.9576 28.5381C54.1058 30.2281 55.4567 30.1631 54.7812 28.4731C54.4435 27.693 54.7137 27.628 56.1997 28.2781C57.1453 28.7331 57.9558 29.2531 57.9558 29.5131C57.9558 29.7081 59.0365 31.0081 60.3198 32.4382C61.9408 34.1282 62.6163 35.2983 62.2785 36.1433C61.9408 37.2483 61.3329 37.3133 55.7268 37.0533L49.5129 36.7283L48.5673 34.3882C47.7567 32.3082 47.7567 31.9182 48.5673 31.4632C49.0401 31.1381 50.2558 31.0731 51.2015 31.2681L52.89 31.6582L51.0664 29.9681C49.9857 29.0581 49.1752 27.953 49.1752 27.563C49.1752 26.263 51.8769 26.913 52.9576 28.5381ZM30.6683 33.8032C30.4657 34.3882 30.2631 35.0383 30.2631 35.2983C30.2631 35.6233 29.5201 36.5983 28.5069 37.6384C26.7508 39.4584 26.7508 40.6935 28.5069 39.3284C30.8709 37.4433 34.3156 40.8885 34.3156 45.1786V47.1937L30.4657 46.7386C28.3718 46.4786 25.6701 45.8286 24.3868 45.2436C21.6851 44.0086 21.4149 42.0585 23.8464 41.4735C24.792 41.2785 25.535 40.8235 25.535 40.4984C25.535 40.1734 24.792 40.0434 23.8464 40.3034C22.293 40.6934 22.1579 40.4984 22.1579 38.4184C22.1579 35.2333 24.8596 32.7632 28.3718 32.7632C30.6008 32.7632 31.006 32.9582 30.6683 33.8032ZM36.4095 33.4132C37.3551 33.4132 37.2875 33.9332 35.7341 36.5983L33.9779 39.8484L32.492 38.4834C31.3437 37.4433 31.0736 36.6633 31.4113 35.4283C32.0192 32.8932 32.2893 32.6332 33.9104 33.0232C34.6534 33.2182 35.8016 33.4132 36.4095 33.4132ZM47.1489 34.4533C48.162 36.9883 47.9594 37.5734 45.6629 38.8084C43.6366 39.9134 43.5015 39.9134 42.1507 38.7434C41.3401 38.0284 40.0568 37.1183 39.1788 36.6633C37.6928 35.9483 37.6253 35.8183 38.706 34.7133C39.3814 33.9982 41.0024 33.3482 42.3533 33.2182C43.7042 33.0882 45.1901 32.9582 45.6629 32.8932C46.1357 32.8282 46.8111 33.5432 47.1489 34.4533ZM41.0024 39.3934C44.2445 41.6685 44.1094 41.9285 38.5709 42.7735C35.7341 43.1635 35.6665 43.1635 35.6665 41.2785C35.6665 38.8084 36.2744 37.3133 37.2875 37.3133C37.7604 37.3133 39.4489 38.2234 41.0024 39.3934ZM46.2032 45.1786C47.0813 46.8686 47.1489 47.3237 46.3383 47.7787C45.1901 48.4937 44.4471 48.4937 44.4471 47.7137C44.4471 46.4136 41.8805 45.7636 38.7735 46.3486C36.0042 46.8686 35.6665 46.7386 35.6665 45.6986C35.6665 44.9836 36.2744 44.3336 37.22 44.2036C38.0305 44.0086 39.3138 43.7485 40.0568 43.6185C43.8392 42.8385 45.055 43.1635 46.2032 45.1786ZM24.0491 46.6086C24.5894 47.2587 24.5894 48.1687 24.1166 49.9887C23.7114 51.3538 23.5087 53.4989 23.7114 54.7339C23.9815 56.2289 23.8464 56.814 23.3061 56.619C22.7658 56.489 22.428 54.4739 22.293 51.0938C22.0903 45.8936 22.5631 44.8536 24.0491 46.6086ZM43.0287 47.9087C43.5691 48.5587 43.5015 49.3387 42.9612 50.8338C42.3533 52.3938 42.2857 53.3689 42.8936 54.8639C43.5015 56.424 43.5015 56.814 42.7585 56.814C41.4752 56.814 41.07 55.3189 41.07 50.8988C41.07 47.0637 41.6103 46.2836 43.0287 47.9087Z" fill="white"/>
<path d="M42.88 11.6513L40.4773 11.4218L41.1401 3.57107L43.6493 3.81075C44.4046 3.8829 45.0376 4.1018 45.5484 4.46746C46.0594 4.83056 46.4334 5.31841 46.6704 5.93099C46.9076 6.54101 46.9919 7.25236 46.9233 8.06503C46.8542 8.88281 46.6503 9.57307 46.3115 10.1358C45.973 10.696 45.514 11.1081 44.9348 11.3722C44.3557 11.6338 43.6708 11.7268 42.88 11.6513ZM41.4913 10.6685L42.8904 10.8021C43.5341 10.8636 44.0782 10.7894 44.5226 10.5793C44.9671 10.3693 45.3127 10.043 45.5596 9.60027C45.8065 9.15756 45.9569 8.61677 46.0108 7.97787C46.0643 7.34409 46.0078 6.78868 45.8411 6.31162C45.6746 5.83201 45.3977 5.45005 45.0104 5.16573C44.6233 4.87887 44.1256 4.70638 43.5173 4.64828L42.0118 4.50447L41.4913 10.6685Z" fill="#FFF4F4"/>
<path d="M49.6476 13.1904C49.109 13.0178 48.6802 12.7485 48.361 12.3825C48.045 12.0148 47.8459 11.5796 47.7638 11.077C47.6849 10.5727 47.7314 10.0306 47.9034 9.45063C48.0754 8.87067 48.3313 8.39295 48.6711 8.01747C49.0141 7.64032 49.4104 7.38789 49.8601 7.2602C50.3129 7.13083 50.7916 7.14701 51.2962 7.30873C51.5873 7.40203 51.8603 7.54332 52.115 7.73258C52.3697 7.92185 52.5807 8.16439 52.748 8.46021C52.916 8.75356 53.0156 9.10302 53.0468 9.50859C53.078 9.91416 53.0152 10.3811 52.8585 10.9095L52.7492 11.2781L48.4405 9.89723L48.6635 9.14524L52.0988 10.2462C52.1935 9.92673 52.215 9.62145 52.1632 9.33036C52.1138 9.04004 51.9953 8.78546 51.8079 8.5666C51.6228 8.34853 51.375 8.18973 51.0645 8.09021C50.7224 7.98058 50.4009 7.97173 50.1 8.06367C49.8022 8.15393 49.5462 8.31407 49.3319 8.54408C49.1176 8.7741 48.9641 9.04516 48.8716 9.35725L48.7229 9.85858C48.5961 10.2862 48.5614 10.672 48.6188 11.016C48.6793 11.3583 48.8176 11.6489 49.0337 11.8877C49.2506 12.124 49.5325 12.2978 49.8794 12.4089C50.105 12.4812 50.3183 12.5146 50.5192 12.509C50.7232 12.5018 50.9113 12.4544 51.0834 12.3669C51.2561 12.277 51.4081 12.1454 51.5392 11.9721L52.2989 12.4739C52.1271 12.731 51.9059 12.9346 51.6356 13.0848C51.366 13.2325 51.0617 13.318 50.7227 13.3412C50.3845 13.362 50.0261 13.3117 49.6476 13.1904Z" fill="#FFF4F4"/>
<path d="M59.4101 8.94441L55.6794 15.8693L54.8973 15.4182L58.6279 8.49337L59.4101 8.94441Z" fill="#FFF4F4"/>
<path d="M60.0728 18.216L63.879 13.7197L64.5507 14.325L60.7445 18.8213L60.0728 18.216ZM64.4286 13.1416L66.2728 12.4092L67.0584 13.1171L65.0206 13.6751L64.4286 13.1416Z" fill="#FFF4F4"/>
<path d="M65.4218 23.8235C65.0964 23.3769 64.9193 22.9128 64.8905 22.4311C64.8616 21.9495 64.9648 21.4822 65.2 21.0293C65.4352 20.5764 65.7852 20.1706 66.25 19.8118C66.7229 19.4468 67.205 19.2136 67.6963 19.1122C68.1911 19.0113 68.6574 19.0424 69.095 19.2053C69.5361 19.3688 69.9133 19.6655 70.2266 20.0956C70.4707 20.4305 70.63 20.7792 70.7046 21.1416C70.7791 21.504 70.7698 21.8552 70.6766 22.1953C70.5833 22.5354 70.4063 22.8384 70.1454 23.1044L69.6121 22.3724C69.7837 22.1528 69.8812 21.8837 69.9048 21.565C69.932 21.2469 69.828 20.9266 69.593 20.604C69.3851 20.3187 69.1301 20.1247 68.8279 20.0219C68.5293 19.9197 68.2049 19.91 67.8549 19.9929C67.5083 20.0762 67.1592 20.2536 66.8075 20.5251C66.4478 20.8027 66.1767 21.1024 65.9943 21.4241C65.8134 21.7478 65.7268 22.0731 65.7344 22.4C65.7436 22.7289 65.8536 23.038 66.0645 23.3275C66.2031 23.5177 66.3612 23.6654 66.5388 23.7706C66.7165 23.8757 66.9051 23.9353 67.1047 23.9492C67.3043 23.9631 67.5055 23.9273 67.7084 23.8418L68.2417 24.5737C67.9367 24.7445 67.6146 24.8333 67.2753 24.8399C66.9395 24.8471 66.6098 24.7673 66.2861 24.6004C65.966 24.434 65.6779 24.175 65.4218 23.8235Z" fill="#FFF4F4"/>
<path d="M68.0636 28.7415L73.368 26.2191L73.7413 27.0455L68.4368 29.5679L68.0636 28.7415ZM74.4419 26.2189C74.3692 26.0578 74.3605 25.8932 74.416 25.725C74.4726 25.5592 74.5768 25.4401 74.7288 25.3679C74.8807 25.2956 75.0366 25.2909 75.1965 25.3539C75.3574 25.4191 75.4743 25.5323 75.547 25.6934C75.6198 25.8545 75.6279 26.0179 75.5713 26.1838C75.5159 26.352 75.4121 26.4722 75.2602 26.5444C75.1082 26.6167 74.9518 26.6202 74.7909 26.5549C74.631 26.492 74.5147 26.38 74.4419 26.2189Z" fill="#FFF4F4"/>
<path d="M71.4461 35.2586C71.3642 34.8933 71.3582 34.546 71.4279 34.2165C71.5001 33.8865 71.6467 33.6036 71.868 33.3678C72.0916 33.1315 72.3895 32.9701 72.7616 32.8835C73.0891 32.8073 73.3691 32.8105 73.6016 32.8933C73.8367 32.9755 74.0369 33.1118 74.2022 33.3024C74.3676 33.4929 74.5083 33.7129 74.6242 33.9623C74.7432 34.2136 74.85 34.4691 74.9447 34.7287C75.0679 35.0685 75.165 35.3447 75.2361 35.5572C75.3103 35.7716 75.3871 35.9222 75.4666 36.0089C75.5466 36.0982 75.6573 36.1264 75.7987 36.0935L75.8285 36.0866C76.1956 36.0012 76.4582 35.8335 76.6162 35.5835C76.7747 35.336 76.8083 35.0084 76.7169 34.6006C76.6221 34.1778 76.456 33.8676 76.2187 33.6702C75.9813 33.4727 75.7475 33.3495 75.5172 33.3004L75.6265 32.3905C76.0074 32.4598 76.3226 32.597 76.5722 32.8022C76.8248 33.0092 77.0229 33.2527 77.1665 33.5325C77.3132 33.8142 77.4191 34.1002 77.4841 34.3904C77.5256 34.5756 77.5509 34.7934 77.5601 35.044C77.5723 35.2965 77.5367 35.5509 77.4532 35.8072C77.3703 36.0661 77.2105 36.302 76.9737 36.515C76.737 36.7281 76.3916 36.8874 75.9377 36.993L72.1722 37.8693L71.9737 36.9837L72.7476 36.8036L72.7375 36.7585C72.6001 36.7274 72.4449 36.6582 72.2721 36.551C72.0993 36.4438 71.9372 36.2854 71.7859 36.0758C71.6345 35.8662 71.5213 35.5938 71.4461 35.2586ZM72.2652 35.2101C72.3437 35.5604 72.4781 35.8397 72.6684 36.0481C72.8592 36.2591 73.0762 36.4007 73.3195 36.4731C73.5634 36.5479 73.8044 36.5577 74.0425 36.5022L74.8462 36.3152C74.7931 36.2881 74.7337 36.215 74.6679 36.0961C74.6051 35.9791 74.5416 35.8412 74.4773 35.6824C74.4161 35.5256 74.3581 35.3719 74.3035 35.2214C74.2519 35.0729 74.2093 34.9525 74.1756 34.8603C74.0942 34.6371 73.9976 34.4332 73.8858 34.2486C73.777 34.066 73.6431 33.9287 73.4842 33.8367C73.3283 33.7466 73.1387 33.7275 72.9155 33.7795C72.6104 33.8505 72.4052 34.018 72.2999 34.282C72.1977 34.548 72.1862 34.8574 72.2652 35.2101Z" fill="#FFF4F4"/>
<path d="M76.9964 44.2421L76.753 43.4295C76.8871 43.3765 77.0168 43.2992 77.1424 43.1976C77.2705 43.0985 77.3751 42.9638 77.4562 42.7935C77.5372 42.6232 77.5754 42.406 77.5708 42.1418C77.5645 41.7802 77.4765 41.48 77.3068 41.241C77.1397 41.0046 76.9302 40.8879 76.6782 40.8911C76.4541 40.8939 76.2786 40.9782 76.1517 41.144C76.0247 41.3097 75.921 41.5675 75.8405 41.9174L75.642 42.7971C75.5239 43.327 75.3361 43.7231 75.0784 43.9854C74.8233 44.2476 74.4907 44.3814 74.0809 44.3865C73.7449 44.3908 73.4428 44.2971 73.1746 44.1055C72.9065 43.9165 72.6931 43.6499 72.5343 43.3056C72.3755 42.9614 72.2921 42.5597 72.2841 42.1007C72.2736 41.4981 72.3947 40.9977 72.6474 40.5995C72.9002 40.2013 73.2751 39.9465 73.7723 39.8351L74.0012 40.694C73.6869 40.78 73.4529 40.9382 73.299 41.1684C73.1452 41.4012 73.0716 41.7035 73.0781 42.0753C73.0855 42.4984 73.1804 42.8333 73.363 43.0798C73.5481 43.3288 73.7667 43.4517 74.0187 43.4485C74.2223 43.446 74.3917 43.372 74.5266 43.2267C74.6641 43.0813 74.7646 42.8595 74.8282 42.5611L75.0401 41.5735C75.1579 41.0308 75.3483 40.6308 75.6112 40.3736C75.8766 40.1189 76.2117 39.989 76.6165 39.9839C76.9474 39.9797 77.2418 40.0696 77.4997 40.2536C77.7575 40.4402 77.9619 40.6954 78.1127 41.0192C78.2635 41.3457 78.3425 41.7166 78.3498 42.132C78.36 42.7167 78.2407 43.1773 77.992 43.5139C77.7433 43.853 77.4114 44.0958 76.9964 44.2421Z" fill="#FFF4F4"/>
<path d="M68.7022 53.8348C68.8896 53.38 69.1681 53.0286 69.5377 52.7805C69.9096 52.5334 70.3435 52.4035 70.8394 52.3906C71.3376 52.3787 71.8711 52.4987 72.4398 52.7506C73.0038 53.0004 73.4527 53.3154 73.7865 53.6957C74.1204 54.0761 74.328 54.4916 74.4096 54.9423C74.4912 55.3929 74.4373 55.8481 74.2479 56.3076C74.1015 56.6629 73.9275 56.9178 73.726 57.0723C73.5259 57.2301 73.33 57.331 73.1382 57.375C72.9479 57.4223 72.7934 57.4561 72.6748 57.4764L72.6455 57.5475L75.2884 58.7179L74.9428 59.5565L67.7831 56.3857L68.117 55.5756L68.942 55.941L68.983 55.8415C68.9105 55.7366 68.8231 55.5942 68.7208 55.4145C68.6208 55.2357 68.556 55.0152 68.5264 54.7528C68.4991 54.4914 68.5577 54.1854 68.7022 53.8348ZM69.3965 54.2767C69.2578 54.6131 69.2269 54.9355 69.3037 55.244C69.3828 55.5536 69.5513 55.8369 69.8092 56.0939C70.0693 56.352 70.4022 56.5708 70.8077 56.7504C71.2086 56.928 71.5838 57.0241 71.9332 57.0388C72.285 57.0545 72.5927 56.9835 72.8561 56.8257C73.122 56.6689 73.3252 56.4199 73.4658 56.0789C73.6122 55.7235 73.6445 55.3877 73.5627 55.0714C73.4822 54.7584 73.3137 54.4751 73.0572 54.2215C72.8021 53.9712 72.4857 53.7625 72.1081 53.5953C71.7259 53.426 71.3543 53.3315 70.9931 53.3116C70.6334 53.2951 70.3131 53.3634 70.0323 53.5163C69.7529 53.6727 69.5409 53.9262 69.3965 54.2767Z" fill="#FFF4F4"/>
<path d="M65.951 59.4405C66.1613 59.1317 66.409 58.8928 66.6939 58.7237C66.981 58.5561 67.2833 58.4771 67.6009 58.4866C67.9206 58.4977 68.2352 58.6158 68.5449 58.8409C68.8174 59.039 69.0009 59.2546 69.0952 59.4876C69.1917 59.7222 69.2258 59.9667 69.1975 60.2212C69.1692 60.4757 69.1032 60.7313 68.9994 60.9878C68.8962 61.248 68.782 61.5018 68.6568 61.749C68.4923 62.0721 68.3567 62.3324 68.2499 62.5299C68.1438 62.731 68.0857 62.8911 68.0755 63.0102C68.064 63.1315 68.117 63.2348 68.2347 63.3204L68.2595 63.3384C68.565 63.5605 68.8608 63.6475 69.1467 63.5992C69.4313 63.5531 69.6909 63.3577 69.9257 63.013C70.1692 62.6556 70.2837 62.3199 70.2692 62.0058C70.2547 61.6917 70.1888 61.4304 70.0716 61.2219L70.8034 60.6914C71.006 61.0284 71.1157 61.3612 71.1327 61.6897C71.1503 62.0219 71.1054 62.3371 70.998 62.6352C70.8912 62.937 70.7542 63.2106 70.5871 63.4559C70.4805 63.6124 70.3395 63.7786 70.1641 63.9546C69.9893 64.1343 69.7813 64.2787 69.5401 64.388C69.2976 64.4994 69.0206 64.5367 68.7091 64.5C68.3976 64.4633 68.053 64.3076 67.6752 64.033L64.5413 61.7547L65.0512 61.0061L65.6954 61.4744L65.7213 61.4363C65.6526 61.3105 65.5998 61.1456 65.5628 60.9416C65.5258 60.7377 65.533 60.5073 65.5844 60.2506C65.6358 59.9939 65.758 59.7239 65.951 59.4405ZM66.5297 60.032C66.3281 60.328 66.2148 60.6188 66.1901 60.9044C66.1639 61.1921 66.2053 61.453 66.3144 61.6872C66.422 61.9235 66.5748 62.1137 66.773 62.2578L67.4419 62.7441C67.4264 62.6853 67.4398 62.5908 67.4823 62.4604C67.5255 62.3337 67.5832 62.1922 67.6556 62.0362C67.7286 61.8837 67.8015 61.7359 67.8743 61.5928C67.9477 61.4533 68.0066 61.3396 68.051 61.2517C68.1588 61.0392 68.2424 60.828 68.3019 60.6183C68.362 60.4122 68.3726 60.2176 68.3338 60.0344C68.2956 59.8549 68.1836 59.6976 67.9978 59.5625C67.7439 59.3779 67.4863 59.3345 67.2252 59.4324C66.9646 59.5339 66.7328 59.7338 66.5297 60.032Z" fill="#FFF4F4"/>
<path d="M63.1452 69.6626L63.5784 68.9301C63.706 68.9955 63.8485 69.0412 64.0061 69.0673C64.1635 69.097 64.3313 69.085 64.5096 69.0311C64.6879 68.9772 64.8722 68.8594 65.0623 68.6775C65.3227 68.4285 65.484 68.1592 65.5464 67.8698C65.6086 67.584 65.555 67.3471 65.3856 67.159C65.2351 66.9919 65.0571 66.9163 64.8517 66.9325C64.6463 66.9486 64.389 67.0445 64.0797 67.2201L63.3046 67.6645C62.8387 67.9333 62.4244 68.0591 62.0618 68.0418C61.7008 68.0264 61.3826 67.8658 61.1072 67.56C60.8814 67.3093 60.7497 67.018 60.7121 66.6863C60.6726 66.3563 60.7262 66.0151 60.8728 65.6627C61.0194 65.3103 61.258 64.9761 61.5884 64.66C62.0223 64.245 62.4687 63.9984 62.9275 63.9202C63.3863 63.842 63.8212 63.9528 64.2322 64.2527L63.7556 65.0056C63.4843 64.8266 63.2136 64.7568 62.9432 64.7962C62.6709 64.8374 62.401 64.986 62.1333 65.242C61.8286 65.5334 61.6466 65.8312 61.5873 66.1355C61.5278 66.4434 61.5828 66.6914 61.7521 66.8795C61.889 67.0314 62.0553 67.1092 62.2511 67.1129C62.4485 67.1185 62.6775 67.0445 62.9378 66.8909L63.8008 66.3838C64.2759 66.1061 64.6946 65.9796 65.057 66.0042C65.4193 66.0325 65.7364 66.1976 66.0084 66.4997C66.2308 66.7466 66.3602 67.0295 66.3965 67.3484C66.4309 67.669 66.3797 67.9956 66.2427 68.3281C66.1039 68.6624 65.8849 68.9726 65.5858 69.2587C65.1649 69.6614 64.7489 69.8825 64.3378 69.9221C63.9248 69.9635 63.5273 69.877 63.1452 69.6626Z" fill="#FFF4F4"/>
<path d="M49.9296 75.9025L50.8243 75.5897C50.964 75.8313 51.1329 76.0274 51.3309 76.178C51.5265 76.3295 51.7405 76.4393 51.9727 76.5074C52.2033 76.5788 52.4431 76.609 52.6919 76.598C52.9407 76.587 53.1877 76.5386 53.4331 76.4528C53.8804 76.2963 54.2475 76.0404 54.5344 75.6848C54.8189 75.3302 54.9939 74.8929 55.0594 74.3732C55.1225 73.8543 55.0462 73.2716 54.8303 72.6249C54.6144 71.9783 54.3264 71.4695 53.9662 71.0987C53.6036 70.7287 53.2038 70.4925 52.7667 70.3902C52.3273 70.2887 51.8839 70.3161 51.4365 70.4726C51.1912 70.5584 50.9669 70.6748 50.7635 70.822C50.5602 70.9691 50.3882 71.1419 50.2477 71.3404C50.1055 71.5421 50.0024 71.7642 49.9382 72.0065C49.8725 72.2521 49.8562 72.513 49.8893 72.7892L48.9946 73.1021C48.9345 72.6968 48.9432 72.3124 49.0205 71.9487C49.0979 71.585 49.2335 71.2512 49.4275 70.9472C49.6222 70.6456 49.8661 70.3825 50.1591 70.1578C50.4496 69.9341 50.7813 69.757 51.1541 69.6266C51.7842 69.4062 52.3966 69.3658 52.9911 69.5054C53.5856 69.645 54.1193 69.9524 54.5923 70.4277C55.0652 70.903 55.4331 71.5345 55.6961 72.3221C55.9591 73.1098 56.0456 73.8396 55.9558 74.5118C55.8659 75.1839 55.6276 75.7613 55.2408 76.2441C54.8541 76.7268 54.3456 77.0784 53.7155 77.2988C53.3427 77.4291 52.9745 77.4968 52.6109 77.5018C52.2449 77.5077 51.8943 77.4511 51.5591 77.3321C51.2247 77.2156 50.9183 77.0377 50.6396 76.7985C50.3618 76.5617 50.1252 76.2631 49.9296 75.9025Z" fill="#FFF4F4"/>
<path d="M44.9668 72.5547C45.3358 72.51 45.6791 72.5394 45.9966 72.643C46.3145 72.7491 46.5778 72.9251 46.7867 73.171C46.9959 73.4195 47.1233 73.7347 47.1689 74.1167C47.2091 74.4528 47.1759 74.7332 47.0694 74.958C46.9633 75.1853 46.8074 75.3721 46.6018 75.5184C46.3962 75.6648 46.1641 75.7833 45.9057 75.8741C45.6451 75.9677 45.3817 76.0487 45.1155 76.1172C44.7671 76.2059 44.4843 76.2751 44.2672 76.3247C44.0478 76.3771 43.891 76.4387 43.7969 76.5096C43.7003 76.5807 43.6606 76.6888 43.678 76.834L43.6816 76.8645C43.7267 77.2414 43.864 77.5218 44.0937 77.7058C44.3209 77.8901 44.6405 77.9572 45.0525 77.9073C45.4796 77.8555 45.8033 77.7207 46.0234 77.5028C46.2436 77.2849 46.3901 77.0631 46.4632 76.8372L47.349 77.0398C47.2399 77.4147 47.0709 77.7168 46.8418 77.946C46.6106 78.1782 46.3493 78.3519 46.0579 78.4674C45.7643 78.5856 45.4709 78.6625 45.1777 78.6981C44.9907 78.7208 44.7731 78.7239 44.525 78.7075C44.2746 78.6939 44.0275 78.6322 43.7835 78.5223C43.5371 78.4127 43.3215 78.2283 43.1366 77.9691C42.9518 77.7099 42.8316 77.3474 42.7759 76.8814L42.314 73.0159L43.2088 72.9074L43.3037 73.7019L43.3492 73.6964C43.3947 73.5617 43.4795 73.4132 43.6037 73.2509C43.7279 73.0886 43.9015 72.9423 44.1244 72.8119C44.3473 72.6815 44.6281 72.5958 44.9668 72.5547ZM44.927 73.381C44.5732 73.424 44.2833 73.5302 44.0574 73.6996C43.8289 73.8694 43.666 74.0726 43.5686 74.3091C43.4687 74.546 43.4333 74.7867 43.4626 75.0311L43.5611 75.8562C43.5936 75.8057 43.672 75.7536 43.7963 75.6998C43.9184 75.6488 44.0612 75.5992 44.2247 75.5509C44.386 75.5056 44.5437 75.4632 44.698 75.4238C44.8501 75.3873 44.9734 75.3568 45.0679 75.3324C45.2968 75.2737 45.5082 75.1977 45.7022 75.1044C45.894 75.014 46.0438 74.8938 46.1515 74.7438C46.257 74.5967 46.296 74.4085 46.2687 74.1793C46.2312 73.8661 46.0879 73.6433 45.8388 73.5107C45.5873 73.3811 45.2834 73.3378 44.927 73.381Z" fill="#FFF4F4"/>
<path d="M39.6912 72.8025L39.1941 78.6905L38.3273 78.6077L38.4024 77.7184L38.3416 77.7126C38.2105 77.9937 37.9979 78.2117 37.7038 78.3665C37.4097 78.5214 37.0878 78.5821 36.738 78.5487C36.6721 78.5424 36.5898 78.5332 36.4912 78.5212C36.3926 78.5092 36.3181 78.4982 36.2679 78.4883L36.3455 77.5683C36.3753 77.5789 36.444 77.597 36.5517 77.6228C36.6567 77.6508 36.7687 77.6705 36.8878 77.6819C37.1717 77.709 37.4302 77.6732 37.6634 77.5744C37.8938 77.4779 38.0825 77.331 38.2295 77.1338C38.3737 76.9389 38.457 76.7086 38.4794 76.4428L38.794 72.7168L39.6912 72.8025Z" fill="#FFF4F4"/>
<path d="M32.9171 75.2707L33.9271 71.8646L34.786 72.1399L33.1069 77.8019L32.2772 77.536L32.5395 76.6513L32.4667 76.6279C32.2505 76.8735 31.983 77.0407 31.6644 77.1297C31.3451 77.2211 30.9743 77.1992 30.5522 77.0639C30.1737 76.9426 29.8659 76.7578 29.6287 76.5096C29.3907 76.2638 29.2399 75.9571 29.1762 75.5895C29.1118 75.2245 29.151 74.8011 29.2939 74.3194L30.3608 70.7217L31.2196 70.9969L30.1702 74.5357C30.0383 74.9805 30.0496 75.3635 30.204 75.6848C30.3577 76.0085 30.6335 76.2342 31.0314 76.3617C31.3055 76.4496 31.5684 76.4679 31.8201 76.4167C32.0693 76.3647 32.29 76.243 32.4822 76.0516C32.6745 75.8603 32.8194 75.6 32.9171 75.2707Z" fill="#FFF4F4"/>
<path d="M26.5379 68.5605C27.0284 68.8433 27.392 69.1978 27.6288 69.6238C27.8621 70.0509 27.9673 70.5193 27.9446 71.0291C27.9185 71.54 27.7621 72.0614 27.4755 72.5934C27.1889 73.1253 26.8413 73.5394 26.4327 73.8356C26.0206 74.1328 25.5821 74.2964 25.1169 74.3266C24.6484 74.3578 24.1843 74.2409 23.7247 73.9758C23.4596 73.8229 23.222 73.6269 23.0121 73.3876C22.8022 73.1484 22.6458 72.8662 22.543 72.541C22.4389 72.2181 22.4132 71.8546 22.4658 71.4506C22.5184 71.0466 22.6752 70.6023 22.9363 70.1176L23.1185 69.7795L27.0426 72.0423L26.671 72.7321L23.5423 70.928C23.3844 71.221 23.301 71.5156 23.292 71.8118C23.2808 72.1067 23.3444 72.3812 23.4826 72.6352C23.6187 72.888 23.8281 73.0959 24.1109 73.259C24.4225 73.4387 24.7345 73.5152 25.0471 73.4887C25.3563 73.4631 25.639 73.3602 25.8953 73.1801C26.1517 72.9999 26.3569 72.7667 26.5112 72.4804L26.7589 72.0206C26.9702 71.6284 27.0831 71.2576 27.0974 70.9084C27.1084 70.5602 27.0328 70.2463 26.8707 69.9667C26.7073 69.6893 26.4677 69.4595 26.1517 69.2773C25.9462 69.1588 25.7449 69.0811 25.5476 69.0442C25.3469 69.0082 25.1535 69.0149 24.9677 69.0643C24.7806 69.1159 24.6053 69.2128 24.4419 69.3549L23.8028 68.7028C24.0232 68.4872 24.2807 68.3343 24.5754 68.2443C24.8689 68.1564 25.1835 68.1369 25.5192 68.1858C25.8536 68.2368 26.1932 68.3617 26.5379 68.5605Z" fill="#FFF4F4"/>
<path d="M16.9407 66.9856L17.6928 67.3538C17.6432 67.4914 17.6141 67.6424 17.6055 67.8066C17.5933 67.9711 17.6226 68.142 17.6933 68.3193C17.7641 68.4965 17.8972 68.6732 18.0926 68.8493C18.3601 69.0904 18.6368 69.2279 18.9225 69.2618C19.2047 69.296 19.4276 69.2164 19.5911 69.0232C19.7365 68.8515 19.7906 68.6611 19.7534 68.4522C19.7162 68.2432 19.5967 67.9893 19.3948 67.6904L18.8846 66.9416C18.5763 66.4918 18.4114 66.08 18.3899 65.7063C18.3668 65.3346 18.4882 64.9916 18.7542 64.6774C18.9722 64.4198 19.2393 64.2545 19.5553 64.1815C19.8694 64.1068 20.2041 64.1263 20.5594 64.24C20.9147 64.3538 21.2622 64.5637 21.6018 64.8698C22.0477 65.2716 22.3325 65.7037 22.4562 66.1661C22.58 66.6285 22.5188 67.086 22.2728 67.5386L21.4965 67.128C21.6406 66.8313 21.6795 66.5464 21.613 66.2732C21.5447 65.9983 21.3729 65.7369 21.0978 65.4889C20.7847 65.2068 20.4783 65.0511 20.1786 65.0218C19.8753 64.9928 19.642 65.0749 19.4784 65.2681C19.3462 65.4242 19.2887 65.6029 19.3057 65.804C19.3211 66.0071 19.4166 66.2342 19.5921 66.4852L20.1721 67.3175C20.4899 67.7758 20.6559 68.1921 20.6703 68.5663C20.6812 68.9408 20.5553 69.2831 20.2926 69.5934C20.0778 69.8471 19.8186 70.0091 19.5149 70.0795C19.2093 70.1481 18.8889 70.1294 18.5537 70.0235C18.2167 69.9158 17.8945 69.7235 17.5871 69.4465C17.1545 69.0566 16.8974 68.653 16.8159 68.2355C16.7325 67.8164 16.7741 67.3997 16.9407 66.9856Z" fill="#FFF4F4"/>
<path d="M13.5561 54.876C13.7902 55.3943 13.8793 55.895 13.8234 56.3781C13.7642 56.86 13.5767 57.2994 13.2609 57.6963C12.9418 58.0919 12.5106 58.4189 11.9672 58.6773C11.4239 58.9357 10.8997 59.063 10.3946 59.0593C9.88611 59.0544 9.43391 58.9263 9.03794 58.675C8.63861 58.4225 8.32929 58.0535 8.10997 57.5679C7.98344 57.2878 7.90453 56.9892 7.87326 56.6723C7.84198 56.3554 7.87933 56.0356 7.98531 55.7129C8.08899 55.3914 8.28 55.0836 8.55833 54.7896C8.83667 54.4956 9.22333 54.2309 9.71833 53.9955L10.0637 53.8313L11.9363 57.9773L11.2318 58.3124L9.73876 55.0067C9.43947 55.1491 9.19981 55.3368 9.01981 55.5698C8.83875 55.8006 8.73039 56.0591 8.69473 56.3455C8.65801 56.6295 8.70713 56.9209 8.8421 57.2197C8.99077 57.5489 9.19999 57.7954 9.46976 57.9592C9.73617 58.1218 10.0261 58.2065 10.3397 58.2134C10.6532 58.2202 10.9562 58.1542 11.2486 58.0151L11.7183 57.7918C12.1189 57.6013 12.4268 57.3698 12.6421 57.0972C12.8541 56.8234 12.9757 56.526 13.0068 56.2049C13.0357 55.8849 12.9747 55.558 12.8239 55.2242C12.7259 55.0071 12.6074 54.8252 12.4684 54.6786C12.3261 54.5307 12.165 54.4216 11.985 54.3512C11.8027 54.2819 11.6036 54.2561 11.3878 54.2736L11.2482 53.3701C11.5532 53.3272 11.8518 53.3568 12.1441 53.4588C12.434 53.562 12.7013 53.7327 12.9459 53.9709C13.1882 54.2101 13.3916 54.5118 13.5561 54.876Z" fill="#FFF4F4"/>
<path d="M5.95482 50.9344L7.98199 49.0096L5.33577 48.1724L5.10699 47.1516L8.38179 48.3479L10.8222 45.8216L11.051 46.8423L9.14289 48.7394L11.67 49.6043L11.8988 50.6251L8.63075 49.4588L6.1836 51.9551L5.95482 50.9344Z" fill="#FFF4F4"/>
<path d="M11.5221 42.2495C11.5314 42.7829 11.4135 43.2525 11.1685 43.6583C10.9234 44.0615 10.5763 44.3789 10.1271 44.6103C9.67783 44.8391 9.15027 44.9574 8.54439 44.965C7.93343 44.9728 7.39816 44.868 6.9386 44.6507C6.479 44.4308 6.11971 44.1224 5.86073 43.7255C5.6017 43.3261 5.46755 42.8597 5.45827 42.3263C5.44899 41.7929 5.56688 41.3246 5.81195 40.9214C6.05696 40.5156 6.40537 40.1982 6.85717 39.9693C7.30892 39.7379 7.84028 39.6183 8.45125 39.6106C9.05712 39.6029 9.58859 39.709 10.0456 39.929C10.5027 40.1463 10.8607 40.4547 11.1197 40.8541C11.3787 41.251 11.5128 41.7161 11.5221 42.2495ZM10.7126 42.2598C10.7055 41.8546 10.5966 41.5225 10.3859 41.2636C10.1751 41.0046 9.90064 40.8144 9.56242 40.693C9.2242 40.5716 8.85908 40.5134 8.46704 40.5184C8.075 40.5233 7.71079 40.5908 7.3744 40.7207C7.03801 40.8507 6.76772 41.0478 6.56352 41.312C6.35932 41.5762 6.26075 41.9109 6.2678 42.3161C6.27484 42.7212 6.38502 43.0533 6.59831 43.3122C6.81161 43.5711 7.08864 43.7613 7.4294 43.8826C7.77016 44.004 8.13656 44.0622 8.5286 44.0572C8.92064 44.0523 9.28358 43.9848 9.61742 43.8549C9.95127 43.725 10.219 43.528 10.4207 43.2638C10.6223 42.9996 10.7196 42.6649 10.7126 42.2598ZM4.74761 42.7508L2.95948 41.8347L2.94101 40.7731L4.73369 41.9507L4.74761 42.7508Z" fill="#FFF4F4"/>
<path d="M6.49307 33.0127L7.24139 33.1666L6.67496 36.1754L5.92663 36.0214L6.49307 33.0127ZM4.71481 34.8613L4.88274 33.9692L10.3605 35.0961C10.6099 35.1474 10.8039 35.1493 10.9424 35.1019C11.0788 35.0514 11.1792 34.9726 11.2434 34.8654C11.3056 34.7552 11.349 34.6346 11.3737 34.5035C11.3922 34.4053 11.4024 34.3236 11.4043 34.2586C11.4037 34.193 11.4032 34.1405 11.4028 34.1012L12.2302 34.0829C12.2413 34.148 12.2478 34.2371 12.2499 34.35C12.2544 34.4635 12.241 34.6034 12.2097 34.7697C12.1623 35.0217 12.0622 35.2576 11.9094 35.4775C11.757 35.6948 11.5562 35.8603 11.3068 35.9739C11.0579 36.0849 10.7663 36.1061 10.432 36.0373L4.71481 34.8613Z" fill="#FFF4F4"/>
<path d="M13.6588 29.8656L8.28898 27.4876L8.63458 26.649L14.0044 29.0271L13.6588 29.8656ZM7.56974 26.6649C7.50238 26.8283 7.38952 26.945 7.23116 27.0149C7.07379 27.0825 6.91819 27.0822 6.76436 27.0141C6.61054 26.9459 6.50278 26.8296 6.44108 26.665C6.38035 26.4981 6.38367 26.3329 6.45104 26.1694C6.5184 26.006 6.63077 25.8905 6.78815 25.8229C6.9465 25.753 7.10259 25.7521 7.25642 25.8202C7.41024 25.8883 7.51751 26.0059 7.57824 26.1728C7.63994 26.3374 7.63711 26.5014 7.56974 26.6649Z" fill="#FFF4F4"/>
<path d="M17.1044 23.7256C16.7933 24.1824 16.4201 24.4992 15.9848 24.676C15.5495 24.8528 15.0866 24.8957 14.596 24.8047C14.1055 24.7137 13.6228 24.4956 13.1479 24.1504C12.6648 23.7992 12.3005 23.3984 12.0548 22.9479C11.8085 22.4937 11.6928 22.027 11.7075 21.5476C11.7217 21.0646 11.8786 20.6032 12.1782 20.1633C12.4115 19.8207 12.6838 19.557 12.9949 19.3721C13.3061 19.1873 13.6329 19.0881 13.9754 19.0747C14.3179 19.0613 14.6523 19.1414 14.9784 19.3153L14.4684 20.0639C14.2127 19.9634 13.9343 19.9507 13.6331 20.0258C13.3313 20.0973 13.068 20.298 12.8433 20.6279C12.6445 20.9197 12.5446 21.2296 12.5434 21.5576C12.5416 21.882 12.6331 22.2031 12.818 22.5209C13.0022 22.835 13.2739 23.1227 13.6331 23.3838C14.0006 23.6509 14.3609 23.8244 14.7141 23.9041C15.0687 23.9816 15.3956 23.9663 15.6946 23.858C15.9952 23.7476 16.2463 23.5444 16.4479 23.2484C16.5805 23.0538 16.6677 22.8532 16.7097 22.6466C16.7517 22.4399 16.7482 22.2366 16.6992 22.0366C16.6502 21.8366 16.5549 21.6503 16.4132 21.4777L16.9231 20.7291C17.1751 20.9755 17.3567 21.264 17.4679 21.5947C17.5785 21.9217 17.607 22.2696 17.5533 22.6385C17.4989 23.0037 17.3493 23.3661 17.1044 23.7256Z" fill="#FFF4F4"/>
<path d="M21.3256 18.4009C21.0561 18.6587 20.7644 18.8404 20.4506 18.9461C20.1351 19.0499 19.8229 19.0639 19.514 18.988C19.2035 18.9103 18.9199 18.729 18.6633 18.4441C18.4374 18.1933 18.3024 17.9442 18.2581 17.6966C18.2121 17.4471 18.2293 17.2009 18.3095 16.958C18.3897 16.7151 18.5071 16.4791 18.6616 16.25C18.8162 16.0172 18.9804 15.793 19.154 15.5775C19.3816 15.296 19.5681 15.07 19.7133 14.8992C19.8587 14.7248 19.9486 14.5805 19.9831 14.4661C20.0195 14.35 19.9889 14.2379 19.8914 14.1296L19.8709 14.1068C19.6177 13.8257 19.3462 13.6788 19.0563 13.6661C18.7684 13.6516 18.4739 13.7883 18.173 14.0761C17.8609 14.3746 17.6796 14.6788 17.629 14.9889C17.5783 15.299 17.5888 15.5683 17.6605 15.7967L16.8349 16.1621C16.7062 15.7902 16.6674 15.4419 16.7186 15.1172C16.7699 14.7887 16.8789 14.49 17.0456 14.221C17.2124 13.9483 17.4029 13.7095 17.6171 13.5047C17.7537 13.374 17.926 13.241 18.1341 13.1056C18.3422 12.9666 18.5756 12.8689 18.8341 12.8126C19.0945 12.7544 19.3733 12.7759 19.6706 12.877C19.9678 12.9781 20.273 13.2024 20.586 13.55L23.1829 16.4334L22.5293 17.0586L21.9956 16.4659L21.9623 16.4977C22.0036 16.6351 22.0212 16.8074 22.0154 17.0145C22.0095 17.2217 21.9549 17.4454 21.8516 17.6856C21.7484 17.9258 21.573 18.1642 21.3256 18.4009ZM20.8813 17.7015C21.1398 17.4542 21.3106 17.1936 21.3938 16.9196C21.4788 16.6438 21.4921 16.3801 21.4337 16.1283C21.3772 15.8747 21.2668 15.6568 21.1026 15.4744L20.5483 14.859C20.5514 14.9197 20.5187 15.0093 20.4502 15.1278C20.3818 15.2427 20.2961 15.3689 20.1931 15.5064C20.0902 15.6401 19.9884 15.7694 19.8876 15.8941C19.7869 16.0151 19.7058 16.1139 19.6442 16.1905C19.4949 16.3758 19.3695 16.5647 19.2679 16.7572C19.1666 16.9461 19.116 17.1342 19.1162 17.3214C19.1165 17.5049 19.1937 17.6822 19.3476 17.8531C19.558 18.0868 19.8011 18.1831 20.0769 18.142C20.3529 18.0973 20.621 17.9505 20.8813 17.7015Z" fill="#FFF4F4"/>
<path d="M27.4861 10.0083L26.7785 10.474C26.6918 10.359 26.583 10.2549 26.4523 10.1619C26.3233 10.0656 26.1668 10.0023 25.9827 9.97178C25.7987 9.9413 25.5816 9.96563 25.3314 10.0448C24.9889 10.1531 24.7269 10.3233 24.5453 10.5555C24.3655 10.7844 24.3112 11.0206 24.3824 11.2642C24.4458 11.4807 24.5735 11.6271 24.7656 11.7034C24.9578 11.7797 25.2313 11.8074 25.5861 11.7866L26.4772 11.7304C27.0136 11.6952 27.4415 11.7654 27.7609 11.9412C28.0797 12.1146 28.2969 12.3993 28.4128 12.7954C28.5078 13.1201 28.5004 13.4396 28.3906 13.7539C28.2833 14.0674 28.0873 14.3498 27.8025 14.6011C27.5178 14.8525 27.1581 15.0469 26.7233 15.1844C26.1525 15.365 25.6433 15.389 25.1959 15.2563C24.7484 15.1237 24.4044 14.8321 24.1637 14.3814L24.9194 13.9166C25.0864 14.197 25.3002 14.3793 25.561 14.4635C25.8243 14.5469 26.132 14.5329 26.4842 14.4215C26.885 14.2947 27.178 14.1079 27.3632 13.8612C27.5501 13.6112 27.608 13.3644 27.5368 13.1209C27.4792 12.9241 27.363 12.7807 27.1881 12.6909C27.0125 12.5986 26.7741 12.5638 26.4729 12.5865L25.4754 12.6602C24.9269 12.6993 24.4947 12.6277 24.1786 12.4455C23.8643 12.26 23.6499 11.9716 23.5355 11.5805C23.442 11.2606 23.4479 10.9497 23.5532 10.6476C23.661 10.3447 23.8486 10.0743 24.1161 9.83653C24.386 9.59795 24.7177 9.41642 25.1112 9.29195C25.665 9.11677 26.1357 9.10224 26.5235 9.24838C26.9136 9.39375 27.2345 9.64704 27.4861 10.0083Z" fill="#FFF4F4"/>
<path d="M80.9988 40.6943C81.1652 62.7851 63.3919 80.83 41.3012 80.9988C19.2104 81.1676 1.16749 63.3964 1.00116 41.3057C0.834827 19.2149 18.6081 1.17 40.6988 1.00119C62.7896 0.832383 80.8325 18.6036 80.9988 40.6943Z" stroke="#535352" stroke-width="2" mask="url(#path-1-outside-1_19_129)"/>
<path d="M48.0269 27.823C48.3646 29.9031 48.2296 30.1631 46.0006 31.1381C43.9068 32.1132 42.2857 32.2432 34.5183 31.7882L25.9206 31.3527C25.6639 31.3397 25.4066 31.346 25.1508 31.3717L24.6655 31.4203C23.1904 31.5682 21.8961 32.4741 21.2439 33.8151C20.9564 34.406 20.807 35.0554 20.807 35.7134V45.5686C20.807 57.594 21.0096 58.244 23.7789 57.984C25.2649 57.854 25.8052 57.529 25.6026 56.814C24.8596 54.4089 24.7921 51.1588 25.4675 49.5987C26.1429 47.9087 26.2105 47.8437 32.8972 47.9087H39.7191V51.3538C39.7191 56.4239 40.5972 58.114 43.1638 58.114C44.7848 58.114 45.1901 57.919 44.8524 57.074C43.0287 52.4588 43.6366 50.0537 46.8111 49.0137C49.3102 48.2337 51.8769 45.6336 51.8769 43.8786C51.8769 43.1635 51.3365 43.4235 50.2558 44.7886C49.3778 45.8286 48.4997 46.6086 48.3646 46.4136C47.0138 44.8536 45.1901 40.9535 45.5278 40.4334C46.2033 39.3934 50.2558 37.9634 52.5523 37.9634H54.6462L53.2277 39.3934C52.4848 40.1734 51.8769 41.0185 51.8769 41.3435C51.8769 42.3185 53.0927 41.8635 54.0383 40.4984C54.7137 39.4584 55.9295 39.0034 58.9689 38.6784C62.8189 38.2884 62.954 38.2234 63.5619 36.0133C63.9671 34.4532 63.8996 33.6732 63.3592 33.5432C62.954 33.4132 62.3461 32.9582 62.0084 32.5032C57.9558 27.563 57.0777 26.913 54.9163 26.913C53.633 26.913 52.4172 26.588 52.2146 26.263C52.012 25.873 50.8637 25.613 49.7155 25.613C47.7567 25.613 47.6892 25.678 48.0269 27.823ZM52.9576 28.5381C54.1058 30.2281 55.4567 30.1631 54.7812 28.4731C54.4435 27.693 54.7137 27.628 56.1997 28.2781C57.1453 28.7331 57.9558 29.2531 57.9558 29.5131C57.9558 29.7081 59.0365 31.0081 60.3198 32.4382C61.9408 34.1282 62.6163 35.2983 62.2785 36.1433C61.9408 37.2483 61.3329 37.3133 55.7268 37.0533L49.5129 36.7283L48.5673 34.3882C47.7567 32.3082 47.7567 31.9182 48.5673 31.4632C49.0401 31.1381 50.2558 31.0731 51.2015 31.2681L52.89 31.6582L51.0664 29.9681C49.9857 29.0581 49.1752 27.953 49.1752 27.563C49.1752 26.263 51.8769 26.913 52.9576 28.5381ZM30.6683 33.8032C30.4657 34.3882 30.2631 35.0383 30.2631 35.2983C30.2631 35.6233 29.5201 36.5983 28.5069 37.6384C26.7508 39.4584 26.7508 40.6935 28.5069 39.3284C30.8709 37.4433 34.3156 40.8885 34.3156 45.1786V47.1937L30.4657 46.7386C28.3718 46.4786 25.6701 45.8286 24.3868 45.2436C21.6851 44.0086 21.4149 42.0585 23.8464 41.4735C24.792 41.2785 25.535 40.8235 25.535 40.4984C25.535 40.1734 24.792 40.0434 23.8464 40.3034C22.293 40.6934 22.1579 40.4984 22.1579 38.4184C22.1579 35.2333 24.8596 32.7632 28.3718 32.7632C30.6008 32.7632 31.006 32.9582 30.6683 33.8032ZM36.4095 33.4132C37.3551 33.4132 37.2875 33.9332 35.7341 36.5983L33.9779 39.8484L32.492 38.4834C31.3437 37.4433 31.0736 36.6633 31.4113 35.4283C32.0192 32.8932 32.2893 32.6332 33.9104 33.0232C34.6534 33.2182 35.8016 33.4132 36.4095 33.4132ZM47.1489 34.4533C48.162 36.9883 47.9594 37.5734 45.6629 38.8084C43.6366 39.9134 43.5015 39.9134 42.1507 38.7434C41.3401 38.0284 40.0568 37.1183 39.1788 36.6633C37.6928 35.9483 37.6253 35.8183 38.706 34.7133C39.3814 33.9982 41.0024 33.3482 42.3533 33.2182C43.7042 33.0882 45.1901 32.9582 45.6629 32.8932C46.1357 32.8282 46.8111 33.5432 47.1489 34.4533ZM41.0024 39.3934C44.2445 41.6685 44.1094 41.9285 38.5709 42.7735C35.7341 43.1635 35.6665 43.1635 35.6665 41.2785C35.6665 38.8084 36.2744 37.3133 37.2875 37.3133C37.7604 37.3133 39.4489 38.2234 41.0024 39.3934ZM46.2032 45.1786C47.0813 46.8686 47.1489 47.3237 46.3383 47.7787C45.1901 48.4937 44.4471 48.4937 44.4471 47.7137C44.4471 46.4136 41.8805 45.7636 38.7735 46.3486C36.0042 46.8686 35.6665 46.7386 35.6665 45.6986C35.6665 44.9836 36.2744 44.3336 37.22 44.2036C38.0305 44.0086 39.3138 43.7485 40.0568 43.6185C43.8392 42.8385 45.055 43.1635 46.2032 45.1786ZM24.0491 46.6086C24.5894 47.2587 24.5894 48.1687 24.1166 49.9887C23.7114 51.3538 23.5087 53.4989 23.7114 54.7339C23.9815 56.2289 23.8464 56.814 23.3061 56.619C22.7658 56.489 22.428 54.4739 22.293 51.0938C22.0903 45.8936 22.5631 44.8536 24.0491 46.6086ZM43.0287 47.9087C43.5691 48.5587 43.5015 49.3387 42.9612 50.8338C42.3533 52.3938 42.2857 53.3689 42.8936 54.8639C43.5015 56.424 43.5015 56.814 42.7585 56.814C41.4752 56.814 41.07 55.3189 41.07 50.8988C41.07 47.0637 41.6103 46.2836 43.0287 47.9087Z" stroke="#535352" stroke-width="2" mask="url(#path-1-outside-1_19_129)"/>
<path d="M42.88 11.6513L40.4773 11.4218L41.1401 3.57107L43.6493 3.81075C44.4046 3.8829 45.0376 4.1018 45.5484 4.46746C46.0594 4.83056 46.4334 5.31841 46.6704 5.93099C46.9076 6.54101 46.9919 7.25236 46.9233 8.06503C46.8542 8.88281 46.6503 9.57307 46.3115 10.1358C45.973 10.696 45.514 11.1081 44.9348 11.3722C44.3557 11.6338 43.6708 11.7268 42.88 11.6513ZM41.4913 10.6685L42.8904 10.8021C43.5341 10.8636 44.0782 10.7894 44.5226 10.5793C44.9671 10.3693 45.3127 10.043 45.5596 9.60027C45.8065 9.15756 45.9569 8.61677 46.0108 7.97787C46.0643 7.34409 46.0078 6.78868 45.8411 6.31162C45.6746 5.83201 45.3977 5.45005 45.0104 5.16573C44.6233 4.87887 44.1256 4.70638 43.5173 4.64828L42.0118 4.50447L41.4913 10.6685Z" stroke="#535352" stroke-width="2" mask="url(#path-1-outside-1_19_129)"/>
<path d="M49.6476 13.1904C49.109 13.0178 48.6802 12.7485 48.361 12.3825C48.045 12.0148 47.8459 11.5796 47.7638 11.077C47.6849 10.5727 47.7314 10.0306 47.9034 9.45063C48.0754 8.87067 48.3313 8.39295 48.6711 8.01747C49.0141 7.64032 49.4104 7.38789 49.8601 7.2602C50.3129 7.13083 50.7916 7.14701 51.2962 7.30873C51.5873 7.40203 51.8603 7.54332 52.115 7.73258C52.3697 7.92185 52.5807 8.16439 52.748 8.46021C52.916 8.75356 53.0156 9.10302 53.0468 9.50859C53.078 9.91416 53.0152 10.3811 52.8585 10.9095L52.7492 11.2781L48.4405 9.89723L48.6635 9.14524L52.0988 10.2462C52.1935 9.92673 52.215 9.62145 52.1632 9.33036C52.1138 9.04004 51.9953 8.78546 51.8079 8.5666C51.6228 8.34853 51.375 8.18973 51.0645 8.09021C50.7224 7.98058 50.4009 7.97173 50.1 8.06367C49.8022 8.15393 49.5462 8.31407 49.3319 8.54408C49.1176 8.7741 48.9641 9.04516 48.8716 9.35725L48.7229 9.85858C48.5961 10.2862 48.5614 10.672 48.6188 11.016C48.6793 11.3583 48.8176 11.6489 49.0337 11.8877C49.2506 12.124 49.5325 12.2978 49.8794 12.4089C50.105 12.4812 50.3183 12.5146 50.5192 12.509C50.7232 12.5018 50.9113 12.4544 51.0834 12.3669C51.2561 12.277 51.4081 12.1454 51.5392 11.9721L52.2989 12.4739C52.1271 12.731 51.9059 12.9346 51.6356 13.0848C51.366 13.2325 51.0617 13.318 50.7227 13.3412C50.3845 13.362 50.0261 13.3117 49.6476 13.1904Z" stroke="#535352" stroke-width="2" mask="url(#path-1-outside-1_19_129)"/>
<path d="M59.4101 8.94441L55.6794 15.8693L54.8973 15.4182L58.6279 8.49337L59.4101 8.94441Z" stroke="#535352" stroke-width="2" mask="url(#path-1-outside-1_19_129)"/>
<path d="M60.0728 18.216L63.879 13.7197L64.5507 14.325L60.7445 18.8213L60.0728 18.216ZM64.4286 13.1416L66.2728 12.4092L67.0584 13.1171L65.0206 13.6751L64.4286 13.1416Z" stroke="#535352" stroke-width="2" mask="url(#path-1-outside-1_19_129)"/>
<path d="M65.4218 23.8235C65.0964 23.3769 64.9193 22.9128 64.8905 22.4311C64.8616 21.9495 64.9648 21.4822 65.2 21.0293C65.4352 20.5764 65.7852 20.1706 66.25 19.8118C66.7229 19.4468 67.205 19.2136 67.6963 19.1122C68.1911 19.0113 68.6574 19.0424 69.095 19.2053C69.5361 19.3688 69.9133 19.6655 70.2266 20.0956C70.4707 20.4305 70.63 20.7792 70.7046 21.1416C70.7791 21.504 70.7698 21.8552 70.6766 22.1953C70.5833 22.5354 70.4063 22.8384 70.1454 23.1044L69.6121 22.3724C69.7837 22.1528 69.8812 21.8837 69.9048 21.565C69.932 21.2469 69.828 20.9266 69.593 20.604C69.3851 20.3187 69.1301 20.1247 68.8279 20.0219C68.5293 19.9197 68.2049 19.91 67.8549 19.9929C67.5083 20.0762 67.1592 20.2536 66.8075 20.5251C66.4478 20.8027 66.1767 21.1024 65.9943 21.4241C65.8134 21.7478 65.7268 22.0731 65.7344 22.4C65.7436 22.7289 65.8536 23.038 66.0645 23.3275C66.2031 23.5177 66.3612 23.6654 66.5388 23.7706C66.7165 23.8757 66.9051 23.9353 67.1047 23.9492C67.3043 23.9631 67.5055 23.9273 67.7084 23.8418L68.2417 24.5737C67.9367 24.7445 67.6146 24.8333 67.2753 24.8399C66.9395 24.8471 66.6098 24.7673 66.2861 24.6004C65.966 24.434 65.6779 24.175 65.4218 23.8235Z" stroke="#535352" stroke-width="2" mask="url(#path-1-outside-1_19_129)"/>
<path d="M68.0636 28.7415L73.368 26.2191L73.7413 27.0455L68.4368 29.5679L68.0636 28.7415ZM74.4419 26.2189C74.3692 26.0578 74.3605 25.8932 74.416 25.725C74.4726 25.5592 74.5768 25.4401 74.7288 25.3679C74.8807 25.2956 75.0366 25.2909 75.1965 25.3539C75.3574 25.4191 75.4743 25.5323 75.547 25.6934C75.6198 25.8545 75.6279 26.0179 75.5713 26.1838C75.5159 26.352 75.4121 26.4722 75.2602 26.5444C75.1082 26.6167 74.9518 26.6202 74.7909 26.5549C74.631 26.492 74.5147 26.38 74.4419 26.2189Z" stroke="#535352" stroke-width="2" mask="url(#path-1-outside-1_19_129)"/>
<path d="M71.4461 35.2586C71.3642 34.8933 71.3582 34.546 71.4279 34.2165C71.5001 33.8865 71.6467 33.6036 71.868 33.3678C72.0916 33.1315 72.3895 32.9701 72.7616 32.8835C73.0891 32.8073 73.3691 32.8105 73.6016 32.8933C73.8367 32.9755 74.0369 33.1118 74.2022 33.3024C74.3676 33.4929 74.5083 33.7129 74.6242 33.9623C74.7432 34.2136 74.85 34.4691 74.9447 34.7287C75.0679 35.0685 75.165 35.3447 75.2361 35.5572C75.3103 35.7716 75.3871 35.9222 75.4666 36.0089C75.5466 36.0982 75.6573 36.1264 75.7987 36.0935L75.8285 36.0866C76.1956 36.0012 76.4582 35.8335 76.6162 35.5835C76.7747 35.336 76.8083 35.0084 76.7169 34.6006C76.6221 34.1778 76.456 33.8676 76.2187 33.6702C75.9813 33.4727 75.7475 33.3495 75.5172 33.3004L75.6265 32.3905C76.0074 32.4598 76.3226 32.597 76.5722 32.8022C76.8248 33.0092 77.0229 33.2527 77.1665 33.5325C77.3132 33.8142 77.4191 34.1002 77.4841 34.3904C77.5256 34.5756 77.5509 34.7934 77.5601 35.044C77.5723 35.2965 77.5367 35.5509 77.4532 35.8072C77.3703 36.0661 77.2105 36.302 76.9737 36.515C76.737 36.7281 76.3916 36.8874 75.9377 36.993L72.1722 37.8693L71.9737 36.9837L72.7476 36.8036L72.7375 36.7585C72.6001 36.7274 72.4449 36.6582 72.2721 36.551C72.0993 36.4438 71.9372 36.2854 71.7859 36.0758C71.6345 35.8662 71.5213 35.5938 71.4461 35.2586ZM72.2652 35.2101C72.3437 35.5604 72.4781 35.8397 72.6684 36.0481C72.8592 36.2591 73.0762 36.4007 73.3195 36.4731C73.5634 36.5479 73.8044 36.5577 74.0425 36.5022L74.8462 36.3152C74.7931 36.2881 74.7337 36.215 74.6679 36.0961C74.6051 35.9791 74.5416 35.8412 74.4773 35.6824C74.4161 35.5256 74.3581 35.3719 74.3035 35.2214C74.2519 35.0729 74.2093 34.9525 74.1756 34.8603C74.0942 34.6371 73.9976 34.4332 73.8858 34.2486C73.777 34.066 73.6431 33.9287 73.4842 33.8367C73.3283 33.7466 73.1387 33.7275 72.9155 33.7795C72.6104 33.8505 72.4052 34.018 72.2999 34.282C72.1977 34.548 72.1862 34.8574 72.2652 35.2101Z" stroke="#535352" stroke-width="2" mask="url(#path-1-outside-1_19_129)"/>
<path d="M76.9964 44.2421L76.753 43.4295C76.8871 43.3765 77.0168 43.2992 77.1424 43.1976C77.2705 43.0985 77.3751 42.9638 77.4562 42.7935C77.5372 42.6232 77.5754 42.406 77.5708 42.1418C77.5645 41.7802 77.4765 41.48 77.3068 41.241C77.1397 41.0046 76.9302 40.8879 76.6782 40.8911C76.4541 40.8939 76.2786 40.9782 76.1517 41.144C76.0247 41.3097 75.921 41.5675 75.8405 41.9174L75.642 42.7971C75.5239 43.327 75.3361 43.7231 75.0784 43.9854C74.8233 44.2476 74.4907 44.3814 74.0809 44.3865C73.7449 44.3908 73.4428 44.2971 73.1746 44.1055C72.9065 43.9165 72.6931 43.6499 72.5343 43.3056C72.3755 42.9614 72.2921 42.5597 72.2841 42.1007C72.2736 41.4981 72.3947 40.9977 72.6474 40.5995C72.9002 40.2013 73.2751 39.9465 73.7723 39.8351L74.0012 40.694C73.6869 40.78 73.4529 40.9382 73.299 41.1684C73.1452 41.4012 73.0716 41.7035 73.0781 42.0753C73.0855 42.4984 73.1804 42.8333 73.363 43.0798C73.5481 43.3288 73.7667 43.4517 74.0187 43.4485C74.2223 43.446 74.3917 43.372 74.5266 43.2267C74.6641 43.0813 74.7646 42.8595 74.8282 42.5611L75.0401 41.5735C75.1579 41.0308 75.3483 40.6308 75.6112 40.3736C75.8766 40.1189 76.2117 39.989 76.6165 39.9839C76.9474 39.9797 77.2418 40.0696 77.4997 40.2536C77.7575 40.4402 77.9619 40.6954 78.1127 41.0192C78.2635 41.3457 78.3425 41.7166 78.3498 42.132C78.36 42.7167 78.2407 43.1773 77.992 43.5139C77.7433 43.853 77.4114 44.0958 76.9964 44.2421Z" stroke="#535352" stroke-width="2" mask="url(#path-1-outside-1_19_129)"/>
<path d="M68.7022 53.8348C68.8896 53.38 69.1681 53.0286 69.5377 52.7805C69.9096 52.5334 70.3435 52.4035 70.8394 52.3906C71.3376 52.3787 71.8711 52.4987 72.4398 52.7506C73.0038 53.0004 73.4527 53.3154 73.7865 53.6957C74.1204 54.0761 74.328 54.4916 74.4096 54.9423C74.4912 55.3929 74.4373 55.8481 74.2479 56.3076C74.1015 56.6629 73.9275 56.9178 73.726 57.0723C73.5259 57.2301 73.33 57.331 73.1382 57.375C72.9479 57.4223 72.7934 57.4561 72.6748 57.4764L72.6455 57.5475L75.2884 58.7179L74.9428 59.5565L67.7831 56.3857L68.117 55.5756L68.942 55.941L68.983 55.8415C68.9105 55.7366 68.8231 55.5942 68.7208 55.4145C68.6208 55.2357 68.556 55.0152 68.5264 54.7528C68.4991 54.4914 68.5577 54.1854 68.7022 53.8348ZM69.3965 54.2767C69.2578 54.6131 69.2269 54.9355 69.3037 55.244C69.3828 55.5536 69.5513 55.8369 69.8092 56.0939C70.0693 56.352 70.4022 56.5708 70.8077 56.7504C71.2086 56.928 71.5838 57.0241 71.9332 57.0388C72.285 57.0545 72.5927 56.9835 72.8561 56.8257C73.122 56.6689 73.3252 56.4199 73.4658 56.0789C73.6122 55.7235 73.6445 55.3877 73.5627 55.0714C73.4822 54.7584 73.3137 54.4751 73.0572 54.2215C72.8021 53.9712 72.4857 53.7625 72.1081 53.5953C71.7259 53.426 71.3543 53.3315 70.9931 53.3116C70.6334 53.2951 70.3131 53.3634 70.0323 53.5163C69.7529 53.6727 69.5409 53.9262 69.3965 54.2767Z" stroke="#535352" stroke-width="2" mask="url(#path-1-outside-1_19_129)"/>
<path d="M65.951 59.4405C66.1613 59.1317 66.409 58.8928 66.6939 58.7237C66.981 58.5561 67.2833 58.4771 67.6009 58.4866C67.9206 58.4977 68.2352 58.6158 68.5449 58.8409C68.8174 59.039 69.0009 59.2546 69.0952 59.4876C69.1917 59.7222 69.2258 59.9667 69.1975 60.2212C69.1692 60.4757 69.1032 60.7313 68.9994 60.9878C68.8962 61.248 68.782 61.5018 68.6568 61.749C68.4923 62.0721 68.3567 62.3324 68.2499 62.5299C68.1438 62.731 68.0857 62.8911 68.0755 63.0102C68.064 63.1315 68.117 63.2348 68.2347 63.3204L68.2595 63.3384C68.565 63.5605 68.8608 63.6475 69.1467 63.5992C69.4313 63.5531 69.6909 63.3577 69.9257 63.013C70.1692 62.6556 70.2837 62.3199 70.2692 62.0058C70.2547 61.6917 70.1888 61.4304 70.0716 61.2219L70.8034 60.6914C71.006 61.0284 71.1157 61.3612 71.1327 61.6897C71.1503 62.0219 71.1054 62.3371 70.998 62.6352C70.8912 62.937 70.7542 63.2106 70.5871 63.4559C70.4805 63.6124 70.3395 63.7786 70.1641 63.9546C69.9893 64.1343 69.7813 64.2787 69.5401 64.388C69.2976 64.4994 69.0206 64.5367 68.7091 64.5C68.3976 64.4633 68.053 64.3076 67.6752 64.033L64.5413 61.7547L65.0512 61.0061L65.6954 61.4744L65.7213 61.4363C65.6526 61.3105 65.5998 61.1456 65.5628 60.9416C65.5258 60.7377 65.533 60.5073 65.5844 60.2506C65.6358 59.9939 65.758 59.7239 65.951 59.4405ZM66.5297 60.032C66.3281 60.328 66.2148 60.6188 66.1901 60.9044C66.1639 61.1921 66.2053 61.453 66.3144 61.6872C66.422 61.9235 66.5748 62.1137 66.773 62.2578L67.4419 62.7441C67.4264 62.6853 67.4398 62.5908 67.4823 62.4604C67.5255 62.3337 67.5832 62.1922 67.6556 62.0362C67.7286 61.8837 67.8015 61.7359 67.8743 61.5928C67.9477 61.4533 68.0066 61.3396 68.051 61.2517C68.1588 61.0392 68.2424 60.828 68.3019 60.6183C68.362 60.4122 68.3726 60.2176 68.3338 60.0344C68.2956 59.8549 68.1836 59.6976 67.9978 59.5625C67.7439 59.3779 67.4863 59.3345 67.2252 59.4324C66.9646 59.5339 66.7328 59.7338 66.5297 60.032Z" stroke="#535352" stroke-width="2" mask="url(#path-1-outside-1_19_129)"/>
<path d="M63.1452 69.6626L63.5784 68.9301C63.706 68.9955 63.8485 69.0412 64.0061 69.0673C64.1635 69.097 64.3313 69.085 64.5096 69.0311C64.6879 68.9772 64.8722 68.8594 65.0623 68.6775C65.3227 68.4285 65.484 68.1592 65.5464 67.8698C65.6086 67.584 65.555 67.3471 65.3856 67.159C65.2351 66.9919 65.0571 66.9163 64.8517 66.9325C64.6463 66.9486 64.389 67.0445 64.0797 67.2201L63.3046 67.6645C62.8387 67.9333 62.4244 68.0591 62.0618 68.0418C61.7008 68.0264 61.3826 67.8658 61.1072 67.56C60.8814 67.3093 60.7497 67.018 60.7121 66.6863C60.6726 66.3563 60.7262 66.0151 60.8728 65.6627C61.0194 65.3103 61.258 64.9761 61.5884 64.66C62.0223 64.245 62.4687 63.9984 62.9275 63.9202C63.3863 63.842 63.8212 63.9528 64.2322 64.2527L63.7556 65.0056C63.4843 64.8266 63.2136 64.7568 62.9432 64.7962C62.6709 64.8374 62.401 64.986 62.1333 65.242C61.8286 65.5334 61.6466 65.8312 61.5873 66.1355C61.5278 66.4434 61.5828 66.6914 61.7521 66.8795C61.889 67.0314 62.0553 67.1092 62.2511 67.1129C62.4485 67.1185 62.6775 67.0445 62.9378 66.8909L63.8008 66.3838C64.2759 66.1061 64.6946 65.9796 65.057 66.0042C65.4193 66.0325 65.7364 66.1976 66.0084 66.4997C66.2308 66.7466 66.3602 67.0295 66.3965 67.3484C66.4309 67.669 66.3797 67.9956 66.2427 68.3281C66.1039 68.6624 65.8849 68.9726 65.5858 69.2587C65.1649 69.6614 64.7489 69.8825 64.3378 69.9221C63.9248 69.9635 63.5273 69.877 63.1452 69.6626Z" stroke="#535352" stroke-width="2" mask="url(#path-1-outside-1_19_129)"/>
<path d="M49.9296 75.9025L50.8243 75.5897C50.964 75.8313 51.1329 76.0274 51.3309 76.178C51.5265 76.3295 51.7405 76.4393 51.9727 76.5074C52.2033 76.5788 52.4431 76.609 52.6919 76.598C52.9407 76.587 53.1877 76.5386 53.4331 76.4528C53.8804 76.2963 54.2475 76.0404 54.5344 75.6848C54.8189 75.3302 54.9939 74.8929 55.0594 74.3732C55.1225 73.8543 55.0462 73.2716 54.8303 72.6249C54.6144 71.9783 54.3264 71.4695 53.9662 71.0987C53.6036 70.7287 53.2038 70.4925 52.7667 70.3902C52.3273 70.2887 51.8839 70.3161 51.4365 70.4726C51.1912 70.5584 50.9669 70.6748 50.7635 70.822C50.5602 70.9691 50.3882 71.1419 50.2477 71.3404C50.1055 71.5421 50.0024 71.7642 49.9382 72.0065C49.8725 72.2521 49.8562 72.513 49.8893 72.7892L48.9946 73.1021C48.9345 72.6968 48.9432 72.3124 49.0205 71.9487C49.0979 71.585 49.2335 71.2512 49.4275 70.9472C49.6222 70.6456 49.8661 70.3825 50.1591 70.1578C50.4496 69.9341 50.7813 69.757 51.1541 69.6266C51.7842 69.4062 52.3966 69.3658 52.9911 69.5054C53.5856 69.645 54.1193 69.9524 54.5923 70.4277C55.0652 70.903 55.4331 71.5345 55.6961 72.3221C55.9591 73.1098 56.0456 73.8396 55.9558 74.5118C55.8659 75.1839 55.6276 75.7613 55.2408 76.2441C54.8541 76.7268 54.3456 77.0784 53.7155 77.2988C53.3427 77.4291 52.9745 77.4968 52.6109 77.5018C52.2449 77.5077 51.8943 77.4511 51.5591 77.3321C51.2247 77.2156 50.9183 77.0377 50.6396 76.7985C50.3618 76.5617 50.1252 76.2631 49.9296 75.9025Z" stroke="#535352" stroke-width="2" mask="url(#path-1-outside-1_19_129)"/>
<path d="M44.9668 72.5547C45.3358 72.51 45.6791 72.5394 45.9966 72.643C46.3145 72.7491 46.5778 72.9251 46.7867 73.171C46.9959 73.4195 47.1233 73.7347 47.1689 74.1167C47.2091 74.4528 47.1759 74.7332 47.0694 74.958C46.9633 75.1853 46.8074 75.3721 46.6018 75.5184C46.3962 75.6648 46.1641 75.7833 45.9057 75.8741C45.6451 75.9677 45.3817 76.0487 45.1155 76.1172C44.7671 76.2059 44.4843 76.2751 44.2672 76.3247C44.0478 76.3771 43.891 76.4387 43.7969 76.5096C43.7003 76.5807 43.6606 76.6888 43.678 76.834L43.6816 76.8645C43.7267 77.2414 43.864 77.5218 44.0937 77.7058C44.3209 77.8901 44.6405 77.9572 45.0525 77.9073C45.4796 77.8555 45.8033 77.7207 46.0234 77.5028C46.2436 77.2849 46.3901 77.0631 46.4632 76.8372L47.349 77.0398C47.2399 77.4147 47.0709 77.7168 46.8418 77.946C46.6106 78.1782 46.3493 78.3519 46.0579 78.4674C45.7643 78.5856 45.4709 78.6625 45.1777 78.6981C44.9907 78.7208 44.7731 78.7239 44.525 78.7075C44.2746 78.6939 44.0275 78.6322 43.7835 78.5223C43.5371 78.4127 43.3215 78.2283 43.1366 77.9691C42.9518 77.7099 42.8316 77.3474 42.7759 76.8814L42.314 73.0159L43.2088 72.9074L43.3037 73.7019L43.3492 73.6964C43.3947 73.5617 43.4795 73.4132 43.6037 73.2509C43.7279 73.0886 43.9015 72.9423 44.1244 72.8119C44.3473 72.6815 44.6281 72.5958 44.9668 72.5547ZM44.927 73.381C44.5732 73.424 44.2833 73.5302 44.0574 73.6996C43.8289 73.8694 43.666 74.0726 43.5686 74.3091C43.4687 74.546 43.4333 74.7867 43.4626 75.0311L43.5611 75.8562C43.5936 75.8057 43.672 75.7536 43.7963 75.6998C43.9184 75.6488 44.0612 75.5992 44.2247 75.5509C44.386 75.5056 44.5437 75.4632 44.698 75.4238C44.8501 75.3873 44.9734 75.3568 45.0679 75.3324C45.2968 75.2737 45.5082 75.1977 45.7022 75.1044C45.894 75.014 46.0438 74.8938 46.1515 74.7438C46.257 74.5967 46.296 74.4085 46.2687 74.1793C46.2312 73.8661 46.0879 73.6433 45.8388 73.5107C45.5873 73.3811 45.2834 73.3378 44.927 73.381Z" stroke="#535352" stroke-width="2" mask="url(#path-1-outside-1_19_129)"/>
<path d="M39.6912 72.8025L39.1941 78.6905L38.3273 78.6077L38.4024 77.7184L38.3416 77.7126C38.2105 77.9937 37.9979 78.2117 37.7038 78.3665C37.4097 78.5214 37.0878 78.5821 36.738 78.5487C36.6721 78.5424 36.5898 78.5332 36.4912 78.5212C36.3926 78.5092 36.3181 78.4982 36.2679 78.4883L36.3455 77.5683C36.3753 77.5789 36.444 77.597 36.5517 77.6228C36.6567 77.6508 36.7687 77.6705 36.8878 77.6819C37.1717 77.709 37.4302 77.6732 37.6634 77.5744C37.8938 77.4779 38.0825 77.331 38.2295 77.1338C38.3737 76.9389 38.457 76.7086 38.4794 76.4428L38.794 72.7168L39.6912 72.8025Z" stroke="#535352" stroke-width="2" mask="url(#path-1-outside-1_19_129)"/>
<path d="M32.9171 75.2707L33.9271 71.8646L34.786 72.1399L33.1069 77.8019L32.2772 77.536L32.5395 76.6513L32.4667 76.6279C32.2505 76.8735 31.983 77.0407 31.6644 77.1297C31.3451 77.2211 30.9743 77.1992 30.5522 77.0639C30.1737 76.9426 29.8659 76.7578 29.6287 76.5096C29.3907 76.2638 29.2399 75.9571 29.1762 75.5895C29.1118 75.2245 29.151 74.8011 29.2939 74.3194L30.3608 70.7217L31.2196 70.9969L30.1702 74.5357C30.0383 74.9805 30.0496 75.3635 30.204 75.6848C30.3577 76.0085 30.6335 76.2342 31.0314 76.3617C31.3055 76.4496 31.5684 76.4679 31.8201 76.4167C32.0693 76.3647 32.29 76.243 32.4822 76.0516C32.6745 75.8603 32.8194 75.6 32.9171 75.2707Z" stroke="#535352" stroke-width="2" mask="url(#path-1-outside-1_19_129)"/>
<path d="M26.5379 68.5605C27.0284 68.8433 27.392 69.1978 27.6288 69.6238C27.8621 70.0509 27.9673 70.5193 27.9446 71.0291C27.9185 71.54 27.7621 72.0614 27.4755 72.5934C27.1889 73.1253 26.8413 73.5394 26.4327 73.8356C26.0206 74.1328 25.5821 74.2964 25.1169 74.3266C24.6484 74.3578 24.1843 74.2409 23.7247 73.9758C23.4596 73.8229 23.222 73.6269 23.0121 73.3876C22.8022 73.1484 22.6458 72.8662 22.543 72.541C22.4389 72.2181 22.4132 71.8546 22.4658 71.4506C22.5184 71.0466 22.6752 70.6023 22.9363 70.1176L23.1185 69.7795L27.0426 72.0423L26.671 72.7321L23.5423 70.928C23.3844 71.221 23.301 71.5156 23.292 71.8118C23.2808 72.1067 23.3444 72.3812 23.4826 72.6352C23.6187 72.888 23.8281 73.0959 24.1109 73.259C24.4225 73.4387 24.7345 73.5152 25.0471 73.4887C25.3563 73.4631 25.639 73.3602 25.8953 73.1801C26.1517 72.9999 26.3569 72.7667 26.5112 72.4804L26.7589 72.0206C26.9702 71.6284 27.0831 71.2576 27.0974 70.9084C27.1084 70.5602 27.0328 70.2463 26.8707 69.9667C26.7073 69.6893 26.4677 69.4595 26.1517 69.2773C25.9462 69.1588 25.7449 69.0811 25.5476 69.0442C25.3469 69.0082 25.1535 69.0149 24.9677 69.0643C24.7806 69.1159 24.6053 69.2128 24.4419 69.3549L23.8028 68.7028C24.0232 68.4872 24.2807 68.3343 24.5754 68.2443C24.8689 68.1564 25.1835 68.1369 25.5192 68.1858C25.8536 68.2368 26.1932 68.3617 26.5379 68.5605Z" stroke="#535352" stroke-width="2" mask="url(#path-1-outside-1_19_129)"/>
<path d="M16.9407 66.9856L17.6928 67.3538C17.6432 67.4914 17.6141 67.6424 17.6055 67.8066C17.5933 67.9711 17.6226 68.142 17.6933 68.3193C17.7641 68.4965 17.8972 68.6732 18.0926 68.8493C18.3601 69.0904 18.6368 69.2279 18.9225 69.2618C19.2047 69.296 19.4276 69.2164 19.5911 69.0232C19.7365 68.8515 19.7906 68.6611 19.7534 68.4522C19.7162 68.2432 19.5967 67.9893 19.3948 67.6904L18.8846 66.9416C18.5763 66.4918 18.4114 66.08 18.3899 65.7063C18.3668 65.3346 18.4882 64.9916 18.7542 64.6774C18.9722 64.4198 19.2393 64.2545 19.5553 64.1815C19.8694 64.1068 20.2041 64.1263 20.5594 64.24C20.9147 64.3538 21.2622 64.5637 21.6018 64.8698C22.0477 65.2716 22.3325 65.7037 22.4562 66.1661C22.58 66.6285 22.5188 67.086 22.2728 67.5386L21.4965 67.128C21.6406 66.8313 21.6795 66.5464 21.613 66.2732C21.5447 65.9983 21.3729 65.7369 21.0978 65.4889C20.7847 65.2068 20.4783 65.0511 20.1786 65.0218C19.8753 64.9928 19.642 65.0749 19.4784 65.2681C19.3462 65.4242 19.2887 65.6029 19.3057 65.804C19.3211 66.0071 19.4166 66.2342 19.5921 66.4852L20.1721 67.3175C20.4899 67.7758 20.6559 68.1921 20.6703 68.5663C20.6812 68.9408 20.5553 69.2831 20.2926 69.5934C20.0778 69.8471 19.8186 70.0091 19.5149 70.0795C19.2093 70.1481 18.8889 70.1294 18.5537 70.0235C18.2167 69.9158 17.8945 69.7235 17.5871 69.4465C17.1545 69.0566 16.8974 68.653 16.8159 68.2355C16.7325 67.8164 16.7741 67.3997 16.9407 66.9856Z" stroke="#535352" stroke-width="2" mask="url(#path-1-outside-1_19_129)"/>
<path d="M13.5561 54.876C13.7902 55.3943 13.8793 55.895 13.8234 56.3781C13.7642 56.86 13.5767 57.2994 13.2609 57.6963C12.9418 58.0919 12.5106 58.4189 11.9672 58.6773C11.4239 58.9357 10.8997 59.063 10.3946 59.0593C9.88611 59.0544 9.43391 58.9263 9.03794 58.675C8.63861 58.4225 8.32929 58.0535 8.10997 57.5679C7.98344 57.2878 7.90453 56.9892 7.87326 56.6723C7.84198 56.3554 7.87933 56.0356 7.98531 55.7129C8.08899 55.3914 8.28 55.0836 8.55833 54.7896C8.83667 54.4956 9.22333 54.2309 9.71833 53.9955L10.0637 53.8313L11.9363 57.9773L11.2318 58.3124L9.73876 55.0067C9.43947 55.1491 9.19981 55.3368 9.01981 55.5698C8.83875 55.8006 8.73039 56.0591 8.69473 56.3455C8.65801 56.6295 8.70713 56.9209 8.8421 57.2197C8.99077 57.5489 9.19999 57.7954 9.46976 57.9592C9.73617 58.1218 10.0261 58.2065 10.3397 58.2134C10.6532 58.2202 10.9562 58.1542 11.2486 58.0151L11.7183 57.7918C12.1189 57.6013 12.4268 57.3698 12.6421 57.0972C12.8541 56.8234 12.9757 56.526 13.0068 56.2049C13.0357 55.8849 12.9747 55.558 12.8239 55.2242C12.7259 55.0071 12.6074 54.8252 12.4684 54.6786C12.3261 54.5307 12.165 54.4216 11.985 54.3512C11.8027 54.2819 11.6036 54.2561 11.3878 54.2736L11.2482 53.3701C11.5532 53.3272 11.8518 53.3568 12.1441 53.4588C12.434 53.562 12.7013 53.7327 12.9459 53.9709C13.1882 54.2101 13.3916 54.5118 13.5561 54.876Z" stroke="#535352" stroke-width="2" mask="url(#path-1-outside-1_19_129)"/>
<path d="M5.95482 50.9344L7.98199 49.0096L5.33577 48.1724L5.10699 47.1516L8.38179 48.3479L10.8222 45.8216L11.051 46.8423L9.14289 48.7394L11.67 49.6043L11.8988 50.6251L8.63075 49.4588L6.1836 51.9551L5.95482 50.9344Z" stroke="#535352" stroke-width="2" mask="url(#path-1-outside-1_19_129)"/>
<path d="M11.5221 42.2495C11.5314 42.7829 11.4135 43.2525 11.1685 43.6583C10.9234 44.0615 10.5763 44.3789 10.1271 44.6103C9.67783 44.8391 9.15027 44.9574 8.54439 44.965C7.93343 44.9728 7.39816 44.868 6.9386 44.6507C6.479 44.4308 6.11971 44.1224 5.86073 43.7255C5.6017 43.3261 5.46755 42.8597 5.45827 42.3263C5.44899 41.7929 5.56688 41.3246 5.81195 40.9214C6.05696 40.5156 6.40537 40.1982 6.85717 39.9693C7.30892 39.7379 7.84028 39.6183 8.45125 39.6106C9.05712 39.6029 9.58859 39.709 10.0456 39.929C10.5027 40.1463 10.8607 40.4547 11.1197 40.8541C11.3787 41.251 11.5128 41.7161 11.5221 42.2495ZM10.7126 42.2598C10.7055 41.8546 10.5966 41.5225 10.3859 41.2636C10.1751 41.0046 9.90064 40.8144 9.56242 40.693C9.2242 40.5716 8.85908 40.5134 8.46704 40.5184C8.075 40.5233 7.71079 40.5908 7.3744 40.7207C7.03801 40.8507 6.76772 41.0478 6.56352 41.312C6.35932 41.5762 6.26075 41.9109 6.2678 42.3161C6.27484 42.7212 6.38502 43.0533 6.59831 43.3122C6.81161 43.5711 7.08864 43.7613 7.4294 43.8826C7.77016 44.004 8.13656 44.0622 8.5286 44.0572C8.92064 44.0523 9.28358 43.9848 9.61742 43.8549C9.95127 43.725 10.219 43.528 10.4207 43.2638C10.6223 42.9996 10.7196 42.6649 10.7126 42.2598ZM4.74761 42.7508L2.95948 41.8347L2.94101 40.7731L4.73369 41.9507L4.74761 42.7508Z" stroke="#535352" stroke-width="2" mask="url(#path-1-outside-1_19_129)"/>
<path d="M6.49307 33.0127L7.24139 33.1666L6.67496 36.1754L5.92663 36.0214L6.49307 33.0127ZM4.71481 34.8613L4.88274 33.9692L10.3605 35.0961C10.6099 35.1474 10.8039 35.1493 10.9424 35.1019C11.0788 35.0514 11.1792 34.9726 11.2434 34.8654C11.3056 34.7552 11.349 34.6346 11.3737 34.5035C11.3922 34.4053 11.4024 34.3236 11.4043 34.2586C11.4037 34.193 11.4032 34.1405 11.4028 34.1012L12.2302 34.0829C12.2413 34.148 12.2478 34.2371 12.2499 34.35C12.2544 34.4635 12.241 34.6034 12.2097 34.7697C12.1623 35.0217 12.0622 35.2576 11.9094 35.4775C11.757 35.6948 11.5562 35.8603 11.3068 35.9739C11.0579 36.0849 10.7663 36.1061 10.432 36.0373L4.71481 34.8613Z" stroke="#535352" stroke-width="2" mask="url(#path-1-outside-1_19_129)"/>
<path d="M13.6588 29.8656L8.28898 27.4876L8.63458 26.649L14.0044 29.0271L13.6588 29.8656ZM7.56974 26.6649C7.50238 26.8283 7.38952 26.945 7.23116 27.0149C7.07379 27.0825 6.91819 27.0822 6.76436 27.0141C6.61054 26.9459 6.50278 26.8296 6.44108 26.665C6.38035 26.4981 6.38367 26.3329 6.45104 26.1694C6.5184 26.006 6.63077 25.8905 6.78815 25.8229C6.9465 25.753 7.10259 25.7521 7.25642 25.8202C7.41024 25.8883 7.51751 26.0059 7.57824 26.1728C7.63994 26.3374 7.63711 26.5014 7.56974 26.6649Z" stroke="#535352" stroke-width="2" mask="url(#path-1-outside-1_19_129)"/>
<path d="M17.1044 23.7256C16.7933 24.1824 16.4201 24.4992 15.9848 24.676C15.5495 24.8528 15.0866 24.8957 14.596 24.8047C14.1055 24.7137 13.6228 24.4956 13.1479 24.1504C12.6648 23.7992 12.3005 23.3984 12.0548 22.9479C11.8085 22.4937 11.6928 22.027 11.7075 21.5476C11.7217 21.0646 11.8786 20.6032 12.1782 20.1633C12.4115 19.8207 12.6838 19.557 12.9949 19.3721C13.3061 19.1873 13.6329 19.0881 13.9754 19.0747C14.3179 19.0613 14.6523 19.1414 14.9784 19.3153L14.4684 20.0639C14.2127 19.9634 13.9343 19.9507 13.6331 20.0258C13.3313 20.0973 13.068 20.298 12.8433 20.6279C12.6445 20.9197 12.5446 21.2296 12.5434 21.5576C12.5416 21.882 12.6331 22.2031 12.818 22.5209C13.0022 22.835 13.2739 23.1227 13.6331 23.3838C14.0006 23.6509 14.3609 23.8244 14.7141 23.9041C15.0687 23.9816 15.3956 23.9663 15.6946 23.858C15.9952 23.7476 16.2463 23.5444 16.4479 23.2484C16.5805 23.0538 16.6677 22.8532 16.7097 22.6466C16.7517 22.4399 16.7482 22.2366 16.6992 22.0366C16.6502 21.8366 16.5549 21.6503 16.4132 21.4777L16.9231 20.7291C17.1751 20.9755 17.3567 21.264 17.4679 21.5947C17.5785 21.9217 17.607 22.2696 17.5533 22.6385C17.4989 23.0037 17.3493 23.3661 17.1044 23.7256Z" stroke="#535352" stroke-width="2" mask="url(#path-1-outside-1_19_129)"/>
<path d="M21.3256 18.4009C21.0561 18.6587 20.7644 18.8404 20.4506 18.9461C20.1351 19.0499 19.8229 19.0639 19.514 18.988C19.2035 18.9103 18.9199 18.729 18.6633 18.4441C18.4374 18.1933 18.3024 17.9442 18.2581 17.6966C18.2121 17.4471 18.2293 17.2009 18.3095 16.958C18.3897 16.7151 18.5071 16.4791 18.6616 16.25C18.8162 16.0172 18.9804 15.793 19.154 15.5775C19.3816 15.296 19.5681 15.07 19.7133 14.8992C19.8587 14.7248 19.9486 14.5805 19.9831 14.4661C20.0195 14.35 19.9889 14.2379 19.8914 14.1296L19.8709 14.1068C19.6177 13.8257 19.3462 13.6788 19.0563 13.6661C18.7684 13.6516 18.4739 13.7883 18.173 14.0761C17.8609 14.3746 17.6796 14.6788 17.629 14.9889C17.5783 15.299 17.5888 15.5683 17.6605 15.7967L16.8349 16.1621C16.7062 15.7902 16.6674 15.4419 16.7186 15.1172C16.7699 14.7887 16.8789 14.49 17.0456 14.221C17.2124 13.9483 17.4029 13.7095 17.6171 13.5047C17.7537 13.374 17.926 13.241 18.1341 13.1056C18.3422 12.9666 18.5756 12.8689 18.8341 12.8126C19.0945 12.7544 19.3733 12.7759 19.6706 12.877C19.9678 12.9781 20.273 13.2024 20.586 13.55L23.1829 16.4334L22.5293 17.0586L21.9956 16.4659L21.9623 16.4977C22.0036 16.6351 22.0212 16.8074 22.0154 17.0145C22.0095 17.2217 21.9549 17.4454 21.8516 17.6856C21.7484 17.9258 21.573 18.1642 21.3256 18.4009ZM20.8813 17.7015C21.1398 17.4542 21.3106 17.1936 21.3938 16.9196C21.4788 16.6438 21.4921 16.3801 21.4337 16.1283C21.3772 15.8747 21.2668 15.6568 21.1026 15.4744L20.5483 14.859C20.5514 14.9197 20.5187 15.0093 20.4502 15.1278C20.3818 15.2427 20.2961 15.3689 20.1931 15.5064C20.0902 15.6401 19.9884 15.7694 19.8876 15.8941C19.7869 16.0151 19.7058 16.1139 19.6442 16.1905C19.4949 16.3758 19.3695 16.5647 19.2679 16.7572C19.1666 16.9461 19.116 17.1342 19.1162 17.3214C19.1165 17.5049 19.1937 17.6822 19.3476 17.8531C19.558 18.0868 19.8011 18.1831 20.0769 18.142C20.3529 18.0973 20.621 17.9505 20.8813 17.7015Z" stroke="#535352" stroke-width="2" mask="url(#path-1-outside-1_19_129)"/>
<path d="M27.4861 10.0083L26.7785 10.474C26.6918 10.359 26.583 10.2549 26.4523 10.1619C26.3233 10.0656 26.1668 10.0023 25.9827 9.97178C25.7987 9.9413 25.5816 9.96563 25.3314 10.0448C24.9889 10.1531 24.7269 10.3233 24.5453 10.5555C24.3655 10.7844 24.3112 11.0206 24.3824 11.2642C24.4458 11.4807 24.5735 11.6271 24.7656 11.7034C24.9578 11.7797 25.2313 11.8074 25.5861 11.7866L26.4772 11.7304C27.0136 11.6952 27.4415 11.7654 27.7609 11.9412C28.0797 12.1146 28.2969 12.3993 28.4128 12.7954C28.5078 13.1201 28.5004 13.4396 28.3906 13.7539C28.2833 14.0674 28.0873 14.3498 27.8025 14.6011C27.5178 14.8525 27.1581 15.0469 26.7233 15.1844C26.1525 15.365 25.6433 15.389 25.1959 15.2563C24.7484 15.1237 24.4044 14.8321 24.1637 14.3814L24.9194 13.9166C25.0864 14.197 25.3002 14.3793 25.561 14.4635C25.8243 14.5469 26.132 14.5329 26.4842 14.4215C26.885 14.2947 27.178 14.1079 27.3632 13.8612C27.5501 13.6112 27.608 13.3644 27.5368 13.1209C27.4792 12.9241 27.363 12.7807 27.1881 12.6909C27.0125 12.5986 26.7741 12.5638 26.4729 12.5865L25.4754 12.6602C24.9269 12.6993 24.4947 12.6277 24.1786 12.4455C23.8643 12.26 23.6499 11.9716 23.5355 11.5805C23.442 11.2606 23.4479 10.9497 23.5532 10.6476C23.661 10.3447 23.8486 10.0743 24.1161 9.83653C24.386 9.59795 24.7177 9.41642 25.1112 9.29195C25.665 9.11677 26.1357 9.10224 26.5235 9.24838C26.9136 9.39375 27.2345 9.64704 27.4861 10.0083Z" stroke="#535352" stroke-width="2" mask="url(#path-1-outside-1_19_129)"/>
<path d="M41.5 15.5H40.5C25.5883 15.5 13.5 27.5883 13.5 42.5C13.5 57.4117 25.5883 69.5 40.5 69.5H41.5C56.4117 69.5 68.5 57.4117 68.5 42.5C68.5 27.5883 56.4117 15.5 41.5 15.5Z" stroke="white"/>
</svg>
