<svg width="27" height="15" viewBox="0 0 27 15" fill="none" xmlns="http://www.w3.org/2000/svg">
<path d="M26.9808 12.7075C26.9762 12.193 26.5198 11.7811 25.959 11.7854L11.7704 11.8929C11.2096 11.8972 10.7606 12.3159 10.7651 12.8304C10.7697 13.3449 11.2261 13.7568 11.7869 13.7526L25.9755 13.645C26.5363 13.6408 26.9853 13.222 26.9808 12.7075ZM15.0663 2.56913L11.688 2.59474C11.1272 2.59899 10.6708 2.1871 10.6663 1.6726C10.6617 1.1581 11.1107 0.73935 11.6715 0.735099L15.0498 0.709493C15.6106 0.705242 16.0669 1.11713 16.0715 1.63163C16.076 2.14613 15.627 2.56488 15.0663 2.56913ZM20.5209 8.10707L11.7374 8.17364C11.1766 8.17789 10.7203 7.76601 10.7157 7.25151C10.7112 6.73701 11.1602 6.31826 11.721 6.31401L20.5044 6.24743C21.0652 6.24318 21.5216 6.65507 21.5261 7.16957C21.5307 7.68407 21.0817 8.10281 20.5209 8.10707Z" fill="#8A8787"/>
<path d="M6.5202 14.4545L9.16209 12.0555C9.22542 11.9978 9.27569 11.9293 9.30999 11.8537C9.34429 11.7782 9.36195 11.6972 9.36195 11.6153C9.36195 11.5335 9.34429 11.4525 9.30999 11.3769C9.27569 11.3014 9.22542 11.2328 9.16209 11.1752C9.03549 11.0598 8.86424 10.9949 8.68574 10.9949C8.50724 10.9949 8.33598 11.0598 8.20939 11.1752L5.78372 13.3821L5.78372 0.742305C5.78372 0.577898 5.71253 0.420224 5.58582 0.30397C5.4591 0.187717 5.28724 0.122406 5.10804 0.122406C4.92884 0.122406 4.75698 0.187717 4.63027 0.30397C4.50356 0.420224 4.43237 0.577898 4.43237 0.742305L4.43237 13.4192L1.99318 11.1752C1.93037 11.1171 1.85564 11.071 1.7733 11.0395C1.69097 11.008 1.60265 10.9918 1.51345 10.9918C1.42426 10.9918 1.33594 11.008 1.25361 11.0395C1.17127 11.071 1.09654 11.1171 1.03372 11.1752C0.970395 11.2328 0.920129 11.3014 0.885825 11.3769C0.851522 11.4525 0.833862 11.5335 0.833862 11.6153C0.833862 11.6972 0.851522 11.7782 0.885825 11.8537C0.920129 11.9293 0.970395 11.9978 1.03372 12.0555L3.65534 14.4545C4.03541 14.8027 4.55061 14.9984 5.08777 14.9984C5.62493 14.9984 6.14013 14.8027 6.5202 14.4545Z" fill="#8A8787"/>
</svg>
