<svg width="1440" height="676" viewBox="0 0 1440 676" fill="none" xmlns="http://www.w3.org/2000/svg">
<path d="M0 1.00059H1440V633.282H0V1.00059Z" fill="#1E1E1E"/>
<path d="M1122.3 320.079C1070.77 271.66 1068.23 190.618 1116.63 139.068L1440 459.705V633.282L1122.3 320.079Z" fill="url(#paint0_radial_89_6)"/>
<path d="M270.521 547.121C270.977 617.843 214.039 675.544 143.348 676L139 0.825082L266.997 0L270.521 547.121Z" fill="url(#paint1_radial_89_6)"/>
<path d="M786 46.0206C786 45.4681 786.448 45.0202 787 45.0202C787.552 45.0202 788 45.4681 788 46.0206V84.0376C788 84.5901 787.552 85.038 787 85.038C786.448 85.038 786 84.5901 786 84.0376V46.0206Z" fill="#D28B00"/>
<path d="M806 63.0282C806.552 63.0282 807 63.4761 807 64.0287C807 64.5812 806.552 65.0291 806 65.0291H768C767.448 65.0291 767 64.5812 767 64.0287C767 63.4761 767.448 63.0282 768 63.0282L806 63.0282Z" fill="#D28B00"/>
<path d="M726 113.05C726 112.498 726.448 112.05 727 112.05C727.552 112.05 728 112.498 728 113.05V151.067C728 151.62 727.552 152.068 727 152.068C726.448 152.068 726 151.62 726 151.067V113.05Z" fill="#D28B00"/>
<path d="M746 130.058C746.552 130.058 747 130.506 747 131.059C747 131.611 746.552 132.059 746 132.059H708C707.448 132.059 707 131.611 707 131.059C707 130.506 707.448 130.058 708 130.058H746Z" fill="#D28B00"/>
<path d="M824 160.071C824 159.519 824.448 159.071 825 159.071C825.552 159.071 826 159.519 826 160.071V198.088C826 198.641 825.552 199.089 825 199.089C824.448 199.089 824 198.641 824 198.088V160.071Z" fill="#D28B00"/>
<path d="M844 177.079C844.552 177.079 845 177.527 845 178.079C845 178.632 844.552 179.08 844 179.08H806C805.448 179.08 805 178.632 805 178.079C805 177.527 805.448 177.079 806 177.079H844Z" fill="#D28B00"/>
<path d="M39 580.259C39 579.706 39.4477 579.258 40 579.258C40.5523 579.258 41 579.706 41 580.259V618.276C41 618.828 40.5523 619.276 40 619.276C39.4477 619.276 39 618.828 39 618.276V580.259Z" fill="#D28B00"/>
<path d="M59 597.266C59.5523 597.266 60 597.714 60 598.267C60 598.819 59.5523 599.267 59 599.267H21C20.4477 599.267 20 598.819 20 598.267C20 597.714 20.4477 597.266 21 597.266H59Z" fill="#D28B00"/>
<path d="M40 65.0291C40 64.4766 40.4477 64.0287 41 64.0287C41.5523 64.0287 42 64.4766 42 65.0291V103.046C42 103.599 41.5523 104.046 41 104.046C40.4477 104.046 40 103.599 40 103.046V65.0291Z" fill="#D28B00"/>
<path d="M60 82.0367C60.5523 82.0367 61 82.4846 61 83.0371C61 83.5897 60.5523 84.0376 60 84.0376H22C21.4477 84.0376 21 83.5897 21 83.0371C21 82.4846 21.4477 82.0367 22 82.0367H60Z" fill="#D28B00"/>
<path d="M1388 25.0113C1388 24.4587 1388.45 24.0108 1389 24.0108C1389.55 24.0108 1390 24.4587 1390 25.0113V63.0282C1390 63.5807 1389.55 64.0287 1389 64.0287C1388.45 64.0287 1388 63.5807 1388 63.0282V25.0113Z" fill="#D28B00"/>
<path d="M1408 42.0189C1408.55 42.0189 1409 42.4668 1409 43.0193C1409 43.5718 1408.55 44.0197 1408 44.0197L1370 44.0197C1369.45 44.0197 1369 43.5718 1369 43.0193C1369 42.4668 1369.45 42.0189 1370 42.0189L1408 42.0189Z" fill="#D28B00"/>
<path d="M1221 153.068C1221 152.516 1221.45 152.068 1222 152.068C1222.55 152.068 1223 152.516 1223 153.068V191.085C1223 191.638 1222.55 192.086 1222 192.086C1221.45 192.086 1221 191.638 1221 191.085V153.068Z" fill="#D28B00"/>
<path d="M1241 170.076C1241.55 170.076 1242 170.524 1242 171.076C1242 171.629 1241.55 172.077 1241 172.077H1203C1202.45 172.077 1202 171.629 1202 171.076C1202 170.524 1202.45 170.076 1203 170.076H1241Z" fill="#D28B00"/>
<defs>
<radialGradient id="paint0_radial_89_6" cx="0" cy="0" r="1" gradientUnits="userSpaceOnUse" gradientTransform="translate(720 338) rotate(90) scale(338 720)">
<stop stop-color="#D28B00"/>
<stop offset="0.584075" stop-color="#B98727"/>
</radialGradient>
<radialGradient id="paint1_radial_89_6" cx="0" cy="0" r="1" gradientUnits="userSpaceOnUse" gradientTransform="translate(720 338) rotate(90) scale(338 720)">
<stop stop-color="#D28B00"/>
<stop offset="1" stop-color="#CD8F17"/>
</radialGradient>
</defs>
</svg>
