<svg width="8" height="7" viewBox="0 0 8 7" fill="none" xmlns="http://www.w3.org/2000/svg">
<path d="M0 0.5C0 0.223858 0.223858 0 0.5 0H7.5C7.77614 0 8 0.223858 8 0.5C8 0.776142 7.77614 1 7.5 1H0.5C0.223858 1 0 0.776142 0 0.5Z" fill="white"/>
<path d="M0 3.5C0 3.22386 0.223858 3 0.5 3H7.5C7.77614 3 8 3.22386 8 3.5C8 3.77614 7.77614 4 7.5 4H0.5C0.223858 4 0 3.77614 0 3.5Z" fill="white"/>
<path d="M0 6.5C0 6.22386 0.223858 6 0.5 6H7.5C7.77614 6 8 6.22386 8 6.5C8 6.77614 7.77614 7 7.5 7H0.5C0.223858 7 0 6.77614 0 6.5Z" fill="white"/>
</svg>
