<svg width="25" height="25" viewBox="0 0 25 25" fill="none" xmlns="http://www.w3.org/2000/svg">
<path d="M22.27 2.09418L21.15 1.12575C20.13 0.117783 18.4 0.0683732 17.3 1.17516L15.43 3.59625C14.38 4.63386 14.38 6.32368 15.43 7.35141L16.92 8.86336C15.3 12.6185 12.31 15.5831 8.62998 17.0654L7.09998 15.593C6.58998 15.089 5.91998 14.8123 5.19998 14.8123C4.47998 14.8123 3.80998 15.089 3.34998 15.5535L0.809976 17.4903C-0.240023 18.528 -0.240023 20.2178 0.789976 21.2257L1.80998 22.3819C2.90998 23.469 4.38998 24.0718 5.99998 24.0718C13.75 24.0718 24.02 13.9131 24.02 6.26439C24.02 4.68327 23.41 3.21085 22.29 2.10407L22.27 2.09418ZM5.97998 23.0737C4.63998 23.0737 3.40998 22.5796 2.51998 21.7001L1.49998 20.534C0.839976 19.8818 0.839977 18.8244 1.44998 18.2117L3.98998 16.2749C4.30998 15.9586 4.72998 15.7808 5.18998 15.7808C5.64998 15.7808 6.06998 15.9586 6.38998 16.2749L8.15998 17.9844C8.29998 18.1228 8.49998 18.1623 8.68998 18.0931C12.86 16.5219 16.25 13.1719 17.98 8.92265C18.05 8.74477 18.01 8.53725 17.87 8.38902L16.14 6.63991C15.48 5.98769 15.48 4.93032 16.18 4.2287L18.05 1.80761C18.71 1.15539 19.78 1.15539 20.47 1.82737L21.59 2.79581C22.5 3.69507 23 4.91056 23 6.23475C23 13.3103 13.14 23.0539 5.97998 23.0539V23.0737Z" fill="white"/>
</svg>
