<svg width="20" height="20" viewBox="0 0 20 20" fill="none" xmlns="http://www.w3.org/2000/svg">
<g clip-path="url(#clip0_5_102)">
<path d="M5.83334 20C5.72367 20.0006 5.61495 19.9796 5.51342 19.9381C5.41189 19.8967 5.31954 19.8356 5.24168 19.7583C5.16357 19.6809 5.10157 19.5887 5.05927 19.4872C5.01696 19.3856 4.99518 19.2767 4.99518 19.1667C4.99518 19.0567 5.01696 18.9477 5.05927 18.8462C5.10157 18.7446 5.16357 18.6525 5.24168 18.575L12.05 11.7667C12.5182 11.2979 12.7811 10.6625 12.7811 10C12.7811 9.3375 12.5182 8.70209 12.05 8.23334L5.24168 1.42501C5.08476 1.26809 4.9966 1.05526 4.9966 0.83334C4.9966 0.611422 5.08476 0.398593 5.24168 0.241674C5.3986 0.0847539 5.61143 -0.00340271 5.83334 -0.00340271C6.05526 -0.00340271 6.26809 0.0847539 6.42501 0.241674L13.2333 7.05001C13.6214 7.43705 13.9292 7.89685 14.1393 8.40306C14.3493 8.90927 14.4575 9.45195 14.4575 10C14.4575 10.5481 14.3493 11.0907 14.1393 11.597C13.9292 12.1032 13.6214 12.563 13.2333 12.95L6.42501 19.7583C6.34714 19.8356 6.2548 19.8967 6.15327 19.9381C6.05173 19.9796 5.94302 20.0006 5.83334 20Z" fill="white"/>
</g>
<defs>
<clipPath id="clip0_5_102">
<rect width="20" height="20" fill="white"/>
</clipPath>
</defs>
</svg>
