<svg width="25" height="25" viewBox="0 0 25 25" fill="none" xmlns="http://www.w3.org/2000/svg">
<g clip-path="url(#clip0_3_269)">
<path d="M24.6948 23.2219L18.4771 17.0042C20.1715 14.9319 21.0046 12.2876 20.804 9.61831C20.6034 6.94901 19.3846 4.4589 17.3996 2.66306C15.4145 0.867215 12.8152 -0.0969702 10.1392 -0.0300621C7.46322 0.0368461 4.91532 1.12973 3.02252 3.02253C1.12971 4.91533 0.0368308 7.46324 -0.0300773 10.1392C-0.0969855 12.8152 0.8672 15.4146 2.66304 17.3996C4.45889 19.3846 6.94899 20.6035 9.61829 20.804C12.2876 21.0046 14.9319 20.1715 17.0042 18.4771L23.2219 24.6948C23.4183 24.8846 23.6815 24.9896 23.9546 24.9872C24.2277 24.9848 24.489 24.8753 24.6821 24.6821C24.8752 24.489 24.9848 24.2277 24.9872 23.9546C24.9895 23.6815 24.8845 23.4184 24.6948 23.2219ZM10.4167 18.75C8.76849 18.75 7.15733 18.2613 5.78692 17.3456C4.41651 16.4299 3.3484 15.1284 2.71767 13.6057C2.08694 12.083 1.92191 10.4074 2.24346 8.79093C2.565 7.17442 3.35867 5.68956 4.52411 4.52413C5.68955 3.35869 7.17441 2.56502 8.79092 2.24347C10.4074 1.92193 12.083 2.08696 13.6057 2.71769C15.1284 3.34842 16.4299 4.41652 17.3456 5.78693C18.2613 7.15734 18.75 8.76851 18.75 10.4167C18.7475 12.6261 17.8687 14.7442 16.3065 16.3065C14.7442 17.8688 12.626 18.7475 10.4167 18.75Z" fill="#E2DADA"/>
</g>
<defs>
<clipPath id="clip0_3_269">
<rect width="25" height="25" fill="white"/>
</clipPath>
</defs>
</svg>
