<svg width="1112" height="574" viewBox="0 0 1112 574" fill="none" xmlns="http://www.w3.org/2000/svg">
<path d="M795.309 1.03826C795.309 0.464844 795.773 0 796.347 0C796.92 0 797.385 0.464846 797.385 1.03826V38.9617C797.385 39.5352 796.92 40 796.347 40C795.773 40 795.309 39.5352 795.309 38.9617V1.03826Z" fill="#D28B00"/>
<path d="M816.112 18C816.664 18 817.112 18.4477 817.112 19C817.112 19.5523 816.664 20 816.112 20L776.582 20C776.029 20 775.582 19.5523 775.582 19C775.582 18.4477 776.029 18 776.582 18L816.112 18Z" fill="#D28B00"/>
<path d="M733.013 68.0383C733.013 67.4648 733.478 67 734.051 67C734.625 67 735.089 67.4648 735.089 68.0383V105.962C735.089 106.535 734.625 107 734.051 107C733.478 107 733.013 106.535 733.013 105.962V68.0383Z" fill="#D28B00"/>
<path d="M753.816 85C754.369 85 754.816 85.4477 754.816 86C754.816 86.5523 754.369 87 753.816 87H714.286C713.734 87 713.286 86.5523 713.286 86C713.286 85.4477 713.734 85 714.286 85H753.816Z" fill="#D28B00"/>
<path d="M484.868 238.039C484.868 237.465 485.333 237 485.907 237C486.48 237 486.945 237.465 486.945 238.039V275.962C486.945 276.536 486.48 277 485.907 277C485.333 277 484.868 276.536 484.868 275.962V238.039Z" fill="#D28B00"/>
<path d="M505.672 255C506.224 255 506.672 255.448 506.672 256C506.672 256.553 506.224 257 505.672 257H466.141C465.589 257 465.141 256.553 465.141 256C465.141 255.448 465.589 255 466.141 255H505.672Z" fill="#D28B00"/>
<path d="M19.727 535.039C19.727 534.465 20.1918 534.001 20.7652 534.001C21.3386 534.001 21.8035 534.465 21.8035 535.039V572.962C21.8035 573.536 21.3386 574.001 20.7652 574.001C20.1918 574.001 19.727 573.536 19.727 572.962V535.039Z" fill="#D28B00"/>
<path d="M40.5305 552.001C41.0828 552.001 41.5305 552.448 41.5305 553.001C41.5305 553.553 41.0828 554.001 40.5305 554.001H1C0.447712 554.001 -2.50648e-08 553.553 0 553.001C2.50648e-08 552.448 0.447716 552.001 1 552.001H40.5305Z" fill="#D28B00"/>
<path d="M20.7653 20.0383C20.7653 19.4648 21.2301 19 21.8036 19C22.377 19 22.8418 19.4648 22.8418 20.0383V57.9617C22.8418 58.5352 22.377 59 21.8036 59C21.2301 59 20.7653 58.5352 20.7653 57.9617V20.0383Z" fill="#D28B00"/>
<path d="M41.5688 37C42.1211 37 42.5688 37.4477 42.5688 38C42.5688 38.5523 42.1211 39 41.5688 39H2.03833C1.48604 39 1.03833 38.5523 1.03833 38C1.03833 37.4477 1.48605 37 2.03833 37H41.5688Z" fill="#D28B00"/>
<path d="M657.22 481.039C657.22 480.465 657.685 480 658.258 480C658.831 480 659.296 480.465 659.296 481.039V518.962C659.296 519.536 658.831 520 658.258 520C657.685 520 657.22 519.536 657.22 518.962V481.039Z" fill="#D28B00"/>
<path d="M678.023 498C678.576 498 679.023 498.448 679.023 499C679.023 499.553 678.576 500 678.023 500H638.493C637.941 500 637.493 499.553 637.493 499C637.493 498.448 637.941 498 638.493 498H678.023Z" fill="#D28B00"/>
<path d="M397.654 55.0385C397.654 54.4651 398.119 54.0002 398.693 54.0002C399.266 54.0002 399.731 54.4651 399.731 55.0385V92.962C399.731 93.5354 399.266 94.0002 398.693 94.0002C398.119 94.0002 397.654 93.5354 397.654 92.962V55.0385Z" fill="#D28B00"/>
<path d="M418.458 72.0002C419.01 72.0002 419.458 72.448 419.458 73.0002C419.458 73.5525 419.01 74.0002 418.458 74.0002H378.927C378.375 74.0002 377.927 73.5525 377.927 73.0002C377.927 72.448 378.375 72.0002 378.927 72.0002H418.458Z" fill="#D28B00"/>
</svg>
