<svg width="42" height="40" viewBox="0 0 42 40" fill="none" xmlns="http://www.w3.org/2000/svg">
<path d="M19.9849 1.03826C19.9849 0.464844 20.4498 0 21.0232 0C21.5966 0 22.0614 0.464846 22.0614 1.03826V38.9617C22.0614 39.5352 21.5966 40 21.0232 40C20.4498 40 19.9849 39.5352 19.9849 38.9617V1.03826Z" fill="#D28B00"/>
<path d="M40.7884 18C41.3407 18 41.7884 18.4477 41.7884 19C41.7884 19.5523 41.3407 20 40.7884 20L1.25793 20C0.705646 20 0.257935 19.5523 0.257935 19C0.257935 18.4477 0.70565 18 1.25793 18L40.7884 18Z" fill="#D28B00"/>
</svg>
