<svg width="50" height="50" viewBox="0 0 50 50" fill="none" xmlns="http://www.w3.org/2000/svg">
<g clip-path="url(#clip0_3_275)">
<path d="M25 0C11.2146 0 0 11.2146 0 25C0 38.7854 11.2146 50 25 50C38.7854 50 50 38.7854 50 25C50 11.2146 38.7854 0 25 0ZM14.5833 45.4104V38.5417C14.5833 36.8187 15.9854 35.4167 17.7083 35.4167H32.2917C34.0146 35.4167 35.4167 36.8187 35.4167 38.5417V45.4104C32.2896 47.0125 28.7479 47.9167 25 47.9167C21.2521 47.9167 17.7104 47.0125 14.5833 45.4104ZM37.5 44.1979V38.5417C37.5 35.6687 35.1625 33.3333 32.2917 33.3333H17.7083C14.8375 33.3333 12.5 35.6687 12.5 38.5417V44.1979C6.23333 40.1042 2.08333 33.0271 2.08333 25C2.08333 12.3646 12.3646 2.08333 25 2.08333C37.6354 2.08333 47.9167 12.3646 47.9167 25C47.9167 33.0271 43.7667 40.1042 37.5 44.1979ZM25 12.5C20.4042 12.5 16.6667 16.2375 16.6667 20.8333C16.6667 25.4292 20.4042 29.1667 25 29.1667C29.5958 29.1667 33.3333 25.4292 33.3333 20.8333C33.3333 16.2375 29.5958 12.5 25 12.5ZM25 27.0833C21.5542 27.0833 18.75 24.2792 18.75 20.8333C18.75 17.3875 21.5542 14.5833 25 14.5833C28.4458 14.5833 31.25 17.3875 31.25 20.8333C31.25 24.2792 28.4458 27.0833 25 27.0833Z" fill="#D8CFCF"/>
</g>
<defs>
<clipPath id="clip0_3_275">
<rect width="50" height="50" fill="white"/>
</clipPath>
</defs>
</svg>
